<?xml version="1.0" encoding="utf-8"?>
<!-- Generator: Adobe Illustrator 18.1.1, SVG Export Plug-In . SVG Version: 6.00 Build 0)  -->
<svg version="1.1" id="Layer_1" xmlns="http://www.w3.org/2000/svg" xmlns:xlink="http://www.w3.org/1999/xlink" x="0px" y="0px"
	 viewBox="0 0 55 70" style="enable-background:new 0 0 55 70;" xml:space="preserve">
<style type="text/css">
	.st0{fill:none;stroke:#FFFFFF;stroke-miterlimit:10;}
</style>
<g>
	<circle class="st0" cx="27.5" cy="28.4" r="26"/>
	<g>
		<path class="st0" d="M22.5,36.5l0.4-2.8c0.1-0.7,0.2-1.4,0.4-1.9c0.2-0.5,0.4-1,0.6-1.4c0.3-0.4,0.6-0.8,1-1.2
			c0.4-0.4,0.9-0.9,1.5-1.4l4.5-4c1-0.9,1.6-2,1.7-3.3c0.2-1.3-0.1-2.4-0.8-3.2c-0.7-0.8-1.8-1.2-3.1-1.2c-1.4,0-2.7,0.5-3.7,1.5
			c-1.1,1-1.8,2.1-2.1,3.5l-6.5-0.5c0.8-3.3,2.5-5.8,4.9-7.6c2.4-1.8,5.2-2.7,8.5-2.7c1.5,0,2.9,0.2,4.2,0.7
			c1.2,0.4,2.3,1.1,3.1,1.9c0.8,0.8,1.5,1.9,1.8,3.1c0.4,1.2,0.4,2.7,0.2,4.3c-0.2,1.1-0.5,2.1-0.9,3c-0.4,0.8-0.9,1.6-1.5,2.3
			c-0.6,0.7-1.3,1.4-2.1,2c-0.8,0.6-1.6,1.3-2.4,2c-0.5,0.4-1,0.8-1.4,1.2c-0.4,0.3-0.7,0.7-1,1c-0.3,0.4-0.5,0.8-0.7,1.2
			c-0.2,0.5-0.3,1-0.4,1.7l-0.3,1.9H22.5z M20.4,43.6c0.2-1.1,0.7-2,1.6-2.8c0.9-0.8,1.9-1.2,3-1.2c1.1,0,2,0.4,2.7,1.1
			c0.7,0.7,1,1.7,0.9,2.8c-0.2,1.1-0.7,2-1.6,2.8c-0.9,0.8-1.9,1.2-3,1.2c-0.5,0-1-0.1-1.5-0.3s-0.9-0.5-1.2-0.8
			c-0.3-0.3-0.6-0.7-0.7-1.2C20.4,44.6,20.4,44.1,20.4,43.6z"/>
	</g>
</g>
</svg>
