<?xml version="1.0" encoding="utf-8"?>
<!-- Generator: Adobe Illustrator 18.1.1, SVG Export Plug-In . SVG Version: 6.00 Build 0)  -->
<svg version="1.1" id="Layer_1" xmlns="http://www.w3.org/2000/svg" xmlns:xlink="http://www.w3.org/1999/xlink" x="0px" y="0px"
	 viewBox="0 0 60 80" style="enable-background:new 0 0 60 80;" xml:space="preserve">
<style type="text/css">
	.st0{fill:none;stroke:#FFFFFF;stroke-miterlimit:10;}
	.st1{fill:#FFFFFF;}
		#Layer_1 .st0 {
    -webkit-transition: .5s;
    -moz-transition: .5s;
    transition: .5s;
}

#Layer_1 .fill {
    -webkit-transition: .5s;
    -moz-transition: .5s;
    transition: .5s;
    fill: #ffffff;
}
#Layer_1:hover {
    cursor: pointer;
}
#Layer_1:hover .st0 {
    stroke: #0091ea;
}

#Layer_1:hover .fill {
    -webkit-transform: scale(258, 258);
    -moz-transform: scale(258, 258);
    transform: scale(258, 258);
}
</style>

<g transform="translate(30,30)"><circle class="fill" r="0.1"/></g>
<g>
	<circle class="st0" cx="30" cy="30" r="26"/>
	<g>
		<circle class="st0" cx="17" cy="30.4" r="3.5"/>
		<circle class="st0" cx="30" cy="30.4" r="3.5"/>
		<circle class="st0" cx="43" cy="30.4" r="3.5"/>
	</g>
</g>
<g>
	<path class="st1" d="M2.4,67.3v-1.1h5.3v1.1h-2v0.4c0,0.6,0.1,1.4,0.4,2.5c0.3,1.1,1,2.1,2.1,3L7.3,74c-0.4-0.3-0.8-0.7-1.3-1.4
		s-0.8-1.2-1-1.8c-0.2,0.6-0.5,1.2-0.9,1.8c-0.5,0.6-1,1.2-1.5,1.6l-1-0.8c1.3-1,2.1-2,2.4-3.2c0.3-1.2,0.4-2.1,0.4-2.6v-0.4H2.4z
		 M8.9,75.7v-5.6H7V69h1.9v-3.9h1.3v10.5H8.9z M11.3,76.2V64.9h1.3v11.3H11.3z"/>
	<path class="st1" d="M19.9,71.2c-0.5-0.1-1-0.4-1.6-0.8c-0.6-0.4-1.1-0.9-1.4-1.3c-0.2,0.5-0.6,1-1.2,1.4c-0.5,0.4-1.1,0.8-1.8,1.1
		l-0.9-0.9c1.2-0.5,2.1-1.1,2.5-1.7c0.4-0.6,0.7-1.3,0.7-2v-0.3h-2.4v-1.1H20v1.1h-2.4v0.3c0,0.7,0.2,1.3,0.7,1.9
		c0.5,0.6,1.2,1.1,2.3,1.4L19.9,71.2z M21.8,76.2v-2.8h-6.9v-1.1h8.1v3.9H21.8z M23.1,68.7v2.9h-1.3v-6.8h1.3v2.7h1.7v1.1H23.1z"/>
	<path class="st1" d="M31.3,71.4c-0.6-0.2-1.1-0.5-1.6-0.9c-0.5-0.4-0.9-0.9-1.3-1.3c-0.1,0.5-0.5,1-1.1,1.5
		c-0.6,0.5-1.2,0.9-1.8,1.2l-1-1c1.1-0.4,1.9-1,2.4-1.6c0.5-0.7,0.8-1.4,0.8-2.2v-0.3h-2.4v-1.1h6.2v1.1h-2.4V67
		c0,0.7,0.3,1.4,0.8,2c0.5,0.6,1.2,1,2.1,1.4L31.3,71.4z M26.7,76v-3.6H28v2.5h7.1V76H26.7z M33.6,73.1v-8.2h1.3v8.2H33.6z"/>
	<path class="st1" d="M36.4,76.6h-1.3l4.5-12h1.3L36.4,76.6z"/>
	<path class="st1" d="M48.5,75.1v-6.5l-0.1,0L46,75.1h-1.4l-2.3-6.6l-0.1,0v6.5h-1.1v-9h1.3l2.9,7.9l2.9-7.9h1.3v9H48.5z"/>
	<path class="st1" d="M57.1,68.7c-0.2-0.4-0.4-0.8-0.8-1.2c-0.4-0.4-1-0.6-1.8-0.6c-0.9,0-1.6,0.3-2.1,1c-0.5,0.7-0.8,1.6-0.8,2.7
		c0,1.2,0.3,2.1,0.8,2.8c0.5,0.7,1.2,1,2.1,1c0.8,0,1.4-0.2,1.8-0.7c0.4-0.4,0.7-0.9,0.8-1.4l1.3,0c-0.2,0.7-0.6,1.4-1.2,2.1
		c-0.6,0.7-1.5,1.1-2.7,1.1c-1.3,0-2.3-0.4-3.1-1.3c-0.7-0.9-1.1-2.1-1.1-3.5c0-1.4,0.4-2.6,1.1-3.5c0.7-0.9,1.8-1.3,3.1-1.3
		c1.2,0,2.2,0.3,2.8,1c0.6,0.7,1,1.3,1.1,1.9H57.1z"/>
</g>
</svg>
