<?xml version="1.0" encoding="utf-8"?>
<!-- Generator: Adobe Illustrator 18.1.1, SVG Export Plug-In . SVG Version: 6.00 Build 0)  -->
<svg version="1.1" id="Layer_1" xmlns="http://www.w3.org/2000/svg" xmlns:xlink="http://www.w3.org/1999/xlink" x="0px" y="0px"
	 viewBox="0 0 60 80" style="enable-background:new 0 0 60 80;" xml:space="preserve">
<style type="text/css">
	.i_st0{fill:#FFFFFF;}
	.i_st1{fill:none;stroke:#FFFFFF;stroke-miterlimit:10;}
	.i_st2{fill:#FFFFFF;stroke:#FFFFFF;}

	#Layer_1 .i_st1 {
    -webkit-transition: .5s;
    -moz-transition: .5s;
    transition: .5s;
}
#Layer_1 .i_st2 {
    -webkit-transition: .5s;
    -moz-transition: .5s;
    transition: .5s;
}
#Layer_1 .fill {
    -webkit-transition: .5s;
    -moz-transition: .5s;
    transition: .5s;
    fill: #ffffff;
}
#Layer_1:hover {
    cursor: pointer;
}
#Layer_1:hover .i_st1 {
    stroke: #0091ea;
}
#Layer_1:hover .i_st2 {
    stroke: #0091ea;
}
#Layer_1:hover .fill {
    -webkit-transform: scale(258, 258);
    -moz-transform: scale(258, 258);
    transform: scale(258, 258);
}
</style>
<a xlink:href="18s_page.html" target="_top">
<g transform="translate(29.3,30)"><circle class="fill" r="0.1"/></g>
<g>
	<path class="i_st0" d="M20.6,71.3c0.3,0.6,0.5,1.2,0.4,1.9c-0.1,0.9-0.5,1.6-1.3,2.3c-0.8,0.7-1.8,1-3.2,1c-1.4,0-2.6-0.5-3.4-1.4
		c-0.9-0.9-1.3-1.9-1.2-2.9h2.1c0,0.6,0.3,1.2,0.7,1.6c0.5,0.4,1.1,0.7,1.8,0.7c0.7,0,1.2-0.1,1.5-0.4c0.3-0.2,0.6-0.6,0.7-0.9
		c0.1-0.3,0-0.6-0.2-0.9c-0.2-0.3-0.4-0.5-0.7-0.6c-0.5-0.2-1-0.4-1.6-0.5c-0.5-0.1-1.1-0.2-1.6-0.5c-0.8-0.3-1.3-0.7-1.8-1.3
		c-0.4-0.5-0.6-1.2-0.5-1.9c0.1-0.7,0.4-1.4,1.1-2.1c0.7-0.7,1.7-1,3.1-1c1.5,0,2.6,0.5,3.3,1.4c0.7,0.9,1,1.8,0.9,2.5h-2.1
		c0-0.5-0.2-1-0.5-1.4c-0.3-0.4-0.8-0.6-1.6-0.6c-0.7,0-1.2,0.1-1.5,0.4s-0.4,0.6-0.4,0.9c0,0.4,0.1,0.6,0.4,0.9
		c0.3,0.2,0.6,0.4,0.9,0.5c0.4,0.1,0.9,0.3,1.5,0.4s1.2,0.3,1.8,0.6C19.8,70.3,20.3,70.7,20.6,71.3z"/>
	<path class="i_st0" d="M30.3,76l0-6.2l-0.1,0l-2,6.2h-2.4L24,69.9l-0.1,0v6l-2.1,0V64.8h2.4l2.9,8.4l2.8-8.4h2.6V76H30.3z"/>
	<path class="i_st0" d="M39.3,71.7c-1.3,0.1-2.8,0.1-4.5,0.1H33v-1.3h2.6v-2.9h1.5v2.9c0.5,0,1.4,0,2.7-0.1c1.2-0.1,2.2-0.2,2.8-0.3
		v1.2C41.7,71.5,40.6,71.6,39.3,71.7z M41.2,66.8c-0.1,1.1-0.3,1.9-0.5,2.5h-1.5c0-0.1,0.1-0.5,0.3-1.2c0.2-0.8,0.2-1.5,0.3-2.3
		h-5.8v-1.3h7.5C41.4,64.9,41.3,65.7,41.2,66.8z M35.3,76.8v-3.9h1.5v2.7h8.3v1.3H35.3z M44.7,69.3v4.3h-1.5v-9.9h1.5V68h1.9v1.3
		H44.7z"/>
</g>
<g>
	<circle class="i_st1" cx="29.3" cy="30" r="26"/>
	<path class="i_st2" d="M38,25c0.1,0.4-0.1,0.7-0.3,1.1c-0.5,0.9-1,1.9-1.4,2.8c-0.1,0.3-0.2,0.5-0.2,0.8c0,0.2,0.1,0.2,0.3,0.2
		c0.2,0,0.3-0.2,0.5-0.4c0.3-0.4,0.6-0.7,0.9-1.1c0.3-0.4,0.8-0.7,1.2-1c0.4-0.3,0.7-0.6,0.9-1c0.3-0.6,0.6-1.1,0.9-1.7
		c0.2-0.4,0.5-0.7,1-0.6c0.2,0,0.3,0,0.5,0c0.4,0,0.7,0.2,0.8,0.6c0.2,0.5,0.1,1,0.1,1.4c0,0.5-0.1,0.9-0.2,1.4
		c0,0.3-0.2,0.6-0.4,0.8c-1.1,1.3-1.7,2.9-2.1,4.6c-0.1,0.4-0.2,0.8-0.3,1.2c-0.1,0.3,0,0.6,0.1,0.8c0.3,0.4,0.6,0.7,1.1,0.8
		c1.1,0.3,2.1,0.4,3.2,0.5c1.3,0.1,2.6,0.1,3.8,0.4c0.3,0.1,0.5,0.2,0.8,0.3c0.2,0.1,0.3,0.2,0.5,0.3c0.2,0.2,0.4,0.3,0.7,0.4
		c0.7,0.3,1.5,0.5,2.2,0.7c0.2,0.1,0.4,0.2,0.6,0.3c0.3,0.2,0.4,0.5,0,0.7c-0.2,0.1-0.4,0.3-0.6,0.4c-0.1,0-0.1,0.1-0.1,0.1
		c-0.2,0.3-0.5,0.4-0.9,0.3c-0.2-0.1-0.4-0.2-0.6-0.4c-0.1-0.1-0.2-0.1-0.4-0.2c-0.8-0.1-1.4-0.5-2-0.9c-0.2-0.2-0.5-0.3-0.8-0.3
		c-0.4,0-0.7,0-1.1,0c-0.1,0-0.2,0-0.3-0.1c-0.4-0.6-1.1-0.7-1.8-0.9c-0.2,0-0.3-0.1-0.5-0.1c-0.2,0-0.4-0.1-0.6,0
		c-0.2,0-0.4-0.1-0.6-0.1c-0.5-0.1-1-0.1-1.5-0.1c-1.2,0-1.9-0.6-2.5-1.6c-0.4-0.7-0.5-1.4-0.6-2.1c0-0.6,0.2-1.1,0.4-1.6
		c0.3-0.7,0.6-1.5,0.9-2.2c0.1-0.1,0.1-0.3,0-0.4c-0.1-0.1-0.3-0.1-0.4,0c-0.5,0.2-0.9,0.6-1.2,1c-0.5,0.6-1,1.1-1.5,1.7
		c-0.8,0.8-1.6,1.6-2.4,2.4c-0.3,0.3-0.5,0.5-0.9,0.7c-0.2,0.1-0.4,0.2-0.7,0.1c-0.2,0-0.5-0.4-0.5-0.7c0-0.3-0.1-0.6,0-0.8
		c0.2-0.5,0.1-1.1,0.4-1.6c0.4-0.7,0.8-1.4,1.1-2.2c0.2-0.4,0.4-0.8,0.6-1.2c0.1-0.1,0.1-0.2,0-0.3c-0.1-0.1-0.2-0.1-0.4,0
		c-0.6,0.5-1.2,1-1.7,1.6c-0.4,0.4-0.6,0.9-0.8,1.5c-0.1,0.3-0.3,0.4-0.5,0.5c-0.9,0.7-1.7,1.5-2.5,2.3c-0.1,0.2-0.3,0.3-0.4,0.5
		c-0.2,0.3-0.5,0.6-0.8,0.8c-0.4,0.3-0.6,0.7-0.9,1.1c-0.1,0.2-0.2,0.4-0.5,0.4c-0.3,0.1-0.5,0-0.5-0.4c0-0.2,0-0.4,0.1-0.5
		c0.3-0.7,0.2-1.3,0-2c-0.1-0.4-0.2-0.9-0.1-1.3c0.1-0.4,0.3-0.7,0.5-1c0.8-1.4,1.6-2.7,2.3-4.2c0.2-0.3,0.3-0.7,0.4-1.1
		c0-0.2,0-0.4-0.1-0.5c-0.2-0.1-0.3-0.1-0.5,0c-0.3,0.1-0.5,0.2-0.7,0.4c-0.3,0.3-0.7,0.7-1,1c-0.4,0.4-1,0.7-1.5,0.8
		c-0.2,0.1-0.4,0-0.5-0.1c-0.4-0.4-0.8-0.9-1.1-1.4c-0.1-0.3-0.2-0.6-0.2-0.9c0-0.2,0.1-0.4,0.2-0.5c0.5-0.4,0.7-0.9,1.1-1.4
		c0.3-0.4,0.2-0.7-0.2-1.2c-0.3-0.4-0.8-0.5-1.2-0.4c-0.7,0.1-1.4,0.3-2.1,0.7c-0.2,0.1-0.3,0.3-0.4,0.4c-0.3,0.5-0.7,0.9-1,1.3
		c-0.4,0.4-0.4,0.8-0.3,1.3c0.1,0.4,0.1,0.9,0.2,1.3c0,0.3,0.1,0.5,0.3,0.8c0.2,0.3,0.4,0.7,0.5,1.1c0,0.2,0,0.3,0,0.5
		c0,0.1,0,0.2,0.1,0.2c0.1,0,0.2,0.1,0.3,0.2c0.5,0.8,0.9,1.6,1.2,2.5c0.2,0.7,0.2,1.3-0.4,1.9c-0.2,0.2-0.3,0.4-0.3,0.6
		c-0.1,0.2-0.2,0.4-0.3,0.6c-0.1,0.1-0.2,0.2-0.2,0.4c0,0.5-0.3,0.8-0.7,1c-0.7,0.4-1.3,1.1-2,1.6c-0.5,0.3-1,0.5-1.5,0.6
		c-0.1,0-0.2,0-0.4-0.1c-0.7-0.3-1.5-0.5-2.3-0.5c-0.3,0-0.5,0-0.8,0.2c-0.3,0.1-0.6,0.2-0.9,0.2c-0.7,0-1.4,0.1-2,0.2
		c-0.4,0-0.8,0.1-1.2-0.1c-0.3-0.2-0.7-0.2-1.1-0.2c-0.2,0-0.4-0.1-0.6-0.1c-0.3-0.1-0.5-0.2-0.6-0.5c-0.1-0.2-0.2-0.2-0.3-0.3
		c-0.1-0.1-0.3-0.1-0.4-0.2c-0.1,0-0.2-0.1-0.2-0.2c0-0.1,0.1-0.1,0.1-0.2c0.2-0.1,0.3-0.3,0.5-0.4c0.5-0.4,1.1-0.6,1.7-0.3
		c0.2,0.1,0.4,0,0.6,0c0.4,0.1,0.7,0.2,1.1,0.4c0.5,0.2,0.9,0.5,1.4,0.6c0.2,0.1,0.5,0.1,0.7,0c0.8-0.3,1.6-0.5,2.4-0.7
		c0.2-0.1,0.4-0.1,0.5,0.2c0.1,0.3,0.6,0.4,0.9,0.2c0.7-0.3,1.3-0.8,1.9-1.2c0.4-0.3,0.8-0.6,1.1-1c0.3-0.5,0.7-1,0.7-1.6
		c0-0.5-0.2-1-0.4-1.5c-0.1-0.3-0.3-0.6-0.4-0.9c0-0.1-0.1-0.1-0.1-0.2c-0.2-0.1-0.3-0.2-0.2-0.4c0,0,0-0.1,0-0.1
		c-0.2-0.3-0.3-0.6-0.5-0.8c-0.4-0.4-0.8-0.7-0.9-1.3c0-0.1-0.1-0.1-0.1-0.2c-0.2-0.3-0.3-0.6-0.4-1c0-0.2,0-0.4,0.2-0.5
		c0.1-0.1,0.1-0.1,0-0.2c-0.3-0.4-0.5-0.9-0.7-1.4c-0.1-0.3-0.1-0.5,0.1-0.8c0.1-0.2,0.2-0.3,0.3-0.5c0.1-0.1,0.2-0.3,0.1-0.5
		c0-0.3,0.2-0.5,0.4-0.6c0.3-0.2,0.6-0.4,0.9-0.6c0.3-0.2,0.4-0.4,0.4-0.8c0-0.2,0.3-0.5,0.5-0.5c0.1,0,0.3,0,0.4,0
		c0.4,0,0.8,0,1.1-0.2c0.7-0.4,1.3-0.8,2-1.1c0.8-0.3,1.6-0.6,2.5-0.5c0.9,0.1,1.7,0.7,1.9,1.7c0,0.2,0.1,0.5,0.3,0.6
		c0.3,0.3,0.4,0.7,0.3,1.1c0,0.2,0,0.3,0.1,0.4c0.1,0.1,0.3,0.1,0.4,0c0.4-0.2,0.8-0.5,1.2-0.7c0.3-0.2,0.7-0.4,1.1-0.4
		c0.2,0,0.4,0,0.5,0.1c0.2,0.1,0.4,0.1,0.6,0.1c0.2,0,0.3,0,0.4,0.2c0.3,0.5,0.6,1,0.6,1.6c0,1.1-0.2,2.3-0.5,3.3
		c-0.1,0.5-0.2,1-0.5,1.4c-0.1,0.1,0,0.1,0,0.2c0.1,0.1,0.1,0.1,0.2,0.1c0.4-0.2,0.8-0.3,1-0.7c0.5-1,1.4-1.7,2.3-2.4
		c0.5-0.3,0.9-0.7,1.2-1.1c0.3-0.3,0.4-0.8,0.4-1.2c0-0.5,0.3-0.7,0.8-0.5c0.6,0.2,1.2,0.5,1.7,1c0.1,0.2,0.2,0.4,0.2,0.6
		C38,24.7,38,24.8,38,25z"/>
</g></a>
</svg>
