<?xml version="1.0" encoding="utf-8"?>
<!-- Generator: Adobe Illustrator 18.1.1, SVG Export Plug-In . SVG Version: 6.00 Build 0)  -->
<svg version="1.1" id="Layer_1" xmlns="http://www.w3.org/2000/svg" xmlns:xlink="http://www.w3.org/1999/xlink" x="0px" y="0px"
	 viewBox="0 0 1000 300" style="enable-background:new 0 0 1000 300;" xml:space="preserve">
<style type="text/css">
	.st0{fill:#FFFFFF;stroke:#231F20;stroke-width:2;}
</style>
<g>
	<path class="st0" d="M174.5,107.9c0.5-0.2,1.6-0.3,3.1-0.3c1.2,0,2,0,2.3,0.1c0.3,0.1,0.6,0.4,1.1,0.8l1.2,1.6
		c0.3,0.4,0.4,1.2,0.4,2.4c0,1.2-0.2,2.2-0.5,2.9c-0.4,0.9-0.5,1.7-0.5,2.4c0,0.8-0.1,1.5-0.3,2c-0.3,0.4-0.5,1.2-0.7,2.3
		c-0.3,1.3-0.4,2.3-0.5,2.8c-0.3,1.6-0.4,2.5-0.4,2.7c-0.1,0.4-0.3,0.9-0.5,1.7c-0.3,0.5-0.4,1.3-0.4,2.3c-0.2,1-0.2,1.8,0,2.4
		c0,0.3,0.1,0.7,0.4,1.2c0.2,0.2,0.8,0.3,2,0.3c0.9,0,1.8-0.1,2.7-0.3c0.9-0.3,1.5-0.3,1.9-0.1c0.7,0.2,1.6,0.3,2.7,0.3
		c1.2,0,2-0.1,2.4-0.4c0.4-0.3,0.8-0.7,0.9-1.2c0.2-0.3,0.4-1.3,0.5-3.2c0.1-1.7,0.4-3,0.8-3.9l1.1-2.7c0.3-0.6,0.4-1.3,0.4-2
		c0-0.5,0.2-1.2,0.5-2.1c0.3-0.9,0.5-1.9,0.7-2.9c0.3-1.3,0.3-2.6,0.1-3.9c0-1.6,0.2-2.7,0.5-3.3c0.4-0.5,1.2-1,2.5-1.5
		c1.1-0.4,1.8-0.7,2.3-0.7c0.4,0,1.1,0.1,1.9,0.4c0.3,0.1,0.7,0.2,1.3,0.3c0.6,0.1,1,0.2,1.1,0.3c0.4,0.1,0.8,0.2,0.9,0.4
		c0.2,0.2,0.5,0.8,0.9,1.7c0.6,1.3,0.9,2.4,0.9,3.1c0,0.8-0.1,1.6-0.4,2.3c-0.6,1.2-0.9,1.8-0.9,1.9c0,0.1-0.1,0.3-0.2,0.7
		c-0.1,0.4-0.2,0.6-0.2,0.7c0,0.4-0.1,0.9-0.4,1.3c-0.2,0.9-0.4,2.1-0.5,3.6c0,1.6-0.2,2.8-0.5,3.5c-0.1,0.2-0.3,1.3-0.7,3.5
		c-0.1,1.9,0,3,0.1,3.3c0.4,0.4,0.8,0.7,0.9,0.7c0.3,0.1,0.8,0,1.6-0.1c0.5-0.3,1.2-0.5,1.9-0.7c0.3-0.1,1.3-0.1,3.1-0.1
		c1.8,0,2.8,0,2.9,0.1c0.3,0.1,0.7,0.8,1.2,2c0.4,1,0.5,2.4,0.5,4.3s-0.1,3-0.4,3.5c-0.3,0.4-1,0.9-2.1,1.5c-1,0.4-1.8,0.5-2.4,0.5
		c-0.4,0-0.9,0-1.7-0.1c-1.4,0-2.7-0.2-3.7-0.5c-1-0.3-1.7-0.4-2.3-0.3l-1.6,0.4c-0.3,0.1-0.5,0.3-0.8,0.5v1.9
		c0.1,1.1-0.1,2.2-0.7,3.3c-0.5,1.2-0.8,2.4-0.8,3.7c0,1.2-0.2,2.2-0.5,2.8c-0.1,0.2-0.2,0.5-0.4,1.1c-0.2,0.5-0.3,0.9-0.4,1.1
		c-0.1,0.8-0.1,1.3,0,1.6l1.3,0.7c0.7,0.4,1.3,0.5,1.9,0.5c0.4,0.2,1.3,0.2,2.5,0c1.2-0.2,2.1-0.2,2.8,0c0.7,0,1.6,0.3,2.7,0.8
		c1,0.4,1.6,0.9,1.7,1.3c0.3,0.4,0.4,1,0.4,2c0,0.7-0.2,1.5-0.5,2.4c-0.3,0.5-0.4,1.3-0.4,2.3c0,0.9-0.1,1.5-0.4,1.7
		c-0.1,0.3-0.6,0.4-1.5,0.4l-2.4,0.1c-1.7,0-3.1,0-4.3,0c-3.7,0-5.7,0.1-6,0.4c-0.3,0.3-0.4,1.1-0.4,2.5c-0.2,1.7-0.3,2.6-0.4,2.8
		c-0.1,0.2-0.2,0.9-0.4,2.1c-0.2,1.2-0.4,1.9-0.5,2.3c-0.3,0.5-0.4,1.7-0.4,3.5c0,1.9-0.1,3-0.3,3.3c-0.4,0.5-0.7,1.1-0.9,1.6
		c-0.4,0.5-0.7,1.3-0.7,2.3c0,1.1-0.1,1.8-0.4,2.3c-0.1,0.5-0.4,1-1.1,1.3c-0.5,0.4-2.3,0.5-5.2,0.5s-4.5-0.1-4.8-0.4
		c-0.4-0.4-0.5-0.8-0.5-1.2l0.4-1.6c0.4-0.7,0.5-2.5,0.5-5.3c0.1-2.8,0.3-4.4,0.5-4.9l0.9-1.3c0.4-0.4,0.6-1.5,0.7-3.5
		c0.2-2.4,0.4-3.8,0.5-4.3c0.1-0.8,0.1-1.4,0-1.7c-0.1-0.4-0.6-0.8-1.5-1.1c-0.6-0.3-1.2-0.4-1.7-0.4c-0.6,0-1.2,0.2-1.6,0.5
		c-0.7,0.4-1.7,0.4-2.9,0.3c-1.2-0.2-2-0.2-2.7,0c-0.5,0-1.1,0.1-1.6,0.4c-0.4,0.2-0.6,0.5-0.8,0.9c0,0.1-0.1,0.3-0.2,0.7
		s-0.2,0.6-0.3,0.7c-0.4,0.8-0.7,1.6-0.8,2.3c-0.4,1.1-0.5,2.7-0.5,4.8c0,2.1-0.3,3.9-0.8,5.2c-0.6,1.7-0.9,2.6-0.9,2.7
		c-0.2,0.5,0,1.2,0.4,1.9c0.3,0.7,0.4,1.3,0.4,1.9c0,0.4-0.1,0.7-0.3,1.1l-1.3,1.3c-0.6,0.4-1.1,0.7-1.5,0.8
		c-0.4,0.1-1.4,0.2-3.1,0.3c-2.3,0-4-0.2-4.9-0.7c-1.1-0.3-1.8-0.7-2.1-1.2c-0.4-0.5-0.5-1.2-0.5-1.9c-0.1-0.7,0-1.4,0.3-2.1
		c0.3-0.5,0.6-1.2,0.9-2.1c0.4-1.1,0.5-2.3,0.5-3.6c0.1-1.2,0.3-2.1,0.5-2.9c0.3-0.3,0.6-0.7,0.9-1.2c0.4-0.4,0.6-1.8,0.7-4.4
		c0-2.5,0.1-3.8,0.3-4c0.1-0.1,0-0.4-0.1-0.8c-0.3-0.3-0.8-0.4-1.6-0.3c-0.7,0-1.5,0.2-2.4,0.5c-1.1,0.4-1.8,0.5-2.3,0.5
		c-0.5,0-1.2-0.3-1.9-0.8c-0.4-0.4-1.1-0.8-1.9-0.9c-0.6-0.1-1.2-0.5-1.6-1.2c-0.3-0.6-0.6-1.6-0.9-2.8c-0.3-0.9-0.4-1.6-0.4-2.1
		c0-0.3,0.2-1,0.7-2.1c0.1-0.4,0.4-1,1.1-1.6c0.5-0.4,1-0.8,1.3-0.9c0.4-0.1,1.3-0.1,2.8-0.1c0.7,0,1.5,0,2.4,0
		c3,0.2,4.7,0.4,5.1,0.8c0.4,0.4,0.6,0.5,0.8,0.5c0.4,0,0.6-0.2,0.8-0.5c0.3-0.3,0.5-0.9,0.7-2c0.2-1.3,0.4-2.1,0.5-2.4
		c0.3-0.5,0.4-1.4,0.4-2.5c0-1,0.1-1.7,0.3-2.3c0.2-0.3,0.4-0.9,0.5-1.9l0.5-2.1c0.3-0.5,0.4-1.1,0.4-1.7c0.1-0.3,0-0.8-0.3-1.5
		c-0.2-0.4-0.6-0.7-1.2-0.9c-0.3-0.1-0.8-0.1-1.5-0.1c-0.1,0-0.3,0.1-0.7,0.2c-0.4,0.1-0.6,0.2-0.8,0.3c-1.1,0.3-2,0.4-2.7,0.4
		c-1.2,0-2-0.1-2.4-0.4c-0.6-0.2-1.1-0.4-1.5-0.8c-0.4-0.4-0.8-0.7-0.9-0.9c-0.2-0.5-0.3-0.9-0.3-1.1c0-0.2-0.2-0.7-0.5-1.6
		c-0.3-0.7-0.4-1.3-0.3-1.7l0.7-2c0.4-0.9,0.8-1.5,1.5-1.9c0.8-0.4,2.4-0.7,4.7-0.8c2.7-0.2,4.6-0.3,5.9-0.3
		c1.5-0.1,2.4-0.3,2.8-0.7c0.2-0.4,0.3-1.1,0.3-2.1c0-1.2,0.1-2.1,0.4-2.5c0.3-1.1,0.4-1.9,0.4-2.4c0.2-1.2,0.4-1.8,0.5-2
		c0.1-0.3,0.2-1,0.4-2.3c0-0.8,0.1-1.6,0.4-2.4c0.3-0.4,0.4-1.2,0.4-2.4c0-0.9,0.2-1.9,0.5-2.9c0.3-0.6,0.4-1.3,0.4-2
		c0-0.5,0.1-1,0.3-1.3c0.1-0.4,0.7-1.1,1.7-2.1C173.2,108.9,173.9,108.3,174.5,107.9z M182.8,146c-0.6-0.3-1.3-0.5-2-0.7
		c-1.1,0-1.8,0-2.3,0.1c-0.6,0-1.2,0.2-1.7,0.5c-0.4,0.3-0.8,0.5-0.9,0.8c-0.3,0.1-0.5,0.4-0.7,1.1c-0.1,0.3-0.2,1.5-0.4,3.7
		c0,1.4-0.1,2.8-0.4,4.1c-0.3,0.7-0.5,2-0.7,4c-0.1,1.1-0.1,1.8-0.1,2.3c0,0.4,0,0.7,0.1,0.8c0.1,0.2,1.3,0.3,3.6,0.3
		c2.2,0,3.5-0.1,4-0.4c0.5-0.3,1.5-0.4,2.8-0.3c1.4,0,2.3-0.1,2.5-0.4c0.4-0.6,0.7-1.4,0.8-2.3c0.3-1,0.4-2.2,0.4-3.6
		c0-1.6,0-2.6,0.1-2.9c0.3-0.8,0.5-1.3,0.8-1.6c0.5-0.5,0.8-0.9,0.8-1.2c0.1-0.3,0-0.8-0.1-1.6c-0.1-0.4-0.1-1-0.1-2
		c0.1-0.6,0-1-0.4-1.2c-0.4-0.1-0.8,0-1.3,0.1c-0.5,0.4-1.3,0.5-2.3,0.5C184.5,146.4,183.6,146.3,182.8,146z"/>
	<path class="st0" d="M259.3,102.1c1.2-0.6,2.1-0.9,2.5-0.9c0.2,0,0.7,0.1,1.5,0.4c0.4,0.3,0.7,0.4,0.7,0.5c0,0.2,0.4,0.8,1.2,1.7
		c0.8,0.9,1.2,1.8,1.2,2.7c0,0.3,0,0.8,0,1.5v3.6v3.3c0.1,1.1,0.3,2.2,0.5,3.5c0.2,0.4,0.4,1.6,0.5,3.9c0,1.2,0.1,2.5,0.4,4.1
		c0.3,0.7,0.3,1.5,0,2.4c-0.3,0.8-0.4,4.7-0.4,11.6c-0.1,7-0.3,10.8-0.5,11.5c-0.3,1-0.4,2.4-0.3,4.1c0,1.7,0.1,3.1,0.4,4.1
		c0.1,0.6,0.2,3.9,0.4,9.7c0.2,5.8,0.4,9,0.5,9.6c0.2,0.4,0.3,0.8,0.3,1.1s-0.1,0.7-0.3,1.3c-0.4,0.7-0.5,1.7-0.5,3.1
		c0,0.6,0,1.8,0.1,3.6c0,3.5,0.1,5.6,0.4,6.4c0.3,0.4,0.4,0.8,0.4,1.2c0,0.2,0,0.4-0.1,0.5c-0.2,0.5-0.6,1-1.2,1.5
		c-0.6,0.6-1.3,1.1-2,1.3c-0.6,0.4-1.8,0.5-3.5,0.5c-1.4,0-2.5-0.1-3.3-0.4c-0.7-0.4-1.3-0.5-1.7-0.5c-0.5,0-1.2-0.2-2.1-0.5
		c-0.9-0.4-1.4-0.8-1.5-1.2c-0.2-0.4-0.3-1.1-0.3-2.1s-0.1-2-0.4-2.8c-0.3-0.9-0.4-2-0.4-3.3c0-1.7,0-2.7,0.1-3.1
		c0.2-0.7,0.2-1.7,0-3.1c-0.1-0.7-0.3-1.7-0.5-3.1c-0.3-1.3-0.4-2.2-0.4-2.5c0-0.4,0.1-1.1,0.4-2.1c0.3-0.7,0.4-4.3,0.4-10.7
		c0-6.5-0.1-10.1-0.4-10.9c-0.2-0.7-0.3-1.2-0.3-1.5c0.2-0.4,0.4-0.7,0.8-1.1c0.4-0.4,0.5-1,0.4-1.7c-0.1-0.4-0.1-1.2-0.1-2.3v-2.3
		c0.1-0.6-0.1-1.2-0.5-1.7c-0.4-0.6-0.7-1.2-0.7-1.6l0.4-1.6c0.2-0.8,0.4-2.1,0.5-3.9c0-0.4,0-1,0-1.9c0-0.9,0-1.6,0-2
		c0-0.7,0-1.3,0-1.7c0-1.5-0.1-2.8-0.3-3.9c-0.3-0.6-0.4-1.2-0.4-1.9c0-0.5,0.1-0.9,0.4-1.2c0.2-0.5,0.3-0.9,0.3-1.2
		c0-0.4-0.1-0.8-0.3-0.9c-0.2-0.2-0.4-0.3-0.5-0.3c-0.2,0-0.5,0.2-1.1,0.5c-0.5,0.4-1.1,0.6-1.7,0.8c-0.4,0-1.2,0.4-2.1,1.2
		c-0.8,0.8-1.6,1.3-2.4,1.6c-0.9,0.2-1.4,0.3-1.5,0.3c-0.2,0-0.4,0.3-0.8,0.9c-0.5,0.7-1,1.1-1.3,1.2c-0.3,0.3-1,0.5-2.1,0.7
		c-1.2,0.1-2.1,0.1-2.8,0c-1-0.2-1.5-0.4-1.6-0.8c-0.3-0.4-0.4-2-0.4-5.1c0.1-3,0.3-4.7,0.7-5.1c0.4-0.4,1.1-0.9,2.1-1.6
		c1.2-1,1.8-1.6,2-1.9c0.3-0.4,1.1-1.1,2.5-1.9c0.4-0.2,0.9-0.4,1.5-0.8l0.9-0.5c0.2-0.3,0.9-0.8,2.3-1.5c1.5-0.8,2.4-1.5,2.7-2
		c0.4-0.6,1.2-1.2,2.5-1.9c0.9-0.5,1.8-1,2.8-1.3c1.1-0.3,1.7-0.4,1.9-0.5l1.6-0.4C257.4,103,258.2,102.7,259.3,102.1z"/>
	<path class="st0" d="M334,97.9c0.7-0.3,1.2-0.4,1.6-0.4c0.3,0,0.8,0.1,1.7,0.3c0.5,0.3,1.8,0.5,3.7,0.7c1.8,0.1,3.6,0.5,5.5,1.2
		c2.4,1,3.6,1.5,3.7,1.6c0.2,0.1,0.9,0.4,2.1,0.9c0.9,0.3,1.5,0.7,1.9,1.2c0.5,0.8,1,1.3,1.3,1.5c0.5,0.3,0.9,0.5,1.2,0.8
		c0.3,0.1,1,0.6,2.1,1.6c1,1,1.5,1.8,1.6,2.4c0.3,0.7,0.6,1.8,0.9,3.3c0.6,1.9,1.2,3.3,1.7,4.3c0.5,1,0.8,1.7,0.9,2.1
		c0.1,0.4,0.1,1.4,0.1,2.9c0,0.5,0,1,0,1.5c0,1.1-0.1,2-0.4,2.8c-0.1,0.3-0.2,0.8-0.5,1.7c-0.2,0.8-0.4,1.4-0.5,1.8
		c-0.1,0.4-0.3,0.9-0.6,1.7c-0.3,0.8-0.5,1.3-0.6,1.6c-0.6,1.3-1.2,2.4-1.9,3.2c-1.2,1.6-1.9,2.7-2.3,3.3c-0.4,0.7-0.8,1.2-1,1.4
		c-0.2,0.2-0.6,0.4-1.3,0.5c-0.9,0.3-1.8,0.8-2.7,1.6c-1.1,0.9-1.6,1.5-1.7,1.9c-0.3,0.4-0.3,1-0.1,1.6c0.2,0.6,0.6,1.2,1.2,1.6
		c0.4,0.6,1,1,1.6,1.2c0.4,0.1,1,0.4,1.6,1.1c0.5,0.6,1.2,1,2,1.2c0.9,0.4,1.6,0.8,2,1.2c0.2,0.1,0.4,0.2,0.6,0.5
		c0.2,0.2,0.5,0.5,0.7,0.8c0.3,0.3,0.5,0.6,0.7,0.7c0.7,0.9,1.1,1.7,1.2,2.4c0.1,0.4,0.4,1.2,0.9,2.3c0.1,0.1,0.6,0.9,1.5,2.4
		c0.4,1,0.5,2.5,0.5,4.7c0,0.6,0.1,1.7,0.2,3.3c0.1,1.6,0.2,2.6,0.2,3.1c0.2,2.3,0.3,3.7,0.3,4.3c0,0.7-0.3,1.6-0.8,2.7
		c-0.2,0.3-0.4,0.7-0.7,1.4c-0.3,0.7-0.4,1.1-0.5,1.3c-0.1,0.3-0.2,0.7-0.4,1.3c-0.2,0.6-0.3,0.9-0.3,1c-0.1,0.4-0.4,1.1-0.9,1.9
		c-0.6,0.6-1.3,1.5-2,2.7l-1.3,1.9c-0.2,0-0.6,0.3-1.2,0.9c-0.6,0.4-1.2,0.8-1.6,1.1c-0.7,0.4-1.5,1-2.4,1.9c-1.2,1.1-2,1.7-2.7,1.9
		c-0.3,0-1.1,0.2-2.4,0.7c-1.2,0.4-2,0.7-2.4,0.9c-0.2,0.1-0.4,0.2-0.8,0.3c-0.4,0.1-0.6,0.2-0.7,0.2c-0.4,0.2-1.2,0.2-2.1,0
		c-1.1-0.1-2.1,0-3.2,0.1c-1,0.3-2.3,0.5-4,0.7c-1.6,0.2-3,0.3-4.3,0.3c-1.3,0-2.3,0.1-2.8,0.3c-0.9,0-1.6-0.1-2.3-0.3
		c-1.3-0.3-2.1-0.4-2.4-0.4c-0.9,0-1.7-0.1-2.5-0.4c-1.2-0.4-2.3-0.7-3.1-0.8c-0.5-0.2-1.5-0.4-2.8-0.7c-0.9-0.2-1.6-0.5-2.3-0.9
		c-1.2-0.7-1.8-1.1-1.9-1.1c-0.6-0.2-1.2-0.4-1.6-0.7c-0.3-0.2-0.8-0.8-1.6-1.7c-0.4-0.7-0.8-1.2-1.2-1.6l-1.2-1.2
		c-0.6-0.6-1.3-1.6-2.1-3.1c-0.8-1.2-1.4-2.2-1.9-3.2c-0.3-0.6-0.6-1.1-0.9-1.5c-0.2-0.2-0.4-0.5-0.8-1.1c-0.2-0.5-0.3-1.2-0.3-2.1
		c0-1-0.1-1.7-0.4-2.3c-0.2-0.4-0.3-1.3-0.3-2.7c0.3-1.7,0.4-2.7,0.5-2.9c0.1-0.8,0-1.5-0.1-2.1c-0.3-0.5-0.4-1.1-0.4-1.7
		c0-0.5,0.1-1.1,0.3-1.6c0.3-0.3,0.5-0.9,0.7-2c0.2-0.9,0.4-1.6,0.5-2.3c0.2-0.5,0.4-1,0.8-1.3c0.4-0.7,0.9-1.6,1.5-2.8l1.1-2.4
		l0.5-1.3c0.4-0.8,0.8-1.3,1.5-1.5c0.7-0.4,1.3-0.8,1.9-1.3c0.8-0.8,1.4-1.3,1.7-1.5c0.2-0.1,0.9-0.7,2.3-1.7
		c0.9-0.9,1.3-1.6,1.3-2.1c0-0.5-0.1-0.9-0.3-1.1c-0.1-0.1-0.2-0.3-0.5-0.6c-0.2-0.3-0.4-0.5-0.5-0.6c-0.5-0.7-1.2-1.2-1.9-1.5
		c-0.9-0.4-2-1.3-3.2-2.5c-1.4-1.6-2.5-2.9-3.2-3.9c-1-1.5-1.5-2.5-1.6-2.9l-0.5-2.1c-0.3-1.3-0.4-2.3-0.5-2.9c-0.3-1-0.3-2.3-0.1-4
		c0-1.2,0.1-2.3,0.4-3.3c0.3-0.5,0.4-1.6,0.4-3.1c0-1.5,0.4-3.1,1.1-4.8c0.5-1.6,1.1-2.8,1.6-3.5c0.2-0.4,0.5-0.8,0.9-1.2
		c0.3-0.3,0.5-0.7,0.8-1.2c0.5-0.7,0.9-1.2,1.1-1.3c0.8-0.5,1.4-1,1.9-1.3l3.5-1.7c1.6-0.9,2.5-1.4,2.7-1.5c0.4-0.4,0.8-0.7,1.2-0.8
		c0.4-0.3,1.5-0.7,3.2-1.2c1.2-0.4,2.2-0.7,2.9-0.7c0.7,0,2.4-0.1,5.1-0.1C330.8,98.5,333,98.3,334,97.9z M333.3,153.6
		c-0.4-0.2-1.8-0.4-4-0.5c-0.8-0.1-1.5-0.1-2.2-0.1s-1.1,0-1.3,0.1c-0.4,0-0.8,0.2-1.2,0.5c-0.3,0.4-0.8,0.6-1.7,0.8
		c-0.7,0.2-1.5,0.4-2.3,0.8c-0.7,0.4-1.5,1-2.4,1.9c-1.1,1.1-1.9,2.2-2.4,3.3c-0.5,1-0.9,2.1-1.1,3.3c-0.1,0.7-0.5,1.8-1.2,3.2
		c-0.6,1.2-0.9,2.1-0.9,2.8c0,0.6,0.1,1.2,0.4,1.7c0.3,1,0.4,1.9,0.5,2.7c0,0.4,0,0.7,0.1,1.1c0.1,0.4,0.2,0.8,0.3,1.2
		c0.1,0.4,0.1,0.8,0.1,0.9c0.3,0.6,0.4,1.3,0.4,2.1c0,0.6,0.3,1.3,0.9,2c0.6,0.6,1.2,1.3,1.7,2c0.2,0.2,0.9,0.8,2.3,2
		c1.2,0.6,2.2,1.1,3.2,1.5c1.3,0.4,2.3,0.8,2.9,1.3c1.1,0.6,1.7,1,1.9,1.2c0.3,0.1,0.5,0.1,0.8,0.1c0.3,0,0.9-0.1,1.9-0.3
		c1.2-0.4,2.5-0.4,3.9-0.3c1.2,0.2,2.4,0.2,3.3,0c1.2-0.2,2.1-0.4,2.8-0.7c0.7-0.3,1.4-0.6,2.1-1.1c0.8-0.5,1.4-0.9,1.7-1.1
		c0.8-0.5,1.2-0.8,1.3-0.9c0.4-0.4,0.8-0.9,1.2-1.6c0.5-1,0.9-1.5,1.2-1.6c0.3-0.2,0.8-1,1.5-2.5c0.2-0.4,0.8-1.6,1.7-3.9
		c0.4-1.3,0.5-2.9,0.5-4.7c0-2-0.2-3.6-0.5-4.8c0-0.1-0.1-0.6-0.4-1.5c-0.3-0.9-0.4-1.5-0.5-1.9c-0.3-1.1-0.6-1.7-1.1-2
		c-0.4-0.2-0.8-0.7-1.1-1.5c-0.3-0.7-0.8-1.2-1.7-1.3c-0.8-0.2-1.6-0.6-2.5-1.3c-0.9-0.6-1.6-1-2.3-1.2c-0.9-0.3-1.9-0.4-3.1-0.5
		c-1.3-0.2-2.4-0.4-3.1-0.7C334.3,153.9,333.7,153.7,333.3,153.6z M332.2,109c-0.5-0.3-1.3-0.4-2.4-0.4c-1,0-1.7,0.1-2.3,0.3
		c-0.5,0.2-1.1,0.4-1.7,0.8c-0.4,0.3-1.1,0.5-2,0.7c-1.1,0.2-1.9,0.4-2.5,0.8c-1,0.6-1.6,1.2-2,1.6c-0.4,0.3-0.8,0.8-1.2,1.7
		c-0.2,0.6-0.6,1.3-1.3,2c-0.5,0.5-1.1,1.2-1.6,2.1c-0.4,0.8-0.6,2-0.8,3.6c-0.4,1.9-0.4,3.2-0.3,4c0.2,1.2,0.4,2.1,0.8,2.7
		c0.4,0.9,0.8,1.6,1.2,2c0.4,0.4,0.6,0.8,0.8,1.3c0.2,0.5,0.8,1.6,1.9,3.1c1.2,1.6,2.5,2.8,3.7,3.5c1.3,0.6,2.3,1,2.8,1.2
		c0.2,0,0.6,0.1,1.2,0.3c0.6,0.2,1.1,0.3,1.3,0.4c0.6,0.2,1.5,0.4,2.5,0.8c0.4,0.2,1.2,0.2,2.3,0c1.1-0.2,2-0.2,2.7-0.1
		c0.7,0.2,1.5,0.1,2.4-0.1c0.3-0.1,1-0.4,2.3-1.1c0.6-0.4,1.2-1.1,1.9-1.9c0.8-1,1.2-1.7,1.3-2.3c0.4-0.7,0.8-1.2,1.3-1.3
		c0.5-0.3,0.9-0.5,1.2-0.8c0.2-0.2,0.5-0.8,1.1-1.9c0.4-0.9,0.8-1.4,0.9-1.6c0.2,0,0.4-0.3,0.7-0.9c0.3-0.7,0.4-2.3,0.4-4.7
		c0-2,0-3.2-0.1-3.7c-0.1-0.5-0.4-1.2-0.8-2.2c-0.7-1.6-1.1-2.5-1.2-2.7c0-0.2-0.4-0.7-1.1-1.6c-0.5-0.7-1-1.3-1.3-1.9
		c-0.3-0.5-0.8-1.1-1.5-1.6c-0.9-0.5-1.5-0.8-1.7-0.8c-0.8-0.3-1.4-0.5-1.7-0.7c-0.8-0.3-2-0.4-3.5-0.4
		C334,109.2,332.8,109.2,332.2,109z"/>
	<path class="st0" d="M394.7,129.1c1.2-0.4,2.1-0.7,2.9-0.7c1.2,0.2,2,0.4,2.7,0.7c0.9,0.4,2.4,0.7,4.7,0.7c2.4,0,4,0.1,4.8,0.4
		c0.8,0.1,1.6,0.5,2.4,1.2c0.3,0.3,0.6,0.6,1.1,1.1c0.5,0.4,0.8,0.8,1,0.9l1.7,1.7c0.5,0.6,0.8,1.4,0.9,2.4c0.2,1.2,0.4,2.1,0.7,2.5
		c0.3,0.7,0.3,1.4,0.1,2.1c-0.2,0.7-0.3,1.3-0.3,1.7c0,0.2-0.1,0.7-0.4,1.5c-0.4,0.5-0.8,0.8-1.3,0.9h-3.3c-1.7,0-2.8-0.1-3.3-0.4
		c-0.1-0.1-0.4-0.3-0.9-0.5c-0.5-0.3-0.9-0.4-1.1-0.5c-0.8-0.4-1.6-1-2.3-2c-0.1-0.1-0.8-0.9-2-2.5c-0.6-0.8-1.3-1.2-2-1.3
		c-0.7-0.2-1.6-0.2-2.5,0c-0.9,0-1.8,0.3-2.8,0.8c-0.7,0.4-1.5,0.9-2.3,1.7c-0.7,0.9-1.2,1.6-1.3,2.1c-0.4,0.8-0.7,2.1-0.7,3.9
		c0,1.8,0.3,3.1,0.9,3.9c0.4,0.6,1,1.2,1.9,1.7c0.8,0.4,1.4,0.9,1.9,1.6c0.1,0.1,0.3,0.4,0.7,0.8c0.4,0.4,0.6,0.8,0.7,0.9
		c0.4,0.4,1,0.7,1.7,0.8c1,0.2,2,0.5,3.1,0.9c1.2,0.4,2,1,2.5,1.7c0.8,1,1.3,1.5,1.6,1.6c0.3,0.3,0.9,0.6,2,0.9
		c0.3,0.1,0.7,0.2,1.3,0.4c0.6,0.2,1,0.3,1.2,0.3l2,0.4c0.7,0.2,1.3,0.6,1.9,1.2c0.8,0.8,1.3,1.3,1.6,1.5c0.4,0.3,0.8,0.6,0.9,1.1
		c0.4,0.7,0.7,1.2,0.9,1.5c0.4,0.4,0.6,0.8,0.8,1.3c0.2,0.5,0.3,1.1,0.3,1.6c0,0.6,0.2,1.3,0.5,2c0.4,0.5,0.5,1.3,0.5,2.3
		c0,0.4,0,1.3-0.1,2.7c0,2.6-0.2,4.4-0.5,5.6l-0.4,2.8c0,0.7-0.1,1.3-0.3,1.9c-0.2,0.6-0.6,1.2-1.2,1.9c-0.7,0.9-1.3,1.6-1.9,2.1
		c-0.8,1.1-1.3,1.7-1.5,2c-0.4,0.7-0.8,1.2-1.3,1.5c-0.4,0.3-1.4,0.8-3.2,1.6c-1.6,0.5-2.9,0.9-4,1.1c-1.2,0.2-2,0.4-2.3,0.7
		c-0.7,0.2-1.6,0.3-2.8,0.3c-1.5,0-2.7,0.1-3.5,0.4c-0.5,0.2-1.2,0.3-2.1,0.3c-0.2-0.1-1.2-0.2-3.1-0.4c-1.5-0.1-2.8-0.4-3.9-0.9
		c-1.2-0.6-2.4-1.5-3.5-2.5c-1.9-1.3-2.8-2-2.9-2.1c-0.5-0.3-1-0.6-1.5-1.1c-0.1,0-0.7-1-1.7-3.1c-0.3-0.6-0.6-1.4-1.1-2.3l-0.8-1.2
		c-0.4-0.6-0.7-1.2-0.7-1.7c0.2-1.1,0.5-2,1.1-2.9c0.7-1.3,1.3-2.1,1.9-2.3c0.4-0.3,2.3-0.4,5.6-0.4c3,0,4.8,0.1,5.3,0.3
		c0.4,0.2,0.7,0.4,0.9,0.7c0.4,1,0.5,1.6,0.5,1.7c0.1,0.6,0.6,1.8,1.5,3.5c0.5,1.2,1.2,2.2,1.9,3.2c0.6,0.5,1.6,0.9,2.9,1.2
		c1.4,0.2,2.3,0.3,2.5,0.3c0.5,0,1.1-0.2,1.7-0.7c0.7-0.5,1.6-1.8,2.7-3.7c1.1-2,1.6-3.5,1.6-4.7c0-0.9-0.1-2-0.3-3.5
		c-0.4-1.5-0.7-2.4-0.8-2.5c-0.3-0.6-1-1.2-2.3-1.9c-0.8-0.3-1.6-0.7-2.5-1.3c-0.3-0.4-0.8-0.8-1.6-0.9c-0.4-0.2-1-0.4-1.7-0.8
		c0-0.1-0.6-0.4-1.7-1.1c-0.9-0.4-1.3-0.7-1.3-0.9l-1.6-1.1c-1.3-0.8-2.1-1.3-2.4-1.6c-0.7-0.6-1.6-0.9-2.7-0.9
		c-1.1,0-1.8-0.1-2.1-0.3c-0.4-0.2-0.9-0.6-1.6-1.3c-0.8-1-1.2-1.6-1.3-2c-0.1-0.4-0.5-0.9-1.2-1.3c-0.8-0.4-1.2-0.9-1.3-1.3
		c-0.2-0.5-0.3-1.1-0.3-1.6c0-0.6-0.2-1.4-0.5-2.3c-0.4-1-0.7-2.5-0.8-4.7c-0.2-2.3-0.3-3.5-0.4-3.7c0-0.4,0.1-1.1,0.4-1.9
		c0.1-0.3,0.2-0.7,0.4-1.2c0.2-0.5,0.3-0.8,0.3-0.9c0-0.1,0.5-1.3,1.6-3.6c1-2,1.7-3.1,2.1-3.6c0.3-0.2,1-0.8,2.3-1.7
		c1-0.7,1.6-1.3,2-1.7c0.4-0.4,0.9-0.7,1.5-0.8c0.1,0,0.4-0.1,1-0.3c0.6-0.2,1-0.3,1.3-0.4c0.2,0,0.5-0.1,1.1-0.2
		c0.5-0.1,0.9-0.2,1.1-0.2C393.1,129.8,393.8,129.5,394.7,129.1z"/>
	<path class="st0" d="M457.9,129.8c1.8-0.1,3.5-0.1,5.3-0.1c0.7,0,1.4,0.1,2.1,0.3c1.1,0.2,1.8,0.4,2.3,0.5c0.1,0,0.3,0.1,0.7,0.2
		c0.4,0.1,0.7,0.2,0.9,0.3c0.8,0.2,1.7,0.6,2.7,1.2c1,0.5,1.9,1.1,2.7,1.7c0.3,0.2,0.7,0.4,1.3,0.7c0.6,0.3,1,0.5,1.1,0.6
		c0.9,0.5,1.3,0.9,1.3,1.1l0.4,0.9c0.4,0.5,0.7,1,0.9,1.3c0.9,1.4,1.5,2.3,1.7,2.5c0.4,0.4,0.7,1,1.1,1.9c0.4,1.1,0.7,1.8,0.8,2.3
		c0.2,0.7,0.4,1.3,0.5,1.9c0.3,0.5,0.4,1.2,0.4,2.1c0,1.1,0.1,1.8,0.4,2.1c0.3,0.7,0.4,2.7,0.5,5.9c0,3.5-0.1,5.4-0.3,5.9
		c-0.2,0.6-0.5,1.1-0.9,1.3c-0.6,0.4-1.1,0.8-1.3,1.2c-0.3,0.3-0.7,0.5-1.2,0.8c-0.4,0.2-1.6,0.4-3.6,0.5l-4.8,0.4
		c-0.8,0.1-1.3,0.1-1.6,0.1c-0.5,0-1.4-0.2-2.5-0.5c-1.2-0.3-1.9-0.4-2.3-0.4c-0.4,0-1.1,0.1-2.1,0.3c-1.3,0.3-2.6,0.4-3.7,0.4
		c-0.8,0-1.5-0.1-2-0.3c-0.5-0.2-2.7-0.3-6.5-0.3c-2.1-0.1-3.5-0.1-4-0.1c-1.4,0-2.4,0.2-2.9,0.7c-0.8,0.6-1.2,1-1.3,1.2
		c-0.3,0.4-0.4,1.1-0.4,1.9c0,0.5,0.1,1.3,0.4,2.4c0.2,0.5,0.4,1.8,0.5,3.7c0.1,1.8,0.4,3.2,1.1,4.1c0.4,1,1.1,1.8,2,2.5
		c0.8,0.6,1.4,1.4,1.9,2.3c0.3,0.7,0.7,1.3,1.2,1.9c0.3,0.3,1.1,0.8,2.5,1.5c1.2,0.6,2.6,1.1,4,1.5c1.2,0.2,2.5,0.2,4,0.1
		c1.3-0.2,2.3-0.4,2.9-0.7c0.4-0.2,0.9-0.6,1.5-1.3c0.6-0.8,1.2-1.3,1.7-1.5c0.6-0.2,1.1-0.4,1.5-0.8c0.4-0.4,0.6-1,0.8-1.9
		c0.4-1,0.7-1.5,0.8-1.6c0.1,0,0.4-0.4,1.1-1.3c0.4-0.6,1-1.1,1.7-1.3c0.2,0,0.5-0.1,1-0.3c0.5-0.2,0.9-0.3,1.1-0.4
		c0.5-0.3,1.4-0.4,2.7-0.4c1.2,0,2,0.1,2.4,0.4c0.4,0.2,0.8,0.5,1.2,1.1c0.4,0.4,0.6,0.9,0.8,1.7c0,1-0.1,1.9-0.4,2.7
		c-0.4,1-0.8,1.8-1.2,2.4c-0.5,0.6-0.9,1.3-1.2,2.1c-0.1,0.2-0.2,0.5-0.5,1.1c-0.2,0.5-0.4,0.9-0.5,1.1c-0.2,0.4-0.9,1.1-2.1,2
		c-0.4,0.2-0.9,0.5-1.5,0.9c-0.7,0.4-1.1,0.8-1.4,0.9l-1.2,0.8c-0.3,0-0.6,0.3-1.1,0.8c-0.4,0.4-0.8,0.7-1.3,0.9
		c-0.2,0.2-0.9,0.3-2.1,0.3c-1.2,0-2,0.1-2.4,0.3c-1.1,0.4-2,0.6-2.7,0.8c-1.2,0.4-2,0.5-2.5,0.5c-0.2,0-0.4,0-0.7,0
		c-0.9-0.2-1.7-0.2-2.5,0c-0.4,0.1-0.8,0.1-1.1,0.1c-0.5,0-1.8-0.3-3.7-0.9c-2.3-0.8-3.8-1.3-4.4-1.5c-0.8-0.3-1.7-0.5-2.8-0.8
		c-1.2-0.4-2.2-0.9-3.2-1.7c-1.1-0.9-1.6-1.6-1.7-2c-0.2-0.3-0.5-0.7-1.1-1.2c-0.8-0.8-1.4-1.5-1.7-2c-1.4-2.1-2.3-3.4-2.5-3.9
		c-1-1.7-1.6-2.9-1.7-3.7c-0.2-1-0.5-2.1-0.9-3.3c-0.4-1.4-0.5-3.1-0.5-4.9c-0.2-2.3-0.4-3.9-0.5-4.7c-0.2-0.8-0.3-2-0.3-3.5
		c0.1-0.9,0.1-2,0.1-3.3c0-0.5,0-1,0-1.5v-4.1c0-0.7,0.1-1.3,0.4-1.9c0.4-0.5,0.6-1.2,0.8-2c0-0.1,0.2-0.9,0.5-2.5
		c0-0.5,0.2-1.4,0.7-2.5c0.5-0.9,1-1.4,1.3-1.5c0.4-0.3,0.9-1.1,1.7-2.5c0.5-1.2,1.1-2.3,1.7-3.1c0.7-0.9,1.3-1.8,1.7-2.8
		c0.7-1.4,1.2-2.3,1.5-2.5c0.1-0.3,0.5-0.6,1.3-0.9c0.2-0.1,0.9-0.5,2.3-1.3c0.9-0.5,1.6-1,2-1.5c0.5-0.4,1.3-0.7,2.4-0.8
		c0.3,0,0.6,0,0.9-0.1l1.1-0.3c0.4-0.1,0.6-0.1,0.7-0.1C452.6,130,454.6,129.8,457.9,129.8z M463,139.2c-2.2-0.7-4-1.1-5.3-1.1
		c-0.6,0-1.1,0-1.3,0c-0.6,0-1.6,0.3-2.9,0.9c-1.2,0.5-2,1.1-2.5,1.6c-0.1,0.1-0.4,0.4-0.8,1c-0.4,0.6-0.8,1-1.1,1.3
		c-0.9,1.2-1.6,2.2-2.3,3.2c-0.1,0.2-0.3,0.7-0.7,1.6c-0.4,0.9-0.7,1.6-0.9,2c-0.4,1.6-0.7,2.8-0.7,3.5c0,0.8,0.1,1.5,0.3,2
		c0.2,0.5,0.6,1,1.2,1.5c0.6,0.4,1.5,0.7,2.7,0.7c0.5,0,1.6,0,3.1,0c2.8,0,4.8-0.2,6.3-0.5c1.2-0.2,2-0.2,2.4-0.1
		c0.4,0,0.9,0.1,1.7,0.4c0.5,0.3,1.4,0.4,2.7,0.3c0.4,0,1.1,0,1.9,0.1c0.8,0,1.3,0.1,1.6,0.1c0.4,0.1,0.8,0.1,0.9,0.1
		c0.4,0,0.8-0.1,1.2-0.4c0.5-0.4,1-0.9,1.3-1.6c0.4-0.5,0.5-0.9,0.5-1.2c0-0.2-0.1-0.5-0.3-1.1c-0.1-0.3-0.3-1.1-0.5-2.4
		c-0.2-0.8-0.5-1.8-0.9-3.1c-0.6-1.7-1-2.8-1.1-3.2c-0.3-0.9-0.6-1.5-1.1-1.7c-0.3-0.2-0.5-0.4-0.8-0.7l-0.3-0.4
		c-0.3-0.3-0.5-0.5-0.7-0.7c-0.3-0.4-0.6-0.8-0.9-1C465.3,140,464.4,139.7,463,139.2z"/>
	<path class="st0" d="M520.6,133c0.7-0.3,1.6-0.4,2.7-0.4c0.5,0,1.6,0,3.2,0.1c2.8,0,5.1,0.1,6.7,0.3c2.4,0.3,3.8,0.4,4.1,0.4
		c1.1,0.2,2.1,0.4,3.1,0.8c0.9,0.4,1.6,0.7,2.1,0.9c0.4,0.3,0.9,0.7,1.3,1.3c0.3,0.4,0.8,0.8,1.6,1.5c0.9,0.5,1.8,1.2,2.7,2.1
		c1,1,1.6,1.8,2,2.5c0.4,0.8,0.8,1.6,0.9,2.4c0.4,0.9,0.6,1.4,0.7,1.6c0.3,0.4,0.3,1.1,0.1,2c0,0.3,0,0.8,0.1,1.5
		c0,0.7,0.1,1.2,0.1,1.6c0.1,0.4,0.1,0.9,0.1,1.3c0,0.4,0,0.8-0.1,0.9c0,0.4-0.4,0.8-1.2,1.1c-0.4,0.4-1.2,0.6-2.4,0.8
		c-1.3,0.3-2.3,0.4-2.8,0.4c-1.1,0.1-2.2,0-3.3-0.3c-1.2-0.2-2-0.4-2.3-0.7c-0.4-0.2-0.7-0.8-1.1-1.7c-0.4-1.1-0.7-1.8-0.7-2.1
		c0-0.3-0.2-0.8-0.5-1.7c-0.4-0.9-0.8-1.4-1.2-1.5c-0.5-0.5-0.9-0.9-1.1-1.2c-0.4-0.4-0.8-0.9-1.5-1.5c-0.7-0.4-1.1-0.7-1.1-0.9
		c-0.2-0.4-0.4-0.6-0.8-0.8c-0.4-0.3-1.3-0.6-2.7-0.9c-0.7-0.2-1.6-0.4-2.7-0.8c-0.4-0.2-1.2-0.2-2.7-0.1c-1.4,0.3-2.6,0.6-3.5,1.1
		c-1,0.4-2,1.2-3.2,2.3c-0.9,1.1-1.7,1.8-2.3,2.1c-0.7,0.4-1.1,0.7-1.3,0.9c-0.1,0.1-0.3,0.7-0.7,1.7c-0.4,1-0.6,1.8-0.8,2.5
		c-0.1,0.1-0.2,0.4-0.4,1c-0.2,0.6-0.4,1-0.5,1.3c-0.4,0.8-0.5,2-0.5,3.5c0,1.3-0.1,3.5-0.3,6.5c-0.2,1.6-0.3,3.7-0.3,6.4
		c0,1.4,0.1,2.4,0.4,2.9c0.3,1.1,0.4,1.9,0.5,2.4c0.2,0.9,0.4,1.6,0.5,2.1c0.1,0.2,0.3,0.9,0.5,2.1c0.1,0.7,0.6,2,1.6,3.9
		c0.8,1.7,1.9,3.2,3.2,4.5c1.5,1.3,2.4,2,2.8,2.1c0.5,0.3,1.6,0.5,3.1,0.7c1.7,0.2,2.7,0.4,3.1,0.7c0.8,0.3,1.6,0.4,2.4,0.3
		c1-0.2,2-0.5,3.1-0.9c0.4-0.1,1.3-0.5,2.7-1.2c0.6-0.3,1.2-1,1.9-2.3c0.8-1.2,1.2-1.7,1.3-1.7c0-0.1,0.2-0.4,0.5-0.9
		c0.3-0.5,0.6-1,0.7-1.3c0.6-1.3,1.1-2.1,1.5-2.3c0.5-0.3,0.9-0.5,1.1-0.7c0.2-0.1,0.4-0.3,0.7-0.5c0.3-0.3,0.6-0.4,0.7-0.5
		c0.5-0.3,1.2-0.5,1.9-0.7c0.6-0.2,1.3-0.2,2.1,0c0.3,0.1,1.2,0.3,2.7,0.5c0.9,0.1,1.5,0.3,1.9,0.7c0.4,0.6,0.7,1.2,0.8,1.6
		c0.1,0.3,0.1,0.5,0.1,0.8s-0.1,1-0.4,2.1c-0.4,1.4-0.5,2.4-0.5,3.1c-0.2,0.9-0.5,1.8-1.1,2.7c-0.6,1.1-1.2,1.8-1.7,2.1
		c-0.5,0.4-1.1,0.9-1.7,1.7c-0.2,0.2-0.4,0.4-0.7,0.7c-0.3,0.3-0.6,0.6-0.9,0.9c-0.3,0.3-0.5,0.5-0.6,0.6c-1.3,1.1-2.4,1.8-3.1,2.1
		c-1.2,0.7-2.3,1.2-3.1,1.3c-1,0.2-1.7,0.4-2.3,0.8c-1,0.4-2,0.6-3.2,0.7c-1.6,0.2-2.8,0.3-3.6,0.3c-0.4,0.1-0.9,0.1-1.7,0.1
		c-1.2,0-2.4-0.1-3.6-0.3c-2.8-0.2-5.3-0.5-7.5-1.1c-2.4-0.4-3.8-0.8-4.3-1.1c-0.2,0-0.8-0.4-1.7-1.2c-0.6-0.7-1.3-1.3-2.1-1.9
		c-0.3-0.1-0.6-0.3-1.1-0.6c-0.5-0.3-0.8-0.5-0.9-0.5c-0.7-0.4-1.3-0.9-1.7-1.7c-1.1-1.3-1.7-2.1-2-2.4c-0.4-0.4-1.1-1.4-1.9-2.8
		c-0.5-1-0.9-1.8-1.2-2.5c0-0.5-0.3-1.2-0.8-1.9c-0.4-0.4-0.7-1-0.9-1.6c-0.1-0.3-0.1-0.8-0.1-1.5c0-0.1-0.2-0.8-0.7-2.1
		c-0.4-0.9-0.7-1.7-0.7-2.5c0-0.4,0-1.2,0.1-2.4c0-2.8-0.1-4.8-0.4-6.1c-0.2-1.2-0.3-2.1-0.3-2.6c0-0.5,0.1-1.3,0.3-2.5
		c0.4-1.4,0.4-2.7,0.3-3.7c-0.1-0.4-0.1-1.3-0.1-2.5c0-1.1,0.1-2.1,0.4-3.1c0.2-1.2,0.5-1.9,1.1-2.3c0.4-0.3,0.7-0.9,0.9-2
		c0.1-0.3,0.2-0.7,0.3-1.3c0.1-0.6,0.2-0.9,0.2-1c0.1-0.5,0.4-1,0.9-1.3c0.5-0.3,1-0.6,1.3-0.9c0.4-0.7,0.6-1.3,0.8-1.7
		c0.4-1,0.9-1.9,1.6-2.7c0.6-0.9,1.3-1.5,2.1-1.9c0.9-0.4,1.5-0.8,1.7-1.1c0.5-0.5,1.4-1,2.5-1.5c0.4-0.2,0.9-0.4,1.5-0.7l0.8-0.5
		c0.4-0.4,1-0.6,1.6-0.8c0.5-0.3,1.2-0.5,1.9-0.7c0.5-0.3,1.2-0.4,2.1-0.4C518.7,133.5,519.6,133.3,520.6,133z"/>
	<path class="st0" d="M594.8,129.8c0.7-0.2,1.5-0.3,2.4-0.3c0.3,0,0.5,0,0.7,0c0.8,0,1.6,0.2,2.3,0.7c0.8,0.4,1.7,0.5,2.7,0.5
		c1.2,0,2.2,0.2,2.9,0.5c0.2,0.1,0.7,0.2,1.5,0.5c0.8,0.2,1.4,0.4,1.7,0.6c1.4,0.5,2.3,0.9,2.5,1.1c0.5,0.4,0.9,0.7,1.2,0.9
		c0.5,0.4,1.2,0.7,2,0.9c0.9,0.3,1.5,0.7,1.9,1.2c0.6,0.6,1.1,1,1.3,1.1l0.7,0.5c0.4,0.3,0.8,0.5,1.1,0.7c0.8,0.6,1.3,1.2,1.6,1.7
		c0.4,0.5,0.8,0.9,1.3,1.2c0.4,0.3,0.9,1,1.3,2.1c0.5,1.4,0.8,2.3,0.8,2.7c0,0.1,0.1,0.4,0.3,1c0.2,0.6,0.4,1,0.5,1.3
		c0.1,0.2,0.2,0.5,0.3,1c0.1,0.5,0.3,1,0.5,1.4c0.2,0.4,0.3,0.8,0.4,1.2c0.5,1.6,0.8,2.6,0.8,2.9c0,0.3,0.2,1.1,0.5,2.5
		c0,0.2,0.1,0.7,0.2,1.5s0.2,1.3,0.2,1.5c0,0.6,0.2,1.5,0.5,2.5c0.2,0.9,0.3,1.6,0.3,2.1c0,0.2,0,0.4,0,0.7c0,0.6-0.1,1.2-0.4,1.7
		c-0.2,0.3-0.4,1.3-0.5,3.1c0,1-0.1,2.3-0.4,3.9c-0.2,0.5-0.5,1.7-0.9,3.6c-0.3,1.2-0.6,2.4-1.1,3.9c-0.4,1.3-0.8,2.2-1.1,2.5
		c-0.4,0.8-0.7,1.2-0.9,1.3c-0.3,0.3-0.7,0.8-1.2,1.7c-0.4,0.6-1,1.5-2,2.7c-1,1.2-1.6,2-1.7,2.3c-0.3,0.6-1.1,1.2-2.5,1.9
		c-1.5,0.6-2.8,1.3-3.7,2c-0.8,0.6-1.6,1.1-2.3,1.3c-0.3,0-1.1,0.3-2.5,0.9c-1,0.5-2.5,0.9-4.5,1.1c-1.7,0-3,0.2-3.9,0.5
		c-0.4,0.1-1.7,0.2-4.1,0.4c-1.8,0-3.3-0.2-4.7-0.5c-1.4-0.4-2.4-0.5-3.1-0.5c-1,0-1.9-0.1-2.7-0.4c-1.1-0.4-1.8-0.5-2.3-0.5
		c-1-0.4-1.6-0.6-1.9-0.8c-0.9-0.4-1.7-0.7-2.5-0.9c-0.7-0.1-1.4-0.3-2-0.7c-0.2-0.1-0.4-0.3-0.7-0.6c-0.3-0.3-0.6-0.5-0.7-0.6
		l-1.3-1.3c-0.6-0.6-1.1-1.2-1.5-1.6c-0.4-0.4-1.1-1.2-2.3-2.1c-1.1-0.6-1.7-1.2-1.9-1.7c-0.1-0.4-0.4-0.8-0.8-1.5
		c-0.4-0.7-0.7-1.2-0.8-1.3c-0.2-0.3-0.4-1.1-0.5-2.4c-0.1-0.9-0.4-2.2-0.9-3.9c-0.3-0.5-0.7-1.7-1.3-3.6c-0.4-1-0.7-2.5-0.8-4.5
		c-0.3-3.5-0.4-5.7-0.4-6.8c0-2.5,0.1-3.9,0.3-4.3c0.2-0.5,0.3-1.5,0.3-2.8c0-1.1,0.2-2.2,0.5-3.5c0.3-0.8,0.4-1.6,0.4-2.4
		c0-0.5,0.2-1.2,0.5-2.1c0.1-0.5,0.3-1.2,0.5-2c0-0.4,0.4-1.1,1.2-1.9c0.7-1.1,1.2-1.7,1.5-2c0.4-0.7,0.6-1.3,0.8-1.7
		c0.4-0.8,0.8-1.4,1.3-1.7c0.8-0.5,1.5-1.2,2.1-2.1c0.8-0.8,1.8-1.6,3.1-2.5c1.4-0.8,2.4-1.2,3.1-1.3l2.1-0.5c0.1,0,0.7-0.3,1.7-0.8
		c0.4-0.4,0.9-0.8,1.5-0.9c0.2-0.1,1.1-0.1,2.7-0.1c1.7,0,2.8,0,3.2,0.1c0.7,0.2,1.3,0,1.7-0.4c0.6-0.6,1.1-1,1.3-1.1L594.8,129.8z
		 M601.3,140.7c-1-0.3-2.2-0.4-3.7-0.4h-1.1c-0.8,0-1.5,0-2,0.1c-0.2,0-0.6,0-1.4,0.1c-0.8,0-1.4,0.1-1.8,0.1
		c-1.3,0-2.3,0.1-2.8,0.3c-0.5,0.3-0.9,0.5-1.2,0.8c-0.8,0.5-1.4,0.8-1.9,0.9c-0.7,0.3-1.2,0.6-1.5,1.1c-0.4,0.5-0.8,1-1.2,1.5
		c-0.8,0.8-1.4,1.4-1.7,1.9c-0.5,0.9-1,1.8-1.5,2.7c-0.3,1-0.7,1.7-1.2,2.1c-0.4,0.4-0.6,0.9-0.8,1.7c-0.1,0.4-0.3,1.1-0.5,1.9
		c-0.2,0.4-0.4,1.8-0.5,4.1c-0.1,0.9-0.1,1.8-0.1,2.7s0,1.6,0.1,2.1c0,0.3,0,0.9,0.1,1.8c0,0.9,0.1,1.6,0.1,2.1
		c0,1.6,0.1,2.7,0.4,3.3c0.2,0.3,0.4,1.3,0.5,3.2c0.1,1.5,0.4,2.6,0.9,3.2c0.4,0.4,0.7,1.2,0.8,2.3c0.2,1.2,0.3,2,0.4,2.1
		c0.2,0.4,0.6,1.1,1.3,1.9c0.7,1,1.5,1.7,2.4,2.1c1.1,0.5,1.9,1.2,2.5,2c0.9,0.9,1.9,1.5,3.1,1.7c0.9,0.3,2.4,0.5,4.4,0.7
		c1.8,0,2.9-0.1,3.3-0.4c0.4-0.2,1.3-0.4,2.9-0.5c1.4,0,2.8-0.3,4-0.9c1.4-0.7,2.2-1.2,2.3-1.3l1.2-0.8c0.3-0.3,0.6-0.8,1.1-1.7
		c0.3-0.5,0.7-1.1,1.3-1.7c0.6-0.4,1.2-1.1,1.7-2c0.4-0.6,1-1.5,1.6-2.7c0.4-1,0.6-1.9,0.8-2.8c0.3-1,0.4-1.8,0.4-2.5
		c0-0.9,0-1.5-0.1-1.9c-0.1-0.7,0-1.4,0.3-2.1c0.3-0.6,0.4-2.3,0.4-5.1c0-2.7-0.1-4.3-0.4-4.8c-0.3-0.4-0.5-1.1-0.7-2.3
		c0-0.5-0.2-1.7-0.7-3.5c-0.4-1.2-0.5-2-0.5-2.4c-0.1-0.3-0.4-0.7-0.9-1.2c-0.5-0.2-1.2-1-1.9-2.5c-0.4-0.7-0.6-1.2-0.9-1.6
		c-0.2-0.4-0.4-0.6-0.7-0.9c-0.2-0.2-0.8-0.6-1.7-1.3l-2.4-1.9l-0.5-0.5C603.2,141.1,602.5,140.9,601.3,140.7z"/>
	<path class="st0" d="M684.9,130.7c0.8-0.3,1.4-0.4,1.7-0.4c0.4,0.2,1,0.3,2,0.3c1.4,0.3,2.2,0.4,2.3,0.4c0.5,0.2,1.2,0.5,2.1,0.9
		c0.6,0.5,1.6,1,2.9,1.3c1.2,0.4,2.2,0.8,2.8,1.2c0.9,0.4,1.5,0.8,1.9,1.5c0.3,0.5,0.9,1.3,2,2.4c1.1,1,1.8,2,2.1,2.9
		c0.4,0.6,0.8,1.7,1.5,3.3c0.6,1.2,0.9,2.1,0.9,2.7c0,0.6,0.1,1.2,0.4,1.9c0.4,0.6,0.6,1.9,0.7,3.9c0.1,0.4,0.2,1.4,0.3,2.7
		c0.1,1.4,0.2,2.3,0.2,2.7c0.2,1.1,0.3,1.8,0.3,2.3c0,0.5-0.1,0.9-0.3,1.1c-0.2,0.5-0.3,1.2-0.3,2c0,0.6,0.1,1.3,0.3,2
		c0.1,0.4,0.1,0.7,0.1,0.9c0,0.5-0.1,1.3-0.4,2.3c-0.2,0.8-0.4,2.2-0.7,4.1c-0.2,1.3-0.1,2.4,0.1,3.3c0.4,0.9,0.5,2.2,0.4,3.9
		c0,1.3-0.2,2.5-0.5,3.6c-0.4,0.9-0.5,1.7-0.5,2.4c0,0.5,0.2,1.8,0.5,3.7c0.4,1.7,0.4,3,0.1,4c-0.1,0.5-0.3,1.5-0.5,2.8
		c0,0.6-0.1,1.2-0.4,1.7c-0.2,0.4-0.6,0.8-1.2,1.2c-0.7,0.5-1.3,0.8-1.9,0.8c-0.6,0.1-1.8-0.2-3.5-0.8c-0.4-0.2-1-0.4-1.7-0.5
		c-0.6-0.3-1-0.4-1.1-0.4c-0.3,0-0.7-0.1-1.2-0.4c-0.5-0.4-0.8-0.8-0.9-1.5c-0.2-0.4-0.3-2.1-0.3-5.1c0-2.8-0.1-4.8-0.4-5.9
		c-0.3-1.2-0.4-2.1-0.4-2.9c0-0.4,0-0.8,0-1.2c0.1-0.7,0.1-1.9,0.1-3.5v-10.1c-0.1-5.9-0.3-9.2-0.5-9.9c-0.4-0.6-0.4-1.4-0.3-2.4
		c0-0.8,0.1-1.6,0.3-2.3c0.2-0.5,0.1-1.4-0.3-2.7c-0.1-0.4-0.3-1.2-0.7-2.4c-0.2-0.4-0.7-1.1-1.6-2.1c-1.1-1.2-1.9-2-2.4-2.1
		c-1.1-0.4-1.9-0.7-2.4-0.8c-1.1-0.4-1.8-0.7-2.3-0.8c-0.4-0.2-1.4-0.5-2.8-0.9c-1.2-0.2-2.4-0.1-3.6,0.1c-1,0.2-2,0.4-2.9,0.8
		c-0.9,0.4-1.5,0.5-1.9,0.5c-0.6,0.2-1.2,0.6-1.7,1.3c-0.6,0.4-1.2,1.1-1.9,2c-0.5,0.7-1,1.2-1.5,1.3c-0.7,0.4-1.2,0.7-1.3,0.8
		c-0.4,0.2-0.8,0.8-1.3,1.7c-0.5,0.7-0.8,1.4-0.8,2.1c0,0.1-0.1,0.5-0.3,1.2c-0.2,0.7-0.3,1.3-0.4,1.7c0,0.3-0.1,0.9-0.3,1.9
		c-0.2,1-0.3,1.8-0.4,2.3c-0.2,1.8-0.3,4.5-0.3,8.1c-0.1,1.9-0.1,3.2-0.1,3.9c0,1.5,0.1,2.4,0.4,2.8c0.2,0.7,0.3,1.2,0.3,1.6
		c0,0.5-0.1,1.2-0.3,1.9c-0.3,0.5-0.4,1.1-0.4,1.7c0,0.4,0.2,1.2,0.5,2.4c0.3,1,0.4,2.3,0.3,3.9c0,1.3-0.2,2.4-0.5,3.3
		c-0.2,0.9-0.2,1.6-0.1,2.3c0,0.7,0.1,1.6,0.3,2.7c0.1,0.8-0.2,1.9-0.8,3.3c-0.5,1.2-1.1,2-1.6,2.4c-0.4,0.3-1.6,0.4-3.6,0.5
		c-2.2,0-3.5,0-3.9-0.1c-0.3-0.1-0.8-0.4-1.6-0.9c-0.4-0.6-0.7-1.2-0.8-1.6c-0.2-0.7-0.4-1.5-0.7-2.3c-0.3-1-0.4-5-0.4-12.1
		c0-2.4,0-4.3,0-5.9c0-3.2-0.1-5.1-0.3-5.9c-0.2-0.5-0.3-1.2-0.3-1.9c0-0.5,0-1.5,0.1-2.9c0.2-2.7,0.3-6.3,0.3-10.9
		c0-5-0.1-7.9-0.4-8.7c-0.3-0.8-0.4-1.5-0.4-2.1c0-0.3,0.2-0.9,0.5-2c0.3-1.1,0.4-2.7,0.4-4.8c0-2.3,0.2-3.6,0.5-4
		c0.4-0.4,0.9-0.6,1.6-0.8c0.7-0.2,1.3-0.4,1.9-0.7c0.5-0.4,1.2-0.6,1.9-0.4c0.3,0,0.9,0.1,2,0.4c0.2,0,0.5,0,0.9,0.1
		c0.4,0.1,0.8,0.2,0.9,0.3c0.5,0,1.1,0.4,1.6,1.3c0.2,0.3,0.5,0.7,0.9,1.4s0.6,1,0.7,1.1c0.5,0.7,1,1.2,1.5,1.5c0.4,0,1-0.2,1.6-0.5
		c0.5-0.3,1-0.6,1.5-1.1c0.4-0.4,0.9-0.8,1.5-1.1c0.8-0.3,1.3-0.6,1.5-1.1c0.3-0.4,1.2-0.9,2.8-1.5c1.3-0.6,2.5-1,3.6-1.2
		c0.4-0.1,1.2-0.4,2.3-0.9c0.7-0.4,1.6-0.7,2.8-0.7C682.9,131,683.9,130.9,684.9,130.7z"/>
	<path class="st0" d="M784.5,103.5c1.1-0.4,1.8-0.5,2.1-0.5c0.4,0,0.9,0.1,1.5,0.4c0.7,0.2,1.2,0.4,1.5,0.7c0.2,0.4,0.3,0.7,0.3,1.1
		c0,0.1,0.1,0.4,0.2,1c0.1,0.6,0.2,1,0.2,1.1c0.3,0.8,0.5,2,0.7,3.5c0.4,2.8,0.5,4.2,0.5,4.3c0,1.9-0.1,3.1-0.3,3.7
		c-0.3,1-0.4,2-0.3,2.9c0.1,0.5,0.1,1.2,0.1,2c0,0.2-0.1,1.2-0.3,3.2c-0.3,1.8-0.3,3.1-0.1,3.9c0.1,0.4,0.1,1.2,0.1,2.4
		c0,0.8,0.2,1.7,0.5,2.8c0.3,0.7,0.4,1.2,0.4,1.4c0,0.2-0.1,0.7-0.4,1.5c-0.4,0.9-0.5,2.1-0.5,3.6c0,0.7,0,2.3,0.1,4.8
		c0,1.1,0,2.5,0.1,4.4c0.1,1.9,0.1,2.8,0.1,2.9c0,0.3-0.1,1-0.3,2.3c-0.2,0.8-0.3,1.9-0.3,3.3c0,1,0,2.4,0.1,4.1
		c0.1,1.1,0.2,2.4,0.3,4.1c0.1,1.7,0.1,2.7,0.1,2.9c0.1,0.9,0,1.6-0.1,2.3c-0.2,0.4-0.3,4.7-0.3,12.6c0,7.9-0.1,12.1-0.3,12.5
		c-0.5,0.5-1,0.8-1.3,0.9c-0.5,0.3-1.3,0.4-2.3,0.4c-1.6,0-2.8,0-3.7-0.1c-1.7-0.2-2.7-0.4-3.1-0.8c-0.4-0.2-0.9-1-1.6-2.5
		c-0.4-0.9-0.8-1.4-0.9-1.7c-0.2-0.2-0.4-0.3-0.8-0.3c-0.4-0.2-1.2,0-2.3,0.5c-1.1,0.4-1.7,0.7-1.9,0.9c-0.3,0.3-0.8,0.5-1.5,0.8
		c-0.8,0.4-1.3,0.8-1.6,1.2c-0.4,0.6-1.6,1.3-3.6,2c-2,0.8-3.4,1.3-4.4,1.5c-1,0.3-1.9,0.4-2.7,0.4c-1.5,0-2.7,0-3.6-0.1
		c-1.5-0.2-2.6-0.4-3.2-0.5c-0.4-0.2-1.1-0.3-2.3-0.3c-1.2,0-2.4-0.2-3.6-0.7c-1.8-0.6-2.8-1-2.9-1.1c-0.7-0.4-1.5-0.9-2.4-1.5
		c-1.2-0.8-2.4-2-3.9-3.6l-3.3-3.5c-0.7-0.9-1.2-1.6-1.5-2.1l-1.3-1.9c-0.4-0.5-0.8-1.1-0.9-1.7c0-0.4-0.2-1.1-0.5-2.1
		c-0.4-0.9-0.5-1.7-0.5-2.4c0-0.7-0.1-1.3-0.3-1.9c-0.3-0.6-0.5-1.4-0.7-2.4c0-1-0.2-1.9-0.5-2.8c-0.2-1.2-0.3-3.8-0.3-7.6
		c0.1-4.3,0.3-6.8,0.5-7.3c0.4-0.7,0.5-1.7,0.5-2.9c0.2-1.5,0.4-2.7,0.7-3.6c0.4-1.1,0.9-2,1.6-2.9c0.6-0.6,1-1.1,1.1-1.3
		c0.1-0.3,0.2-0.9,0.3-1.9c0-1.1,0.3-2.1,0.8-3.1c0.6-0.8,1-1.4,1.2-1.9c0.5-0.5,0.9-0.8,1.2-0.9c0.4-0.3,1.1-0.9,1.9-2
		c0.5-0.9,1.3-1.5,2.3-1.9c0.8-0.3,1.5-0.7,2.1-1.3c0.6-0.6,1.2-1,1.7-1.2c0.2,0,0.4,0,0.8-0.1c0.4,0,0.6-0.1,0.8-0.1
		c0.4,0,1-0.2,1.7-0.5c0.9-0.4,1.6-0.5,2.3-0.5c1.6-0.3,2.4-0.4,2.5-0.5c0.9-0.2,1.9-0.3,2.9-0.3c1.3,0,2.4-0.2,3.2-0.5
		c0.9-0.3,1.6-0.4,2.3-0.3c0.5,0.2,1.4,0.5,2.5,0.9c1.5,0.4,2.6,0.7,3.3,0.8c1.2,0.2,2.4,0.6,3.6,1.2c1.6,0.9,2.6,1.5,2.9,1.9
		c0.4,0.4,0.7,0.9,1.1,1.6l1.1,1.6c0.6,0.6,1,1.2,1.1,1.6c0.4,0.5,0.7,0.9,1.1,1.1c0.4,0.2,0.6,0.3,0.8,0.3c0.2,0,0.4-0.1,0.7-0.4
		s0.4-0.8,0.4-1.6c0-0.7-0.1-1.4-0.3-2.1c-0.3-0.5-0.4-1.3-0.4-2.3c0-0.9,0.1-1.6,0.3-2.1c0.2-0.5,0.3-1.4,0.3-2.5
		c0.1-1.2,0-2.4-0.4-3.5c-0.4-1-0.5-2.3-0.5-4c0-1.7,0.1-2.9,0.4-3.6c0.3-0.6,0.4-2,0.4-4.1c0-2.3,0-3.7-0.1-4.3
		c-0.3-1.1-0.2-2.1,0.1-3.2c0.2-1.2,0.5-2,0.9-2.7c0.4-0.6,0.8-1,1.2-1.2c0.4-0.2,0.9-0.3,1.7-0.3
		C782.6,103.9,783.6,103.8,784.5,103.5z M765.9,142c-0.9-0.6-1.6-1-2-1.1c-0.4-0.1-1.7-0.1-3.7-0.1c-2.5,0-4.3,0.1-5.3,0.4
		c-0.3,0.1-0.8,0.4-1.6,0.8c-0.3,0.1-0.4,0.2-0.5,0.3l-1.6,0.8c-0.4,0-1,0.4-2,1.2c-0.7,0.6-1.3,1-1.7,1.2c-0.4,0.2-1,0.9-1.9,2.3
		c-0.9,1.3-1.6,2.6-2,3.9c-0.4,1.7-0.7,2.7-0.8,2.9c0,0.4-0.3,1.4-0.9,2.8c-0.4,1.1-0.7,2-0.7,2.7c0,0.3,0,0.6,0,1.1
		c0,2.2,0,3.7,0.1,4.5c0.2,2.2,0.4,3.6,0.5,4c0.3,1.7,0.4,2.6,0.5,2.8c0.1,0.9,0,1.6-0.1,2.3c-0.1,0.8,0,1.6,0.3,2.4
		c0.3,0.8,0.4,1.6,0.4,2.4c0,0.6,0.3,1.6,0.9,2.8c0.8,1.4,1.8,2.7,3.1,3.9c1.7,1.7,2.8,2.8,3.2,3.3c0.8,0.8,1.6,1.3,2.4,1.6
		c1.1,0.4,1.7,0.5,2,0.5l2,0.4c1.1,0.4,1.8,0.5,2.3,0.5c0.5,0,1.2-0.1,1.9-0.3c0.3-0.2,1.3-0.4,3.2-0.5c1.2-0.1,2.4-0.3,3.9-0.5
		c1.1-0.4,2.2-1,3.3-2c1.3-1.1,2.1-2,2.4-2.7c0.4-0.9,0.7-1.5,0.9-1.7c0.2-0.2,0.4-0.5,0.7-0.9c0.3-0.4,0.4-0.7,0.5-0.8
		c0.3-0.5,0.7-1.5,1.2-2.9c0.3-0.8,0.6-1.7,1.1-2.7c0.4-0.8,0.7-2.3,0.7-4.4c0-2.5,0-3.9-0.1-4.4c-0.1-0.5,0-1.3,0.3-2.3
		c0.2-0.5,0.3-0.9,0.3-1.1c0-0.2-0.1-0.6-0.4-1.3c-0.3-0.6-0.5-1.6-0.7-2.9c0-1.1-0.1-2-0.4-2.8c-0.2-1.1-0.3-1.8-0.3-2.1
		c0-0.4-0.2-1.3-0.5-2.5c-0.1-0.3-0.2-0.7-0.5-1.3c-0.2-0.6-0.3-0.9-0.3-1c-0.1-0.4-0.4-0.9-0.9-1.3c-0.4-0.4-0.7-0.8-1.1-1.3
		c-0.5-0.8-0.9-1.4-1.2-1.7c-0.3-0.4-1-0.9-2.3-1.6c-0.9-0.4-1.6-0.9-2.1-1.5C768,143.5,767.2,142.9,765.9,142z"/>
	<path class="st0" d="M824.9,129.1c1.2-0.4,2.1-0.7,2.9-0.7c1.2,0.2,2,0.4,2.7,0.7c0.9,0.4,2.4,0.7,4.7,0.7c2.4,0,4,0.1,4.8,0.4
		c0.8,0.1,1.6,0.5,2.4,1.2c0.3,0.3,0.6,0.6,1.1,1.1c0.5,0.4,0.8,0.8,1,0.9l1.7,1.7c0.5,0.6,0.8,1.4,0.9,2.4c0.2,1.2,0.4,2.1,0.7,2.5
		c0.3,0.7,0.3,1.4,0.1,2.1c-0.2,0.7-0.3,1.3-0.3,1.7c0,0.2-0.1,0.7-0.4,1.5c-0.4,0.5-0.8,0.8-1.3,0.9h-3.3c-1.7,0-2.8-0.1-3.3-0.4
		c-0.1-0.1-0.4-0.3-0.9-0.5c-0.5-0.3-0.9-0.4-1.1-0.5c-0.8-0.4-1.6-1-2.3-2c-0.1-0.1-0.8-0.9-2-2.5c-0.6-0.8-1.3-1.2-2-1.3
		c-0.7-0.2-1.6-0.2-2.5,0c-0.9,0-1.8,0.3-2.8,0.8c-0.7,0.4-1.5,0.9-2.3,1.7c-0.7,0.9-1.2,1.6-1.3,2.1c-0.4,0.8-0.7,2.1-0.7,3.9
		c0,1.8,0.3,3.1,0.9,3.9c0.4,0.6,1,1.2,1.9,1.7c0.8,0.4,1.4,0.9,1.9,1.6c0.1,0.1,0.3,0.4,0.7,0.8c0.4,0.4,0.6,0.8,0.7,0.9
		c0.4,0.4,1,0.7,1.7,0.8c1,0.2,2,0.5,3.1,0.9c1.2,0.4,2,1,2.5,1.7c0.8,1,1.3,1.5,1.6,1.6c0.3,0.3,0.9,0.6,2,0.9
		c0.3,0.1,0.7,0.2,1.3,0.4c0.6,0.2,1,0.3,1.2,0.3l2,0.4c0.7,0.2,1.3,0.6,1.9,1.2c0.8,0.8,1.3,1.3,1.6,1.5c0.4,0.3,0.8,0.6,0.9,1.1
		c0.4,0.7,0.7,1.2,0.9,1.5c0.4,0.4,0.6,0.8,0.8,1.3c0.2,0.5,0.3,1.1,0.3,1.6c0,0.6,0.2,1.3,0.5,2c0.4,0.5,0.5,1.3,0.5,2.3
		c0,0.4,0,1.3-0.1,2.7c0,2.6-0.2,4.4-0.5,5.6l-0.4,2.8c0,0.7-0.1,1.3-0.3,1.9c-0.2,0.6-0.6,1.2-1.2,1.9c-0.7,0.9-1.3,1.6-1.9,2.1
		c-0.8,1.1-1.3,1.7-1.5,2c-0.4,0.7-0.8,1.2-1.3,1.5c-0.4,0.3-1.4,0.8-3.2,1.6c-1.6,0.5-2.9,0.9-4,1.1c-1.2,0.2-2,0.4-2.3,0.7
		c-0.7,0.2-1.6,0.3-2.8,0.3c-1.5,0-2.7,0.1-3.5,0.4c-0.5,0.2-1.2,0.3-2.1,0.3c-0.2-0.1-1.2-0.2-3.1-0.4c-1.5-0.1-2.8-0.4-3.9-0.9
		c-1.2-0.6-2.4-1.5-3.5-2.5c-1.9-1.3-2.8-2-2.9-2.1c-0.5-0.3-1-0.6-1.5-1.1c-0.1,0-0.7-1-1.7-3.1c-0.3-0.6-0.6-1.4-1.1-2.3l-0.8-1.2
		c-0.4-0.6-0.7-1.2-0.7-1.7c0.2-1.1,0.5-2,1.1-2.9c0.7-1.3,1.3-2.1,1.9-2.3c0.4-0.3,2.3-0.4,5.6-0.4c3,0,4.8,0.1,5.3,0.3
		c0.4,0.2,0.7,0.4,0.9,0.7c0.4,1,0.5,1.6,0.5,1.7c0.1,0.6,0.6,1.8,1.5,3.5c0.5,1.2,1.2,2.2,1.9,3.2c0.6,0.5,1.6,0.9,2.9,1.2
		c1.4,0.2,2.3,0.3,2.5,0.3c0.5,0,1.1-0.2,1.7-0.7c0.7-0.5,1.6-1.8,2.7-3.7c1.1-2,1.6-3.5,1.6-4.7c0-0.9-0.1-2-0.3-3.5
		c-0.4-1.5-0.7-2.4-0.8-2.5c-0.3-0.6-1-1.2-2.3-1.9c-0.8-0.3-1.6-0.7-2.5-1.3c-0.3-0.4-0.8-0.8-1.6-0.9c-0.4-0.2-1-0.4-1.7-0.8
		c0-0.1-0.6-0.4-1.7-1.1c-0.9-0.4-1.3-0.7-1.3-0.9l-1.6-1.1c-1.3-0.8-2.1-1.3-2.4-1.6c-0.7-0.6-1.6-0.9-2.7-0.9
		c-1.1,0-1.8-0.1-2.1-0.3c-0.4-0.2-0.9-0.6-1.6-1.3c-0.8-1-1.2-1.6-1.3-2c-0.1-0.4-0.5-0.9-1.2-1.3c-0.8-0.4-1.2-0.9-1.3-1.3
		c-0.2-0.5-0.3-1.1-0.3-1.6c0-0.6-0.2-1.4-0.5-2.3c-0.4-1-0.7-2.5-0.8-4.7c-0.2-2.3-0.3-3.5-0.4-3.7c0-0.4,0.1-1.1,0.4-1.9
		c0.1-0.3,0.2-0.7,0.4-1.2c0.2-0.5,0.3-0.8,0.3-0.9c0-0.1,0.5-1.3,1.6-3.6c1-2,1.7-3.1,2.1-3.6c0.3-0.2,1-0.8,2.3-1.7
		c1-0.7,1.6-1.3,2-1.7c0.4-0.4,0.9-0.7,1.5-0.8c0.1,0,0.4-0.1,1-0.3c0.6-0.2,1-0.3,1.3-0.4c0.2,0,0.5-0.1,1.1-0.2
		c0.5-0.1,0.9-0.2,1.1-0.2C823.3,129.8,824,129.5,824.9,129.1z"/>
</g>
</svg>
