<?xml version="1.0" encoding="utf-8"?>
<!-- Generator: Adobe Illustrator 18.1.1, SVG Export Plug-In . SVG Version: 6.00 Build 0)  -->
<svg version="1.1" id="Layer_1" xmlns="http://www.w3.org/2000/svg" xmlns:xlink="http://www.w3.org/1999/xlink" x="0px" y="0px"
	 viewBox="0 0 1230 700" style="enable-background:new 0 0 1230 700;" xml:space="preserve">
<style type="text/css">
	.st0{display:none;fill:#0091EA;stroke:#FFFFFF;stroke-miterlimit:10;}
	.st1{fill:none;stroke:#FFFFFF;stroke-width:2;stroke-miterlimit:10;}
	.st2{fill:#FFFFFF;}
</style>
<rect x="-210.8" y="63.5" class="st0" width="1111.8" height="378.9"/>
<circle class="st1" cx="87.4" cy="239" r="45.9"/>
<g>
	<path class="st1" d="M78.5,253.4l0.7-5c0.2-1.3,0.4-2.4,0.7-3.4c0.3-0.9,0.6-1.8,1.1-2.5c0.5-0.8,1.1-1.5,1.8-2.2
		c0.7-0.7,1.6-1.5,2.7-2.5l7.9-7c1.7-1.6,2.8-3.5,3.1-5.9c0.3-2.3-0.2-4.2-1.5-5.7c-1.3-1.5-3.1-2.2-5.4-2.2c-2.5,0-4.7,0.9-6.6,2.6
		c-1.9,1.7-3.1,3.8-3.6,6.3L67.9,225c1.5-5.8,4.4-10.2,8.6-13.4c4.2-3.2,9.2-4.8,15-4.8c2.7,0,5.1,0.4,7.3,1.2
		c2.2,0.8,4,1.9,5.5,3.4c1.5,1.5,2.6,3.3,3.2,5.5c0.7,2.2,0.8,4.7,0.4,7.5c-0.3,2-0.8,3.7-1.5,5.2c-0.7,1.5-1.6,2.9-2.7,4.1
		c-1.1,1.3-2.3,2.5-3.6,3.6c-1.4,1.1-2.8,2.3-4.3,3.6c-1,0.8-1.8,1.5-2.4,2.1c-0.7,0.6-1.2,1.2-1.7,1.8c-0.5,0.6-0.9,1.4-1.2,2.2
		c-0.3,0.8-0.5,1.8-0.7,2.9l-0.5,3.4H78.5z M74.9,265.9c0.3-1.9,1.2-3.6,2.8-5c1.6-1.4,3.4-2.1,5.4-2.1c1.9,0,3.5,0.7,4.8,2
		c1.3,1.3,1.8,2.9,1.5,4.9c-0.3,1.9-1.2,3.6-2.8,5c-1.6,1.4-3.4,2.1-5.4,2.1c-1,0-1.8-0.2-2.7-0.5s-1.5-0.8-2.1-1.4
		c-0.6-0.6-1-1.3-1.3-2.2C74.9,267.8,74.8,266.9,74.9,265.9z"/>
</g>
<circle class="st1" cx="200.2" cy="239" r="45.9"/>
<polygon class="st1" points="186.1,213.5 230.4,239 186.1,264.6 "/>
<circle class="st1" cx="316.6" cy="239" r="45.9"/>
<g>
	<path class="st1" d="M310.5,253c-4.3,2.1-8.9,3.2-13.7,3.2c-2.5,0-4.7-0.4-6.7-1.2c-2-0.8-3.6-1.9-4.9-3.4
		c-1.3-1.5-2.2-3.2-2.8-5.3c-0.6-2.1-0.7-4.3-0.3-6.9c0.4-2.6,1.1-4.9,2.2-7c1.1-2.1,2.6-3.9,4.3-5.4c1.7-1.5,3.7-2.6,5.9-3.4
		c2.2-0.8,4.5-1.2,7-1.2c2.5,0,4.7,0.3,6.8,0.9c2.1,0.6,3.8,1.6,5.3,3.2l-4.8,4.3c-0.9-1-2-1.8-3.4-2.3c-1.4-0.5-2.9-0.8-4.5-0.8
		c-1.7,0-3.2,0.3-4.7,0.9c-1.4,0.6-2.7,1.4-3.8,2.4c-1.1,1-2,2.3-2.8,3.7c-0.7,1.4-1.2,2.9-1.4,4.5c-0.2,1.7-0.2,3.3,0.1,4.8
		c0.3,1.5,0.9,2.7,1.7,3.8c0.8,1.1,1.9,1.9,3.1,2.5c1.3,0.6,2.7,0.9,4.4,0.9c1.5,0,2.8-0.1,4.2-0.4c1.3-0.3,2.5-0.7,3.6-1.3l1.1-7.6
		h-6.6l0.7-5.2h12.3L310.5,253z"/>
	<path class="st1" d="M314.5,244.4c0.2-1.7,0.8-3.3,1.6-4.7c0.8-1.4,1.8-2.6,3-3.6c1.2-1,2.6-1.8,4.1-2.3c1.5-0.5,3.1-0.8,4.7-0.8
		c1.6,0,3.1,0.3,4.5,0.8c1.4,0.5,2.5,1.3,3.4,2.3c0.9,1,1.6,2.2,2,3.6c0.4,1.4,0.5,3,0.3,4.7c-0.2,1.7-0.8,3.3-1.6,4.7
		c-0.8,1.4-1.8,2.6-3,3.6c-1.2,1-2.6,1.8-4.1,2.3c-1.5,0.5-3.1,0.8-4.7,0.8s-3.1-0.3-4.5-0.8c-1.4-0.5-2.5-1.3-3.4-2.3
		c-0.9-1-1.6-2.2-2-3.6C314.4,247.7,314.3,246.1,314.5,244.4z M320,244.4c-0.1,0.8-0.1,1.7,0.1,2.4c0.2,0.8,0.5,1.5,1,2.1
		c0.5,0.6,1.1,1.1,1.8,1.5c0.7,0.4,1.6,0.5,2.6,0.5s1.9-0.2,2.8-0.5c0.8-0.4,1.6-0.8,2.2-1.5s1.1-1.3,1.5-2.1
		c0.4-0.8,0.7-1.6,0.8-2.4c0.1-0.8,0.1-1.7-0.1-2.5c-0.2-0.8-0.5-1.5-1-2.1c-0.5-0.6-1.1-1.1-1.8-1.5c-0.7-0.4-1.6-0.5-2.6-0.5
		s-1.9,0.2-2.7,0.5c-0.8,0.4-1.6,0.8-2.2,1.5c-0.6,0.6-1.2,1.3-1.6,2.1C320.4,242.8,320.1,243.6,320,244.4z"/>
	<path class="st1" d="M339.9,252.1c0.2-1,0.6-1.8,1.4-2.5c0.8-0.7,1.7-1,2.7-1c1,0,1.8,0.3,2.4,1c0.6,0.7,0.9,1.5,0.8,2.5
		c-0.2,1-0.6,1.8-1.4,2.5c-0.8,0.7-1.7,1-2.7,1c-0.5,0-0.9-0.1-1.3-0.3s-0.8-0.4-1.1-0.7c-0.3-0.3-0.5-0.7-0.7-1.1
		S339.9,252.6,339.9,252.1z M347.3,245.2h-5.4l3.1-22h5.4L347.3,245.2z"/>
</g>
<circle class="st1" cx="432.1" cy="239" r="45.9"/>
<circle class="st1" cx="542.5" cy="235.3" r="45.9"/>
<g>
	<circle class="st1" cx="409.1" cy="239.6" r="6.1"/>
	<circle class="st1" cx="432.1" cy="239.6" r="6.1"/>
	<circle class="st1" cx="455.1" cy="239.6" r="6.1"/>
</g>
<g>
	<path class="st2" d="M290,306.3c-0.8-0.1-1.7-0.5-2.7-1.2c-1.1-0.7-1.8-1.3-2.2-2c-0.3,0.7-1,1.4-2.1,2.2c-1.1,0.8-2,1.2-2.9,1.4
		l-1.4-1.6c2.3-0.7,3.7-1.6,4.3-2.5c0.6-0.9,0.9-1.6,0.9-2H280V299h10.1v1.7h-3.9c0,0.4,0.4,1,1.2,1.9c0.8,0.9,2,1.6,3.7,2
		L290,306.3z M282.1,314.1v-6.4H295v6.4H282.1z M282.2,297.6v-1.7h5.8v1.7H282.2z M292.9,309.5h-8.6v2.9h8.6V309.5z M295,302.1v4.7
		h-2.1v-10.9h2.1v4.4h2.7v1.8H295z"/>
	<path class="st2" d="M311.6,300.4v-4.6h2.1v18.5h-2.1v-7.1h-4.1c-0.4,1.1-0.9,2-1.7,2.7c-0.8,0.7-1.7,1-2.8,1
		c-1.5,0-2.7-0.6-3.7-1.9c-0.9-1.2-1.4-2.9-1.4-5c0-2.1,0.5-3.7,1.4-5c0.9-1.2,2.1-1.8,3.7-1.8c1,0,1.9,0.3,2.7,0.8s1.3,1.3,1.7,2.4
		H311.6z M305.1,300.6c-0.5-1-1.2-1.5-2.2-1.5c-0.9,0-1.7,0.5-2.2,1.5c-0.5,1-0.8,2.1-0.8,3.5c0,1.3,0.3,2.5,0.8,3.5
		c0.5,1,1.2,1.5,2.2,1.5c1,0,1.7-0.5,2.2-1.5c0.5-1,0.7-2.2,0.7-3.5C305.9,302.7,305.6,301.6,305.1,300.6z M311.6,305.4v-3.1h-3.8
		c0,0.3,0.1,0.6,0.1,0.9s0,0.6,0,0.9c0,0.2,0,0.4,0,0.7c0,0.2,0,0.4-0.1,0.6H311.6z"/>
	<path class="st2" d="M315.5,302v-1.8H327v1.8H315.5z M324.9,310.5c-0.9,0.9-2.2,1.3-3.7,1.3c-1.5,0-2.7-0.4-3.7-1.3
		c-1-0.9-1.4-1.9-1.4-3c0-1.1,0.5-2.1,1.4-3s2.2-1.3,3.7-1.3c1.5,0,2.7,0.4,3.6,1.3c0.9,0.8,1.4,1.8,1.4,3
		C326.3,308.6,325.9,309.6,324.9,310.5z M318.2,298.5v-1.8h6.1v1.8H318.2z M323.4,305.8c-0.5-0.5-1.2-0.7-2.1-0.7
		c-0.9,0-1.7,0.3-2.2,0.8s-0.8,1.1-0.8,1.7c0,0.6,0.3,1.2,0.8,1.7s1.2,0.8,2.2,0.8c0.9,0,1.6-0.3,2.1-0.8c0.5-0.5,0.8-1.1,0.8-1.7
		C324.2,306.9,323.9,306.3,323.4,305.8z M331.1,295.9v7.5h2.8v1.9h-2.8v9.1H329v-18.5H331.1z"/>
	<path class="st2" d="M342,305.2c-1.4,2.6-3.6,4.6-6.5,6l-1.6-1.2c2.8-1.2,4.7-2.9,5.9-5c1.1-2.1,1.8-3.8,1.9-5.2h-6.6v-1.8h9.1
		C344.1,300.1,343.4,302.5,342,305.2z M348.2,314.3v-18.5h2.1v18.5H348.2z"/>
</g>
<g>
	<path class="st2" d="M181.5,298.1v-2.2h2.1v11.1h-2.1v-3.1h-4.8c-0.4,0.5-1,1-1.7,1.3s-1.5,0.5-2.3,0.5c-1.5,0-2.7-0.4-3.7-1.3
		s-1.4-2-1.4-3.2s0.5-2.3,1.4-3.2c1-0.9,2.2-1.3,3.7-1.3c0.8,0,1.6,0.1,2.3,0.4c0.7,0.3,1.2,0.7,1.7,1.2H181.5z M174.9,299.1
		c-0.5-0.5-1.2-0.8-2.2-0.8c-0.9,0-1.7,0.3-2.2,0.8c-0.5,0.5-0.8,1.2-0.8,1.9c0,0.8,0.3,1.4,0.8,1.9c0.5,0.5,1.2,0.8,2.2,0.8
		c1,0,1.7-0.3,2.2-0.8c0.5-0.5,0.8-1.2,0.8-1.9C175.7,300.2,175.4,299.6,174.9,299.1z M182.1,313.6c-1.2,0.7-2.9,1-5.2,1
		c-2.3,0-4-0.3-5.2-1c-1.2-0.7-1.8-1.6-1.8-2.7c0-1.1,0.6-2,1.8-2.7c1.2-0.7,2.9-1.1,5.2-1.1c2.3,0,4,0.4,5.2,1.1
		c1.2,0.7,1.8,1.6,1.8,2.7C183.8,312.1,183.2,312.9,182.1,313.6z M180.3,309.5c-0.9-0.4-2-0.6-3.4-0.6s-2.6,0.2-3.5,0.5
		c-0.9,0.3-1.3,0.8-1.3,1.5c0,0.6,0.4,1.1,1.3,1.5c0.9,0.4,2,0.6,3.5,0.6s2.6-0.2,3.4-0.5c0.9-0.3,1.3-0.8,1.3-1.4
		C181.6,310.4,181.1,309.9,180.3,309.5z M181.5,302v-2.1h-3.9c0,0.2,0.1,0.4,0.1,0.6c0,0.2,0,0.4,0,0.6c0,0.2,0,0.3,0,0.5
		s-0.1,0.3-0.1,0.5H181.5z"/>
	<path class="st2" d="M196.1,305.9c-1-0.4-2-1-2.9-1.8c-1-0.8-1.6-1.6-2-2.3c-0.4,0.9-1.1,1.8-2,2.7c-1,0.9-1.9,1.6-2.8,2l-1.5-1.4
		c1.8-0.8,3.1-1.8,4-3c0.9-1.2,1.3-2.6,1.3-4.1v-1.6h2.2v1.6c0,1.4,0.4,2.7,1.3,3.8c0.9,1.1,2.1,1.9,3.8,2.5L196.1,305.9z
		 M200.1,313.6c-1.2,0.7-2.9,1-5.2,1c-2.3,0-4-0.3-5.2-1c-1.2-0.7-1.8-1.6-1.8-2.7c0-1.1,0.6-2,1.8-2.7c1.2-0.7,2.9-1.1,5.2-1.1
		c2.3,0,4,0.4,5.2,1.1c1.2,0.7,1.8,1.6,1.8,2.7C201.9,312,201.3,312.9,200.1,313.6z M198.3,309.5c-0.9-0.4-2-0.6-3.4-0.6
		c-1.4,0-2.6,0.2-3.4,0.5c-0.9,0.4-1.3,0.9-1.3,1.5c0,0.6,0.4,1.1,1.3,1.5c0.9,0.4,2,0.6,3.4,0.6c1.4,0,2.5-0.2,3.4-0.6
		c0.9-0.4,1.3-0.9,1.3-1.5C199.6,310.3,199.2,309.8,198.3,309.5z M201.3,302.2v4.8h-2.1v-11.1h2.1v4.5h2.6v1.8H201.3z"/>
	<path class="st2" d="M203.2,312.1v-1.8h8.1v-3.5h-5.6V297h2.1v3.2h9.2V297h2.1v9.8h-5.7v3.5h8.1v1.8H203.2z M217,301.9h-9.2v3.1
		h9.2V301.9z"/>
	<path class="st2" d="M230.2,305.2c-1.4,2.6-3.6,4.6-6.5,6l-1.6-1.2c2.8-1.2,4.7-2.9,5.9-5c1.1-2.1,1.8-3.8,1.9-5.2h-6.6v-1.8h9.1
		C232.3,300.1,231.6,302.5,230.2,305.2z M236.4,314.3v-18.5h2.1v18.5H236.4z"/>
</g>
<g>
	<path class="st2" d="M382.5,299.8V298h8.6v1.8H388v0.7c0,0.9,0.2,2.3,0.6,4.1c0.4,1.8,1.6,3.5,3.5,4.9l-1.5,1.3
		c-0.6-0.4-1.4-1.2-2.2-2.2s-1.3-2-1.6-2.9c-0.3,0.9-0.8,1.9-1.5,3c-0.8,1-1.6,1.9-2.4,2.6l-1.7-1.3c2.1-1.6,3.4-3.3,3.8-5.3
		c0.4-2,0.7-3.4,0.7-4.3v-0.7H382.5z M393.1,313.5v-9.1H390v-1.8h3.1v-6.3h2v17.2H393.1z M397,314.3v-18.5h2v18.5H397z"/>
	<path class="st2" d="M411,306.2c-0.8-0.2-1.6-0.6-2.6-1.4c-1-0.7-1.7-1.4-2.2-2.2c-0.4,0.8-1,1.6-1.9,2.3c-0.9,0.7-1.8,1.3-2.9,1.7
		l-1.5-1.5c2-0.8,3.4-1.7,4.1-2.8c0.7-1.1,1.1-2.1,1.1-3.2v-0.5h-3.9V297h10.1v1.8h-3.9v0.5c0,1.1,0.4,2.1,1.2,3.1
		c0.8,1,2,1.8,3.7,2.3L411,306.2z M414.1,314.3v-4.6H403V308h13.3v6.4H414.1z M416.2,302.1v4.8h-2.1v-11h2.1v4.4h2.7v1.9H416.2z"/>
	<path class="st2" d="M429.6,306.4c-0.9-0.3-1.8-0.8-2.6-1.5c-0.8-0.7-1.5-1.4-2.1-2.2c-0.2,0.8-0.8,1.6-1.8,2.4c-1,0.8-2,1.5-3,1.9
		l-1.6-1.6c1.8-0.7,3.1-1.6,4-2.7c0.9-1.1,1.3-2.2,1.3-3.5v-0.5h-3.9V297h10.1v1.8h-3.9v0.5c0,1.2,0.4,2.3,1.3,3.2s2,1.7,3.5,2.3
		L429.6,306.4z M422.1,313.9V308h2.1v4.1h11.5v1.8H422.1z M433.3,309.2v-13.4h2.1v13.4H433.3z"/>
	<path class="st2" d="M437.9,314.9h-2.1l7.3-19.5h2.1L437.9,314.9z"/>
	<path class="st2" d="M457.7,312.5v-10.6l-0.2,0l-3.8,10.7h-2.3l-3.8-10.7l-0.2,0.1v10.6h-1.7v-14.7h2.1l4.8,12.8l4.7-12.8h2.2v14.7
		H457.7z"/>
	<path class="st2" d="M471.6,302c-0.3-0.7-0.7-1.4-1.3-2s-1.6-1-2.9-1c-1.5,0-2.6,0.5-3.5,1.6c-0.8,1.1-1.3,2.5-1.3,4.4
		c0,1.9,0.4,3.4,1.3,4.5c0.8,1.1,2,1.7,3.5,1.7c1.3,0,2.3-0.4,2.9-1.1c0.7-0.7,1.1-1.5,1.3-2.3l2.1,0c-0.3,1.1-0.9,2.3-1.9,3.4
		s-2.5,1.7-4.5,1.7c-2.1,0-3.8-0.7-5-2.2c-1.2-1.4-1.8-3.3-1.8-5.7c0-2.3,0.6-4.2,1.8-5.6c1.2-1.4,2.9-2.1,5-2.1
		c2,0,3.5,0.5,4.5,1.6c1,1.1,1.6,2.1,1.9,3.1H471.6z"/>
</g>
<g>
	<path class="st2" d="M66.4,312.1v-1.8h8.2v-4h2.1v4h8.2v1.8H66.4z M73,304.7c-1.4,1.1-2.8,1.8-4.1,2.2l-1.5-1.5
		c3.2-1.1,5.1-2.4,6-3.9c0.8-1.5,1.2-2.7,1.2-3.6v-1.5h2.2v1.5c0,0.9,0.4,2.1,1.3,3.6c0.9,1.6,2.8,2.8,5.9,3.9l-1.5,1.5
		c-1.4-0.4-2.8-1.2-4.1-2.3c-1.3-1.1-2.2-2.2-2.7-3.2C75.2,302.5,74.3,303.7,73,304.7z"/>
	<path class="st2" d="M92.1,305c-1,2.4-2.8,4.4-5.4,6l-1.6-1.2c2.7-1.5,4.4-3.4,5.1-5.4c0.7-2.1,1.1-3.6,1.1-4.4h-5.1v-1.8h7.4
		C93.6,300.3,93.1,302.6,92.1,305z M99.8,314.3v-9.5h-2.2v8.7h-2v-17.2h2v6.6h2.2v-7h2v18.5H99.8z"/>
</g>
<g>
	<path class="st2" d="M527.1,306.3c0.5,0.8,0.7,1.6,0.6,2.6c-0.1,1.2-0.7,2.2-1.8,3.2c-1.1,0.9-2.5,1.4-4.4,1.4c-2,0-3.6-0.7-4.7-2
		c-1.2-1.3-1.7-2.6-1.7-4h2.9c0,0.9,0.4,1.6,1,2.2c0.7,0.6,1.5,0.9,2.5,0.9c0.9,0,1.6-0.2,2.1-0.5c0.5-0.3,0.8-0.8,0.9-1.3
		c0.1-0.4,0-0.9-0.2-1.2c-0.3-0.4-0.6-0.7-1-0.9c-0.7-0.3-1.4-0.6-2.2-0.7c-0.7-0.1-1.5-0.3-2.3-0.6c-1.1-0.4-1.9-1-2.4-1.7
		c-0.6-0.7-0.8-1.6-0.7-2.7c0.1-1,0.6-2,1.5-2.9c0.9-1,2.3-1.4,4.2-1.4c2.1,0,3.6,0.7,4.5,2c0.9,1.3,1.3,2.5,1.2,3.5h-2.9
		c0-0.7-0.2-1.4-0.7-1.9c-0.5-0.5-1.2-0.8-2.2-0.8c-1,0-1.7,0.2-2,0.6s-0.6,0.8-0.6,1.2c0,0.5,0.2,0.9,0.5,1.2
		c0.4,0.3,0.8,0.6,1.3,0.7c0.5,0.2,1.2,0.4,2,0.5s1.7,0.5,2.5,0.9C526,305,526.6,305.5,527.1,306.3z"/>
	<path class="st2" d="M540.5,312.9l0-8.6l-0.1,0l-2.8,8.6h-3.3l-2.7-8.4l-0.1,0v8.4l-2.9,0v-15.6h3.4l4,11.6l3.9-11.6h3.5v15.6
		H540.5z"/>
	<path class="st2" d="M552.9,306.9c-1.8,0.1-3.9,0.2-6.2,0.2h-2.4v-1.8h3.6v-4h2.1v4c0.7,0,2-0.1,3.7-0.2c1.7-0.1,3-0.2,3.9-0.4v1.7
		C556.2,306.7,554.7,306.8,552.9,306.9z M555.6,300.1c-0.2,1.5-0.4,2.6-0.7,3.4h-2.1c0-0.1,0.1-0.6,0.4-1.7s0.3-2.1,0.4-3.1h-8.1
		v-1.8h10.4C555.8,297.5,555.7,298.6,555.6,300.1z M547.4,313.9v-5.4h2.1v3.7H561v1.8H547.4z M560.4,303.6v5.9h-2.1v-13.6h2.1v5.9
		h2.6v1.8H560.4z"/>
</g>
<path class="st2" d="M558,226.4c0.1,0.7-0.1,1.3-0.5,1.9c-0.9,1.6-1.7,3.3-2.5,4.9c-0.2,0.4-0.4,0.9-0.4,1.4c0,0.4,0.2,0.4,0.5,0.4
	c0.4-0.1,0.6-0.4,0.8-0.7c0.5-0.6,1-1.3,1.5-2c0.6-0.7,1.4-1.2,2.2-1.7c0.7-0.5,1.2-1.1,1.6-1.8c0.5-1,1-2,1.6-3
	c0.4-0.7,0.9-1.2,1.8-1.1c0.3,0,0.6,0,0.9,0c0.7,0,1.2,0.3,1.4,1c0.3,0.8,0.2,1.7,0.1,2.5c-0.1,0.8-0.3,1.6-0.4,2.4
	c-0.1,0.6-0.4,1.1-0.8,1.5c-1.9,2.4-3.1,5.1-3.8,8.1c-0.2,0.7-0.3,1.4-0.5,2.1c-0.1,0.5-0.1,1,0.2,1.4c0.5,0.7,1.1,1.3,2,1.5
	c1.9,0.5,3.8,0.8,5.7,0.9c2.3,0.1,4.5,0.2,6.7,0.8c0.5,0.1,0.9,0.3,1.3,0.4c0.3,0.1,0.6,0.3,0.8,0.6c0.3,0.4,0.8,0.6,1.3,0.8
	c1.3,0.5,2.6,0.8,3.9,1.2c0.4,0.1,0.7,0.3,1,0.5c0.6,0.4,0.6,0.8,0,1.2c-0.3,0.2-0.7,0.5-1,0.7c-0.1,0.1-0.2,0.1-0.3,0.2
	c-0.3,0.6-0.9,0.8-1.5,0.5c-0.4-0.2-0.7-0.4-1-0.7c-0.2-0.2-0.4-0.2-0.6-0.3c-1.3-0.2-2.5-0.8-3.5-1.7c-0.4-0.3-0.8-0.5-1.4-0.5
	c-0.6,0-1.3,0-1.9-0.1c-0.2,0-0.4,0-0.5-0.2c-0.8-1.1-2-1.3-3.2-1.5c-0.3-0.1-0.6-0.1-0.8-0.2c-0.3-0.1-0.7-0.2-1-0.1
	c-0.4,0.1-0.7-0.1-1.1-0.2c-0.9-0.2-1.8-0.2-2.7-0.2c-2.1,0-3.4-1.1-4.4-2.8c-0.7-1.2-0.9-2.4-1-3.8c-0.1-1,0.3-1.9,0.6-2.8
	c0.5-1.3,1-2.6,1.6-3.8c0.1-0.3,0.2-0.5,0-0.8c-0.2-0.3-0.5-0.2-0.8-0.1c-1,0.3-1.6,1.1-2.2,1.8c-0.9,1-1.7,2-2.6,2.9
	c-1.4,1.4-2.9,2.9-4.3,4.3c-0.5,0.5-1,0.9-1.5,1.2c-0.4,0.2-0.8,0.3-1.2,0.3c-0.4,0-0.9-0.6-0.9-1.2c0-0.5-0.1-1,0-1.4
	c0.3-0.9,0.3-1.9,0.7-2.8c0.6-1.3,1.3-2.5,2-3.8c0.4-0.7,0.8-1.5,1.1-2.2c0.1-0.2,0.2-0.4,0-0.6c-0.2-0.2-0.4-0.1-0.6,0
	c-1.1,0.9-2.1,1.8-3,2.8c-0.7,0.8-1.1,1.7-1.4,2.7c-0.1,0.5-0.6,0.6-0.9,0.9c-1.5,1.3-3.1,2.6-4.4,4.1c-0.2,0.3-0.5,0.6-0.7,0.9
	c-0.4,0.6-0.9,1-1.5,1.4c-0.7,0.4-1.1,1.2-1.6,1.9c-0.2,0.3-0.4,0.6-0.8,0.7c-0.5,0.1-0.9,0-0.9-0.7c0-0.3,0.1-0.6,0.2-0.9
	c0.5-1.2,0.4-2.3,0.1-3.5c-0.2-0.8-0.3-1.6-0.1-2.4c0.1-0.7,0.5-1.2,0.8-1.8c1.4-2.4,2.9-4.8,4.1-7.4c0.3-0.6,0.5-1.2,0.7-1.9
	c0.1-0.3,0-0.7-0.2-0.9c-0.3-0.2-0.6-0.2-0.9,0c-0.4,0.2-0.8,0.4-1.2,0.8c-0.6,0.6-1.2,1.2-1.8,1.8c-0.8,0.7-1.7,1.2-2.7,1.5
	c-0.4,0.1-0.7,0-0.9-0.3c-0.7-0.7-1.4-1.5-1.9-2.5c-0.2-0.5-0.3-1.1-0.3-1.7c0-0.3,0.2-0.7,0.4-0.9c0.8-0.7,1.3-1.6,1.9-2.4
	c0.5-0.7,0.4-1.2-0.3-2.2c-0.6-0.8-1.4-0.8-2.2-0.7c-1.3,0.1-2.5,0.5-3.7,1.2c-0.3,0.2-0.5,0.5-0.7,0.7c-0.5,0.8-1.2,1.5-1.8,2.2
	c-0.7,0.7-0.8,1.5-0.6,2.4c0.1,0.8,0.2,1.6,0.3,2.4c0,0.5,0.3,0.9,0.5,1.3c0.4,0.6,0.7,1.2,0.8,2c0,0.3-0.1,0.6-0.1,0.9
	c0,0.2,0,0.3,0.2,0.3c0.2,0.1,0.4,0.2,0.5,0.4c0.8,1.4,1.7,2.8,2,4.4c0.3,1.2,0.3,2.4-0.7,3.3c-0.3,0.3-0.4,0.6-0.6,1
	c-0.1,0.4-0.3,0.7-0.6,1c-0.2,0.2-0.3,0.4-0.3,0.7c-0.1,0.8-0.5,1.4-1.2,1.7c-1.3,0.8-2.3,1.9-3.5,2.8c-0.8,0.6-1.7,0.9-2.7,1.1
	c-0.2,0-0.4,0-0.6-0.1c-1.3-0.6-2.7-0.8-4.1-0.9c-0.5,0-1,0.1-1.4,0.3c-0.5,0.2-1.1,0.4-1.7,0.4c-1.2-0.1-2.4,0.2-3.6,0.4
	c-0.7,0.1-1.4,0.2-2.2-0.2c-0.6-0.3-1.3-0.3-1.9-0.4c-0.4,0-0.8-0.1-1.1-0.2c-0.5-0.1-0.9-0.3-1-0.8c-0.1-0.3-0.3-0.4-0.6-0.6
	c-0.2-0.1-0.5-0.2-0.7-0.3c-0.1-0.1-0.3-0.1-0.3-0.3c0-0.2,0.2-0.2,0.3-0.3c0.3-0.2,0.6-0.5,0.9-0.7c0.9-0.7,1.9-1,3-0.6
	c0.4,0.1,0.8,0,1.1,0.1c0.7,0.1,1.3,0.4,1.9,0.7c0.8,0.4,1.6,0.9,2.4,1.1c0.4,0.1,0.8,0.1,1.2,0c1.4-0.5,2.8-0.9,4.2-1.3
	c0.4-0.1,0.7-0.2,0.9,0.3c0.2,0.5,1,0.7,1.6,0.4c1.2-0.6,2.2-1.4,3.3-2.1c0.7-0.5,1.4-1.1,2-1.8c0.6-0.8,1.2-1.7,1.2-2.8
	c0-0.9-0.3-1.8-0.6-2.6c-0.2-0.5-0.5-1.1-0.7-1.6c-0.1-0.1-0.1-0.2-0.2-0.3c-0.4-0.1-0.4-0.4-0.4-0.8c0,0,0-0.1,0-0.1
	c-0.3-0.5-0.5-1.1-0.9-1.5c-0.7-0.7-1.4-1.3-1.5-2.3c0-0.1-0.1-0.2-0.2-0.3c-0.4-0.5-0.6-1.1-0.7-1.8c0-0.3-0.1-0.7,0.3-0.9
	c0.1-0.1,0.1-0.2,0-0.4c-0.6-0.7-0.9-1.6-1.3-2.4c-0.2-0.5-0.1-1,0.1-1.4c0.2-0.3,0.4-0.6,0.6-0.9c0.2-0.3,0.3-0.5,0.3-0.8
	c0-0.5,0.4-0.8,0.7-1.1c0.5-0.4,1-0.7,1.5-1.1c0.5-0.3,0.8-0.7,0.7-1.4c0-0.4,0.5-0.9,0.9-0.8c0.2,0,0.5,0,0.7,0.1
	c0.7,0.1,1.4-0.1,2-0.4c1.2-0.7,2.3-1.4,3.6-1.9c1.4-0.6,2.9-1,4.3-0.8c1.6,0.2,3.1,1.2,3.4,3.1c0.1,0.4,0.2,0.8,0.5,1.1
	c0.6,0.6,0.7,1.3,0.5,2c-0.1,0.3,0,0.6,0.2,0.8c0.2,0.2,0.5,0.2,0.8,0.1c0.7-0.3,1.4-0.8,2.1-1.2c0.6-0.4,1.2-0.7,1.9-0.8
	c0.3,0,0.6,0.1,0.9,0.1c0.4,0.1,0.7,0.2,1.1,0.1c0.3,0,0.5,0.1,0.6,0.3c0.6,0.9,1,1.8,1,2.9c0,2-0.4,4-1,5.9
	c-0.3,0.8-0.4,1.7-0.9,2.5c-0.1,0.1-0.1,0.3,0,0.4c0.1,0.2,0.2,0.1,0.4,0.1c0.6-0.3,1.4-0.5,1.8-1.2c1-1.8,2.5-3,4.1-4.2
	c0.8-0.6,1.5-1.2,2.2-2c0.6-0.6,0.7-1.4,0.8-2.2c0.1-0.8,0.6-1.2,1.4-1c1.1,0.4,2.2,0.9,3,1.8c0.3,0.3,0.4,0.6,0.4,1
	C558,225.9,558,226.1,558,226.4z"/>
</svg>
