<?xml version="1.0" encoding="utf-8"?>
<!-- Generator: Adobe Illustrator 18.1.1, SVG Export Plug-In . SVG Version: 6.00 Build 0)  -->
<svg version="1.1" id="Layer_1" xmlns="http://www.w3.org/2000/svg" xmlns:xlink="http://www.w3.org/1999/xlink" x="0px" y="0px"
	 viewBox="0 0 1000 300" style="enable-background:new 0 0 1000 300;" xml:space="preserve">
<style type="text/css">
	.st0{fill:#FFFFFF;stroke:#231F20;stroke-width:2;}
</style>
<g>
	<path class="st0" d="M211.8,162.9h-10.9l1.1-3.7h10.9l7.2-23.7h-11.2l1.1-3.7h11.5l8.3-26.4h3.7l-8.3,26.4h19.4l8.3-26.4h3.7
		l-8.3,26.4h10.9l-1.1,3.7h-10.9l-7.2,23.7h11.2l-1.1,3.7h-11.5l-9.1,29h-3.7l9.1-29h-19.4l-9.1,29h-3.7L211.8,162.9z M236.3,159.2
		l7.2-23.7h-19.7l-7.2,23.7H236.3z"/>
	<path class="st0" d="M263.2,188.5h19.2l14.9-74h-14.9l0.5-2.7c6.4-0.8,12.5-2.7,16.5-5.1h3.2l-16.5,81.8h18.6l-0.5,3.5h-41.8
		L263.2,188.5z"/>
	<path class="st0" d="M344.4,144.2v-0.5c-5.1-4.8-7.7-9.3-7.7-16.5c0-13.8,10.7-22.1,22.6-22.1c10.4,0,19.4,6.7,19.4,19.4
		c0,12-7.5,19.2-17.3,25v0.5c4.3,2.9,12.2,9.6,12.2,18.9c0,15.2-12.2,24.5-26.6,24.5c-12.2,0-23.7-7.5-23.7-22.1
		C323.4,157.6,333.8,149.3,344.4,144.2z M327.1,171.1c0,12.5,9.9,18.9,20,18.9c11.5,0,22.9-7.5,22.9-20.2
		c0-12.2-11.5-17.6-22.9-23.7C335.4,152.2,327.1,159.2,327.1,171.1z M375,124.8c0-10.7-7.7-16.2-16-16.2c-9.6,0-18.6,6.9-18.6,18.4
		c0,10.9,6.9,16,17.8,21C366.8,143.2,375,135.5,375,124.8z"/>
	<path class="st0" d="M382.5,179.7c3.5,5.6,10.1,10.4,18.6,10.4c9.3,0,17.3-6.7,17.3-14.4c0-5.3-2-8.9-12.2-14.4
		c-12-6.4-16-10.7-16-17c0-10.7,9.1-17.6,19.4-17.6c6.9,0,12.8,2.9,17,7.5l-2.7,2.7c-3.5-3.7-8-6.7-14.6-6.7
		c-8.5,0-15.4,6.1-15.4,13.3c0,6.4,5.6,9.9,12,13.3c14.6,8,16.2,12.8,16.2,18.1c0,11.5-9.3,18.6-21.6,18.6c-9.3,0-17.6-6.1-21-11.7
		L382.5,179.7z"/>
	<path class="st0" d="M469.3,126.7c13.6,0,18.9,9.3,18.9,22.4c0,4.3-0.8,8-1.6,10.7h-45.5c-3.9,21.3,6.4,30.4,19.7,30.4
		c5.9,0,11.7-2.9,16.5-6.4l1.9,2.9c-5.1,3.7-11.7,6.9-18.6,6.9c-14.6,0-24-9.1-24-26.1C436.6,143.2,453.1,126.7,469.3,126.7z
		 M483.7,156.2c0.5-2.7,0.8-5.1,0.8-8c0-9.1-4-18.1-15.4-18.1c-12,0-23.7,10.9-27.2,26.1H483.7z"/>
	<path class="st0" d="M532.7,126.7c7.2,0,11.7,2.9,16,7.7l-2.7,2.7c-4-4.8-7.5-6.9-13.6-6.9c-14.9,0-29.8,17.3-29.8,37.5
		c0,14.6,6.1,22.4,18.6,22.4c6.7,0,12.5-3.2,17.3-6.9l2.1,2.9c-4.5,3.5-10.9,7.5-19.7,7.5c-13.6,0-22.1-9.1-22.1-25
		C498.9,143.5,516.2,126.7,532.7,126.7z"/>
	<path class="st0" d="M554.1,168.5c0-23.7,16-41.8,33.3-41.8c12.8,0,21,9.1,21,25c0,23.7-16,41.8-33.3,41.8
		C562.4,193.5,554.1,184.5,554.1,168.5z M557.9,167.7c0,14.6,6.4,22.4,17.6,22.4c14.4,0,29.3-17.3,29.3-37.5
		c0-14.6-6.4-22.4-17.6-22.4C572.8,130.1,557.9,147.4,557.9,167.7z"/>
	<path class="st0" d="M633.2,128.3h3.2l-1.6,10.4h0.5c8-6.9,15.2-12,22.9-12c10.9,0,15.2,6.4,15.2,15.4c0,3.2-0.3,4.8-1.1,8.5
		l-8.3,41.3h-3.7l8.3-40.7c0.8-4,1.1-5.9,1.1-8.5c0-8.3-3.5-12.5-12-12.5c-5.9,0-13.8,4.3-24,14.1l-9.6,47.7h-3.7L633.2,128.3z"/>
	<path class="st0" d="M742.4,124.5l5.9-28.8h3.7l-19.4,96.1h-3.2l1.6-10.4h-0.5c-6.7,6.9-14.9,12-24,12c-11.2,0-18.6-8-18.6-22.9
		c0-24.5,17-43.9,34.6-43.9c7.7,0,13.3,4.3,16.8,10.7h0.5L742.4,124.5z M732,175.7l6.9-33.3c-5.1-8.8-10.4-12.2-16.8-12.2
		c-16,0-30.6,20-30.6,39.7c0,13.6,5.9,20.2,15.2,20.2C715.5,190.1,724,184.7,732,175.7z"/>
	<path class="st0" d="M754.6,179.7c3.5,5.6,10.1,10.4,18.6,10.4c9.3,0,17.3-6.7,17.3-14.4c0-5.3-2-8.9-12.2-14.4
		c-12-6.4-16-10.7-16-17c0-10.7,9.1-17.6,19.4-17.6c6.9,0,12.8,2.9,17,7.5l-2.7,2.7c-3.5-3.7-8-6.7-14.6-6.7
		c-8.5,0-15.4,6.1-15.4,13.3c0,6.4,5.6,9.9,12,13.3c14.6,8,16.2,12.8,16.2,18.1c0,11.5-9.3,18.6-21.6,18.6c-9.3,0-17.6-6.1-21-11.7
		L754.6,179.7z"/>
</g>
</svg>
