<?xml version="1.0" encoding="utf-8"?>
<!-- Generator: Adobe Illustrator 18.1.1, SVG Export Plug-In . SVG Version: 6.00 Build 0)  -->
<svg version="1.1" id="layer_1" xmlns="http://www.w3.org/2000/svg" xmlns:xlink="http://www.w3.org/1999/xlink" x="0px" y="0px"
	 viewBox="0 0 60 80" style="enable-background:new 0 0 60 80;" xml:space="preserve">
	 

<style type="text/css">
	.i_st0{fill:none;stroke:#FFFFFF;stroke-miterlimit:10;}
	.i_st1{fill:#FFFFFF;}

#layer_1 .i_st0 {
    -webkit-transition: .5s;
    -moz-transition: .5s;
    transition: .5s;
}
#layer_1 .fill {
    -webkit-transition: .5s;
    -moz-transition: .5s;
    transition: .5s;
    fill: #ffffff;
}
#layer_1:hover {
    cursor: pointer;
}
#layer_1:hover .i_st0 {
    stroke: #0091ea;
}
#layer_1:hover .fill {
    -webkit-transform: scale(250, 250);
    -moz-transform: scale(250, 250);
    transform: scale(250, 250);
}


</style>
<a xlink:href="/main/movies" target="_top">
	<g transform="translate(30,30)"><circle class="fill" r="0.1"/></g>

<g>
	<circle class="i_st0" cx="30" cy="30" r="26"/>
	<polygon class="i_st0" points="22.1,15.6 47.2,30 22.1,44.5 	"/>
</g>
<g>
	<path class="i_st1" d="M15.1,65.1v-1.5h1.5v7.7h-1.5v-2.2h-3.3c-0.3,0.4-0.7,0.7-1.2,0.9c-0.5,0.2-1,0.3-1.6,0.3
		c-1,0-1.9-0.3-2.6-0.9c-0.7-0.6-1-1.4-1-2.2c0-0.9,0.3-1.6,1-2.2C7.1,64.3,7.9,64,9,64c0.6,0,1.1,0.1,1.6,0.3
		c0.5,0.2,0.9,0.5,1.2,0.8H15.1z M10.5,65.8c-0.4-0.4-0.9-0.6-1.5-0.6c-0.7,0-1.2,0.2-1.5,0.6c-0.4,0.4-0.5,0.8-0.5,1.3
		c0,0.5,0.2,1,0.5,1.4C7.8,68.8,8.3,69,9,69c0.7,0,1.2-0.2,1.5-0.6c0.4-0.4,0.5-0.8,0.5-1.4C11,66.6,10.8,66.2,10.5,65.8z
		 M15.4,75.9c-0.8,0.5-2,0.7-3.6,0.7c-1.6,0-2.8-0.2-3.6-0.7C7.4,75.4,7,74.8,7,74c0-0.7,0.4-1.4,1.2-1.9c0.8-0.5,2-0.7,3.6-0.7
		c1.6,0,2.8,0.3,3.6,0.8c0.8,0.5,1.2,1.1,1.2,1.9C16.7,74.8,16.3,75.4,15.4,75.9z M14.2,73c-0.6-0.3-1.4-0.4-2.4-0.4S10,72.7,9.4,73
		c-0.6,0.2-0.9,0.6-0.9,1c0,0.4,0.3,0.8,0.9,1c0.6,0.3,1.4,0.4,2.4,0.4s1.8-0.1,2.4-0.4c0.6-0.2,0.9-0.6,0.9-1
		C15.1,73.6,14.8,73.3,14.2,73z M15.1,67.8v-1.5h-2.7c0,0.1,0.1,0.3,0.1,0.4c0,0.1,0,0.3,0,0.4c0,0.1,0,0.2,0,0.4s0,0.2-0.1,0.4
		H15.1z"/>
	<path class="i_st1" d="M25.2,70.5c-0.7-0.3-1.4-0.7-2-1.3c-0.7-0.6-1.1-1.1-1.4-1.6c-0.3,0.6-0.7,1.2-1.4,1.9c-0.7,0.6-1.3,1.1-2,1.4
		l-1.1-1c1.2-0.5,2.2-1.2,2.8-2.1C20.7,67,21,66.1,21,65v-1.1h1.5V65c0,1,0.3,1.9,0.9,2.6c0.6,0.7,1.5,1.3,2.6,1.8L25.2,70.5z
		 M28,75.9c-0.8,0.5-2,0.7-3.6,0.7c-1.6,0-2.8-0.2-3.6-0.7c-0.8-0.5-1.2-1.1-1.2-1.8c0-0.7,0.4-1.4,1.2-1.9c0.8-0.5,2-0.7,3.6-0.7
		c1.6,0,2.8,0.2,3.6,0.7c0.8,0.5,1.2,1.1,1.2,1.9C29.2,74.8,28.8,75.4,28,75.9z M26.7,73c-0.6-0.3-1.4-0.4-2.4-0.4
		c-1,0-1.8,0.1-2.4,0.4c-0.6,0.3-0.9,0.6-0.9,1c0,0.4,0.3,0.8,0.9,1c0.6,0.3,1.4,0.4,2.4,0.4c1,0,1.8-0.1,2.4-0.4
		c0.6-0.3,0.9-0.6,0.9-1C27.7,73.6,27.4,73.3,26.7,73z M28.8,67.9v3.3h-1.5v-7.7h1.5v3.1h1.8v1.3H28.8z"/>
	<path class="i_st1" d="M30.1,74.8v-1.2h5.7v-2.5h-3.9v-6.8h1.5v2.2h6.4v-2.2h1.5v6.8h-3.9v2.5H43v1.2H30.1z M39.8,67.8h-6.4v2.1h6.4
		V67.8z"/>
	<path class="i_st1" d="M49,70c-1,1.8-2.5,3.2-4.5,4.1l-1.1-0.9c1.9-0.9,3.3-2,4.1-3.5c0.8-1.4,1.2-2.6,1.3-3.6h-4.6V65h6.3
		C50.4,66.5,49.9,68.2,49,70z M53.2,76.4V63.6h1.5v12.9H53.2z"/>
</g></a>
</svg>
