<?xml version="1.0" encoding="utf-8"?>
<!-- Generator: Adobe Illustrator 18.1.1, SVG Export Plug-In . SVG Version: 6.00 Build 0)  -->
<svg version="1.1" id="Layer_1" xmlns="http://www.w3.org/2000/svg" xmlns:xlink="http://www.w3.org/1999/xlink" x="0px" y="0px"
	 viewBox="0 0 60 80" style="enable-background:new 0 0 60 80;" xml:space="preserve">
<style type="text/css">
	.st0{fill:none;stroke:#FFFFFF;stroke-miterlimit:10;}
	.st1{fill:#FFFFFF;}
#Layer_1 .st0 {
    -webkit-transition: .5s;
    -moz-transition: .5s;
    transition: .5s;
}

#Layer_1 .fill {
    -webkit-transition: .5s;
    -moz-transition: .5s;
    transition: .5s;
    fill: #ffffff;
}
#Layer_1:hover {
    cursor: pointer;
}
#Layer_1:hover .st0 {
    stroke: #0091ea;
}

#Layer_1:hover .fill {
    -webkit-transform: scale(258, 258);
    -moz-transform: scale(258, 258);
    transform: scale(258, 258);
}
</style>

<a xlink:href="/main/index" target="_top">
<g transform="translate(30,31.4)"><circle class="fill" r="0.1"/></g>
<g>
	<circle class="st0" cx="30" cy="31.4" r="26"/>
	<g>
		<polygon class="st0" points="15.1,32.3 30,13.3 44.9,32.3"/>
		<rect x="20" y="32.1" class="st0" width="20" height="12.4"/>
	</g>
</g>
<g>
	<path class="st1" d="M23.5,71.9v-1.2h5.7v-0.8c-1.1,0-2-0.2-2.7-0.5c-0.7-0.3-1.1-0.6-1.1-1.1c0-0.5,0.4-1,1.3-1.2
		c0.9-0.3,2-0.4,3.3-0.4c1.3,0,2.4,0.1,3.3,0.4c0.9,0.3,1.3,0.7,1.3,1.2c0,0.5-0.4,0.9-1.1,1.1c-0.7,0.3-1.7,0.4-2.8,0.5v0.8h5.8
		v1.2H23.5z M24.5,66.1V65h11v1.1H24.5z M34.8,76.3h-9.7v-3.6h9.7V76.3z M33.3,73.7h-6.6v1.5h6.6V73.7z M32,67.8
		c-0.6-0.1-1.3-0.1-2-0.1s-1.4,0-2,0.1c-0.6,0.1-0.9,0.3-0.9,0.5c0,0.2,0.3,0.4,0.9,0.5c0.6,0.1,1.3,0.1,2,0.1s1.4,0,2-0.1
		c0.6-0.1,0.9-0.3,0.9-0.5C32.9,68.1,32.6,67.9,32,67.8z M27.2,64.3v-1.1h5.5v1.1H27.2z"/>
</g>
</a>
</svg>
