<?xml version="1.0" encoding="utf-8"?>
<!-- Generator: Adobe Illustrator 18.1.1, SVG Export Plug-In . SVG Version: 6.00 Build 0)  -->
<svg version="1.1" id="Layer_1" xmlns="http://www.w3.org/2000/svg" xmlns:xlink="http://www.w3.org/1999/xlink" x="0px" y="0px"
	 viewBox="0 0 1000 300" style="enable-background:new 0 0 1000 300;" xml:space="preserve">
<style type="text/css">
	.st0{fill:#FFFFFF;stroke:#231F20;stroke-width:2;}
</style>
<g>
	<path class="st0" d="M79.1,164.4l3.3-18.1H71.1v-12.5h13.6l4.3-23.6h13.8l-4.3,23.6h14.1l4.3-23.6h13.8l-4.3,23.6h10.7v12.5h-12.9
		l-3.2,18.1h11.7v12.6h-14l-3.9,21.8h-14l3.9-21.8h-14L87,198.9H73l3.9-21.8H66.7v-12.6H79.1z M93.1,164.4h14l3.3-18.1H96.3
		L93.1,164.4z"/>
	<path class="st0" d="M202,109c-0.3,2.4-0.5,4.4-0.6,6.1c-0.1,1.7-0.2,3.3-0.2,4.8v59.3c0,3.8,4.7,5.7,14.1,5.7v14H152v-14
		c11,0,16.5-1.9,16.5-5.7v-42.5h-17.7l-0.5-13.3c12.4-0.3,21-5.5,25.7-15.8L202,109z"/>
	<path class="st0" d="M229.8,175.6c0-10.2,4.6-17.5,13.8-22c-2.9-2.6-5.3-5.5-7.3-8.9c-1.9-3.4-2.9-7.5-2.9-12.2
		c0-4.3,0.8-8.1,2.5-11.2c1.7-3.1,4-5.6,6.9-7.6c2.9-2,6.4-3.4,10.5-4.3c4-0.9,8.5-1.3,13.3-1.3c4.8,0,9.2,0.4,13.3,1.3
		c4,0.9,7.5,2.2,10.5,4.1c2.9,1.8,5.2,4.1,6.9,6.9c1.7,2.8,2.5,6,2.5,9.9c0,3-0.8,6.1-2.5,9.4c-1.7,3.2-4.5,6-8.6,8.3
		c2,1.3,3.8,2.8,5.6,4.5c1.8,1.6,3.3,3.5,4.7,5.6c1.3,2.1,2.4,4.4,3.2,7c0.8,2.6,1.2,5.4,1.2,8.5c0,4.8-0.9,8.9-2.8,12.4
		c-1.9,3.5-4.4,6.4-7.7,8.6c-3.2,2.2-7.1,3.9-11.6,4.9c-4.5,1.1-9.4,1.6-14.7,1.6c-5.3,0-10.3-0.5-14.8-1.5c-4.5-1-8.4-2.6-11.7-4.7
		c-3.3-2.1-5.9-4.8-7.7-8C230.8,183.6,229.8,179.9,229.8,175.6z M263.5,186.8c5.3,0,9.1-0.7,11.2-2c2.1-1.3,3.2-3.4,3.2-6.3
		c0-2-0.8-3.8-2.3-5.4c-1.5-1.6-3.5-3-5.9-4.5c-2.4-1.4-5.1-2.8-8.1-4.3c-3-1.4-6-3-9.1-4.8c-3.1,3.4-4.7,7.8-4.7,13.2
		c0,4,1.2,7.3,3.7,10C254.2,185.5,258.1,186.8,263.5,186.8z M270.5,121.2c-1.1,0-2.2,0.1-3.5,0.2c-1.3,0.1-2.5,0.4-3.7,0.9
		c-1.2,0.4-2.1,1.1-2.9,2c-0.8,0.9-1.1,2-1.1,3.5c0,1.6,0.5,3,1.5,4.3c1,1.2,2.3,2.4,3.9,3.5c1.6,1.1,3.6,2.1,5.8,3.1
		c2.2,1,4.5,2,6.9,3.2c3.2-2.8,4.8-6.6,4.8-11.6c0-2.8-1-4.9-2.9-6.5C277.4,122,274.4,121.2,270.5,121.2z"/>
	<path class="st0" d="M381,153.4l-13.7,0.8c-0.6-2.1-1.6-3.9-2.9-5.4c-1.3-1.5-2.9-2.6-4.6-3.5c-1.7-0.8-3.6-1.4-5.7-1.8
		c-2.1-0.4-4.2-0.5-6.3-0.5c-5.5,0-8.3,1.4-8.3,4.3c0,1.6,0.8,2.8,2.5,3.7c1.6,0.9,3.9,1.7,6.6,2.3s5.9,1.3,9.5,1.9
		c3.6,0.6,7.4,1.5,11.3,2.7c5.6,1.7,9.7,4,12.4,7.1c2.7,3,4,7.2,4,12.5c0,3.9-0.8,7.3-2.4,10.1c-1.6,2.8-3.6,5.1-6.1,6.9
		c-2.4,1.8-5.2,3.1-8.2,4c-3,0.9-6,1.3-8.9,1.3c-4.8,0-8.7-0.2-11.7-0.7c-3-0.4-5.4-0.9-7.3-1.4c-1.9-0.5-3.4-1-4.6-1.4
		c-1.2-0.4-2.4-0.7-3.5-0.7c-0.8,0-1.4,0.2-1.9,0.7c-0.5,0.5-1,1.4-1.4,2.6h-13.6v-22.8l13.6-0.5c0.5,1.9,1.6,3.5,3.3,4.8
		c1.7,1.3,3.7,2.4,6.1,3.3c2.4,0.9,4.9,1.6,7.6,2c2.7,0.4,5.3,0.7,7.9,0.7c4.9,0,7.3-1.6,7.3-4.9c0-1.6-0.7-2.8-2.1-3.7
		c-1.4-0.8-3.2-1.5-5.6-2c-2.4-0.5-5.1-1-8.3-1.4c-3.2-0.4-6.6-1.1-10.1-2c-3.9-1-7.1-2.2-9.7-3.5c-2.5-1.4-4.6-3-6.1-4.7
		c-1.5-1.8-2.6-3.8-3.2-6c-0.6-2.2-0.9-4.7-0.9-7.3c0-6.2,2.1-11.3,6.4-15.2c4.2-3.9,10.2-5.9,17.9-5.9c3.5,0,6.5,0.2,9.1,0.7
		c2.6,0.5,4.8,1,6.6,1.5c1.8,0.5,3.4,1,4.7,1.5c1.3,0.5,2.4,0.7,3.4,0.7c1.5,0,3-1.1,4.5-3.2H381V153.4z"/>
	<path class="st0" d="M426.8,166.4c0.3,7.2,1.4,12.3,3.5,15.4c2,3.1,5.3,4.6,9.9,4.6c3.4,0,6.5-1,9.5-3c2.9-2,4.8-4.9,5.7-8.6
		l14.1,0.9c-0.5,3.2-1.6,6.3-3.2,9.4s-3.7,5.8-6.4,8.1c-2.7,2.4-5.9,4.3-9.7,5.7c-3.8,1.5-8.1,2.2-13,2.2c-5.6,0-10.9-0.6-15.8-1.8
		c-4.9-1.2-9.2-3.2-12.9-6c-3.7-2.8-6.6-6.5-8.7-11.2c-2.1-4.7-3.1-10.4-3.1-17.2c0-11.6,3.3-20.6,9.9-27c6.6-6.3,16.1-9.5,28.6-9.5
		c6.3,0,11.7,0.7,16.3,2.1c4.6,1.4,8.4,3.6,11.4,6.6c3,3,5.2,6.9,6.7,11.8c1.4,4.8,2.1,10.7,2.1,17.5H426.8z M447.4,155
		c0-1.6-0.2-3.3-0.5-5.1c-0.3-1.8-0.9-3.5-1.7-5c-0.8-1.5-1.9-2.8-3.2-3.8c-1.3-1-3-1.5-4.9-1.5c-5.9,0-9.3,5.1-10.1,15.4H447.4z"/>
	<path class="st0" d="M540.6,143.9c-1-1.6-2.5-2.7-4.7-3.4c-2.1-0.7-4.5-1-7.1-1c-2.1,0-4.2,0.5-6.1,1.5c-2,1-3.7,2.5-5.2,4.5
		c-1.5,2-2.7,4.3-3.6,7.1c-0.9,2.8-1.3,6-1.3,9.5c0,8.3,1.1,14.5,3.3,18.4c2.2,3.9,6.2,5.9,12,5.9c3.4,0,6.3-0.9,8.9-2.8
		c2.5-1.9,4-4.8,4.5-8.8l14,0.9c-0.5,3.1-1.5,6.2-3,9.2c-1.5,3-3.4,5.7-5.9,8.1s-5.5,4.3-9.2,5.9c-3.7,1.5-8,2.3-12.8,2.3
		c-6.2,0-11.9-0.6-17-1.9c-5.1-1.3-9.5-3.4-13.2-6.3c-3.7-2.9-6.5-6.6-8.6-11.1c-2-4.5-3.1-10-3.1-16.5c0-4.9,0.8-9.6,2.3-14
		c1.5-4.5,3.8-8.4,7-11.8c3.1-3.4,7.2-6.1,12.1-8.1c4.9-2,10.8-3,17.6-3c4.7,0,9.1,0.4,13.2,1.1c4.1,0.8,7.6,2,10.6,3.8
		c3,1.8,5.3,4.1,7,6.9c1.7,2.8,2.5,6.4,2.5,10.7c0,3.4-0.9,6.3-2.8,8.8c-1.9,2.5-5,3.7-9.2,3.7c-3.8,0-6.6-1-8.5-2.9
		c-1.9-1.9-2.8-4.2-2.8-6.9c0-2.3,0.8-4.5,2.4-6.5C535.5,145.2,537.7,144.1,540.6,143.9z"/>
	<path class="st0" d="M643.9,164.7c0,12.2-3.5,21.4-10.5,27.4c-7,6-16.7,9.1-29.1,9.1c-5.1,0-9.9-0.5-14.5-1.5
		c-4.6-1-8.7-2.8-12.2-5.3c-3.5-2.6-6.3-6.1-8.3-10.7c-2-4.5-3.1-10.3-3.1-17.4c0-13,3.3-22.6,10-28.7c6.7-6.1,16.5-9.1,29.4-9.1
		c5.2,0,10.2,0.5,14.8,1.6s8.7,3,12.2,5.7c3.5,2.7,6.2,6.4,8.2,11.1S643.9,157.4,643.9,164.7z M604.8,186.4c1.7,0,3.1-0.3,4.2-0.9
		c1.1-0.6,2-1.6,2.7-3.2c0.7-1.6,1.2-3.7,1.5-6.5c0.3-2.8,0.5-6.3,0.5-10.7c0-4.5-0.1-8.2-0.4-11.1c-0.3-2.8-0.7-5.1-1.4-6.7
		c-0.7-1.6-1.5-2.7-2.6-3.3c-1.1-0.6-2.4-0.9-4-0.9c-1.5,0-2.8,0.3-3.9,0.8c-1.1,0.5-2,1.5-2.7,2.9c-0.7,1.4-1.2,3.4-1.6,5.9
		c-0.4,2.5-0.5,5.8-0.5,9.8c0,5,0.1,9,0.3,12.1c0.2,3.1,0.6,5.5,1.3,7.2c0.6,1.7,1.5,2.8,2.5,3.4C601.6,186.1,603,186.4,604.8,186.4
		z"/>
	<path class="st0" d="M714.6,179v-12.7c0-11.1-2.5-16.6-7.5-16.6c-5.9,0-9.9,5-11.9,15.1V179c0,4,2,6,6,6v14h-47.5v-14
		c7.5,0,11.2-2,11.2-6v-28.1c0-4-3.7-6-11.1-6v-13.7h41.4v13.6c5.9-9.9,15.2-14.9,28.1-14.9c14.4,0,21.6,6.6,21.6,19.8V179
		c0,4,3.8,6,11.3,6v14h-47.8v-14C712.6,184.9,714.6,182.9,714.6,179z"/>
	<path class="st0" d="M762.4,164.8c0-6.6,0.8-12.2,2.3-16.8c1.6-4.6,3.7-8.4,6.5-11.3c2.8-2.9,6.2-5,10.1-6.3c3.9-1.3,8.3-2,13.1-2
		c3.5,0,6.9,0.4,10.1,1.3c3.1,0.9,5.8,2.3,8.1,4.3v-18c0-4-3.7-6-11.1-6V96.4h41.5V179c0,4,3.8,6,11.3,6v14h-37.1l-0.9-11.1
		c-1.1,2.1-2.5,4-4.3,5.7c-1.8,1.7-3.8,3.1-6.1,4.2c-2.3,1.1-4.7,2-7.2,2.5c-2.5,0.6-5.1,0.9-7.8,0.9c-4.2,0-8-0.7-11.5-2
		c-3.5-1.3-6.5-3.4-9.1-6.3c-2.5-2.9-4.5-6.6-5.9-11.3C763.1,177,762.4,171.4,762.4,164.8z M804.4,182.7c2,0,3.6-0.3,5-0.9
		c1.4-0.6,2.5-1.7,3.3-3.3c0.8-1.6,1.4-3.6,1.8-6.1c0.4-2.5,0.5-5.7,0.5-9.4s-0.2-6.9-0.5-9.4c-0.4-2.5-1-4.6-1.8-6.1
		c-0.8-1.6-2-2.6-3.3-3.3c-1.4-0.6-3-0.9-5-0.9c-2,0-3.6,0.3-5.1,0.9c-1.4,0.6-2.6,1.7-3.5,3.3c-0.9,1.6-1.6,3.6-2.1,6.1
		c-0.5,2.5-0.7,5.7-0.7,9.4s0.2,6.9,0.7,9.4c0.5,2.5,1.2,4.6,2.1,6.1c0.9,1.6,2.1,2.6,3.5,3.3C800.7,182.4,802.4,182.7,804.4,182.7z
		"/>
	<path class="st0" d="M929.5,153.4l-13.7,0.8c-0.6-2.1-1.6-3.9-2.9-5.4c-1.3-1.5-2.9-2.6-4.6-3.5c-1.7-0.8-3.6-1.4-5.7-1.8
		c-2.1-0.4-4.2-0.5-6.3-0.5c-5.5,0-8.3,1.4-8.3,4.3c0,1.6,0.8,2.8,2.5,3.7c1.6,0.9,3.9,1.7,6.6,2.3s5.9,1.3,9.5,1.9
		c3.6,0.6,7.4,1.5,11.3,2.7c5.6,1.7,9.7,4,12.4,7.1c2.7,3,4,7.2,4,12.5c0,3.9-0.8,7.3-2.4,10.1c-1.6,2.8-3.6,5.1-6.1,6.9
		c-2.4,1.8-5.2,3.1-8.2,4c-3,0.9-6,1.3-8.9,1.3c-4.8,0-8.7-0.2-11.7-0.7c-3-0.4-5.4-0.9-7.3-1.4c-1.9-0.5-3.4-1-4.6-1.4
		c-1.2-0.4-2.4-0.7-3.5-0.7c-0.8,0-1.4,0.2-1.9,0.7c-0.5,0.5-1,1.4-1.4,2.6h-13.6v-22.8l13.6-0.5c0.5,1.9,1.6,3.5,3.3,4.8
		c1.7,1.3,3.7,2.4,6.1,3.3c2.4,0.9,4.9,1.6,7.6,2c2.7,0.4,5.3,0.7,7.9,0.7c4.9,0,7.3-1.6,7.3-4.9c0-1.6-0.7-2.8-2.1-3.7
		c-1.4-0.8-3.2-1.5-5.6-2c-2.4-0.5-5.1-1-8.3-1.4c-3.2-0.4-6.6-1.1-10.1-2c-3.9-1-7.1-2.2-9.7-3.5c-2.5-1.4-4.5-3-6.1-4.7
		c-1.5-1.8-2.6-3.8-3.2-6c-0.6-2.2-0.9-4.7-0.9-7.3c0-6.2,2.1-11.3,6.4-15.2c4.2-3.9,10.2-5.9,17.9-5.9c3.5,0,6.5,0.2,9.1,0.7
		c2.6,0.5,4.8,1,6.6,1.5c1.8,0.5,3.4,1,4.7,1.5c1.3,0.5,2.4,0.7,3.4,0.7c1.5,0,3-1.1,4.5-3.2h12.4V153.4z"/>
</g>
</svg>
