<?xml version="1.0" encoding="utf-8"?>
<!-- Generator: Adobe Illustrator 18.1.1, SVG Export Plug-In . SVG Version: 6.00 Build 0)  -->
<svg version="1.1" id="Layer_1" xmlns="http://www.w3.org/2000/svg" xmlns:xlink="http://www.w3.org/1999/xlink" x="0px" y="0px"
	 viewBox="0 0 60 80" style="enable-background:new 0 0 60 80;" xml:space="preserve">
<style type="text/css">
	.st0{fill:#FFFFFF;}
	.st1{fill:none;stroke:#FFFFFF;stroke-miterlimit:10;}
		#Layer_1 .st1 {
    -webkit-transition: .5s;
    -moz-transition: .5s;
    transition: .5s;
}

#Layer_1 .fill {
    -webkit-transition: .5s;
    -moz-transition: .5s;
    transition: .5s;
    fill: #ffffff;
}
#Layer_1:hover {
    cursor: pointer;
}
#Layer_1:hover .st1 {
    stroke: #0091ea;
}

#Layer_1:hover .fill {
    -webkit-transform: scale(258, 258);
    -moz-transform: scale(258, 258);
    transform: scale(258, 258);
}
</style>
<a xlink:href="/main/intro" target="_top">
<g transform="translate(30.1,30)"><circle class="fill" r="0.1"/></g>
<g>
	<path class="st0" d="M17.5,75.1v-1.2h5.8V71h1.5v2.8h5.8v1.2H17.5z M22.1,69.9c-1,0.8-1.9,1.3-2.9,1.6l-1-1.1
		c2.2-0.8,3.6-1.7,4.2-2.8c0.6-1.1,0.9-1.9,0.9-2.5v-1h1.6v1c0,0.6,0.3,1.5,0.9,2.6c0.6,1.1,2,2,4.1,2.7l-1,1.1
		c-1-0.3-2-0.8-2.9-1.6C25,69,24.3,68.2,24,67.5C23.7,68.3,23.1,69.1,22.1,69.9z"/>
	<path class="st0" d="M35.6,70.1c-0.7,1.7-2,3.1-3.8,4.3l-1.1-0.8c1.9-1.1,3.1-2.4,3.6-3.8c0.5-1.5,0.7-2.5,0.8-3.1h-3.6v-1.3h5.2
		C36.7,66.8,36.3,68.4,35.6,70.1z M41.1,76.7V70h-1.5v6.1h-1.4V63.9h1.4v4.7h1.5v-5h1.4v13.1H41.1z"/>
</g>
<g>
	<circle class="st1" cx="30" cy="30.4" r="26"/>
	<g>
		<path class="st1" d="M25,38.5l0.4-2.8c0.1-0.7,0.2-1.4,0.4-1.9c0.2-0.5,0.4-1,0.6-1.4c0.3-0.4,0.6-0.8,1-1.2
			c0.4-0.4,0.9-0.9,1.5-1.4l4.5-4c1-0.9,1.6-2,1.7-3.3c0.2-1.3-0.1-2.4-0.8-3.2c-0.7-0.8-1.8-1.2-3.1-1.2c-1.4,0-2.7,0.5-3.7,1.5
			c-1.1,1-1.8,2.1-2.1,3.5L19,22.5c0.8-3.3,2.5-5.8,4.9-7.6c2.4-1.8,5.2-2.7,8.5-2.7c1.5,0,2.9,0.2,4.2,0.7c1.2,0.4,2.3,1.1,3.1,1.9
			c0.8,0.8,1.5,1.9,1.8,3.1c0.4,1.2,0.4,2.7,0.2,4.3c-0.2,1.1-0.5,2.1-0.9,3c-0.4,0.8-0.9,1.6-1.5,2.3c-0.6,0.7-1.3,1.4-2.1,2
			c-0.8,0.6-1.6,1.3-2.4,2c-0.5,0.4-1,0.8-1.4,1.2c-0.4,0.3-0.7,0.7-1,1c-0.3,0.4-0.5,0.8-0.7,1.2c-0.2,0.5-0.3,1-0.4,1.7l-0.3,1.9
			H25z M22.9,45.6c0.2-1.1,0.7-2,1.6-2.8c0.9-0.8,1.9-1.2,3-1.2c1.1,0,2,0.4,2.7,1.1c0.7,0.7,1,1.7,0.9,2.8c-0.2,1.1-0.7,2-1.6,2.8
			c-0.9,0.8-1.9,1.2-3,1.2c-0.5,0-1-0.1-1.5-0.3s-0.9-0.5-1.2-0.8c-0.3-0.3-0.6-0.7-0.7-1.2C22.9,46.7,22.9,46.1,22.9,45.6z"/>
	</g>
</g>
</a>
</svg>
