<?xml version="1.0" encoding="utf-8"?>
<!-- Generator: Adobe Illustrator 18.1.1, SVG Export Plug-In . SVG Version: 6.00 Build 0)  -->
<svg version="1.1" id="Layer_1" xmlns="http://www.w3.org/2000/svg" xmlns:xlink="http://www.w3.org/1999/xlink" x="0px" y="0px"
	 viewBox="0 0 1000 300" style="enable-background:new 0 0 1000 300;" xml:space="preserve">
<style type="text/css">
	.st0{fill:#FFFFFF;stroke:#231F20;stroke-width:2;}
</style>
<g>
	<g>
		<path d="M153.8,114.9c0,4.4,0,8.5,0,12.7c0,0.3-0.2,0.7-0.4,0.9c-1.6,2-3.3,3.9-5,5.8c-0.3,0.4-1,0.6-1.6,0.6c-3.5,0.1-7,0-10.7,0
			c-1.2,6-2.5,11.9-3.7,18c7.2,0,14.2,0,21.3,0c0,0.4,0.1,0.8,0.1,1.1c0,3.7,0,7.4,0,11c0,0.5-0.3,1.2-0.6,1.6
			c-1.5,1.9-3.1,3.6-4.6,5.5c-0.5,0.6-1.1,0.8-1.8,0.8c-5.7,0-11.4,0-17.2,0c-0.9,0-1.3,0.2-1.5,1.2c-1.5,7.4-3,14.9-4.5,22.3
			c-0.2,0.7-0.6,1.5-1,2.1c-1.5,1.9-3.1,3.7-4.7,5.6c-0.2,0.3-0.6,0.6-1,0.6c-4,0-8.1,0-12.2,0c2.2-10.6,4.3-21.1,6.4-31.6
			c-6.3,0-12.5,0-18.9,0c-0.6,2.6-1.1,5.3-1.7,7.9c-1.1,5.3-2.2,10.6-3.4,15.9c-0.2,1-1.2,1.9-1.9,2.8c-1.2,1.5-2.5,3-3.8,4.5
			c-0.2,0.2-0.6,0.5-0.9,0.5c-4.1,0-8.2,0-12.4,0c2.2-10.6,4.4-21.1,6.7-31.7c-4.6,0-9.2,0-13.7,0c0-0.5-0.1-0.9-0.1-1.3
			c0-3.5,0-7,0-10.6c0-0.6,0.3-1.3,0.6-1.8c1.6-1.9,3.2-3.8,4.8-5.6c0.4-0.4,1-0.7,1.6-0.7c3.2-0.1,6.5-0.1,9.7,0
			c1,0,1.3-0.3,1.5-1.2c1.1-5.5,2.3-11.1,3.5-16.8c-7.3,0-14.5,0-21.8,0c0-1.8,0-3.5,0-5.2c0-2.2,0-4.3,0-6.5c0-0.8,0.2-1.5,0.8-2.2
			c1.6-1.8,3.2-3.7,4.8-5.5c0.3-0.4,1-0.7,1.5-0.7c6,0,11.9,0,17.9,0c0.9,0,1.2-0.2,1.4-1.1c1.4-7.1,2.9-14.1,4.5-21.2
			c0.1-0.5,0.4-1.1,0.7-1.5c1.7-2,3.4-4,5.2-6c0.2-0.2,0.5-0.5,0.8-0.5c4.1,0,8.1,0,12.4,0c-2.1,10.1-4.2,20.1-6.4,30.1
			c6.1,0,12.2,0,18.4,0c0.8-4,1.6-8,2.5-12c0.7-3.3,1.4-6.6,2-10c0.2-1.3,1.2-2,1.9-2.9c1.2-1.6,2.5-3.1,3.9-4.6
			c0.3-0.3,0.7-0.6,1.1-0.6c4,0,7.9,0,11.9,0c0.1,0,0.2,0.1,0.4,0.1c-2,10-4.1,19.9-6.2,30C144.7,114.9,149.2,114.9,153.8,114.9z
			 M96.4,152.9c0.3,0.1,0.4,0.1,0.6,0.1c5.8,0,11.5,0,17.3,0c0.8,0,0.9-0.4,1-1c0.9-4.7,1.9-9.3,2.8-13.9c0.2-1,0.4-2,0.6-3.1
			c-0.6,0-1,0-1.4,0c-5.2,0-10.5,0-15.7,0c-1.2,0-1.6,0.4-1.8,1.5c-0.7,3.8-1.6,7.6-2.4,11.5C97.1,149.5,96.7,151.2,96.4,152.9z"/>
		<path d="M870.9,83.4c-5.5,20.8-10.9,41.6-16.4,62.3c-3.3,12.5-6.6,25.1-9.9,37.6c-0.3,1.1-0.5,2.2-0.4,3.3c0,1.8,1.2,2.8,3,2.4
			c1.8-0.4,3.4-1.3,4.5-2.8c1.1-1.5,2.2-3.1,3.1-4.8c2.2-4.1,5.4-7.3,8.4-10.8c1.8,1,3.6,2,5.5,3c-0.8,1.5-1.5,2.9-2.2,4.3
			c-3.1,5.8-7.4,10.8-11.6,15.8c-3.4,3.9-7,7.5-11.6,10.1c-3.3,1.8-6.7,3.1-10.4,3.1c-6.6,0.2-11-2.7-13-9.8c-0.3-1-0.5-2-0.8-3.2
			c-1.6,1.6-3,3.1-4.5,4.5c-5.6,5.3-12.1,8.6-20,8.6c-12.2-0.1-21.3-8-24.2-18.9c-2.2-8.2-1.3-16.3,1.1-24.3
			c2.9-9.8,8.3-18.2,15.1-25.8c3.4-3.7,6.6-7.5,10.9-10.2c5.6-3.6,11.7-5.6,18.4-5.6c5.6,0,10.9,1.2,15.3,5c1,0.9,2,1.9,3,2.9
			c0.8-3,1.6-6,2.4-8.9c1.4-5.2,2.8-10.3,4.2-15.5c1.1-4.1-0.1-6-4.3-6.4c-2.5-0.3-5,0-7.7,0c0.8-2.6,1.4-4.9,2.1-7.2
			c0.2-0.5,0.6-0.9,1-1.3c1.4-1.7,2.8-3.4,4.3-5c0.4-0.4,1-0.8,1.6-0.8c7.3-0.4,14.6-0.7,21.9-1C863.4,83.6,867.1,83.5,870.9,83.4z
			 M827,150.9c0.1-2.2-0.3-5.2-2.1-7.8c-2.6-3.9-7.1-5.3-12-3.9c-2.3,0.7-4.6,1.5-5.9,3.7c-4.6,7.6-7.6,15.7-9.1,24.4
			c-0.7,4.6-1.1,9.2-0.1,13.8c1,4.7,4.3,9,10.5,8.3c3.9-0.4,7.4-1.9,9.5-5.6c3.1-5.3,5.1-11,6.6-16.9C825.9,162,827,157,827,150.9z"
			/>
		<path d="M272.8,147.2c-1.7-2.9-3.8-5.5-5-8.5c-4.6-11.9-3.1-22.9,5.7-32.6c1.9-2.1,3.7-4.4,5.6-6.5c3.6-4.1,8-6.9,13.1-8.7
			c3.9-1.3,7.9-1.9,12-2.1c4.6-0.2,9,0.3,13.3,1.8c9.4,3.3,15.2,12.5,14.4,22.3c-0.5,6.7-3.3,12.2-7.8,17.1
			c-2.9,3.2-5.4,6.8-8.9,9.3c-1.6,1.2-3.2,2.2-4.9,3.4c1,1.1,1.9,2.3,2.9,3.4c3.6,4.3,6.6,9,7.8,14.6c2.1,9.9-0.3,18.6-7,26.1
			c-2.6,2.9-4.9,6-7.7,8.7c-7,7-15.6,10.4-25.4,10.9c-5.6,0.3-11.1-0.2-16.4-2c-6.9-2.4-12.5-6.5-15.9-13
			c-4.3-8.2-3.5-16.4,1.5-24.1c2.2-3.4,5.2-6.4,7.8-9.6c3.6-4.4,8.3-7.4,13.3-10C271.8,147.7,272.4,147.4,272.8,147.2z M283.8,192
			c4.6,0.1,8.8-0.8,12.5-3.3c0.5-0.3,0.9-0.8,1.1-1.3c2.3-5.7,1.5-11-1.7-16.1c-3.8-5.9-8.9-10.6-14-15.3c-0.2-0.2-0.8-0.2-1-0.1
			c-4,1.7-7.8,3.7-11.2,6.4c-0.4,0.3-0.6,0.7-0.9,1.1c-1.6,3-2.5,6.3-2.7,9.7c-0.4,6.5,1.6,12,7.1,15.8
			C276.2,191.3,280,192.1,283.8,192z M297.6,103.2c-3.7,0-6.7,0.6-9.5,2.1c-0.5,0.3-1.2,0.7-1.3,1.1c-0.4,1.8-0.8,3.6-0.9,5.4
			c-0.1,3.3,1.4,6.2,3.3,8.8c3.7,5.2,8.1,9.7,12.8,14c0.2,0.2,0.9,0.2,1.2,0.1c2.3-1.4,4.6-2.8,6.8-4.2c0.3-0.2,0.6-0.5,0.7-0.8
			c2.9-5.8,3.7-11.8,1-17.7C309,105.9,303.7,103.3,297.6,103.2z"/>
		<path d="M662.4,205.3c0.6-2.3,1.2-4.6,1.8-6.9c4-15.1,8.1-30.2,12.1-45.3c0.7-2.6,1.4-5.1,1.9-7.8c0.5-2.6-0.9-4.6-3.6-5
			c-2.2-0.3-4.5-0.3-6.7-0.4c-0.4,0-0.9,0-1.5,0c0.4-2.3,0.6-4.6,1.2-6.7c0.2-0.8,1-1.4,1.6-2.1c1.3-1.6,2.7-3.2,4-4.7
			c0.3-0.3,0.7-0.5,1.1-0.6c5.8-0.3,11.6-0.5,17.5-0.7c4.5-0.2,9-0.4,13.5-0.6c0.4,0,0.8,0,1.3,0c-1.8,7.4-3.5,14.7-5.2,21.9
			c0.1,0,0.2,0.1,0.2,0.1c1.4-1.6,2.9-3.2,4.3-4.9c3.8-4.6,7.6-9,12.4-12.5c3.9-2.8,8.1-5,12.9-5.5c7.6-0.8,14.3,2.1,17.6,8.8
			c1.8,3.6,1.7,7.4,1.2,11.3c-0.7,6.5-2.8,12.8-4.5,19.1c-1.9,7.2-3.9,14.4-5.8,21.6c-0.1,0.5-0.2,0.9-0.3,1.4
			c-0.4,2.3,0.8,3.5,3.1,3c1.3-0.3,2.4-0.9,3.1-2.2c1.4-2.7,2.8-5.5,4.3-8.1c0.6-1.1,1.5-2.1,2.3-3.2c1.2-1.4,2.4-2.8,3.6-4.2
			c0.2-0.3,0.7-0.6,1-0.5c1.9,0.5,3.8,1.1,5.8,1.7c-2.7,6.5-5.8,12.7-10.4,17.9c-2.8,3.2-5.6,6.5-8.6,9.4c-3.5,3.4-7.8,5.7-12.8,6.3
			c-3.2,0.4-6.3,0.3-9.3-1c-4.8-2.1-7-6-7.1-11.1c-0.2-5.1,1.2-10,2.5-14.9c2-7.7,4.2-15.3,6.2-23c0.8-3.2,1.6-6.4,1.1-9.7
			c-0.5-3.3-2.9-5-6.2-4.4c-3,0.6-5.4,2.3-7.8,4.1c-3.6,2.7-5.5,6.7-7.7,10.4c-4.5,7.6-7.1,15.8-9.3,24.3
			c-1.4,5.3-2.9,10.6-4.5,15.9c-0.3,1.1-1.2,2.1-1.9,3c-1.3,1.6-2.6,3.1-4,4.6c-0.2,0.3-0.6,0.5-1,0.5c-6.5,0.3-12.9,0.5-19.4,0.8
			C662.6,205.4,662.5,205.4,662.4,205.3z"/>
		<path d="M606.3,206.9c-9-0.1-16.2-1.6-22.4-6.3c-7.4-5.6-11.5-13-12.3-22.2c-1.1-13.4,3.3-24.9,12.1-35c2.5-2.9,4.9-5.9,7.6-8.6
			c7.6-7.6,16.8-11.5,27.4-12.4c5.8-0.5,11.5-0.3,17,1.8c11.8,4.4,18.9,12.9,20.4,25.4c1.7,13.6-2.7,25.5-11.6,35.8
			c-2.8,3.3-5.6,6.6-8.7,9.7c-6.2,6.2-13.7,9.8-22.3,11.1C610.7,206.5,607.8,206.7,606.3,206.9z M598.2,178.7
			c0.1,0.8,0.1,2.2,0.3,3.5c1,8,8,12.5,15.7,10.1c1.9-0.6,3.6-1.4,4.7-3.4c4.6-8.6,7.8-17.7,9.6-27.3c0.9-5.1,1.6-10.3,0.7-15.6
			c-1-6.2-5.7-11-12-10.4c-3.9,0.3-7.3,1.6-9.2,5.5c-2.7,5.3-4.7,10.9-6.2,16.6C599.9,164.5,598.4,171.2,598.2,178.7z"/>
		<path d="M884.7,169.1c-1.1-1.3-2.4-2.5-3.3-3.9c-1.6-2.3-2.3-4.9-2.4-7.7c-0.5-7,1.5-13.2,6.4-18.3c1.8-1.9,3.4-4.1,5.2-6.1
			c4.1-4.7,9.2-7.8,15.1-9.4c8.8-2.3,17.8-2.5,26.6,0c5.3,1.5,9.7,4.5,11.8,9.8c1.9,4.6,1.5,9.1-2,13c-1.8,2-3.5,4.1-5.3,6.2
			c-1.5,1.7-3.4,2.7-5.7,3.1c-0.3,0-0.6,0.1-1.2,0.2c1,0.6,1.9,1.1,2.7,1.6c4.7,3.2,7.2,7.7,7.6,13.3c0.6,7.3-1.9,13.5-6.7,18.9
			c-2.6,2.9-5,6-7.9,8.6c-4.5,4.1-10.1,6.3-16.1,7.3c-8.5,1.4-16.9,1.3-25.3-1c-5.2-1.4-9.6-4.1-12.7-8.8c-3-4.6-3.6-12.9,1.4-17.4
			c1.6-1.4,2.8-3.1,4.1-4.8C878.8,171.2,881.3,169.4,884.7,169.1z M893.9,173.5c0.3,1,0.5,1.5,0.7,2.1c1,3.6-0.3,6.6-2.5,9.4
			c-1.9,2.5-1.6,4.3,1.1,5.9c0.8,0.5,1.8,1,2.7,1.3c3.7,1.2,7.5,1.4,11.3,0.8c2.2-0.4,4.3-1.2,6.5-2c0.5-0.2,1-0.7,1.1-1.2
			c1.1-3.9,0.3-7.9-3.9-9.7C905.5,177.7,899.8,175.8,893.9,173.5z M921.5,153c-0.5-1.8-1.1-3.5-1.3-5.1c-0.3-2.5,0.9-4.6,2.1-6.7
			c1-1.8,0.7-3.2-1.1-4.3c-0.7-0.4-1.4-0.9-2.2-1c-2.1-0.3-4.2-0.5-6.3-0.5c-2.8,0.1-5.5,0.7-8,2.1c-0.3,0.2-0.6,0.4-0.8,0.7
			c-1.4,2.6-0.3,6.9,2.2,8.4c1.1,0.7,2.3,1.3,3.5,1.8C913.6,150,917.6,151.5,921.5,153z"/>
		<path d="M343.9,169.1c-2.1-1.6-3.7-3.3-4.6-5.5c-2.5-6.1-2-12.2,0.6-18.1c1.2-2.8,3.2-5.1,5.3-7.4c2.5-2.7,4.8-5.7,7.5-8.2
			c4.7-4.2,10.4-6.3,16.6-7.2c7.3-1.1,14.5-1.1,21.7,1c3.6,1.1,6.8,3,9.4,5.7c4.2,4.6,5.2,12.5,0.2,17.6c-1.6,1.6-3,3.4-4.4,5.2
			c-1.8,2.3-4.1,3.6-7.3,3.8c0.4,0.3,0.6,0.5,0.8,0.6c6.8,3.7,9.7,9.6,9.5,17.2c-0.2,6.7-3.1,12.2-7.5,17c-2.4,2.6-4.6,5.5-7.2,7.8
			c-5.1,4.6-11.3,6.8-18,7.6c-7.2,0.9-14.4,0.8-21.5-0.9c-5.2-1.2-9.8-3.4-13.3-7.6c-3.7-4.4-4.6-9.5-2.7-14.9
			c0.4-1.3,1.3-2.4,2.2-3.5c1.8-2.2,3.7-4.4,5.6-6.6C338.4,170.7,340.8,169.4,343.9,169.1z M353.2,173.6c-0.1,0.1-0.1,0.2-0.2,0.3
			c1.8,4,0.9,7.6-1.7,10.9c-0.3,0.3-0.5,0.7-0.8,1.1c-0.9,1.2-1,2.5,0,3.5c1.1,1.1,2.4,2.1,3.8,2.6c3.9,1.6,8,1.7,12.1,1
			c2.2-0.4,4.3-1.2,6.5-2c0.4-0.2,0.9-0.8,1-1.3c0.9-3.9,0.1-7.7-3.9-9.5C364.4,177.8,358.8,175.8,353.2,173.6z M380.6,153.2
			c0.1-0.1,0.1-0.3,0.2-0.4c-2.4-3.3-2.3-6.7-0.5-10.1c0.3-0.7,0.7-1.3,1-2c0.7-1.5,0.4-2.7-1-3.6c-0.7-0.5-1.4-0.9-2.2-1.1
			c-4.9-1.1-9.7-0.8-14.2,1.4c-0.4,0.2-0.9,0.5-1.1,0.9c-0.9,2.6-1.1,6.9,2.5,8.6C370.4,149.1,375.5,151.1,380.6,153.2z"/>
		<path d="M474,177.6c1.7,1.3,3.4,2.7,5.2,4.1c-2.1,2.4-4,4.7-6,7c-3.6,4.1-7.6,7.8-12.1,10.8c-6.5,4.4-13.7,6.7-21.5,7.2
			c-5.2,0.3-10.3-0.1-15.2-2c-9.2-3.5-14.7-10.2-16.6-19.8c-2.6-13.6,1-25.9,9.4-36.7c3.2-4.2,6.8-8.2,10.5-11.9
			c7.3-7.2,16.1-11.6,26.2-13.4c5.1-0.9,10.1-1.2,15.2-0.3c4.9,0.9,9.2,3.1,12,7.4c3.5,5.4,3.3,11.1,0.8,16.8
			c-1.7,3.9-4.8,6.7-7.3,10c-6.4,8.3-15.3,12.4-25,15.1c-4.3,1.2-8.7,2.2-13,3.2c-1,0.2-1.2,0.6-1.1,1.6c0.3,3.3,1.1,6.4,3.1,9
			c2.6,3.4,6.1,5,10.3,5.2c7.3,0.3,13.2-2.7,18.6-7.3C469.7,181.7,471.8,179.7,474,177.6z M436.6,163c5.1-1.1,9.9-2.3,14.2-4.7
			c1.4-0.8,3.1-1.6,3.9-2.9c2.6-4.1,3.6-8.6,2.7-13.4c-0.6-3.7-3.3-5.9-6.8-5.7c-2.7,0.2-5.1,1.2-6.5,3.9c-2.6,4.9-4.5,9.9-5.8,15.3
			C437.6,157.9,437.1,160.3,436.6,163z"/>
		<path d="M556.4,177.2c1.7,1.3,3.2,2.5,4.7,3.7c0.5,0.4,0.5,0.7,0.1,1.2c-6.1,7.1-11.9,14.6-20.4,19.1c-5.9,3.2-12.1,5.2-18.9,5.5
			c-6.5,0.3-12.8-0.6-18.5-3.9c-7.5-4.3-11.9-10.9-13.2-19.4c-1.9-11.9,0.9-22.9,7.6-32.8c3.3-5,7.4-9.5,11.4-14
			c5.3-6,11.9-10.2,19.6-12.6c8.1-2.5,16.3-3,24.5-0.2c6.4,2.2,10.9,6.5,12.1,13.4c0.9,5.1,0.2,9.9-3.6,13.9c-1.8,1.9-3.5,4-5.2,6.1
			c-4.6,5.5-14.5,4.9-18-1.1c-1.6-2.7-1.7-7.5,1-10.4c2.3-2.4,4.3-5,6.5-7.5c-1.8-1.4-4-2-6.2-2.2c-4.5-0.3-8.7,0.8-12.2,3.6
			c-1.2,0.9-2.1,2.3-2.8,3.6c-4,7.3-5.9,15.3-6.4,23.6c-0.2,4-0.3,8,0.5,11.9c1.4,6.7,5.9,11.2,12.4,11.8c4.8,0.5,9.2-0.9,13.4-3.4
			c4.2-2.5,7.7-5.8,11-9.3C556,177.7,556.2,177.5,556.4,177.2z"/>
		<path d="M233.8,89.3c-0.8,2.9-1.5,5.6-2.2,8.3c-5,18.6-10,37.2-14.9,55.8c-2.8,10.6-5.7,21.3-8.5,31.9c-0.7,2.8,0.2,4.3,3,4.9
			c1.1,0.2,2.3,0.4,3.4,0.4c2.7,0.1,5.4,0,8.3,0c0,0.4,0,0.7-0.1,1c-0.3,1.1-0.7,2.1-0.9,3.2c-0.4,2-1.3,3.5-2.6,5
			c-1.3,1.4-2.5,2.8-3.7,4.3c-0.5,0.6-0.9,0.7-1.6,0.7c-4.8,0-9.6,0-14.4,0c-12.4,0-24.9,0-37.3,0c-0.5,0-1,0-1.6,0
			c0.7-2.4,1.3-4.8,2.2-7c0.6-1.3,1.8-2.3,2.7-3.5c1-1.2,1.9-2.9,3.2-3.5c1.3-0.6,3.1-0.2,4.7-0.2c2.8-0.1,5.7-0.1,8.5-0.2
			c0.9,0,1.2-0.4,1.4-1.3c5.2-19.6,10.5-39.2,15.7-58.8c1-3.7,2-7.3,2.9-11c0.8-3.1-0.3-4.9-3.5-5.6c-1-0.2-2-0.3-3-0.3
			c-3.5,0-7,0-10.7,0c0.9-3.8,1.4-7.6,4.6-10.3c0.4-0.3,0.7-0.7,1-1.1c1.3-2.5,3.6-2.8,6.1-2.9c7.5-0.3,14.9-1.3,21.8-4.2
			c3.1-1.3,5.9-2.9,8.5-5c0.3-0.2,0.7-0.5,1-0.5C229.9,89.2,231.8,89.3,233.8,89.3z"/>
	</g>
</g>
<g>
	<path class="st0" d="M66.8,114.7h24.5l6.4-30.2h12.7l-6.4,30.2h23.2l6.1-30.2h12.8l-6.2,30.2h13.7v12.9h-16.3l-5.2,25.2h21.5v12.8
		h-24.1l-6.5,31.7h-12.6l6.5-31.7H93.3l-6.7,31.7H73.9l6.7-31.7H66.8v-12.8h16.5l5.3-25.2H66.8V114.7z M101.3,127.6L96,152.8h23.4
		l5.1-25.2H101.3z"/>
	<path class="st0" d="M227.4,89.1h6.1l-25.7,95.8c-0.2,0.6-0.2,1.1-0.2,1.7c0,1.2,0.5,2,1.4,2.6c1.2,0.7,3.2,1.1,5.9,1.1h7.7
		l-1.9,7.1h-54.2l2.1-7.1h11.1c4.7,0,7.8-2.4,9.2-7.1l19.1-71.4c0.2-0.6,0.2-1.1,0.2-1.6c0-1.3-0.5-2.3-1.6-3.1
		c-1.1-0.8-3-1.1-5.8-1.1h-10.1l1.9-6.9c9.1-0.3,16.3-1.3,21.5-2.9C219.5,94.4,223.9,92.1,227.4,89.1z"/>
	<path class="st0" d="M307.3,139.8c5.5,5.8,9.3,10.7,11.2,14.7c1.9,4,2.9,8.2,2.9,12.5c0,8.8-3.6,16.4-10.8,22.9
		c-7.2,6.4-16.1,9.7-26.9,9.7c-9.5,0-17.2-2.5-23.2-7.6c-5.9-5.1-8.9-11.1-8.9-18.1c0-6.2,2.2-11.8,6.6-16.8c4.4-5,12.2-9.7,23.4-14
		c-3.9-4.3-6.7-8.2-8.2-11.7c-1.5-3.6-2.3-7.4-2.3-11.6c0-9,3.2-16.4,9.6-22.3c6.4-5.9,14.6-8.8,24.6-8.8c8,0,14.4,2.1,19.1,6.4
		c4.7,4.3,7,9.6,7,15.9c0,6.1-1.8,11.5-5.5,16.2C322.5,131.9,316.2,136.1,307.3,139.8z M287,148.2c-14.3,5.8-21.5,14.6-21.5,26.2
		c0,5.2,1.7,9.4,5,12.6c3.3,3.2,7.8,4.8,13.3,4.8c6.1,0,11-1.8,14.8-5.4c3.8-3.6,5.8-7.9,5.8-13c0-3.1-1-6.2-2.9-9.4
		C298.9,159.9,294.1,154.6,287,148.2z M302.3,135c11.2-5.2,16.9-12.8,16.9-22.5c0-4.9-1.5-8.9-4.5-11.9c-3-3-6.9-4.5-11.7-4.5
		c-5,0-9.1,1.5-12.3,4.5c-3.2,3-4.8,6.5-4.8,10.7c0,2.6,0.9,5.4,2.6,8.2C290.9,123.4,295.5,128.6,302.3,135z"/>
	<path class="st0" d="M343.6,148.4c0-7.5,3.1-13.8,9.3-18.9c6.2-5.1,14.5-7.6,24.9-7.6c8.5,0,15,1.6,19.4,4.8
		c4.4,3.2,6.6,7.1,6.6,11.8c0,3.1-0.9,5.5-2.7,7.4c-1.8,1.9-4.1,2.9-6.9,2.9c-2.6,0-4.8-0.8-6.6-2.5c-1.7-1.7-2.6-3.7-2.6-6.2
		c0-1.6,0.6-3.5,1.9-5.7c0.6-1.1,0.9-1.8,0.9-2.3c0-1.1-0.7-2-2.1-2.9c-1.4-0.8-3.6-1.3-6.6-1.3c-5,0-9,1.3-12.2,3.9
		c-3.1,2.6-4.7,5.6-4.7,9c0,2.2,0.7,3.9,2.2,5.1c1.4,1.2,6.3,3.3,14.6,6.2c6.2,2.1,10.4,4,12.7,5.7c2.3,1.6,4.1,3.7,5.3,6.3
		c1.3,2.6,1.9,5.4,1.9,8.4c0,4.8-1.3,9.3-4,13.5c-2.7,4.1-6.6,7.4-11.8,9.8c-5.2,2.4-11.5,3.6-18.8,3.6c-10.2,0-17.8-1.8-22.8-5.3
		c-5.1-3.6-7.6-8.1-7.6-13.7c0-3.4,1-6.1,3.1-8.3c2.1-2.2,4.6-3.3,7.6-3.3c2.6,0,4.8,0.8,6.6,2.5c1.7,1.7,2.6,3.8,2.6,6.5
		c0,2.1-0.9,4.3-2.8,6.6c-0.9,1.1-1.3,1.9-1.3,2.5c0,1.4,0.9,2.7,2.7,3.7c2.4,1.4,5.7,2.1,9.9,2.1c5.4,0,9.8-1.3,13-3.9
		c3.2-2.6,4.8-5.8,4.8-9.4c0-2.1-0.7-3.9-2.1-5.3c-1.4-1.4-4.7-2.9-9.7-4.6c-10.7-3.5-17.5-6.6-20.4-9.5
		C345,157.4,343.6,153.4,343.6,148.4z"/>
	<path class="st0" d="M435.4,169.2c-0.2,1.9-0.3,3.5-0.3,4.8c0,5.4,1.3,9.5,4,12.4c2.6,2.9,6.2,4.3,10.6,4.3c3.7,0,7.4-0.9,10.9-2.7
		c3.6-1.8,8-5.3,13.2-10.6l5.1,4c-6,6.6-11.8,11.2-17.5,14c-5.7,2.7-11.9,4.1-18.5,4.1c-9.4,0-16.7-2.7-22.1-8
		c-5.4-5.4-8-12.6-8-21.9c0-8.2,2.2-16,6.7-23.5c4.5-7.5,10.6-13.4,18.3-17.7c7.8-4.3,16.1-6.5,25.1-6.5c6.6,0,11.6,1.6,15.3,4.7
		c3.6,3.2,5.4,7.1,5.4,12c0,4-1.4,8-4.3,12.1s-7.6,7.6-14.1,10.5C458.6,164.2,448.7,166.9,435.4,169.2z M436.3,162.8
		c8.7-1.7,15-4.4,19-8.1c5.4-5.1,8.2-10.9,8.2-17.3c0-2.6-0.6-4.7-1.9-6.2c-1.2-1.5-2.8-2.2-4.7-2.2c-3.8,0-7.3,2.3-10.5,6.8
		C441.6,142.3,438.3,151.3,436.3,162.8z"/>
	<path class="st0" d="M556.2,177.1l5.3,4.1c-4.8,6-10.3,10.5-16.5,13.6c-6.2,3.1-12.5,4.7-19.1,4.7c-9.2,0-16.6-2.7-22-8.2
		c-5.5-5.4-8.2-12.7-8.2-21.7c0-8.2,2.2-16.1,6.5-23.7c4.3-7.6,10-13.6,17-17.8c7-4.2,14.5-6.3,22.5-6.3c7.7,0,13.6,1.8,17.7,5.3
		c4.1,3.5,6.2,8,6.2,13.3c0,4-1.1,7.2-3.4,9.6c-2.2,2.4-5,3.6-8.4,3.6c-3.1,0-5.6-0.9-7.5-2.7c-2-1.8-2.9-4.1-2.9-6.8
		c0-1.9,0.5-3.5,1.4-4.7c1-1.3,3.3-2.9,6.9-4.8c1.1-0.6,1.7-1.1,1.7-1.8c0-0.9-0.7-1.8-2.1-2.6c-1.9-1.1-4.2-1.7-6.9-1.7
		c-6.7,0-12.4,3.4-17.2,10.2c-6.1,8.6-9.1,19.6-9.1,32.8c0,6.3,1.4,11,4.1,14.2c2.7,3.1,6.3,4.7,10.7,4.7
		C540.5,190.6,548.3,186.1,556.2,177.1z"/>
	<path class="st0" d="M622.9,121.9c9.8,0,17.8,3,24,9.1c6.2,6.1,9.3,13.7,9.3,23c0,11.7-4.2,22.3-12.5,31.6c-8.4,9.3-19.4,14-33,14
		c-10,0-18-3-24.2-9s-9.2-13.7-9.2-23.2c0-8,2.1-15.7,6.2-22.9c4.1-7.2,9.6-12.8,16.4-16.7C606.7,123.9,614.4,121.9,622.9,121.9z
		 M623.6,128.3c-4,0-7.5,1.7-10.7,5.1c-4.4,4.7-8,11.9-10.8,21.6c-2.8,9.7-4.2,17.5-4.2,23.4c0,4.6,1.1,8.2,3.3,10.6
		s5.1,3.7,8.8,3.7c3.5,0,6.5-1.2,9.2-3.7c3.9-3.7,7.5-10.2,11-19.7c3.5-9.5,5.2-18.3,5.2-26.5c0-4.6-1.1-8.1-3.3-10.7
		C629.9,129.6,627.1,128.3,623.6,128.3z"/>
	<path class="st0" d="M756.3,170.3l6.2,1.9c-3.7,9.3-8.1,16-13.1,20.3c-5,4.3-10.1,6.4-15.3,6.4c-4.3,0-7.7-1.2-10.1-3.5
		c-2.4-2.4-3.6-5.6-3.6-9.6c0-3.6,1.1-9.3,3.4-17.1c3.3-11.7,5.2-18.9,5.8-21.6s0.8-4.9,0.8-6.6c0-1.9-0.5-3.4-1.4-4.4
		c-0.9-1.1-2-1.6-3.4-1.6c-2.5,0-5.1,1-7.9,3.1c-4.7,3.4-9.1,8.4-13.2,15.2c-4.2,6.8-7.3,13.7-9.3,20.9l-6.6,23.6l-20.2,0.7
		l15.7-58.9c0.2-0.6,0.2-1.2,0.2-1.8c0-1.5-0.5-2.6-1.6-3.4c-1.1-0.8-3.1-1.2-6.1-1.2h-4.1l1.1-7.1l32.9-1.4l-5.9,24.8
		c11.3-17.1,22.3-25.7,33-25.7c4.9,0,8.9,1.5,12,4.5c3.1,3,4.7,6.8,4.7,11.4c0,3.7-0.7,8.1-2.1,13.4l-7,26c-1.3,4.1-1.9,6.7-1.9,7.8
		c0,0.8,0.2,1.4,0.6,1.7c0.4,0.4,0.9,0.6,1.6,0.6c1.7,0,3.6-1,5.5-3.1C750.1,182.2,753.2,177,756.3,170.3z"/>
	<path class="st0" d="M836.7,84.5l33.7-1.4l-26.1,99.3c-0.4,1.5-0.6,2.7-0.6,3.6c0,1,0.2,1.7,0.6,2.2s1,0.7,1.8,0.7
		c4,0,9.6-6.2,16.7-18.5l5.5,3c-4.5,9.1-9.5,15.7-14.8,19.9c-5.3,4.2-10.6,6.3-15.7,6.3c-3.7,0-6.7-1.1-8.8-3.3
		c-2.2-2.2-3.6-5.5-4.2-10c-4.4,4.9-8.5,8.4-12.3,10.3c-3.8,2-7.8,2.9-12,2.9c-7.4,0-13.5-2.6-18.3-7.8c-4.9-5.2-7.3-12-7.3-20.4
		c0-8.2,2.1-16.5,6.3-24.9c4.2-8.3,9.3-14.5,15.2-18.6s12.2-6.1,19-6.1c4.9,0,9,1,12.5,3c3.5,2,6.4,5.2,8.9,9.5l9.9-36.6
		c0.2-0.8,0.3-1.5,0.3-2.2c0-1.2-0.6-2.2-1.8-3c-1.2-0.8-3.3-1.2-6.4-1.2h-4.1L836.7,84.5z M822.4,131.5c-3.6,0-6.8,1.3-9.6,3.8
		c-4.1,3.6-7.7,9.3-10.9,17.2c-3.2,7.9-4.8,15.4-4.8,22.6c0,4.9,0.9,8.5,2.8,10.8c1.9,2.3,4.3,3.5,7.3,3.5c3.9,0,7.7-1.9,11.4-5.8
		c4.7-4.8,8.4-12,11.1-21.6c2-7.2,3-13.2,3-17.9c0-4-1-7.2-2.9-9.4C828,132.6,825.5,131.5,822.4,131.5z"/>
	<path class="st0" d="M884.6,148.4c0-7.5,3.1-13.8,9.3-18.9c6.2-5.1,14.5-7.6,24.9-7.6c8.5,0,15,1.6,19.4,4.8
		c4.4,3.2,6.6,7.1,6.6,11.8c0,3.1-0.9,5.5-2.7,7.4c-1.8,1.9-4.1,2.9-6.9,2.9c-2.6,0-4.8-0.8-6.6-2.5c-1.7-1.7-2.6-3.7-2.6-6.2
		c0-1.6,0.6-3.5,1.9-5.7c0.6-1.1,0.9-1.8,0.9-2.3c0-1.1-0.7-2-2.1-2.9c-1.4-0.8-3.6-1.3-6.6-1.3c-5,0-9,1.3-12.2,3.9
		c-3.1,2.6-4.7,5.6-4.7,9c0,2.2,0.7,3.9,2.2,5.1c1.4,1.2,6.3,3.3,14.6,6.2c6.2,2.1,10.4,4,12.7,5.7c2.3,1.6,4.1,3.7,5.3,6.3
		c1.3,2.6,1.9,5.4,1.9,8.4c0,4.8-1.3,9.3-4,13.5c-2.7,4.1-6.6,7.4-11.8,9.8s-11.5,3.6-18.8,3.6c-10.2,0-17.8-1.8-22.8-5.3
		c-5.1-3.6-7.6-8.1-7.6-13.7c0-3.4,1-6.1,3.1-8.3c2.1-2.2,4.6-3.3,7.6-3.3c2.6,0,4.8,0.8,6.6,2.5c1.7,1.7,2.6,3.8,2.6,6.5
		c0,2.1-0.9,4.3-2.8,6.6c-0.9,1.1-1.3,1.9-1.3,2.5c0,1.4,0.9,2.7,2.7,3.7c2.4,1.4,5.7,2.1,9.9,2.1c5.4,0,9.8-1.3,13-3.9
		c3.2-2.6,4.8-5.8,4.8-9.4c0-2.1-0.7-3.9-2.1-5.3c-1.4-1.4-4.7-2.9-9.7-4.6c-10.7-3.5-17.5-6.6-20.4-9.5
		C886.1,157.4,884.6,153.4,884.6,148.4z"/>
</g>
</svg>
