<?xml version="1.0" encoding="utf-8"?>
<!-- Generator: Adobe Illustrator 18.1.1, SVG Export Plug-In . SVG Version: 6.00 Build 0)  -->
<svg version="1.1" id="Layer_1" xmlns="http://www.w3.org/2000/svg" xmlns:xlink="http://www.w3.org/1999/xlink" x="0px" y="0px"
	 viewBox="0 0 1000 300" style="enable-background:new 0 0 1000 300;" xml:space="preserve">
<style type="text/css">
	.st0{fill:#FFFFFF;stroke:#231F20;stroke-width:2;}
</style>
<g>
	<path class="st0" d="M369.8,191.5H355l-4.3,77.6h-6.7l4.3-77.6h-18.8l-4.3,77.6h-6.7l4.3-77.6h-14.6l-0.5-15.4h16l2.9-53.4H312
		l-0.5-15.4h16l4.3-77.6h6.7l-4.3,77.6h18.8l4.3-77.6h6.7l-4.3,77.6H373l0.5,15.4h-14.8l-2.9,53.4h13.4L369.8,191.5z M333.3,122.8
		l-2.9,53.4h18.8l2.9-53.4H333.3z"/>
	<path class="st0" d="M388.7,54.1c0-1.7-0.3-3.4-0.9-4.1l-6-8.5c-0.4-0.7-0.7-1.4-0.7-2.4c0-1,0.5-2.1,1.3-2.7
		c5.3-4.4,10.5-14.4,12.5-21.2c0.4-1.4,0.7-2.4,1.2-2.4h1.6c0.4,0,0.7,1,0.7,1.7c0,8.2-0.4,20.9-0.4,37.3v192.9
		c0,4.1,0.3,7.2,1.2,9.6l4,9.9c0.4,1,0.9,2.1,0.9,3.1c0,1-0.1,2.1-0.8,2.1h-20c-0.5,0-0.8-1-0.8-2.1c0-1,0.5-2.1,0.9-3.1l4-9.9
		c0.9-2.4,1.2-5.5,1.2-9.6V54.1z"/>
	<path class="st0" d="M442.9,77.3c0,26.3-2.8,44.1-9.6,60.5c5.3,7.5,9.6,27.7,9.6,61.2c0,42.8-5.9,70.1-16.5,70.1
		c-10.8,0-16.5-27.4-16.5-70.1c0-33.5,4.1-53.7,9.5-61.2c-6.8-16.4-9.5-34.2-9.5-60.5c0-32.5,5.7-64.6,16.5-64.6
		C437,12.7,442.9,44.8,442.9,77.3z M433,76c0-26.7-2-46.2-6.7-46.2c-4.8,0-6.7,19.5-6.7,46.2c0,26.3,1.9,54.7,6.7,54.7
		C431,130.7,433,102.3,433,76z M419.7,199.1c0,37.3,2.4,53,6.7,53c4.1,0,6.7-15.7,6.7-53c0-32.8-2.5-52-6.7-52
		C422.1,147.1,419.7,166.2,419.7,199.1z"/>
	<path class="st0" d="M473.4,146.7c0,1.4-0.3,2.7-0.8,2.7c-0.4,0-0.7-1.4-0.8-3.1c-0.8-10.6-1.7-20.9-4-35.6
		c-1.7-10.9-3.6-17.1-6.1-17.1c-2.8,0-3.3,8.2-3.3,18.5c0,14.4,2.8,33.9,8.1,55.7c5.1,20.9,8.7,44.8,8.7,67
		c0,21.2-5.9,34.2-11.5,34.2c-3.7,0-6-4.4-8-10.9l-3.5,9.2c-0.4,0.7-0.8,1.7-1.3,1.7c-0.3,0-0.4-1-0.4-2.4v-65.7
		c0-1,0.1-2.4,0.5-2.4c0.7,0,0.7,1.4,0.8,3.1c2.1,27.7,5.2,52.7,10.1,52.7c2.9,0,4.3-5.8,4.3-14.7c0-21.2-4.3-43.8-8.5-61.6
		c-4.8-20.5-7.6-41.7-7.6-62.6c0-22.2,5.3-36.6,10.1-36.6c3.2,0,5.6,4.1,7.9,10.9l3.9-8.9c0.3-0.7,0.5-2.1,0.9-2.1
		c0.3,0,0.5,1.7,0.5,3.4V146.7z"/>
	<path class="st0" d="M492.4,195c0,43.1,2.3,59.5,8.4,59.5c4.4,0,6.5-5.5,9.3-16.1c0.3-1,0.5-1.7,0.9-1.7s0.5,0.7,0.4,2.1
		c-1.6,16.4-5.7,30.4-12.2,30.4c-12.1,0-17.2-30.8-17.2-107.4c0-52,5.9-82.8,15.2-82.8c7.7,0,14.4,14.4,14.4,64.3v21.2
		c0,2.4-0.3,4.1-1.2,4.1h-18V195z M502.3,155.6v-34.2c0-18.1-1.9-27.7-5.1-27.7c-3.5,0-4.8,9.6-4.8,27.7v34.2H502.3z"/>
	<path class="st0" d="M534.2,79c6.8,0,10.1,17.4,11.5,34.5c0.1,1.4,0,2.7-0.4,2.7c-0.3,0-0.5-0.7-0.8-1.7c-3.6-14-6-20.9-9.6-20.9
		c-4.7,0-6,14.4-6,72.8c0,70.5,2.3,87.9,6.7,87.9c3.6,0,6.7-8.5,8.8-18.1c0.4-1.7,0.8-2.7,1.2-2.7s0.5,1,0.4,2.4
		c-1.6,15.7-4.8,33.2-11.7,33.2c-10.7,0-15.7-30.8-15.7-102.6C518.5,109.8,524.4,79,534.2,79z"/>
	<path class="st0" d="M583.3,165.9c0,84.5-7.2,103.3-15.8,103.3c-8.5,0-15.7-18.8-15.7-103.3c0-67.4,7.2-86.9,15.7-86.9
		C576.2,79,583.3,98.5,583.3,165.9z M573,165.9c0-59.5-1.9-72.2-5.5-72.2c-3.5,0-5.3,12.7-5.3,72.2c0,76.9,1.9,88.6,5.3,88.6
		C571.1,254.5,573,242.8,573,165.9z"/>
	<path class="st0" d="M601.7,91h0.3c2.4-6.5,4.7-12,9.2-12c6.7,0,11.1,12,11.1,34.9v136.5c0,1.4,0,2.4,0.3,3.1l4.1,12
		c0.3,0.7,0.5,1.7,0.5,2.4c0,1-0.4,1.4-0.8,1.4h-17.6c-0.5,0-0.8-0.3-0.8-1.4c0-0.7,0.3-1.7,0.5-2.4l4.1-12c0.3-0.7,0.3-1.7,0.3-3.1
		V113.6c0-13-1.5-19.8-4.5-19.8c-3.2,0-6.7,11.3-6.7,29.8v126.9c0,1.4,0,2.4,0.1,3.1l4.1,12c0.4,0.7,0.7,1.7,0.7,2.4
		c0,1-0.4,1.4-0.8,1.4h-17.6c-0.5,0-0.8-0.3-0.8-1.4c0-0.7,0.1-1.7,0.5-2.4l4.1-12c0.3-0.7,0.3-1.7,0.3-3.1V95.4
		c0-1.4-0.1-2.1-0.4-2.7l-4-9.6c-0.3-1-0.5-2.1-0.5-2.7c0-1,0.4-1.4,0.8-1.4h12.8c0.5,0,0.7,0.7,0.7,2.1V91z"/>
	<path class="st0" d="M652.5,29.1c0-1.4-0.1-2.1-0.5-2.7l-3.9-9.9c-0.4-0.7-0.7-1.7-0.7-2.4c0-1,0.4-1.4,0.9-1.4H661
		c0.5,0,0.8,0.7,0.8,2.1v235.6c0,1.4,0,2.4,0.1,3.1l4.1,12c0.4,0.7,0.7,1.7,0.7,2.4c0,1-0.4,1.4-0.9,1.4h-12.4
		c-0.5,0-0.9-0.7-0.9-1.4v-11.6h-0.3c-2.3,6.8-4.7,13-8.9,13c-5.9,0-12-8.5-12-105c0-76.3,6.7-85.2,12.1-85.2c3.9,0,6.5,5.5,8.8,12
		h0.3V29.1z M652.5,119.4c0-16.8-4-25.6-5.9-25.6c-3.3,0-4.9,7.2-4.9,70.5c0,82.4,1.3,90.3,4.8,90.3c3.2,0,6-10.6,6-27.4V119.4z"/>
	<path class="st0" d="M694.1,146.7c0,1.4-0.3,2.7-0.8,2.7c-0.4,0-0.7-1.4-0.8-3.1c-0.8-10.6-1.7-20.9-4-35.6
		c-1.7-10.9-3.6-17.1-6.1-17.1c-2.8,0-3.3,8.2-3.3,18.5c0,14.4,2.8,33.9,8.1,55.7c5.1,20.9,8.7,44.8,8.7,67
		c0,21.2-5.9,34.2-11.5,34.2c-3.7,0-6-4.4-8-10.9l-3.5,9.2c-0.4,0.7-0.8,1.7-1.3,1.7c-0.3,0-0.4-1-0.4-2.4v-65.7
		c0-1,0.1-2.4,0.5-2.4c0.7,0,0.7,1.4,0.8,3.1c2.1,27.7,5.2,52.7,10.1,52.7c2.9,0,4.3-5.8,4.3-14.7c0-21.2-4.3-43.8-8.5-61.6
		c-4.8-20.5-7.6-41.7-7.6-62.6c0-22.2,5.3-36.6,10.1-36.6c3.2,0,5.6,4.1,7.9,10.9l3.9-8.9c0.3-0.7,0.5-2.1,0.9-2.1
		c0.3,0,0.5,1.7,0.5,3.4V146.7z"/>
</g>
</svg>
