<?xml version="1.0" encoding="utf-8"?>
<!-- Generator: Adobe Illustrator 18.1.1, SVG Export Plug-In . SVG Version: 6.00 Build 0)  -->
<svg version="1.1" id="Layer_1" xmlns="http://www.w3.org/2000/svg" xmlns:xlink="http://www.w3.org/1999/xlink" x="0px" y="0px"
	 viewBox="0 0 1000 300" style="enable-background:new 0 0 1000 300;" xml:space="preserve">
<style type="text/css">
	.st0{fill:#FFFFFF;stroke:#231F20;stroke-width:2;}
</style>
<g>
	<path class="st0" d="M109.4,130.1H126l3.7-27.6h6.3l-3.8,27.6h13.6l-0.8,6.1h-13.7l-3.2,24.2h13.7l-0.8,6.1h-13.8l-3.7,27.7h-6.2
		l3.7-27.7h-16.5l-3.8,27.7h-6.2l3.8-27.7H84.5l0.8-6.1H99l3.3-24.2H89l0.8-6.1h13.3l3.8-27.6h6.2L109.4,130.1z M125.1,136.3h-16.5
		l-3.4,24.2h16.6L125.1,136.3z"/>
	<path class="st0" d="M183.2,95.4v82.3c0,4.2,0.8,7.4,2.4,9.5c1.6,2.1,4.7,3.2,9.3,3.2v1.9h-44.3v-1.9c5,0,8.2-1.1,9.7-3.3
		c1.5-2.2,2.2-5.2,2.2-9v-46.2c0-2.6-0.2-4.7-0.7-6.2c-0.5-1.5-1.6-2.2-3.3-2.2c-1.8,0-4.4,1.1-7.7,3.2l-1.2-1.7l31.3-29.5H183.2z"
		/>
	<path class="st0" d="M244.8,137.8c6.1,2.8,11.5,6.5,16.2,11.2c4.7,4.7,7,10.6,7,17.6c0,3.9-0.8,7.5-2.5,10.9s-4.1,6.3-7.2,8.8
		c-2,1.6-3.9,2.8-5.9,3.7c-2,0.9-4.6,1.7-7.8,2.3c-3.2,0.6-7.1,0.9-11.6,0.9c-2.8,0-5.8-0.2-8.8-0.5c-3.1-0.3-6.5-1.1-10.2-2.4
		c-3.7-1.3-6.9-3.5-9.6-6.5c-2.6-3-4-6.9-4-11.8c0-3.9,1.4-7.8,4.2-11.7c2.8-3.8,8.3-7.8,16.6-11.8c-5.7-3.1-10.5-6.6-14.5-10.5
		c-3.9-3.9-5.9-9.2-5.9-16c0-2.9,0.7-6.4,2.2-10.4c1.5-4,4.6-7.7,9.5-11.1c4.9-3.4,11.8-5.1,20.9-5.1c6.7,0,12.2,1.1,16.4,3.2
		c4.3,2.1,7.4,4.7,9.4,7.8c2,3.1,2.9,6.2,2.9,9.4c0,4.6-1.6,8.6-4.7,12C254.2,131.2,250,134.5,244.8,137.8z M238.5,134.4
		c3.9-3.6,5.9-8.9,5.9-15.9c0-5.1-1.3-9.2-3.8-12.3c-2.6-3.1-6-4.6-10.5-4.6c-4.1,0-7.3,1.3-9.6,3.8c-2.3,2.5-3.5,5.5-3.5,8.7
		c0,2.4,0.6,4.7,1.8,6.8c1.2,2.1,3.4,4.3,6.5,6.5C228.4,129.6,232.9,131.9,238.5,134.4z M227.3,152.1c-5.8,4.3-8.6,9.7-8.6,16.2
		c0,4.1,1.3,8.3,3.9,12.5c2.6,4.2,6.8,6.3,12.6,6.3c2.9,0,5.5-0.6,7.8-1.8c2.3-1.2,4.1-2.7,5.4-4.7c1.3-2,1.9-4.2,1.9-6.7
		c0-3.7-1.6-7.3-4.8-10.6C242.2,160,236.1,156.2,227.3,152.1z"/>
	<path class="st0" d="M330,120.1h-2.5c-1.7-6-4.5-10.7-8.3-14.1c-3.8-3.4-8.3-5.2-13.7-5.2c-2.6,0-5.1,0.5-7.2,1.6
		c-2.2,1.1-3.9,2.6-5.2,4.6c-1.3,2-1.9,4.2-1.9,6.8c0,1.5,0.2,2.9,0.7,4.4c0.5,1.4,1.7,3.2,3.6,5.3c1.9,2.1,4.8,4.4,8.7,6.9
		c4.4,2.7,7,4.5,8,5.2c5.5,3.4,9.9,6.6,13.4,9.6c3.5,2.9,6.1,6.1,7.9,9.6c1.8,3.4,2.7,7.3,2.7,11.6c0,4-0.8,7.6-2.3,10.9
		c-1.5,3.3-3.7,6.1-6.6,8.5c-2.8,2.4-6.2,4.3-10.1,5.6c-3.9,1.3-8.2,2-12.8,2c-4.7,0-10.2-0.9-16.4-2.7c-0.7-0.2-1.6-0.4-2.6-0.6
		c-1.1-0.2-2-0.3-2.8-0.3c-2,0-3.5,1.1-4.4,3.2h-2.3l0.6-27h2.5c0.8,5.1,2.6,9.4,5.3,12.8c2.7,3.4,5.8,5.9,9.2,7.4
		c3.4,1.5,6.8,2.3,10.1,2.3c4.8,0,8.8-1.3,11.9-4c3.1-2.7,4.7-6,4.7-9.8c0-2.6-0.7-4.9-2-6.8c-1.3-1.9-3.3-3.8-5.9-5.7
		c-2.6-1.9-7.6-5.2-15-9.8c-3.9-2.5-7.1-4.9-9.9-7.3c-2.7-2.3-4.8-4.6-6.3-6.7c-1.5-2.1-2.6-4.3-3.2-6.4c-0.6-2.1-0.9-4.4-0.9-6.9
		c0-4.7,1.2-9.3,3.6-13.8c2.4-4.6,5.8-8.3,10.2-11.1c4.4-2.9,9.5-4.3,15.1-4.3c2.6,0,5.2,0.3,7.6,0.8c0.6,0.1,1.5,0.3,2.6,0.6
		c1.1,0.3,2,0.5,2.7,0.7c1.9,0.3,3.3,0.5,4.3,0.5c1.5,0,2.5-0.2,3.1-0.7c0.6-0.5,1.1-1.2,1.7-2.1h2V120.1z"/>
	<path class="st0" d="M410.6,96.4l0.8,21.5h-1.9c-0.9-3.6-1.8-6.6-2.9-8.9c-1.1-2.3-2.6-4.1-4.5-5.4c-2-1.2-4.6-1.9-8-1.9h-19.3V142
		h15.4c4.6,0,7.9-1,10-3.1c2.1-2,3.3-5,3.7-9h1.9V158h-1.9c-0.7-4.2-2.2-7.1-4.7-8.5c-2.5-1.4-5.5-2.1-9-2.1h-15.4v27.6
		c0,8,4.1,12,12.4,12h5.9c3.9,0,7.2-0.5,9.7-1.6c2.5-1,4.6-2.8,6.2-5.4c1.6-2.5,3.1-6.1,4.4-10.8h1.9l-1.4,23h-72.2v-1.9
		c5,0,8.3-1.1,9.8-3.4c1.5-2.3,2.2-5.3,2.2-8.9v-67.1c0-3.5-0.7-6.5-2-8.9c-1.3-2.4-4.4-3.6-9.3-3.6h-0.7v-1.9H410.6z"/>
	<path class="st0" d="M509.1,129.3h-2.3c-0.7-4.6-2-8.8-4-12.4c-2-3.6-4.4-6.6-7.2-8.9c-2.8-2.4-5.9-4.1-9.4-5.4
		c-3.5-1.2-7.2-1.8-11.1-1.8c-5.2,0-9.8,1.1-13.8,3.3c-4,2.2-7,5-9.1,8.3c-2.6,4.2-4.4,8.8-5.4,13.8c-1,5-1.6,10.4-1.6,16.2
		c0,10.4,1.8,18.7,5.5,25c3.6,6.2,8,10.6,13.2,13c5.1,2.4,10.2,3.7,15.2,3.7c12,0,22.5-5.9,31.3-17.7v8.8c-2.9,3.4-6,6.4-9.4,9
		c-3.3,2.6-7.5,4.8-12.5,6.5c-5,1.7-10.8,2.6-17.5,2.6c-7.9,0-14.9-1.3-21.1-4c-6.2-2.7-11.3-6.3-15.4-10.8
		c-4.1-4.5-7.2-9.7-9.2-15.5c-2.1-5.8-3.1-11.8-3.1-17.9c0-5.3,0.7-10.2,2-14.8s3.2-8.6,5.5-12.1c2.3-3.5,5-6.8,8.2-9.8
		c5.4-4.9,11.1-8.3,16.9-10.1c5.9-1.8,12.2-2.7,18.9-2.7c6.7,0,14,1.1,21.8,3.3c2.8,0.7,4.8,1,6.1,1c2.4,0,4.2-1.6,5.5-4.7h1.9
		V129.3z"/>
	<path class="st0" d="M517.9,144c0-6.5,1.1-12.7,3.3-18.7c2.2-5.9,5.5-11.1,9.8-15.6c4.3-4.5,9.6-8,15.8-10.5
		c6.2-2.5,13.2-3.7,21-3.7c7.9,0,14.9,1.3,21.1,3.8c6.2,2.5,11.4,6.1,15.7,10.6c4.3,4.5,7.6,9.7,9.8,15.6c2.2,5.9,3.3,12.2,3.3,18.9
		c0,6.6-1.1,12.9-3.2,18.7c-2.1,5.9-5.3,11-9.5,15.5c-4.2,4.5-9.4,8.1-15.7,10.7s-13.4,3.9-21.4,3.9c-8.6,0-16.1-1.5-22.5-4.4
		c-6.4-2.9-11.6-6.8-15.7-11.6c-4.1-4.8-7.1-10.1-9-15.9C518.9,155.5,517.9,149.7,517.9,144z M540.7,142.8c0,6.5,0.5,12.9,1.5,19.2
		c1,6.3,3.5,12.2,7.6,17.7c4.1,5.5,10.2,8.2,18.4,8.2c11.5,0,18.8-4.6,22.1-13.9c3.2-9.3,4.8-18.7,4.8-28.3c0-7.5-0.7-14.5-2-21.1
		c-1.3-6.5-4-12.1-8-16.8s-9.7-7-17-7c-8.2,0-14.4,2.7-18.4,8c-4.1,5.3-6.6,11-7.5,16.9C541.2,131.7,540.7,137.4,540.7,142.8z"/>
	<path class="st0" d="M659.2,96.4l58.4,61.7v-43.8c0-5.8-1.2-9.7-3.5-11.8c-2.3-2.1-5.9-3.5-10.7-4.2v-1.9h33v1.9
		c-3.6,0.4-6.4,1.4-8.1,3c-1.8,1.6-2.9,3.4-3.4,5.6c-0.5,2.1-0.8,4.6-0.8,7.5v78.9h-2.4l-70.1-73.7v53.9c0,4.5,1,8.4,2.9,11.5
		c1.9,3.2,5.5,5,10.7,5.4v1.9H631v-1.9c9.6-0.8,14.3-5.5,14.2-14.1v-63.4c-0.3-0.2-0.6-0.5-1-0.9c-0.4-0.4-1-1-2-1.9
		s-1.7-1.6-2.5-2.3c-5.8-5.6-10.9-8.7-15.3-9.4v-1.9H659.2z"/>
	<path class="st0" d="M739.2,96.4h52.3c8.5,0,16.2,1.3,23,3.9c6.8,2.6,12.5,6.3,17,10.9c4.6,4.6,8,9.9,10.3,15.8
		c2.3,5.9,3.4,12.2,3.4,18.8c0,6.4-1.1,12.4-3.2,17.9c-2.1,5.5-5.4,10.5-9.7,14.8s-9.8,7.6-16.3,10c-6.5,2.4-13.8,3.6-22,3.6h-54.9
		v-1.9c5,0,8.3-1.1,9.7-3.3s2.2-5.2,2.2-9v-67c0-3.6-0.7-6.6-2-9c-1.3-2.4-4.4-3.7-9.2-3.7h-0.7V96.4z M772.4,102.8V173
		c0,3.4,0.4,6.1,1.1,8.1c0.8,2,2.2,3.5,4.3,4.4c2.1,0.9,5.2,1.4,9.4,1.4c3.8,0,7.2-0.2,10.1-0.7c3-0.5,5.8-1.5,8.5-3
		c3.9-2.3,7.1-5.4,9.7-9.3c2.5-3.9,4.4-8.3,5.6-13c1.2-4.7,1.8-9.6,1.8-14.6c0-5.2-0.7-10.4-2.1-15.5c-1.4-5.2-3.7-9.9-6.8-14.3
		c-3.1-4.4-7.4-7.9-12.7-10.6c-5.4-2.7-11.9-4-19.5-4C778.9,101.7,775.8,102.1,772.4,102.8z"/>
	<path class="st0" d="M908.5,120.1H906c-1.7-6-4.5-10.7-8.3-14.1c-3.8-3.4-8.3-5.2-13.7-5.2c-2.6,0-5.1,0.5-7.2,1.6
		c-2.2,1.1-3.9,2.6-5.2,4.6c-1.3,2-1.9,4.2-1.9,6.8c0,1.5,0.2,2.9,0.7,4.4c0.5,1.4,1.7,3.2,3.6,5.3c1.9,2.1,4.8,4.4,8.7,6.9
		c4.4,2.7,7,4.5,8,5.2c5.5,3.4,9.9,6.6,13.4,9.6c3.5,2.9,6.1,6.1,7.9,9.6c1.8,3.4,2.7,7.3,2.7,11.6c0,4-0.8,7.6-2.3,10.9
		c-1.5,3.3-3.7,6.1-6.6,8.5c-2.8,2.4-6.2,4.3-10.1,5.6c-3.9,1.3-8.2,2-12.8,2c-4.7,0-10.2-0.9-16.4-2.7c-0.7-0.2-1.6-0.4-2.6-0.6
		c-1.1-0.2-2-0.3-2.8-0.3c-2,0-3.5,1.1-4.4,3.2h-2.3l0.6-27h2.5c0.8,5.1,2.6,9.4,5.3,12.8c2.7,3.4,5.8,5.9,9.2,7.4
		c3.4,1.5,6.8,2.3,10.1,2.3c4.8,0,8.8-1.3,11.9-4c3.1-2.7,4.7-6,4.7-9.8c0-2.6-0.7-4.9-2-6.8s-3.3-3.8-5.9-5.7
		c-2.6-1.9-7.6-5.2-15-9.8c-3.9-2.5-7.1-4.9-9.8-7.3c-2.7-2.3-4.8-4.6-6.3-6.7c-1.5-2.1-2.6-4.3-3.2-6.4c-0.6-2.1-0.9-4.4-0.9-6.9
		c0-4.7,1.2-9.3,3.6-13.8c2.4-4.6,5.8-8.3,10.2-11.1c4.4-2.9,9.5-4.3,15.1-4.3c2.6,0,5.2,0.3,7.6,0.8c0.7,0.1,1.5,0.3,2.6,0.6
		c1.1,0.3,2,0.5,2.7,0.7c1.9,0.3,3.3,0.5,4.3,0.5c1.5,0,2.5-0.2,3.1-0.7c0.6-0.5,1.1-1.2,1.7-2.1h2V120.1z"/>
</g>
</svg>
