<?xml version="1.0" encoding="utf-8"?>
<!-- Generator: Adobe Illustrator 18.1.1, SVG Export Plug-In . SVG Version: 6.00 Build 0)  -->
<svg version="1.1" id="Layer_1" xmlns="http://www.w3.org/2000/svg" xmlns:xlink="http://www.w3.org/1999/xlink" x="0px" y="0px"
	 viewBox="0 0 1000 300" style="enable-background:new 0 0 1000 300;" xml:space="preserve">
<style type="text/css">
	.st0{fill:#FFFFFF;stroke:#231F20;stroke-width:2;}
</style>
<g>
	<path class="st0" d="M193.7,135.7h-16.4l-4.9,14.2h16.8l-6.5,17.3h-16.5l-8.5,23.8h-18.8l8.5-23.8h-14.8l-8.5,23.8h-18.8l8.5-23.8
		H97l6.5-17.3h16.5l4.8-14.2h-16.8l6.4-17.4h16.8l8.4-23.8h18.8l-8.4,23.8h14.8l8.4-23.8H192l-8.4,23.8h16.6L193.7,135.7z
		 M143.4,135.7l-5.1,14.2h15.6l5.1-14.2H143.4z"/>
	<path class="st0" d="M244.6,144.1l-6.3,28.9c-0.6,2.8-1.2,5.5-1.7,8.3c-0.5,2.8-1.2,5.5-2.1,8.1l-24.5,0.5c1.3-9.4,3-19.3,4.9-29.7
		c2-10.4,3.6-20.6,5.1-30.8h-2.1c-3.1,1-6.2,2-9.4,3.1c-3.2,1.1-6.3,2.1-9.4,3.2c1.2-3.5,2-7,2.5-10.7c0.5-3.7,1.2-7.3,2.1-11
		c2.8-2.3,5.7-4.5,8.7-6.5c2.9-2,5.8-4.2,8.7-6.5l0.3,0.3c1.4-1.2,3-2.6,4.6-4.1c1.6-1.5,3.6-2.2,5.8-2.2h21.4L244.6,144.1z
		 M235,188.7h-0.4V188h0.4V188.7z"/>
	<path class="st0" d="M337.4,108.5c-0.2,4.2-0.6,8.3-1.2,12.4c-0.6,4.1-1.2,8.2-1.9,12.4c-0.8,2-2,3.8-3.5,5.3
		c-1.5,1.5-3.1,2.9-4.8,4.3c0.6,0.8,1.3,1.6,1.9,2.3c0.7,0.8,1.2,1.7,1.7,2.7c0.5,2.1,0.9,4.4,1.1,6.9c0.2,2.4,0.2,4.9,0,7.3
		c-0.2,2.4-0.8,4.8-1.7,7.1c-0.9,2.3-2.2,4.2-4,5.9c-2.3,2.8-4.9,5.2-7.9,7.1c-3,1.9-6.1,3.3-9.5,4.3c-3.3,0.9-6.8,1.4-10.3,1.3
		c-3.6-0.1-7.1-0.7-10.5-1.7c-2.3-0.7-4.6-1.9-6.7-3.5c-2.2-1.6-3.6-3.6-4.3-6.1c-0.6-2.1-1-4.3-1.1-6.5c-0.1-2.2,0-4.4,0.1-6.6
		c0.2-2.2,0.4-4.3,0.7-6.5c0.3-2.2,0.6-4.3,0.7-6.3c0.5-2,1.5-4,3-5.8c1.5-1.8,3.1-3.3,4.9-4.6c-1-1.5-2-3-3-4.4
		c-1-1.4-1.6-3.1-1.8-4.9c-0.1-1.8-0.2-3.6-0.2-5.5c0-1.9,0-3.7,0.2-5.5c0.2-1.8,0.5-3.6,1-5.3c0.5-1.7,1.2-3.2,2.2-4.7
		c0.9-1.3,1.9-2.6,3.1-3.9c1.2-1.2,2.5-2.4,3.8-3.5c1.3-1.1,2.7-2,4.1-2.7c1.4-0.8,2.9-1.3,4.4-1.5c0.6-0.6,1.6-1.1,2.8-1.4
		c1.2-0.3,2.4-0.7,3.3-1.1c3.3-0.6,6.3-1.1,9-1.3c2.7-0.3,5.7,0.1,9.1,1.1c0.4,0.2,1.1,0.4,1.9,0.6c0.8,0.2,1.6,0.5,2.3,0.7
		c1.2,0.5,2.4,1.2,3.7,1.9c1.3,0.7,2.5,1.6,3.6,2.5c1.1,1,2,2.1,2.7,3.3C337.1,105.8,337.4,107.1,337.4,108.5z M307.9,154.6
		c-0.2-1.2-0.5-1.9-1.1-2.1s-1.2-0.3-1.9-0.2c-0.7,0.1-1.5,0.4-2.3,0.7c-0.8,0.3-1.5,0.5-2.1,0.5c-1.3,0.4-2.2,1.3-2.5,2.5
		c-0.3,1.2-0.7,2.3-1.1,3.3c-0.4,1-0.4,2-0.1,3.1c0.3,1.1,0.8,2,1.7,2.7c0.7,0.7,1.5,1.1,2.4,1.3c0.9,0.1,1.8,0.1,2.8-0.2
		c1.8-0.6,3-1.8,3.5-3.4c0.6-1.6,1-3.3,1.1-5L307.9,154.6z M313.7,122c-0.4-1.1-1.1-1.8-2-2.2c-0.9-0.4-1.8-0.5-2.8-0.4
		c-1,0.1-2,0.4-2.9,0.9c-1,0.4-1.8,1-2.4,1.6c-1.2,1.6-1.6,3.4-1.5,5.4c0.2,2,0.8,3.8,1.7,5.3c0.5,0.1,1,0,1.5-0.1
		c0.5-0.2,1-0.4,1.4-0.5c0.4-0.2,0.9-0.4,1.4-0.5c0.5-0.2,1-0.2,1.7-0.1c1.8-0.5,2.9-1.8,3.3-3.7C313.5,125.5,313.7,123.7,313.7,122
		z"/>
	<path class="st0" d="M353.9,173.3l-0.4,0.1l-0.1-0.1l0.5-0.3V173.3z M410.6,102.6c-2.4-2.7-5.3-4.6-8.7-5.9c-5.4-2-11-2.2-16.6-0.7
		c-5.7,1.5-10.8,4.1-15.3,7.9c-1.9,1.5-3.3,3.2-4.3,5.2c-1,2-1.7,4-2.3,6.1c-0.5,2.1-1,4.3-1.3,6.5c-0.4,2.2-0.8,4.4-1.3,6.5
		c-0.2,0.4-0.1,0.6,0.1,0.8c0.3,0.2,0.2,0.4-0.3,0.7c1.2,2.6,2.7,4.8,4.5,6.5c1.9,1.8,3.9,3.4,6.1,4.8c2.2,1.4,4.4,2.8,6.6,4.2
		c2.2,1.4,4.3,3,6.1,4.7c1.5,1.5,2.4,3.3,2.7,5.3c0.3,2,0.1,4-0.4,6c-0.7,0.4-1.2,1.2-1.6,2.4c-0.4,1.2-1.1,1.9-2.1,2.3
		c-1.1,0.3-2.2,0.4-3.3,0.3c-1.2-0.1-2.2-0.5-3.2-1.2c-0.6-0.8-1-1.6-1.1-2.5c-0.1-0.8-0.1-1.7,0-2.5c0.1-0.8,0.3-1.6,0.5-2.5
		c0.2-0.8,0.4-1.7,0.6-2.5h-18.6l-1.2,0.5c-0.2,2.1-0.5,4.3-1.1,6.5c-0.5,2.2-1,4.3-1.3,6.4c-0.4,2.1-0.4,4.1-0.3,6.1
		c0.2,2,1,3.9,2.4,5.7c2.4,2.1,5,3.8,7.9,4.9c2.9,1.2,5.9,1.9,8.9,2.3c3.1,0.4,6.1,0.4,9.2,0c3.1-0.4,5.9-0.9,8.6-1.7
		c5.1-1.5,9.2-4.1,12.5-7.9c3.3-3.8,5.3-8.3,6-13.6c1.5-3.7,1.7-7.6,0.7-11.6c-1.1-4-2.8-7.4-5.1-10.3c-1.6-1.6-3.5-3-5.6-4.1
		c-2.1-1.2-4.2-2.3-6.3-3.4c-2.1-1.1-4-2.4-5.9-3.7c-1.8-1.4-3.3-3.1-4.5-5.1c-0.4-1.2-0.2-2.5,0.4-3.8c0.6-1.3,1-2.3,1.2-3
		c0.4-0.2,0.7-0.2,0.9-0.1l0.1-0.7c1.5-0.3,2.9-0.6,4.2-1.1c1.3-0.4,2.6-0.1,4.1,0.9c1.2,0.8,1.8,1.9,2.1,3.3
		c0.2,1.4,0.4,2.6,0.6,3.5c3-0.2,6.1-0.2,9.2-0.2c3.1,0,6.2,0,9.3-0.2l0.5-2.7l-0.4-0.1c0.4-1.5,0.7-3.1,0.7-4.8
		c0-1.7,0-3.3-0.1-4.9C414.5,108.4,413,105.2,410.6,102.6z M384.9,163.7l-0.1-0.3l-0.5,0.3l0.1,0.3L384.9,163.7z"/>
	<path class="st0" d="M491.3,96.8c-0.4,3.6-1,7.1-1.7,10.7c-0.7,3.6-1.4,7-2.1,10.4c-3.4,0.2-6.7,0.2-10,0.2c-3.3,0-6.6,0.1-10,0.5
		c-0.5,2.5-1,4.9-1.3,7.4c-0.4,2.4-0.8,4.9-1.5,7.4c0.1,0.3,0.3,0.4,0.5,0.5c0.3,0,0.6,0,0.9,0c0.4,0,0.7-0.1,1-0.1
		c0.3,0,0.6,0.1,0.7,0.3c0.4-0.3,0.8-0.4,1.5-0.4c2.6,0.1,5.1,0,7.7-0.1c2.6-0.2,5.2-0.2,7.9-0.1c-0.7,3.3-1.4,6.5-2,9.8
		c-0.6,3.2-1.3,6.5-2,9.9c-3.4,0.1-6.7,0.1-10.1,0.1c-3.4,0-6.7,0.1-10.1,0.3c-0.5,2.5-1,5-1.3,7.6c-0.4,2.6-0.7,5-0.9,7.3
		c3.6-0.1,6.9-0.1,9.9,0c3,0.1,6.3,0,9.9-0.1c-0.9,3.8-1.7,7.5-2.3,11.1c-0.7,3.6-1.4,7.2-2.2,10.9c-7.2,0.3-14.3,0.2-21.3-0.1
		c-7-0.3-14.1-0.4-21.3-0.3l0.8-6.3l13.7-74.3l2.1-12.8l3.5-0.3l37.1,0.8L491.3,96.8z M444.8,151.6c-0.2-0.2-0.2-0.4-0.2-0.5
		c0-0.2,0-0.3-0.2-0.4C444.2,150.9,444.4,151.2,444.8,151.6z M457.1,125.9l-0.1,0.3l0.4,0.3l0.3-0.3L457.1,125.9z M457.1,168.1
		l-0.1,0.3l0.5-0.3H457.1z M466.6,118l-0.1,0.3l0.4,0.3l0.1-0.3L466.6,118z"/>
	<path class="st0" d="M572.5,107.9c0.7,1.8,1.1,3.6,1.2,5.3c0.1,1.8,0,3.6-0.2,5.3c-0.2,1.8-0.5,3.6-0.9,5.3
		c-0.4,1.8-0.7,3.6-0.9,5.3l-0.4,0.5c-3.8,0.2-7.4,0.3-10.9,0.4c-3.4,0.1-7,0.2-10.9,0.3c0.1-1,0.1-2,0.1-3.1c0-1.1-0.1-2.1-0.3-3
		c-0.2-0.9-0.5-1.8-1-2.5c-0.5-0.8-1.2-1.4-2.2-1.9c-2.8,0-5,1.2-6.5,3.7l0.3,0.1c-0.4,0.3-0.7,0.7-0.7,1.2c0,0.5,0,1-0.1,1.5
		c-0.6,2-1.1,4.1-1.5,6.5c-0.4,2.4-0.7,4.6-0.9,6.5h-0.4c0,1.5-0.2,3-0.5,4.6c-0.4,1.6-0.7,3.2-1.1,4.9c-0.4,1.7-0.7,3.4-0.9,5.2
		c-0.2,1.8-0.2,3.6,0.2,5.3c0.5,1.2,1.4,1.8,2.5,2.1c1.2,0.2,2.3,0.2,3.5-0.1c1.3-0.6,2.3-1.4,3-2.4c0.7-1,1.2-2.1,1.6-3.3
		c0.4-1.2,0.7-2.4,0.9-3.7c0.2-1.3,0.5-2.5,0.9-3.7c3.7-0.4,7.5-0.8,11.3-1c3.8-0.2,7.6-0.4,11.3-0.5c-0.5,3.6-1.2,7.3-2,11.1
		s-2,7.3-3.5,10.8c-1.5,3.5-3.5,6.6-6,9.5c-2.5,2.8-5.6,5.1-9.5,6.8c-2.3,1-4.8,1.7-7.5,2.2c-2.7,0.5-5.3,0.7-8.1,0.6
		c-2.7-0.1-5.4-0.5-8.1-1.2c-2.7-0.7-5.1-1.7-7.2-3.1c-2.9-1.7-5-3.8-6.1-6.4c-1.2-2.6-1.8-5.3-1.9-8.2c-0.1-2.9,0-5.9,0.5-8.9
		c0.5-3.1,1-5.9,1.5-8.6c1.1-6,2.3-12,3.7-17.8c1.4-5.9,2.7-11.9,3.9-18.1c0.9-2.8,2.2-5.3,4-7.6c1.8-2.3,3.8-4.3,6.2-6.1
		c2.3-1.7,4.9-3.2,7.7-4.3c2.8-1.1,5.5-1.8,8.4-2.2c1.5-0.2,3-0.3,4.5-0.5c1.5-0.1,3-0.1,4.5,0.1l0.7,0.8l0.5-0.8
		c3.7,0.4,7.1,1.7,10.3,4.1C568.8,101.4,571.1,104.3,572.5,107.9z M532.4,128.4v0.3l0.8-0.3H532.4z"/>
	<path class="st0" d="M643.6,101c2,3.6,3,7.3,3.1,11.1c0.1,3.8-0.1,7.6-0.8,11.4c-0.7,3.8-1.5,7.7-2.5,11.5c-1,3.9-1.7,7.7-2.1,11.4
		c-0.4,3.5-0.9,6.9-1.6,10.3c-0.7,3.4-1.7,6.6-3.1,9.7c-1.3,3.1-3.1,5.9-5.2,8.6c-2.1,2.7-4.7,4.9-7.7,6.8c-2.9,1.9-6,3.4-9.3,4.5
		c-3.2,1.1-6.5,1.7-9.7,1.9c-3.2,0.1-6.4-0.2-9.6-1.1c-3.2-0.9-6.1-2.4-8.9-4.7c-2.8-2.2-4.5-4.8-5-7.7c-0.5-2.9-0.4-5.9,0.1-9
		c0.6-3.1,1.4-6.3,2.5-9.5c1.1-3.2,1.8-6.4,2.1-9.4l-0.3-0.7c1-3,1.7-6.2,2.2-9.7c0.5-3.4,1-6.9,1.5-10.4c0.5-3.5,1.1-6.9,1.8-10.3
		c0.7-3.4,1.8-6.5,3.3-9.4c1.5-2.9,3.4-5.4,5.9-7.7c2.4-2.2,5.6-3.9,9.5-5.1c2.7-0.8,5.5-1.3,8.7-1.5c3.1-0.2,6.2,0,9.3,0.6
		c3.1,0.6,6,1.6,8.7,2.9C639.3,96.9,641.6,98.7,643.6,101z M590.2,145.4v0.3l0.4,0.1l0.1-0.3L590.2,145.4z M600.9,126.4
		c-0.3-0.1-0.5,0-0.7,0.1l0.5,0.4L600.9,126.4z M622.4,118.5c-0.3-0.8-0.9-1.2-1.9-1.3c-1-0.1-1.9-0.2-2.7-0.3
		c-1.5,0.3-2.8,1-3.9,2.2c-1.1,1.2-1.5,2.6-1.1,4.3c-1.2,6.6-2.5,13-3.7,19.4c-1.2,6.3-2.3,12.7-3.3,19.1c1.7,0,3.4-0.3,5.3-0.9
		c1.8-0.6,3.3-1.7,4.5-3.2c2-6.2,3.5-12.4,4.3-18.6c0.8-6.2,1.8-12.4,2.9-18.6L622.4,118.5z M611,178.2l-0.5-0.1v0.3l0.5,0.1V178.2z
		 M622.2,127.3l-0.5-0.1v0.3l0.5,0.1V127.3z"/>
	<path class="st0" d="M738.8,94c-1,5.3-2,10.7-3.2,16.1c-1.2,5.4-2.5,10.7-4,15.7l0.3,0.3l-1.2,6.5c-0.1-0.2-0.2-0.2-0.3-0.1
		c-0.1,0.1-0.2,0.1-0.3,0.1c0.2,0.7,0.2,1.5,0,2.3c-0.2,0.8-0.4,1.6-0.5,2.3l-3.2,14.1l-7.7,34.4c-0.2,0.3-0.3,0.7-0.3,1.3
		c0,0.6-0.1,1.1-0.4,1.5c-0.6,0-1.3,0-2,0c-0.7,0-1.3-0.2-1.7-0.5c-0.7,0.3-1.5,0.4-2.3,0.3c-0.8,0-1.6-0.1-2.5-0.2
		c-0.7,0-1.6,0-2.6-0.1c-1-0.1-1.9-0.2-2.7-0.4c-0.6,0.2-1.2,0.3-1.8,0.3c-0.6,0-1.3,0-2.1,0c-1.2,0.1-2.6,0-3.9-0.1
		c-1.4-0.2-2.6-0.3-3.7-0.3l6.7-28.1c-0.4-2.4-1.3-4.6-2.5-6.7c-1.2-2-2.4-4.3-3.6-6.7c-1.9,6.8-3.4,13.6-4.7,20.4
		c-1.2,6.7-2.9,13.6-4.9,20.6c-2.8-0.1-5.3-0.1-7.7-0.1c-2.4,0-4.9,0-7.7-0.2l-0.1-0.4c-1.4,0.4-2.9,0.5-4.5,0.5
		c-1.6,0-3.2-0.1-4.8-0.1l-0.1-0.3l-0.7,0.4l9.5-45.1l5.9-29.4c0.7-3.5,1.4-7.1,2.1-10.7s1.6-7.2,2.5-10.9c3.4,0.4,6.7,0.6,10.1,0.5
		c3.4-0.1,6.8,0.1,10.3,0.7l9.7,22.1c1.2-3.4,2.2-6.9,2.9-10.5s1.5-7.2,2.4-10.9c4.3,0.2,8.5,0.4,12.6,0.7
		C730.3,93.6,734.5,93.9,738.8,94z M684.9,154.2l-0.1,0.4c0.2,0,0.4-0.1,0.5-0.3L684.9,154.2z M695.8,114.8l-0.1,0.4l0.1,0.1
		l0.1-0.5H695.8z M726.8,138l-0.1,0.4l0.4,0.1l0.1-0.4L726.8,138z"/>
	<path class="st0" d="M817.2,113.5c0.8,5.9,1.2,11.9,1.3,18.2c0,6.3-0.5,12.4-1.7,18.4c-1.2,6-3.2,11.8-5.9,17.4
		c-2.7,5.5-6.4,10.5-11.1,15c-1.9,1.2-3.8,2.2-5.8,3.2c-2,1-4.1,1.7-6.3,2.1l-34.2,3.3c-0.2,0.2-0.4,0.3-0.7,0.3c-0.3,0-0.5,0-0.7,0
		c0.4-6.7,1.1-13.2,1.9-19.5s1.5-12.7,2.1-19.4l5.6-58.3c-0.1-0.4,0-0.7,0.4-0.7c0.4,0,0.6-0.1,0.8-0.3c3.3-0.2,6.3-0.4,9.2-0.5
		c2.8-0.2,5.7-0.4,8.5-0.5c2.8-0.2,5.6-0.4,8.4-0.5c2.8-0.2,5.7-0.4,8.9-0.5c1.5,0.4,3,0.6,4.4,0.8c1.4,0.2,2.7,0.9,3.9,2.1
		c-0.2,0.2-0.4,0.4-0.7,0.5c-0.3,0.2-0.4,0.4-0.4,0.7c0.8,0,1.3-0.3,1.5-0.9c1.4,1,2.6,2,3.5,3c0.9,1,1.7,2.1,2.4,3.3
		c0.7,1.2,1.3,2.4,1.8,3.6c0.5,1.2,1.1,2.5,1.7,3.9c0.2,0.6,0.4,1.4,0.5,2.3c0.2,0.9,0.4,1.7,0.7,2.2l-0.1,0.9H817.2z M776.9,116.3
		l-0.4,0.4l0.3,0.1l0.3-0.4L776.9,116.3z M792.1,120.3c-0.2-1-0.5-1.9-0.9-2.7c-0.4-0.8-1.2-1.6-2.1-2.3c-0.7-0.4-1.6-0.6-2.7-0.6
		c-1.1,0-2,0.1-2.9,0.2l-3.6,48.7c2-0.4,3.7-1.2,5.3-2.3c1.6-1.1,2.7-2.6,3.4-4.6c1-2.8,1.7-5.6,2.1-8.6c0.4-3,0.8-6,0.9-9.1
		c0.2-3.1,0.3-6.2,0.3-9.4C791.8,126.5,791.9,123.4,792.1,120.3z M795,120.5l-0.4,0.3l0.3,0.3l0.4-0.4L795,120.5z M795.7,175.8
		l-0.4,0.4l0.3,0.3l0.4-0.4L795.7,175.8z M805.2,155.3l-0.4,0.4l0.3,0.1l0.3-0.4L805.2,155.3z M805.4,151.7l-0.4,0.4l0.3,0.3
		l0.4-0.4L805.4,151.7z M805.6,95.1l-0.4,0.4l0.1,0.1l0.4-0.4L805.6,95.1z"/>
	<path class="st0" d="M836.9,173.3l-0.4,0.1l-0.1-0.1l0.5-0.3V173.3z M893.7,102.6c-2.4-2.7-5.3-4.6-8.7-5.9c-5.4-2-11-2.2-16.6-0.7
		c-5.7,1.5-10.8,4.1-15.3,7.9c-1.9,1.5-3.3,3.2-4.3,5.2c-1,2-1.7,4-2.3,6.1c-0.5,2.1-1,4.3-1.3,6.5c-0.4,2.2-0.8,4.4-1.3,6.5
		c-0.2,0.4-0.1,0.6,0.1,0.8c0.3,0.2,0.2,0.4-0.3,0.7c1.2,2.6,2.7,4.8,4.5,6.5c1.9,1.8,3.9,3.4,6.1,4.8c2.2,1.4,4.4,2.8,6.6,4.2
		c2.2,1.4,4.3,3,6.1,4.7c1.5,1.5,2.4,3.3,2.7,5.3c0.3,2,0.1,4-0.4,6c-0.7,0.4-1.2,1.2-1.6,2.4c-0.4,1.2-1.1,1.9-2.1,2.3
		c-1.1,0.3-2.2,0.4-3.3,0.3c-1.2-0.1-2.2-0.5-3.2-1.2c-0.6-0.8-1-1.6-1.1-2.5c-0.1-0.8-0.1-1.7,0-2.5c0.1-0.8,0.3-1.6,0.5-2.5
		c0.2-0.8,0.4-1.7,0.6-2.5h-18.6l-1.2,0.5c-0.2,2.1-0.5,4.3-1.1,6.5c-0.5,2.2-1,4.3-1.3,6.4c-0.4,2.1-0.4,4.1-0.3,6.1
		c0.2,2,1,3.9,2.4,5.7c2.4,2.1,5,3.8,7.9,4.9c2.9,1.2,5.9,1.9,8.9,2.3c3.1,0.4,6.1,0.4,9.2,0c3.1-0.4,5.9-0.9,8.6-1.7
		c5.1-1.5,9.2-4.1,12.5-7.9c3.3-3.8,5.3-8.3,6-13.6c1.5-3.7,1.7-7.6,0.7-11.6c-1.1-4-2.8-7.4-5.1-10.3c-1.6-1.6-3.5-3-5.6-4.1
		c-2.1-1.2-4.2-2.3-6.3-3.4c-2.1-1.1-4-2.4-5.9-3.7c-1.8-1.4-3.3-3.1-4.5-5.1c-0.4-1.2-0.2-2.5,0.4-3.8c0.6-1.3,1-2.3,1.2-3
		c0.4-0.2,0.7-0.2,0.9-0.1l0.1-0.7c1.5-0.3,2.9-0.6,4.2-1.1c1.3-0.4,2.6-0.1,4.1,0.9c1.2,0.8,1.8,1.9,2.1,3.3
		c0.2,1.4,0.4,2.6,0.6,3.5c3-0.2,6.1-0.2,9.2-0.2c3.1,0,6.2,0,9.3-0.2l0.5-2.7l-0.4-0.1c0.4-1.5,0.7-3.1,0.7-4.8
		c0-1.7,0-3.3-0.1-4.9C897.6,108.4,896,105.2,893.7,102.6z M868,163.7l-0.1-0.3l-0.5,0.3l0.1,0.3L868,163.7z"/>
</g>
</svg>
