<?xml version="1.0" encoding="utf-8"?>
<!-- Generator: Adobe Illustrator 18.1.1, SVG Export Plug-In . SVG Version: 6.00 Build 0)  -->
<svg version="1.1" id="Layer_1" xmlns="http://www.w3.org/2000/svg" xmlns:xlink="http://www.w3.org/1999/xlink" x="0px" y="0px"
	 viewBox="0 0 1000 300" style="enable-background:new 0 0 1000 300;" xml:space="preserve">
<style type="text/css">
	.st0{fill:#FFFFFF;stroke:#231F20;stroke-width:2;}
</style>
<g>
	<path class="st0" d="M204.9,188.2l-14.1,1.7l17-25.6h-11.7l-15.8,23.8l-15.4,1.7l17-25.6h-14l1.2-1.9h13.8l12.2-18.6h-14l1.2-1.9
		h13.8l14.4-21.8l15-1.1L210.5,142h11.7l14.4-21.8l13.7-1.1L235.1,142h15.6l-1.2,1.9H234l-12.2,18.6h15.6l-1.2,1.9h-15.4
		L204.9,188.2z M221.1,143.9h-11.7l-12.2,18.6h11.7L221.1,143.9z"/>
	<path class="st0" d="M252.3,143.9c10.5-2.6,20.6-6,30.4-10.3c9.8-4.3,18.9-9.7,27.4-16.4l1.1,0.8c-3.6,5.9-7.3,12.1-11.3,18.4
		c-4,6.3-7.8,12.6-11.5,18.8c-3.7,6.2-7.2,12.2-10.5,18c-3.2,5.8-6,11.1-8.2,15.8l-20.6,1.3c5.9-9.1,11.5-18.3,16.8-27.8
		c5.3-9.5,10.8-18.4,16.4-27l-0.3-0.3c-4.6,2.2-9.4,4.2-14.3,6.1c-4.9,1.8-9.9,3.4-15,4.7L252.3,143.9z"/>
	<path class="st0" d="M364.4,147.4c4.6-1.7,7.7-4.3,9.3-8c1.6-3.6,2.4-7.7,2.4-12.2c0-2-0.3-4.1-1-6.5c-0.7-2.4-1.6-4.6-2.9-6.7
		c-1.2-2.1-2.8-3.8-4.5-5.2c-1.8-1.4-3.8-2.1-6.1-2.1c-2.2,0-4.1,0.5-5.6,1.4c-1.5,0.9-2.7,2.1-3.6,3.6c-0.9,1.5-1.5,3.2-1.9,5.1
		c-0.4,1.9-0.5,3.8-0.5,5.7c0,3.8,0.8,7.4,2.4,10.7c1.6,3.3,3.3,6.6,5.2,9.8c1.9,3.2,3.6,6.4,5.2,9.7c1.6,3.3,2.4,6.9,2.4,10.8
		c0,4.7-1,8.8-3,12.4c-2,3.6-4.6,6.5-7.8,8.9c-3.2,2.4-6.8,4.2-10.7,5.4c-4,1.2-7.9,1.8-11.8,1.8c-3.6,0-7-0.5-10.1-1.5
		c-3.1-1-5.7-2.5-7.9-4.5c-2.2-2-4-4.3-5.2-7c-1.2-2.7-1.9-5.7-1.9-9.1c0-4.3,0.9-8,2.7-11.3c1.8-3.3,4.2-6.1,7.1-8.5
		c2.9-2.4,6.2-4.2,9.9-5.7c3.7-1.4,7.4-2.4,11.1-2.8c-0.9-2-1.6-4-2.1-6.1c-0.5-2.1-0.8-4.3-0.8-6.5c0-3.7,0.8-7.1,2.5-10.1
		c1.7-3,3.9-5.5,6.6-7.7c2.7-2.1,5.7-3.8,9.1-4.9c3.4-1.2,6.8-1.7,10.3-1.7c3.5,0,6.9,0.4,10,1.3c3.1,0.9,5.8,2.3,8.1,4.1
		c2.3,1.9,4,4.2,5.3,7c1.3,2.8,1.9,6.1,1.9,9.8c0,3.2-0.7,6.1-2.1,8.7c-1.4,2.6-3.3,4.8-5.6,6.6c-2.3,1.8-4.9,3.2-7.8,4.3
		c-2.9,1-5.8,1.6-8.7,1.8V147.4z M320.5,165.7c0,2.5,0.3,5.1,0.9,8c0.6,2.8,1.6,5.5,2.8,7.9c1.2,2.4,2.8,4.4,4.8,6
		c2,1.6,4.3,2.4,6.9,2.4c2.8,0,5-0.6,6.9-1.7c1.8-1.1,3.3-2.6,4.3-4.3c1.1-1.8,1.8-3.7,2.3-5.9c0.4-2.1,0.7-4.3,0.7-6.4
		c0-2.7-0.4-5.2-1.2-7.7c-0.8-2.5-1.8-4.9-3-7.2c-1.2-2.3-2.5-4.6-3.8-6.8c-1.3-2.2-2.6-4.4-3.7-6.7c-5.9,1-10.4,3.5-13.4,7.5
		C321.9,154.9,320.5,159.8,320.5,165.7z"/>
	<path class="st0" d="M450.5,155.6c-3.3,4.9-6.8,9.5-10.5,13.8c-3.7,4.4-7.8,8.2-12.3,11.5c-4.5,3.3-9.6,5.9-15.2,7.8
		c-5.6,1.9-12,2.9-19.2,2.9c-2.7,0-5.2-0.3-7.5-0.8c-2.4-0.5-4.4-1.4-6.1-2.5c-1.7-1.2-3-2.6-4-4.5c-1-1.8-1.5-4-1.5-6.5
		c0-3.3,1-5.9,3.1-7.8c2.1-1.9,4.5-2.9,7.3-2.9c1.9,0,3.5,0.5,4.8,1.6s2,2.7,2,4.8c0,2-0.6,3.4-1.7,4.4c-1.2,1-2.4,1.5-3.9,1.5
		c-1.1,0-2-0.1-2.7-0.4c-0.4,0.7-0.7,1.6-0.7,2.5c0,2.8,0.8,5,2.3,6.6c1.5,1.6,3.7,2.3,6.7,2.3c3.8,0,6.7-1.1,8.5-3.3
		c1.9-2.2,2.8-4.9,2.8-8c0-1.9-0.6-3.7-1.7-5.5c-1.2-1.8-2.4-3.6-3.8-5.4c-1.4-1.8-2.6-3.6-3.8-5.5c-1.2-1.8-1.7-3.7-1.7-5.5
		c0-2.1,0.5-4.2,1.5-6.1c1-2,2.4-3.7,4.3-5.3c1.9-1.6,4.2-2.8,7-3.7c2.8-0.9,5.9-1.3,9.5-1.3c5.1,0,9.3,0.9,12.6,2.6
		c3.2,1.7,4.9,4.2,4.9,7.5c0,2.5-0.8,4.5-2.5,6.1c-1.7,1.6-3.7,2.3-6,2.3c-2,0-4-0.5-5.7-1.6c0.6-1,1.1-2,1.5-3.1
		c0.4-1.1,0.5-2.3,0.5-3.6c0-2.2-0.5-4.2-1.5-6c-1-1.8-2.7-2.7-5-2.7c-2,0-3.6,0.7-4.8,2.1c-1.2,1.4-1.7,3.3-1.7,5.6
		c0,2.2,0.7,4.3,2,6.2c1.3,1.9,2.8,3.8,4.3,5.7c1.6,1.9,3,3.8,4.3,5.9c1.3,2,2,4.3,2,6.9c0,3-0.7,5.6-2.1,7.7
		c-1.4,2.1-3.5,3.9-6.3,5.5l0.3,0.3c3.8-1.1,7.6-2.7,11.3-5c3.7-2.3,7.2-4.9,10.6-7.9c3.4-3,6.5-6.3,9.4-9.8c2.9-3.5,5.4-7,7.7-10.6
		L450.5,155.6z"/>
	<path class="st0" d="M507.5,155.7c-2,2.9-4.3,5.9-6.9,8.9c-2.5,3-5.4,6-8.6,9.1C486,179.5,480,184,474.2,187
		c-5.8,3-12.2,4.5-19.3,4.5c-6.1,0-10.8-1.4-14-4.3c-3.2-2.8-4.8-7-4.8-12.4c0-4.7,1.3-9.1,4-13.3c2.7-4.2,6-7.8,10.1-10.9
		c4-3.1,8.4-5.6,13.2-7.5c4.7-1.9,9.3-2.8,13.5-2.8c4.3,0,7.8,0.7,10.5,2.1c2.8,1.4,4.1,3.6,4.1,6.7c0,3.1-1.5,5.8-4.5,8.1
		c-3,2.3-6.6,4.3-10.7,5.9c-4.1,1.6-8.3,3-12.5,4c-4.2,1-7.5,1.8-9.9,2.3c-0.2,0.9-0.3,1.8-0.4,2.7c-0.1,0.9-0.1,1.8-0.1,2.7
		c0,1.6,0.2,3.2,0.5,4.7c0.4,1.6,1,2.9,1.8,4.1c0.8,1.2,2,2.1,3.3,2.8c1.4,0.7,3.1,1.1,5.1,1.1c4.2,0,8.7-1.5,13.4-4.6
		c4.8-3.1,9.6-6.9,14.5-11.5c3.1-3,5.8-5.9,8.2-8.8c2.3-2.8,4.3-5.4,5.9-7.7L507.5,155.7z M478.2,145.7c0-2.5-1.2-3.7-3.7-3.7
		c-2,0-4.1,1-6.3,3s-4.3,4.4-6.3,7.2c-1.9,2.8-3.6,5.7-5,8.6c-1.4,2.9-2.3,5.4-2.7,7.3c3.7-0.8,7.1-2,10.1-3.7
		c3-1.6,5.5-3.5,7.6-5.5c2.1-2,3.7-4.2,4.7-6.5C477.7,150.1,478.2,147.8,478.2,145.7z"/>
	<path class="st0" d="M564.2,155.4c-3.5,4.4-7,8.8-10.6,13c-3.6,4.2-7.7,8.2-12.4,12.1c-4.3,3.5-8.7,6.2-13.4,8.1
		c-4.7,2-10,2.9-15.9,2.9c-2.4,0-4.8-0.3-7.1-0.9c-2.3-0.6-4.4-1.6-6.1-2.8c-1.8-1.2-3.2-2.8-4.3-4.8c-1.1-2-1.6-4.3-1.6-6.9
		c0-5.2,1.3-10,4-14.4c2.7-4.3,6.1-8.1,10.2-11.3c4.1-3.2,8.7-5.6,13.6-7.4c4.9-1.8,9.7-2.7,14.2-2.7c4.3,0,7.7,0.7,10.4,2.2
		c2.7,1.5,4,3.7,4,6.6c0,1.9-0.4,3.5-1.2,4.9c-0.8,1.4-1.9,2.5-3.3,3.5c-1.4,0.9-3,1.6-4.7,2.1c-1.8,0.4-3.6,0.7-5.6,0.7h-1.1
		c0.2-1,0.3-2.1,0.3-3.3c0-1.2,0.1-2.7,0.1-4.5c0-3.1-0.3-5.5-0.8-7.1c-0.5-1.6-1.6-2.4-3.3-2.4c-1.9,0-3.9,1.1-6.1,3.2
		c-2.2,2.1-4.3,4.8-6.3,7.9c-2,3.2-3.7,6.6-5,10.3c-1.3,3.7-2,7.1-2,10.2c0,3.8,1,6.9,2.9,9.3c1.9,2.4,4.8,3.6,8.6,3.6
		c4,0,8.2-1.4,12.5-4.1c4.3-2.8,8.8-6.4,13.4-10.9c3-2.9,5.9-6.1,8.7-9.5c2.8-3.4,5.1-6.2,6.9-8.5L564.2,155.4z"/>
	<path class="st0" d="M635.5,155.7c-0.4,0.4-0.9,1-1.7,1.8c-0.8,0.8-1.8,1.7-3,2.5c-1.2,0.8-2.6,1.6-4.1,2.3c-1.5,0.7-3.2,1-4.9,1
		c-2.3,0-4.4-0.6-6.2-1.7c-1.8-1.1-3.5-2.6-5-4.5h-0.3c0,4.6-1.1,9-3.3,13.2c-2.2,4.2-5.1,7.8-8.7,11c-3.6,3.2-7.7,5.6-12.3,7.5
		c-4.6,1.8-9.4,2.7-14.4,2.7c-2.9,0-5.8-0.3-8.5-0.9c-2.8-0.6-5.2-1.6-7.3-3.1c-2.1-1.4-3.8-3.3-5.1-5.6c-1.3-2.3-1.9-5.1-1.9-8.5
		c0-5.1,1.2-9.6,3.6-13.7c2.4-4.1,5.5-7.6,9.3-10.5c3.8-2.9,8-5.1,12.8-6.6c4.7-1.5,9.4-2.3,14-2.3c3.8,0,7,0.5,9.5,1.6
		c2.5,1.1,4.6,2.4,6.3,3.9c1.7,1.6,3.2,3.3,4.4,5.1c1.2,1.9,2.4,3.6,3.6,5.1c1.2,1.6,2.5,2.9,4,3.9s3.3,1.6,5.5,1.6
		c2,0,4.1-0.6,6.3-1.8c2.2-1.2,4.3-3,6.3-5.3L635.5,155.7z M590.6,142c-2.1,0-4.3,0.7-6.5,2.2c-2.2,1.5-4.3,3.4-6.3,5.7
		c-2,2.4-4,5-5.7,8c-1.8,3-3.3,6-4.7,9c-1.3,3-2.4,5.9-3.1,8.8c-0.8,2.8-1.1,5.3-1.1,7.5c0,2,0.5,3.7,1.4,4.9
		c0.9,1.2,2.2,1.9,3.9,1.9c2.1,0,4.3-0.7,6.5-2.2c2.2-1.5,4.3-3.4,6.3-5.7c2-2.4,3.9-5,5.7-8c1.8-3,3.3-6,4.7-9c1.3-3,2.4-6,3.1-8.9
		c0.8-2.9,1.1-5.3,1.1-7.4c0-2-0.5-3.7-1.4-4.9C593.6,142.6,592.3,142,590.6,142z"/>
	<path class="st0" d="M609.8,189.9l27.6-47.1l18.9-0.8c-6.4,8.9-12.5,17.9-18.4,27.2l0.3,0.3c2.3-2.9,4.9-6.1,7.7-9.5
		c2.8-3.4,5.8-6.5,9-9.4c3.2-2.9,6.4-5.3,9.7-7.3c3.3-2,6.6-2.9,9.9-2.9c3.4,0,6.2,0.9,8.5,2.6c2.3,1.7,3.4,4.4,3.4,7.9
		c0,2.9-0.9,5.9-2.7,9.1c-1.8,3.1-3.8,6.1-6.1,9.1c-2.2,3-4.2,5.8-6.1,8.5c-1.8,2.7-2.7,5.1-2.7,7.1c0,0.9,0.2,1.7,0.7,2.3
		c0.5,0.7,1.3,1,2.3,1c2,0,4.2-0.9,6.7-2.7c2.5-1.8,5.1-4.1,7.7-6.7c2-2,4.1-4.2,6.1-6.6c2-2.4,3.9-4.6,5.7-6.8
		c1.8-2.2,3.4-4.2,4.8-6c1.4-1.8,2.5-3.3,3.3-4.3l1.2,0.7c-3,4-6.2,8.1-9.7,12.4c-3.4,4.3-6.9,8.2-10.3,11.7
		c-3.6,3.7-7.2,6.6-10.6,8.7c-3.4,2.1-6.9,3.1-10.5,3.1c-4,0-7-1.2-9-3.5c-2-2.4-3-5.4-3-9.1c0-3.2,0.9-6.2,2.6-9.1
		c1.7-2.9,3.7-5.6,5.8-8.1c2.1-2.5,4.1-4.9,5.8-7c1.7-2.1,2.6-4.1,2.6-6c0-2.5-1.2-3.7-3.6-3.7c-1.6,0-3.6,0.8-5.9,2.5
		c-2.3,1.6-4.8,3.8-7.5,6.5c-2.7,2.7-5.4,5.6-8.1,8.9c-2.8,3.3-5.3,6.6-7.8,9.9c-2.4,3.3-4.6,6.4-6.4,9.3c-1.8,2.9-3.2,5.3-4.1,7.2
		L609.8,189.9z"/>
	<path class="st0" d="M791.9,95.9c-7.5,12.4-13.9,23.1-19.2,32c-5.4,8.9-9.9,16.5-13.6,22.8c-3.7,6.3-6.7,11.4-8.9,15.3
		c-2.2,4-3.9,7.1-5.1,9.5s-2,4.2-2.4,5.5c-0.4,1.3-0.6,2.4-0.6,3.4c0,1.1,0.3,1.9,0.9,2.6c0.6,0.7,1.5,1,2.7,1
		c1.5,0,3.6-0.9,6.4-2.7c2.8-1.8,5.5-4.1,8.4-6.9c4.4-4.4,8.3-8.8,11.5-13.2c3.2-4.3,5.7-7.8,7.5-10.3l1.2,0.7
		c-2,2.9-4.8,6.7-8.3,11.4c-3.5,4.7-7.6,9.3-12.3,13.9c-3.8,3.7-7.3,6.4-10.5,8.1s-6.5,2.5-9.9,2.5c-3.5,0-6.2-1.1-8.2-3.2
		c-2-2.1-3-4.8-3-8c0-1,0.2-2,0.7-3.2l-0.3-0.3c-3.1,4-6.7,7.4-10.7,10.3c-4,2.9-8.8,4.3-14.3,4.3c-4.2,0-7.3-1.4-9.3-4.1
		c-2-2.8-3.1-6-3.1-9.7c0-5.1,1.3-10,3.8-14.5c2.5-4.5,5.8-8.5,9.8-11.9c4-3.4,8.5-6,13.4-8c4.9-2,9.8-2.9,14.6-2.9
		c2.8,0,5.1,0.8,6.9,2.5c1.8,1.7,3,3.8,3.6,6.4l29.3-52.1L791.9,95.9z M739.5,148.8c0-2-0.4-3.7-1.1-4.9c-0.8-1.2-2.2-1.9-4.2-1.9
		c-2.7,0-5.5,1.3-8.5,4c-3,2.7-5.7,5.9-8.3,9.7c-2.5,3.8-4.6,7.8-6.3,12.1c-1.6,4.2-2.5,7.9-2.5,11c0,2,0.4,3.7,1.1,5
		c0.7,1.3,1.9,1.9,3.6,1.9c2.1,0,4.2-0.7,6.3-2c2.1-1.3,4.1-3.1,6.1-5.3c2-2.2,3.7-4.6,5.4-7.4c1.6-2.8,3.1-5.5,4.3-8.2
		c1.2-2.7,2.2-5.3,2.9-7.8C739.1,152.6,739.5,150.5,739.5,148.8z"/>
	<path class="st0" d="M835.2,155.6c-3.3,4.9-6.8,9.5-10.5,13.8c-3.7,4.4-7.8,8.2-12.3,11.5c-4.5,3.3-9.6,5.9-15.2,7.8
		c-5.6,1.9-12,2.9-19.2,2.9c-2.7,0-5.2-0.3-7.5-0.8c-2.4-0.5-4.4-1.4-6.1-2.5c-1.7-1.2-3-2.6-4-4.5c-1-1.8-1.5-4-1.5-6.5
		c0-3.3,1-5.9,3.1-7.8c2.1-1.9,4.5-2.9,7.3-2.9c1.9,0,3.5,0.5,4.8,1.6c1.3,1.1,2,2.7,2,4.8c0,2-0.6,3.4-1.7,4.4
		c-1.2,1-2.4,1.5-3.9,1.5c-1.1,0-2-0.1-2.7-0.4c-0.4,0.7-0.7,1.6-0.7,2.5c0,2.8,0.8,5,2.3,6.6c1.5,1.6,3.7,2.3,6.7,2.3
		c3.8,0,6.7-1.1,8.5-3.3c1.9-2.2,2.8-4.9,2.8-8c0-1.9-0.6-3.7-1.7-5.5c-1.2-1.8-2.4-3.6-3.8-5.4c-1.4-1.8-2.6-3.6-3.8-5.5
		c-1.2-1.8-1.7-3.7-1.7-5.5c0-2.1,0.5-4.2,1.5-6.1c1-2,2.4-3.7,4.3-5.3c1.9-1.6,4.2-2.8,7-3.7c2.8-0.9,5.9-1.3,9.5-1.3
		c5.1,0,9.3,0.9,12.6,2.6c3.2,1.7,4.9,4.2,4.9,7.5c0,2.5-0.8,4.5-2.5,6.1c-1.7,1.6-3.7,2.3-6,2.3c-2,0-4-0.5-5.7-1.6
		c0.6-1,1.1-2,1.5-3.1c0.4-1.1,0.5-2.3,0.5-3.6c0-2.2-0.5-4.2-1.5-6c-1-1.8-2.7-2.7-5-2.7c-2,0-3.6,0.7-4.8,2.1
		c-1.2,1.4-1.7,3.3-1.7,5.6c0,2.2,0.7,4.3,2,6.2c1.3,1.9,2.8,3.8,4.3,5.7c1.6,1.9,3,3.8,4.3,5.9c1.3,2,2,4.3,2,6.9
		c0,3-0.7,5.6-2.1,7.7c-1.4,2.1-3.5,3.9-6.3,5.5l0.3,0.3c3.8-1.1,7.6-2.7,11.3-5c3.7-2.3,7.2-4.9,10.6-7.9c3.4-3,6.5-6.3,9.4-9.8
		c2.9-3.5,5.4-7,7.7-10.6L835.2,155.6z"/>
</g>
</svg>
