<?xml version="1.0" encoding="utf-8"?>
<!-- Generator: Adobe Illustrator 18.1.1, SVG Export Plug-In . SVG Version: 6.00 Build 0)  -->
<svg version="1.1" id="Layer_1" xmlns="http://www.w3.org/2000/svg" xmlns:xlink="http://www.w3.org/1999/xlink" x="0px" y="0px"
	 viewBox="0 0 60 80" style="enable-background:new 0 0 60 80;" xml:space="preserve">
<style type="text/css">
	.st0{fill:none;stroke:#FFFFFF;stroke-miterlimit:10;}
	.st1{fill:#FFFFFF;}

		#Layer_1 .st0 {
    -webkit-transition: .5s;
    -moz-transition: .5s;
    transition: .5s;
}

#Layer_1 .fill {
    -webkit-transition: .5s;
    -moz-transition: .5s;
    transition: .5s;
    fill: #ffffff;
}
#Layer_1:hover {
    cursor: pointer;
}
#Layer_1:hover .st0 {
    stroke: #0091ea;
}

#Layer_1:hover .fill {
    -webkit-transform: scale(258, 258);
    -moz-transform: scale(258, 258);
    transform: scale(258, 258);
}
</style>
<a xlink:href="/main/how" target="_top">
<g transform="translate(30.1,30)"><circle class="fill" r="0.1"/></g>
<g>
	<circle class="st0" cx="30.1" cy="30" r="26"/>
	<g>
		<path class="st0" d="M26.6,37.9c-2.4,1.2-5,1.8-7.8,1.8c-1.4,0-2.7-0.2-3.8-0.7c-1.1-0.5-2-1.1-2.8-1.9c-0.7-0.8-1.3-1.8-1.6-3
			c-0.3-1.2-0.4-2.5-0.2-3.9c0.2-1.5,0.6-2.8,1.3-4c0.6-1.2,1.4-2.2,2.4-3c1-0.8,2.1-1.5,3.3-1.9c1.2-0.5,2.6-0.7,4-0.7
			c1.4,0,2.7,0.2,3.8,0.5c1.2,0.3,2.2,0.9,3,1.8l-2.7,2.4c-0.5-0.6-1.1-1-1.9-1.3c-0.8-0.3-1.6-0.5-2.6-0.5c-0.9,0-1.8,0.2-2.6,0.5
			c-0.8,0.3-1.5,0.8-2.2,1.4c-0.6,0.6-1.2,1.3-1.6,2.1c-0.4,0.8-0.7,1.6-0.8,2.5c-0.1,1-0.1,1.9,0.1,2.7c0.2,0.8,0.5,1.5,1,2.1
			c0.5,0.6,1.1,1.1,1.8,1.4c0.7,0.3,1.5,0.5,2.5,0.5c0.8,0,1.6-0.1,2.4-0.2c0.8-0.2,1.4-0.4,2-0.7l0.6-4.3h-3.7l0.4-2.9h7L26.6,37.9
			z"/>
		<path class="st0" d="M28.9,33.1c0.1-1,0.4-1.9,0.9-2.7c0.5-0.8,1-1.5,1.7-2c0.7-0.6,1.5-1,2.3-1.3c0.9-0.3,1.8-0.5,2.7-0.5
			c0.9,0,1.8,0.2,2.5,0.5c0.8,0.3,1.4,0.7,1.9,1.3c0.5,0.6,0.9,1.2,1.1,2c0.2,0.8,0.3,1.7,0.2,2.7c-0.1,1-0.4,1.9-0.9,2.7
			c-0.5,0.8-1,1.5-1.7,2c-0.7,0.6-1.4,1-2.3,1.3c-0.9,0.3-1.8,0.5-2.7,0.5s-1.8-0.2-2.6-0.5c-0.8-0.3-1.4-0.7-2-1.3
			c-0.5-0.6-0.9-1.2-1.1-2C28.8,35,28.8,34.1,28.9,33.1z M32,33.1c-0.1,0.5-0.1,0.9,0.1,1.4c0.1,0.4,0.3,0.8,0.6,1.2
			c0.3,0.3,0.6,0.6,1,0.8c0.4,0.2,0.9,0.3,1.5,0.3c0.6,0,1.1-0.1,1.6-0.3c0.5-0.2,0.9-0.5,1.3-0.8c0.4-0.3,0.7-0.7,0.9-1.2
			c0.2-0.4,0.4-0.9,0.4-1.4c0.1-0.5,0.1-0.9-0.1-1.4c-0.1-0.4-0.3-0.8-0.6-1.2c-0.3-0.3-0.6-0.6-1-0.8c-0.4-0.2-0.9-0.3-1.5-0.3
			c-0.6,0-1.1,0.1-1.6,0.3c-0.5,0.2-0.9,0.5-1.2,0.8c-0.4,0.3-0.7,0.7-0.9,1.2C32.2,32.1,32.1,32.6,32,33.1z"/>
		<path class="st0" d="M43.3,37.5c0.1-0.5,0.4-1,0.8-1.4c0.5-0.4,1-0.6,1.5-0.6c0.5,0,1,0.2,1.4,0.6c0.4,0.4,0.5,0.8,0.4,1.4
			c-0.1,0.5-0.4,1-0.8,1.4c-0.5,0.4-1,0.6-1.5,0.6c-0.3,0-0.5-0.1-0.8-0.2c-0.2-0.1-0.4-0.2-0.6-0.4c-0.2-0.2-0.3-0.4-0.4-0.6
			C43.3,38,43.3,37.7,43.3,37.5z M47.5,33.6h-3.1l1.7-12.5h3.1L47.5,33.6z"/>
	</g>
</g>
<g>
	<path class="st1" d="M12.8,71.1c-0.5-0.1-1.2-0.4-1.9-0.8c-0.7-0.5-1.3-0.9-1.6-1.4c-0.2,0.5-0.7,1-1.5,1.5c-0.8,0.5-1.4,0.9-2.1,1
		l-1-1.1c1.6-0.5,2.6-1.1,3-1.8c0.4-0.7,0.6-1.1,0.6-1.4H5.7v-1.2h7.1v1.2h-2.8c0,0.3,0.3,0.7,0.8,1.4c0.5,0.7,1.4,1.1,2.6,1.4
		L12.8,71.1z M7.3,76.6v-4.5h9.1v4.5H7.3z M7.3,64.9v-1.2h4.1v1.2H7.3z M14.8,73.3H8.7v2h6.1V73.3z M16.3,68.1v3.3h-1.5v-7.7h1.5
		v3.1h1.9v1.3H16.3z"/>
	<path class="st1" d="M28.1,66.9v-3.2h1.5v13.1h-1.5v-5h-2.9c-0.3,0.8-0.7,1.4-1.2,1.9c-0.6,0.5-1.2,0.7-2,0.7
		c-1.1,0-1.9-0.4-2.6-1.3c-0.6-0.9-1-2-1-3.5c0-1.5,0.3-2.6,1-3.5c0.6-0.9,1.5-1.3,2.6-1.3c0.7,0,1.4,0.2,1.9,0.6
		c0.5,0.4,0.9,0.9,1.2,1.7H28.1z M23.5,67c-0.4-0.7-0.9-1-1.5-1c-0.7,0-1.2,0.4-1.5,1.1c-0.4,0.7-0.5,1.5-0.5,2.4
		c0,0.9,0.2,1.8,0.5,2.5c0.4,0.7,0.9,1,1.5,1c0.7,0,1.2-0.3,1.5-1c0.4-0.7,0.5-1.5,0.5-2.5C24,68.6,23.9,67.7,23.5,67z M28.1,70.4
		v-2.2h-2.7c0,0.2,0.1,0.4,0.1,0.6c0,0.2,0,0.4,0,0.7c0,0.2,0,0.3,0,0.5c0,0.1,0,0.3,0,0.4H28.1z"/>
	<path class="st1" d="M30.8,68v-1.3h8.1V68H30.8z M37.5,74C36.8,74.7,36,75,34.9,75c-1.1,0-1.9-0.3-2.6-0.9c-0.7-0.6-1-1.3-1-2.1
		c0-0.8,0.3-1.5,1-2.1c0.7-0.6,1.5-0.9,2.6-0.9c1,0,1.9,0.3,2.6,0.9c0.7,0.6,1,1.3,1,2.1C38.5,72.7,38.2,73.4,37.5,74z M32.7,65.6
		v-1.2H37v1.2H32.7z M36.4,70.7c-0.4-0.4-0.9-0.5-1.5-0.5c-0.7,0-1.2,0.2-1.5,0.5s-0.5,0.8-0.5,1.2c0,0.5,0.2,0.9,0.5,1.2
		s0.9,0.5,1.5,0.5c0.6,0,1.1-0.2,1.5-0.5c0.4-0.4,0.5-0.8,0.5-1.2C37,71.5,36.8,71.1,36.4,70.7z M41.9,63.7V69h2v1.4h-2v6.4h-1.5
		V63.7H41.9z"/>
	<path class="st1" d="M49.6,70.3c-1,1.9-2.5,3.3-4.6,4.2l-1.1-0.9c1.9-0.9,3.3-2.1,4.1-3.5c0.8-1.5,1.3-2.7,1.3-3.7h-4.7v-1.2h6.4
		C51,66.7,50.5,68.4,49.6,70.3z M53.9,76.8V63.7h1.5v13.1H53.9z"/>
</g></a>
</svg>
