<?xml version="1.0" encoding="utf-8"?>
<!-- Generator: Adobe Illustrator 18.1.1, SVG Export Plug-In . SVG Version: 6.00 Build 0)  -->
<svg version="1.1" id="Layer_1" xmlns="http://www.w3.org/2000/svg" xmlns:xlink="http://www.w3.org/1999/xlink" x="0px" y="0px"
	 viewBox="0 0 165 60" style="enable-background:new 0 0 165 60;" xml:space="preserve">
<style type="text/css">
	.st0{opacity:0;}
	.st1{opacity:0.1667;}
	.st2{opacity:0.3333;}
	.st3{opacity:0.5;}
	.st4{opacity:0.6667;}
	.st5{opacity:0.8333;}
	.st6{fill:url(#SVGID_1_);}
	.st7{fill:#FFFFFF;}
	.st8{fill:#4D4D4D;}
	.st9{opacity:0.92;}
	.st10{fill:#DADFE0;}
	.st11{fill:#1A1A1A;}
</style>
<g>
	<g>
		<path class="st0" d="M165,44c0,7.7-6.3,14-14,14H15C7.3,58,1,51.7,1,44V14C1,6.3,7.3,0,15,0h136c7.7,0,14,6.3,14,14V44z"/>
		<path class="st1" d="M165,42.7c0,7.7-6.3,14-14,14H15c-7.7,0-14-6.3-14-14V14C1,6.3,7.3,0,15,0h136c7.7,0,14,6.3,14,14V42.7z"/>
		<path class="st2" d="M165,41.3c0,7.7-6.3,14-14,14H15c-7.7,0-14-6.3-14-14V14C1,6.3,7.3,0,15,0h136c7.7,0,14,6.3,14,14V41.3z"/>
		<path class="st3" d="M165,40c0,7.7-6.3,14-14,14H15C7.3,54,1,47.7,1,40V14C1,6.3,7.3,0,15,0h136c7.7,0,14,6.3,14,14V40z"/>
		<path class="st4" d="M165,38.7c0,7.7-6.3,14-14,14H15c-7.7,0-14-6.3-14-14V14C1,6.3,7.3,0,15,0h136c7.7,0,14,6.3,14,14V38.7z"/>
		<path class="st5" d="M165,37.3c0,7.7-6.3,14-14,14H15c-7.7,0-14-6.3-14-14V14C1,6.3,7.3,0,15,0h136c7.7,0,14,6.3,14,14V37.3z"/>
		<path d="M165,36c0,7.7-6.3,14-14,14H15C7.3,50,1,43.7,1,36V14C1,6.3,7.3,0,15,0h136c7.7,0,14,6.3,14,14V36z"/>
	</g>
	<linearGradient id="SVGID_1_" gradientUnits="userSpaceOnUse" x1="83.0373" y1="50" x2="83.0373" y2="1.334229e-09">
		<stop  offset="0" style="stop-color:#8C8C8C"/>
		<stop  offset="1" style="stop-color:#D9D9D9"/>
	</linearGradient>
	<path class="st6" d="M165,36c0,7.7-6.3,14-14,14H15C7.3,50,1,43.7,1,36V14C1,6.3,7.3,0,15,0h136c7.7,0,14,6.3,14,14V36z"/>
	<path class="st7" d="M151,0H15C7.3,0,1,6.3,1,14v2C1,8.3,7.3,2,15,2h136c7.7,0,14,6.3,14,14v-2C165,6.3,158.7,0,151,0z"/>
	<path class="st8" d="M151,48H15C7.3,48,1,41.7,1,34v2c0,7.7,6.3,14,14,14h136c7.7,0,14-6.3,14-14v-2C165,41.7,158.7,48,151,48z"/>
</g>
<g>
	<g class="st9">
		<g>
			<path class="st7" d="M73.5,21.1c-0.2,0.6-0.6,1.3-1.1,1.9c0.7,0.7,1.5,1.2,2.1,1.5c0.9,0.5,0.4,1.7-0.6,1.3
				c-0.7-0.3-1.7-0.9-2.6-1.7c-1.2,1-2.6,1.8-4,2.2c-1.1,0.3-1.3-1-0.5-1.3c2.9-1,4.6-2.8,4.9-3.6c0.1-0.4,0-0.6-0.4-0.6h-4.1v-1.4
				h2.2v-1.8h1.6v1.8h1C73.4,19.4,73.7,20.2,73.5,21.1z M77.9,32.9H72c-1.5,0-2.8-1.1-2.8-2.6v-2.8h8.6V32.9z M76.3,31.4v-2.5h-5.4
				v1.2c0,1,0.7,1.3,1.3,1.3H76.3z M77.9,25.7c0,1-1.6,1-1.6,0v-7.4h1.6v3.4h2V23h-2V25.7z"/>
			<path class="st7" d="M79.9,22.6c0-2.4,1.7-4.1,3.9-4.1s3.9,1.7,3.9,4.1s-1.7,4.1-3.9,4.1S79.9,25,79.9,22.6z M81.5,22.6
				c0,1.7,1.1,2.6,2.3,2.6s2.3-0.9,2.3-2.6c0-1.7-1.1-2.6-2.3-2.6S81.5,21,81.5,22.6z M91.7,28.9c0,1-1.6,1-1.6,0v-3.8h-2.3v-1.4
				h2.3v-2.1h-2.4v-1.4h2.4v-1.7h1.6V28.9z"/>
			<path class="st7" d="M101.4,21.3H93v-1.4h3.5v-2.1h1.6v2.1h3.3V21.3z M93.7,25.5c0-1.9,1.5-3.6,3.7-3.6c2.1,0,3.7,1.6,3.7,3.6
				c0,1.9-1.5,3.6-3.7,3.6C95.2,29.1,93.7,27.5,93.7,25.5z M95.2,25.5c0,1.3,1,2.2,2.1,2.2c1.1,0,2.1-0.9,2.1-2.2
				c0-1.3-1-2.2-2.1-2.2C96.2,23.4,95.2,24.2,95.2,25.5z M104.6,28.9c0,1-1.6,1-1.6,0V18.4h1.6v4.7h2.1v1.4h-2.1V28.9z"/>
			<path class="st7" d="M106.7,26.9c3.5-1.5,4.8-4.4,5-6c0-0.4-0.2-0.6-0.6-0.6h-4.5v-1.4h5.3c1.2,0,1.7,0.8,1.5,2
				c-0.4,2-1.8,5.6-6.1,7.3C106.1,28.7,105.9,27.3,106.7,26.9z M117.7,28.9c0,1-1.6,1-1.6,0V18.4h1.6V28.9z"/>
		</g>
		<g>
			<path class="st7" d="M73,20.6c-0.2,0.6-0.6,1.3-1.1,1.9c0.7,0.7,1.5,1.2,2.1,1.5c0.9,0.5,0.4,1.7-0.6,1.3
				c-0.7-0.3-1.7-0.9-2.6-1.7c-1.2,1-2.6,1.8-4,2.2c-1.1,0.3-1.3-1-0.5-1.3c2.9-1,4.6-2.8,4.9-3.6c0.1-0.4,0-0.6-0.4-0.6h-4.1v-1.4
				h2.2v-1.8h1.6v1.8h1C72.9,18.9,73.2,19.7,73,20.6z M77.4,32.4h-5.8c-1.5,0-2.8-1.1-2.8-2.6V27h8.6V32.4z M75.8,30.9v-2.5h-5.4
				v1.2c0,1,0.7,1.3,1.3,1.3H75.8z M77.4,25.2c0,1-1.6,1-1.6,0v-7.4h1.6v3.4h2v1.4h-2V25.2z"/>
			<path class="st7" d="M79.4,22.1c0-2.4,1.7-4.1,3.9-4.1s3.9,1.7,3.9,4.1s-1.7,4.1-3.9,4.1S79.4,24.5,79.4,22.1z M81,22.1
				c0,1.7,1.1,2.6,2.3,2.6s2.3-0.9,2.3-2.6c0-1.7-1.1-2.6-2.3-2.6S81,20.5,81,22.1z M91.2,28.4c0,1-1.6,1-1.6,0v-3.8h-2.3v-1.4h2.3
				v-2.1h-2.4v-1.4h2.4v-1.7h1.6V28.4z"/>
			<path class="st7" d="M100.9,20.8h-8.4v-1.4H96v-2.1h1.6v2.1h3.3V20.8z M93.2,25c0-1.9,1.5-3.6,3.7-3.6c2.1,0,3.7,1.6,3.7,3.6
				c0,1.9-1.5,3.6-3.7,3.6C94.7,28.6,93.2,27,93.2,25z M94.7,25c0,1.3,1,2.2,2.1,2.2c1.1,0,2.1-0.9,2.1-2.2c0-1.3-1-2.2-2.1-2.2
				C95.7,22.9,94.7,23.7,94.7,25z M104.1,28.4c0,1-1.6,1-1.6,0V17.9h1.6v4.7h2.1v1.4h-2.1V28.4z"/>
			<path class="st7" d="M106.2,26.4c3.5-1.5,4.8-4.4,5-6c0-0.4-0.2-0.6-0.6-0.6h-4.5v-1.4h5.3c1.2,0,1.7,0.8,1.5,2
				c-0.4,2-1.8,5.6-6.1,7.3C105.6,28.2,105.4,26.8,106.2,26.4z M117.2,28.4c0,1-1.6,1-1.6,0V17.9h1.6V28.4z"/>
		</g>
	</g>
	<g>
		<g class="st9">
			<g>
				<path class="st10" d="M73,20.6c-0.2,0.6-0.6,1.3-1.1,1.9c0.7,0.7,1.5,1.2,2.1,1.5c0.9,0.5,0.4,1.7-0.6,1.3
					c-0.7-0.3-1.7-0.9-2.6-1.7c-1.2,1-2.6,1.8-4,2.2c-1.1,0.3-1.3-1-0.5-1.3c2.9-1,4.6-2.8,4.9-3.6c0.1-0.4,0-0.6-0.4-0.6h-4.1v-1.4
					h2.2v-1.8h1.6v1.8h1C72.9,18.9,73.2,19.7,73,20.6z M77.4,32.4h-5.8c-1.5,0-2.8-1.1-2.8-2.6V27h8.6V32.4z M75.8,30.9v-2.5h-5.4
					v1.2c0,1,0.7,1.3,1.3,1.3H75.8z M77.4,25.2c0,1-1.6,1-1.6,0v-7.4h1.6v3.4h2v1.4h-2V25.2z"/>
				<path class="st10" d="M79.4,22.1c0-2.4,1.7-4.1,3.9-4.1s3.9,1.7,3.9,4.1s-1.7,4.1-3.9,4.1S79.4,24.5,79.4,22.1z M81,22.1
					c0,1.7,1.1,2.6,2.3,2.6s2.3-0.9,2.3-2.6c0-1.7-1.1-2.6-2.3-2.6S81,20.5,81,22.1z M91.2,28.4c0,1-1.6,1-1.6,0v-3.8h-2.3v-1.4h2.3
					v-2.1h-2.4v-1.4h2.4v-1.7h1.6V28.4z"/>
				<path class="st10" d="M100.9,20.8h-8.4v-1.4H96v-2.1h1.6v2.1h3.3V20.8z M93.2,25c0-1.9,1.5-3.6,3.7-3.6c2.1,0,3.7,1.6,3.7,3.6
					c0,1.9-1.5,3.6-3.7,3.6C94.7,28.6,93.2,27,93.2,25z M94.7,25c0,1.3,1,2.2,2.1,2.2c1.1,0,2.1-0.9,2.1-2.2c0-1.3-1-2.2-2.1-2.2
					C95.7,22.9,94.7,23.7,94.7,25z M104.1,28.4c0,1-1.6,1-1.6,0V17.9h1.6v4.7h2.1v1.4h-2.1V28.4z"/>
				<path class="st10" d="M106.2,26.4c3.5-1.5,4.8-4.4,5-6c0-0.4-0.2-0.6-0.6-0.6h-4.5v-1.4h5.3c1.2,0,1.7,0.8,1.5,2
					c-0.4,2-1.8,5.6-6.1,7.3C105.6,28.2,105.4,26.8,106.2,26.4z M117.2,28.4c0,1-1.6,1-1.6,0V17.9h1.6V28.4z"/>
			</g>
		</g>
		<g>
			<g>
				<path d="M72.5,20.1c-0.2,0.6-0.6,1.3-1.1,1.9c0.7,0.7,1.5,1.2,2.1,1.5c0.9,0.5,0.4,1.7-0.6,1.3c-0.7-0.3-1.7-0.9-2.6-1.7
					c-1.2,1-2.6,1.8-4,2.2c-1.1,0.3-1.3-1-0.5-1.3c2.9-1,4.6-2.8,4.9-3.6c0.1-0.4,0-0.6-0.4-0.6h-4.1v-1.4h2.2v-1.8h1.6v1.8h1
					C72.4,18.4,72.7,19.2,72.5,20.1z M76.9,31.9H71c-1.5,0-2.8-1.1-2.8-2.6v-2.8h8.6V31.9z M75.3,30.4v-2.5h-5.4v1.2
					c0,1,0.7,1.3,1.3,1.3H75.3z M76.9,24.7c0,1-1.6,1-1.6,0v-7.4h1.6v3.4h2V22h-2V24.7z"/>
				<path d="M78.9,21.6c0-2.4,1.7-4.1,3.9-4.1s3.9,1.7,3.9,4.1s-1.7,4.1-3.9,4.1S78.9,24,78.9,21.6z M80.5,21.6
					c0,1.7,1.1,2.6,2.3,2.6s2.3-0.9,2.3-2.6c0-1.7-1.1-2.6-2.3-2.6S80.5,20,80.5,21.6z M90.7,27.9c0,1-1.6,1-1.6,0v-3.8h-2.3v-1.4
					h2.3v-2.1h-2.4v-1.4h2.4v-1.7h1.6V27.9z"/>
				<path d="M100.4,20.3H92v-1.4h3.5v-2.1h1.6v2.1h3.3V20.3z M92.7,24.5c0-1.9,1.5-3.6,3.7-3.6c2.1,0,3.7,1.6,3.7,3.6
					c0,1.9-1.5,3.6-3.7,3.6C94.2,28.1,92.7,26.5,92.7,24.5z M94.2,24.5c0,1.3,1,2.2,2.1,2.2c1.1,0,2.1-0.9,2.1-2.2
					c0-1.3-1-2.2-2.1-2.2C95.2,22.4,94.2,23.2,94.2,24.5z M103.6,27.9c0,1-1.6,1-1.6,0V17.4h1.6v4.7h2.1v1.4h-2.1V27.9z"/>
				<path d="M105.7,25.9c3.5-1.5,4.8-4.4,5-6c0-0.4-0.2-0.6-0.6-0.6h-4.5v-1.4h5.3c1.2,0,1.7,0.8,1.5,2c-0.4,2-1.8,5.6-6.1,7.3
					C105.1,27.7,104.9,26.3,105.7,25.9z M116.7,27.9c0,1-1.6,1-1.6,0V17.4h1.6V27.9z"/>
			</g>
		</g>
	</g>
</g>
<g>
	<g class="st9">
		<path class="st7" d="M47.7,20.8c-0.2,0-0.3,0.2-0.3,0.3c0,0.2,0.2,0.3,0.3,0.3c0.2,0,0.3-0.2,0.3-0.3C48,20.9,47.9,20.8,47.7,20.8
			z M47.7,22.1c-0.2,0-0.3,0.2-0.3,0.3c0,0.2,0.2,0.3,0.3,0.3c0.2,0,0.3-0.2,0.3-0.3C48,22.2,47.9,22.1,47.7,22.1z M49.1,21.7
			l-1.9,1.9v-1.9h-0.5v6.8c0,1.4,1.1,2.5,2.5,2.5h9.5c1.4,0,2.5-1.1,2.5-2.5v-6.8H49.1z M56.8,22l-2.4,2.4h-2l2.4-2.4H56.8z
			 M50.9,22h2l-2.4,2.4h-2L50.9,22z M59.5,29.1H48.3v-3.2h11.2V29.1z M58.3,24.4h-2l2.4-2.4h2L58.3,24.4z M47.2,21.5v-1.8l1.6,1.6
			l12.3-0.9l-0.1-0.8c-0.1-1.4-1.3-2.4-2.7-2.3l-9.5,0.7c-1.4,0.1-2.4,1.3-2.3,2.7l0.1,0.8L47.2,21.5z M58,17.9l2.6,2.2l-2,0.2
			L56,18.1L58,17.9z M54.2,18.2l2.6,2.2l-2,0.2l-2.6-2.2L54.2,18.2z M50.3,18.5l2.6,2.2l-2,0.2l-2.6-2.2L50.3,18.5z"/>
	</g>
	<g>
		<path class="st11" d="M47.2,20.3c-0.2,0-0.3,0.2-0.3,0.3c0,0.2,0.2,0.3,0.3,0.3c0.2,0,0.3-0.2,0.3-0.3
			C47.5,20.4,47.4,20.3,47.2,20.3z M47.2,21.6c-0.2,0-0.3,0.2-0.3,0.3c0,0.2,0.2,0.3,0.3,0.3c0.2,0,0.3-0.2,0.3-0.3
			C47.5,21.7,47.4,21.6,47.2,21.6z M48.6,21.2l-1.9,1.9v-1.9h-0.5v6.8c0,1.4,1.1,2.5,2.5,2.5h9.5c1.4,0,2.5-1.1,2.5-2.5v-6.8H48.6z
			 M56.3,21.5l-2.4,2.4h-2l2.4-2.4H56.3z M50.4,21.5h2L50,23.9h-2L50.4,21.5z M59,28.6H47.8v-3.2H59V28.6z M57.8,23.9h-2l2.4-2.4h2
			L57.8,23.9z M46.7,21v-1.8l1.6,1.6L60.7,20l-0.1-0.8c-0.1-1.4-1.3-2.4-2.7-2.3l-9.5,0.7c-1.4,0.1-2.4,1.3-2.3,2.7l0.1,0.8L46.7,21
			z M57.5,17.4l2.6,2.2l-2,0.2l-2.6-2.2L57.5,17.4z M53.7,17.7l2.6,2.2l-2,0.2l-2.6-2.2L53.7,17.7z M49.8,18l2.6,2.2l-2,0.2
			l-2.6-2.2L49.8,18z"/>
	</g>
</g>
</svg>
