<?xml version="1.0" encoding="utf-8"?>
<!-- Generator: Adobe Illustrator 18.1.1, SVG Export Plug-In . SVG Version: 6.00 Build 0)  -->
<svg version="1.1" id="Layer_1" xmlns="http://www.w3.org/2000/svg" xmlns:xlink="http://www.w3.org/1999/xlink" x="0px" y="0px"
	 viewBox="0 0 432 60" style="enable-background:new 0 0 432 60;" xml:space="preserve">
<style type="text/css">
	.st0{opacity:0;}
	.st1{opacity:0.1667;}
	.st2{opacity:0.3333;}
	.st3{opacity:0.5;}
	.st4{opacity:0.6667;}
	.st5{opacity:0.8333;}
	.st6{fill:url(#SVGID_1_);}
	.st7{fill:#FFFFFF;}
	.st8{fill:#4D4D4D;}
	.st9{opacity:0.92;}
	.st10{fill:url(#SVGID_2_);}
	.st11{fill-rule:evenodd;clip-rule:evenodd;fill:#FFFFFF;}
	.st12{fill-rule:evenodd;clip-rule:evenodd;fill:#231F20;}
	.st13{fill:url(#SVGID_3_);}
	.st14{fill:#DADFE0;}
	.st15{fill:#231F20;}
	.st16{fill:url(#SVGID_4_);}
	.st17{fill:url(#SVGID_5_);}
	.st18{fill:url(#SVGID_6_);}
	.st19{fill:#2B52CC;}
	.st20{fill:url(#SVGID_7_);}
	.st21{fill:#0E68A4;}
	.st22{fill:#D0D2D3;}
	.st23{fill:#EC1C24;}
	.st24{fill:#F06162;}
	.st25{fill:#26A9E0;}
</style>
<g>
	<path class="st7" d="M418,2H15C7.3,2,1,8.3,1,16v2C1,10.3,7.3,4,15,4h403c7.7,0,14,6.3,14,14v-2C432,8.3,425.7,2,418,2z"/>
	<g>
		<path class="st0" d="M432,46c0,7.7-6.3,14-14,14H15C7.3,60,1,53.7,1,46V16C1,8.3,7.3,2,15,2h403c7.7,0,14,6.3,14,14V46z"/>
		<path class="st1" d="M432,44.7c0,7.7-6.3,14-14,14H15c-7.7,0-14-6.3-14-14V16C1,8.3,7.3,2,15,2h403c7.7,0,14,6.3,14,14V44.7z"/>
		<path class="st2" d="M432,43.3c0,7.7-6.3,14-14,14H15c-7.7,0-14-6.3-14-14V16C1,8.3,7.3,2,15,2h403c7.7,0,14,6.3,14,14V43.3z"/>
		<path class="st3" d="M432,42c0,7.7-6.3,14-14,14H15C7.3,56,1,49.7,1,42V16C1,8.3,7.3,2,15,2h403c7.7,0,14,6.3,14,14V42z"/>
		<path class="st4" d="M432,40.7c0,7.7-6.3,14-14,14H15c-7.7,0-14-6.3-14-14V16C1,8.3,7.3,2,15,2h403c7.7,0,14,6.3,14,14V40.7z"/>
		<path class="st5" d="M432,39.3c0,7.7-6.3,14-14,14H15c-7.7,0-14-6.3-14-14V16C1,8.3,7.3,2,15,2h403c7.7,0,14,6.3,14,14V39.3z"/>
		<path d="M432,38c0,7.7-6.3,14-14,14H15C7.3,52,1,45.7,1,38V16C1,8.3,7.3,2,15,2h403c7.7,0,14,6.3,14,14V38z"/>
		<linearGradient id="SVGID_1_" gradientUnits="userSpaceOnUse" x1="216.501" y1="52" x2="216.501" y2="2">
			<stop  offset="0" style="stop-color:#8C8C8C"/>
			<stop  offset="1" style="stop-color:#D9D9D9"/>
		</linearGradient>
		<path class="st6" d="M432,38c0,7.7-6.3,14-14,14H15C7.3,52,1,45.7,1,38V16C1,8.3,7.3,2,15,2h403c7.7,0,14,6.3,14,14V38z"/>
		<path class="st8" d="M418,50H15C7.3,50,1,43.7,1,36v2c0,7.7,6.3,14,14,14h403c7.7,0,14-6.3,14-14v-2C432,43.7,425.7,50,418,50z"/>
		<g>
			<path d="M108.1,24c0,1-1.6,1-1.6,0v-3.6h-3.4V24c0,1-1.6,1-1.6,0v-3.6h-3.2v-1.4h13v1.4h-3.2V24z M100.8,14.3c0-2,1.7-3.6,4-3.6
				c2.3,0,4,1.6,4,3.6c0,2-1.7,3.6-4,3.6C102.5,17.9,100.8,16.3,100.8,14.3z M102.4,14.3c0,1.4,1.1,2.3,2.4,2.3
				c1.3,0,2.4-0.9,2.4-2.3c0-1.4-1.1-2.2-2.4-2.2C103.5,12,102.4,12.9,102.4,14.3z"/>
			<path d="M124.6,20.5h-3.2V24c0,1-1.6,1-1.6,0v-3.4h-3.4V24c0,1-1.6,1-1.6,0v-3.4h-3.2v-1.4h13V20.5z M122.7,15H115v0.4
				c0,0.7,0.3,0.9,1,0.9h7v1.4h-7.3c-1.3,0-2.3-0.9-2.3-2.3v-4.4h9.3v1.4H115v1.1h7.7V15z"/>
			<path d="M137.9,22.1h-13v-1.4h13V22.1z M128.4,11.1v2.2h6.1v-2.2h1.6v7.5h-6.9c-1.5,0-2.5-1-2.5-2.5v-4.9H128.4z M129.3,17.1h5.2
				v-2.4h-6.1V16C128.4,16.9,128.8,17.1,129.3,17.1z"/>
			<path d="M147.9,14.3c-0.2,0.7-0.5,1.6-1.2,2.7c0.6,0.9,1.2,1.6,1.9,2.2c0.7,0.6,0,1.8-0.9,1.1c-0.7-0.6-1.3-1.2-1.9-2
				c-0.8,1-1.8,1.9-3.1,2.6c-1.1,0.6-1.6-0.8-0.8-1.2c2.6-1.4,4.1-3.9,4.3-4.9c0.1-0.4,0-0.6-0.5-0.6h-3.5v-1.4h2v-2.2h1.6v2.2h0.7
				C147.8,12.6,148.1,13.4,147.9,14.3z M151.2,21.4c0,1-1.6,1-1.6,0V11.1h1.6v4.1h1.7v-4.1h1.6v10.5c0,1-1.6,1-1.6,0v-5h-1.7V21.4z"
				/>
			<path d="M163.4,17.9h-5.3c-1.2,0-2.1-0.7-2.1-2v-4.6h1.6v4.3c0,0.6,0.3,0.9,0.8,0.9h5V17.9z M167.3,25.6h-6.7
				c-1.2,0-2.2-0.9-2.2-2.3v-1.6h7v-1h-7v-1.4h8.6v3.8h-7v0.1c0,0.6,0.2,1,0.8,1h6.5V25.6z M167,17.6c0,1-1.6,1-1.6,0v-3h-3.8v-1.4
				h3.8v-2.3h1.6V17.6z"/>
			<path d="M178.2,21.4c0,1-1.6,1-1.6,0v-5.5h-1.3c-0.3,2-1.9,3.2-3.6,3.2c-1.9,0-3.6-1.5-3.6-3.9c0-2.4,1.7-3.9,3.6-3.9
				c1.7,0,3.2,1.2,3.6,3.2h1.3v-3.4h1.6V21.4z M169.7,15.2c0,1.7,1.1,2.5,2.1,2.5s2.1-0.8,2.1-2.5s-1.1-2.5-2.1-2.5
				C170.8,12.7,169.7,13.5,169.7,15.2z M181,21.6c0,1-1.6,1-1.6,0V11.1h1.6V21.6z"/>
			<path d="M185.7,14.7c0-2.1,1.6-3.7,3.7-3.7c1.9,0,3.3,1.2,3.6,2.9h2.5v-3h1.6v6.9c0,1-1.6,1-1.6,0v-2.5h-2.5
				c-0.3,1.8-1.8,3-3.7,3C187.3,18.4,185.7,16.8,185.7,14.7z M187.3,14.7c0,1.4,1,2.3,2.1,2.3s2.1-0.9,2.1-2.3c0-1.4-1-2.3-2.1-2.3
				S187.3,13.2,187.3,14.7z M197.2,19.3v6.2h-5.8c-1.5,0-2.8-1.1-2.8-2.6v-3.6h1.6v1.7h5.4v-1.7H197.2z M191.4,24.1h4.1v-1.6h-5.4
				v0.3C190.2,23.8,190.8,24.1,191.4,24.1z"/>
			<path d="M209.9,18.7h-4.2v2.1h5.7v1.4h-13v-1.4h5.7v-2.1h-1.4c-1.5,0-2.5-1-2.5-2.4v-2.1h7.8v-1.5h-7.8v-1.4h9.4v4.4h-7.8v0.7
				c0,0.8,0.5,1,1,1h7.1V18.7z"/>
			<path d="M224.7,22.1h-13v-1.4h13V22.1z M213.5,11.3h9.2v1.4h-7.6v2.8c0,0.7,0.3,0.9,1,0.9h7V18h-7.2c-1.3,0-2.3-0.9-2.3-2.3V11.3
				z"/>
			<path d="M235.9,24.1c0,1-1.6,1-1.6,0v-3.3h-5.7v-1.4h13v1.4h-5.7V24.1z M240.3,13.1h-2.1c0.4,0.6,0.7,1.2,0.7,2
				c0,1.9-1.6,3.4-3.8,3.4s-3.8-1.5-3.8-3.4c0-0.7,0.3-1.4,0.7-2h-2.1v-1.4h4.4v-1.5h1.6v1.5h4.4V13.1z M232.9,15.1c0,1.2,1,2,2.2,2
				c1.2,0,2.2-0.8,2.2-2c0-1.2-0.9-1.9-2.1-2H235C233.9,13.2,232.9,13.9,232.9,15.1z"/>
			<path d="M258.5,19.4h-5.7V24c0,1-1.6,1-1.6,0v-4.5h-5.7V18h9.4v-4.8c0-0.5-0.1-0.6-0.7-0.6h-6.9v-1.4h7.6c1.1,0,1.6,0.4,1.6,1.5
				V18h2V19.4z"/>
			<path d="M272.1,17.9h-13.3v-1.4h9.8V13c0-0.5-0.1-0.6-0.7-0.6h-7.3V11h7.9c1.1,0,1.6,0.4,1.6,1.5v4h1.9V17.9z M270.4,25.7h-7.3
				c-1.2,0-2.2-0.9-2.2-2.3v-1.7h7.6v-1h-7.6v-1.4h9.2v3.9h-7.6v0.2c0,0.6,0.2,1,0.8,1h7.1V25.7z"/>
			<path d="M289.4,18.8H276v-1.4h13.3V18.8z M288.1,16.3h-10.8v-1.4h2.1v-2.5h-1.9V11h10.4v1.4H286v2.5h2.1V16.3z M287.8,25.7h-7.6
				c-1.1,0-2.1-0.7-2.1-2V22h7.6v-0.8h-7.6v-1.4h9.2v3.7h-7.6v0.3c0,0.4,0.3,0.5,0.7,0.5h7.4V25.7z M281,14.9h3.4v-2.5H281V14.9z"/>
			<path d="M297.6,21.4H293c-1.6,0-2.8-1.1-2.8-2.7v-3.5h5.1v-2.4h-5.1v-1.4h6.7v5.3h-5.1v1.9c0,1.1,0.7,1.4,1.4,1.4h4.5V21.4z
				 M301.4,21.6c0,1-1.6,1-1.6,0v-5.2h-2.3v-1.4h2.3v-3.9h1.6V21.6z"/>
			<path d="M315.5,22.1h-13v-1.4h13V22.1z M313.6,17.6c-1.7-0.8-3.6-2.3-4.6-3.5c-1,1.5-2.4,2.8-4.4,3.7c-1.1,0.5-1.6-0.8-0.7-1.3
				c2.8-1.3,4.3-3.7,4.7-5.8l1.7,0.3c-0.1,0.5-0.3,1.1-0.6,1.6c1.2,1.6,3,3,4.3,3.6C315.1,16.8,314.6,18.1,313.6,17.6z"/>
			<path d="M319.5,19.5c2.9-1.5,4-4.5,4.2-6c0-0.3-0.1-0.5-0.5-0.5h-3.6v-1.4h4.3c1,0,1.6,0.6,1.5,1.7c0,0,0,0.1,0,0.2h1.7v-2.3h1.6
				v10.3c0,1-1.6,1-1.6,0v-3.3h-2.5v-1.4h2.5v-1.8h-2c-0.6,2-2,4.6-4.9,6C319.1,21.4,318.7,20,319.5,19.5z M331.8,21.6
				c0,1-1.6,1-1.6,0V11.1h1.6V21.6z"/>
			<path d="M339.6,13.1c-0.2,0.7-0.6,1.5-1.2,2.2c0.6,0.7,1.2,1.1,2,1.6c0.9,0.5,0.1,1.7-0.8,1.2c-0.7-0.4-1.5-1-2.2-1.7
				c-1.1,1-2.5,1.9-4,2.4c-1.1,0.4-1.3-1-0.5-1.3c3.1-1.3,4.5-3.2,4.8-4.2c0.1-0.4,0-0.6-0.4-0.6h-4v-1.4h4.8
				C339.5,11.3,339.9,12.2,339.6,13.1z M337,22.5c0-1.9,1.5-3.4,3.6-3.4c2.1,0,3.6,1.5,3.6,3.4s-1.5,3.4-3.6,3.4
				C338.5,25.8,337,24.3,337,22.5z M338.5,22.5c0,1.2,1,2,2.1,2c1.1,0,2-0.8,2-2c0-1.1-0.9-2-2-2C339.5,20.5,338.5,21.3,338.5,22.5z
				 M344.4,18.3c0,1-1.6,1-1.6,0v-3.2h-2.6v-1.4h2.6v-2.8h1.6V18.3z"/>
			<path d="M355.6,21.4c0,1-1.6,1-1.6,0v-5.5h-1.3c-0.3,2-1.9,3.2-3.6,3.2c-1.9,0-3.6-1.5-3.6-3.9c0-2.4,1.7-3.9,3.6-3.9
				c1.7,0,3.2,1.2,3.6,3.2h1.3v-3.4h1.6V21.4z M347.1,15.2c0,1.7,1.1,2.5,2.1,2.5s2.1-0.8,2.1-2.5s-1.1-2.5-2.1-2.5
				C348.3,12.7,347.1,13.5,347.1,15.2z M358.4,21.6c0,1-1.6,1-1.6,0V11.1h1.6V21.6z"/>
			<path d="M376.1,18.5h-13.3v-1.4h5.2v-2.9h1.6v2.9h6.5V18.5z M374.3,15.7c0,1-1.6,1-1.6,0v-2.6c0-0.5-0.1-0.6-0.7-0.6h-7.3v-1.4
				h7.9c1.1,0,1.6,0.4,1.6,1.5V15.7z M365.8,22.7c0-1.8,1.5-3.3,3.7-3.3s3.7,1.5,3.7,3.3s-1.5,3.3-3.7,3.3S365.8,24.5,365.8,22.7z
				 M367.4,22.7c0,1.1,0.9,1.9,2.1,1.9c1.2,0,2.1-0.8,2.1-1.9c0-1.1-0.9-1.9-2.1-1.9C368.3,20.8,367.4,21.6,367.4,22.7z"/>
			<path d="M386.3,24c0,1-1.6,1-1.6,0v-3.6h-3.4V24c0,1-1.6,1-1.6,0v-3.6h-3.2v-1.4h13v1.4h-3.2V24z M379,14.3c0-2,1.7-3.6,4-3.6
				c2.3,0,4,1.6,4,3.6c0,2-1.7,3.6-4,3.6C380.7,17.9,379,16.3,379,14.3z M380.6,14.3c0,1.4,1.1,2.3,2.4,2.3c1.3,0,2.4-0.9,2.4-2.3
				c0-1.4-1.1-2.2-2.4-2.2C381.7,12,380.6,12.9,380.6,14.3z"/>
			<path d="M398.3,13.9h-8.4v-1.4h3.5v-2.1h1.6v2.1h3.3V13.9z M390.6,18.2c0-1.9,1.5-3.6,3.7-3.6c2.1,0,3.7,1.6,3.7,3.6
				c0,1.9-1.5,3.6-3.7,3.6C392.1,21.8,390.6,20.1,390.6,18.2z M392.1,18.2c0,1.3,1,2.2,2.1,2.2c1.1,0,2.1-0.9,2.1-2.2
				c0-1.3-1-2.2-2.1-2.2C393.1,16,392.1,16.9,392.1,18.2z M401.5,21.6c0,1-1.6,1-1.6,0V11.1h1.6v4.7h2.1v1.4h-2.1V21.6z"/>
			<path d="M416.3,22.2h-13v-1.4h4.9v-4.7h1.6v4.7h6.5V22.2z M414.5,18.4c0,1-1.6,1-1.6,0v-5c0-0.5-0.1-0.6-0.7-0.6h-7.1v-1.4h7.7
				c1.1,0,1.6,0.4,1.6,1.5V18.4z"/>
			<path class="st19" d="M107,32.6h1.7v1.7h-2.2l-0.9,2.8h2.6v1.7h-3.1l-0.9,2.9c-0.4,1.2-2.1,0.8-1.7-0.4l0.8-2.5h-1.9l-0.9,2.9
				c-0.4,1.3-2.1,0.8-1.7-0.4l0.8-2.5h-1.3v-1.7h1.8l0.9-2.8h-2.2v-1.7h2.8l0.9-2.8h1.9l-0.9,2.8h1.9l0.9-2.8h1.9L107,32.6z
				 M101.8,37.1h1.9l0.9-2.8h-1.9L101.8,37.1z"/>
			<path class="st19" d="M111.6,41.1V32h-1.1v-1.6h2.1c0.7,0,0.9,0.2,0.9,0.8v10C113.5,42.2,111.6,42.2,111.6,41.1z"/>
			<path class="st19" d="M119.9,42c-2.1,0-3.9-1.5-3.9-3.6c0-1.2,0.6-2.2,1.6-2.9c-0.6-0.6-0.9-1.3-0.9-2.2c0-1.8,1.5-3.1,3.3-3.1
				c1.8,0,3.3,1.3,3.3,3.1c0,0.8-0.3,1.5-1,2.2c1,0.7,1.6,1.7,1.6,2.9C123.9,40.5,122.1,42,119.9,42z M119.9,36.3c-1.2,0-2,0.9-2,2
				c0,1.2,0.9,2,2,2c1.1,0,2-0.8,2-2C122,37.3,121,36.3,119.9,36.3z M119.9,31.8c-0.8,0-1.4,0.7-1.4,1.5c0,0.8,0.6,1.4,1.4,1.4
				c0.8,0,1.4-0.7,1.4-1.4C121.4,32.5,120.7,31.8,119.9,31.8z"/>
			<path class="st19" d="M129.2,41.8c-1.4,0-2.8-0.8-3.6-2.2c-0.6-1.1,1.1-1.9,1.6-0.9c0.4,0.7,1.2,1.3,1.8,1.3
				c1.3,0.1,2.1-0.6,2.1-1.7c0-1-0.8-1.3-2.2-1.8c-1.8-0.6-3.5-1.4-3.3-3.6c0.2-1.9,1.9-2.8,3.5-2.8c1.2,0,2.7,0.5,3.5,1.9l-1.3,1.1
				c-0.5-0.8-1.2-1.3-2-1.3c-1.1,0-1.7,0.5-1.7,1.2c-0.1,0.8,0.7,1.5,1.9,1.8c2.1,0.6,3.6,1.5,3.6,3.3
				C133,40.4,131.3,41.9,129.2,41.8z"/>
			<path d="M147.1,33.1h-7.4v-1.4h3v-2.1h1.6v2.1h2.8V33.1z M140.1,37.3c0-1.8,1.4-3.3,3.3-3.3c1.9,0,3.3,1.5,3.3,3.3
				c0,1.8-1.4,3.3-3.3,3.3C141.5,40.6,140.1,39.1,140.1,37.3z M141.7,37.3c0,1.1,0.8,1.9,1.8,1.9c0.9,0,1.8-0.8,1.8-1.9
				c0-1.1-0.8-1.9-1.8-1.9C142.5,35.4,141.7,36.1,141.7,37.3z M149.4,40.6c0,1-1.6,1-1.6,0V30.3h1.6v4.1h1.7v-4.1h1.6v10.5
				c0,1-1.6,1-1.6,0v-5h-1.7V40.6z"/>
			<path d="M153.4,38.7c2.6-2,3.8-5.7,3.8-8.2h1.7c0,1.2-0.3,2.5-0.8,3.9c1,1.6,2.3,3,3.4,3.8c0.8,0.6,0,1.8-0.9,1.2
				c-1.2-0.8-2.4-2-3.2-3.3c-0.7,1.4-1.7,2.7-3,3.7C153.3,40.6,152.6,39.3,153.4,38.7z M165.3,40.8c0,1-1.6,1-1.6,0V30.3h1.6V40.8z"
				/>
			<path d="M173.4,40.4h-3.6c-1.6,0-2.8-1.1-2.8-2.7v-7.1h5.8V32h-4.2v2.1h4.1v1.4h-4.1v1.9c0,1.1,0.7,1.4,1.4,1.4h3.5V40.4z
				 M175.8,40.6c0,1-1.6,1-1.6,0V30.3h1.6v4.1h1.8v-4.1h1.6v10.5c0,1-1.6,1-1.6,0v-5h-1.8V40.6z"/>
			<path d="M193,41.3h-13v-1.4h13V41.3z M191,37.4c0,1-1.6,1-1.6,0v-4.8c0-0.5-0.1-0.6-0.7-0.6h-6.9v-1.4h7.6c1.1,0,1.6,0.4,1.6,1.5
				V37.4z"/>
			<path d="M206.6,38.2h-13.3v-1.4h13.3V38.2z M205,36h-7.7c-1.1,0-2.1-0.7-2.1-1.9v-1.8h7.9v-0.8h-7.9V30h9.5v3.6h-7.9V34
				c0,0.4,0.3,0.5,0.7,0.5h7.5V36z M205.1,45h-7.6c-1.1,0-2.1-0.7-2.1-2v-1.8h7.6v-0.7h-7.6v-1.4h9.2v3.6H197V43
				c0,0.4,0.3,0.5,0.7,0.5h7.4V45z"/>
			<path d="M227.4,37.9h-5.8v1.2h3.8v1.4h-7.6v0.7h7.5v1.4h-7.5c0,0.7,0.4,0.8,1,0.8h6.9v1.4h-7.1c-1.5,0-2.4-0.9-2.4-2.3v-3.4h3.8
				v-1.2h-5.9v-1.4h13.3V37.9z M225.6,30v5.7h-7.4c-1.3,0-2.2-0.8-2.2-2.1V30h1.6v1.4h6.4V30H225.6z M218.5,34.2h5.5v-1.4h-6.4v0.6
				C217.6,34,217.9,34.2,218.5,34.2z"/>
			<path d="M228,34.5c0-2.4,1.7-4.1,3.9-4.1s3.9,1.7,3.9,4.1c0,2.4-1.7,4.1-3.9,4.1S228,36.9,228,34.5z M229.5,34.5
				c0,1.7,1.1,2.6,2.3,2.6s2.3-0.9,2.3-2.6s-1.1-2.6-2.3-2.6S229.5,32.8,229.5,34.5z M239.8,40.8c0,1-1.6,1-1.6,0v-3.8h-2.3v-1.4
				h2.3v-2.1h-2.4V32h2.4v-1.7h1.6V40.8z"/>
			<path d="M248.2,43.2c0,1-1.6,1-1.6,0v-3.6h-5.7v-1.4h13v1.4h-5.7V43.2z M251,32.1c-0.3,0.6-0.8,1.1-1.3,1.5
				c0.9,0.6,2,1.1,2.9,1.4c1,0.4,0.6,1.7-0.5,1.4c-1.2-0.4-2.6-1.1-3.8-1.8c-1.6,1-3.7,1.7-5.4,2c-1.1,0.2-1.2-1.2-0.3-1.4
				c3.3-0.7,5.7-2.3,6.3-2.9c0.3-0.4,0.3-0.4-0.2-0.4h-5.5v-1.4h6.6C251,30.4,251.5,31.2,251,32.1z"/>
			<path d="M259.9,39.4c-0.9-0.8-1.7-1.8-2.4-2.9c-0.6,1.3-1.5,2.5-2.5,3.3c-0.9,0.7-1.8-0.4-1-1.1c2.2-2,3.2-5.7,3.3-8.2h1.7
				c0,1.2-0.3,2.8-0.8,4.2c0.8,1.5,1.7,2.8,2.6,3.6C261.6,39,260.7,40.2,259.9,39.4z M264.1,40.6c0,1-1.6,1-1.6,0v-5.4H260v-1.4h2.5
				v-3.5h1.6V40.6z M267.1,40.8c0,1-1.6,1-1.6,0V30.3h1.6V40.8z"/>
			<path d="M280.9,41.4h-13V40h3.3v-2.4h1.6V40h3.1v-2.4h1.6V40h3.3V41.4z M270.3,33.8c0-2.1,1.7-3.8,4.1-3.8c2.4,0,4.1,1.6,4.1,3.8
				c0,2.1-1.7,3.8-4.1,3.8C272,37.6,270.3,35.9,270.3,33.8z M271.9,33.8c0,1.5,1.1,2.4,2.5,2.4c1.3,0,2.5-0.9,2.5-2.4
				c0-1.5-1.1-2.4-2.5-2.4C273.1,31.4,271.9,32.3,271.9,33.8z"/>
		</g>
	</g>
</g>
<path class="st22" d="M65.3,25.5c0,0,0,0.1,0,0.1c0,4.5-2.5,8.5-6.1,10.6c-0.7,0.4-1.4,0.7-2.1,1c-1.3,0.5-2.8,0.7-4.3,0.7
	c-6.9,0-12.5-5.6-12.5-12.5c0-6.9,5.6-12.5,12.5-12.5c6.6,0,12,5.1,12.4,11.5C65.3,24.9,65.3,25.2,65.3,25.5z"/>
<g>
	<path class="st23" d="M60.8,22.1c-0.1-0.7-0.6-1.5-1.8-1.8c-0.7-0.2-3.4-0.6-6.2-0.6c-2.8,0-5.5,0.5-6.2,0.6
		c-1.2,0.2-1.6,1-1.8,1.8c-0.1,0.7-0.4,2.1-0.4,3.5c0,1.4,0.3,2.7,0.4,3.5c0.2,0.7,0.6,1.6,1.8,1.8c1.1,0.2,3.4,0.6,6.2,0.6
		c2.8,0,5.1-0.5,6.2-0.6c1.1-0.2,1.6-1,1.8-1.8c0.2-0.7,0.4-2.1,0.4-3.5C61.2,24.2,60.9,22.8,60.8,22.1z"/>
	<path class="st24" d="M44.7,24.6c0.1-0.9,0.2-1.6,0.3-2.2c0-0.1,0-0.2,0.1-0.3c0.1-0.4,0.2-0.7,0.4-1c0.3-0.3,0.6-0.5,1.1-0.6h0h0
		c0.2,0,1-0.2,2.3-0.4c1.4-0.2,2.6-0.3,3.9-0.3c1.2,0,2.5,0.1,3.9,0.3c1.3,0.2,2.1,0.3,2.3,0.4h0h0c0.5,0.1,0.9,0.3,1.1,0.6
		c0.2,0.2,0.4,0.6,0.4,1c0,0.1,0,0.2,0.1,0.3c0.1,0.6,0.3,1.5,0.3,2.4c0,0.7-0.5,1-1.3,0.9c-1.5-0.2-4.2-0.7-6.8-0.7
		c-2.9,0-5.8,0.6-7.2,0.7C45,25.8,44.6,25.2,44.7,24.6z"/>
	<path class="st7" d="M50.2,22.3c0-0.6,0.5-0.9,1-0.6l5.6,3.2c0.6,0.3,0.6,0.9,0,1.2l-5.6,3.2c-0.6,0.3-1,0.1-1-0.6V22.3z"/>
</g>
</svg>
