<?xml version="1.0" encoding="utf-8"?>
<!-- Generator: Adobe Illustrator 18.1.1, SVG Export Plug-In . SVG Version: 6.00 Build 0)  -->
<svg version="1.1" id="Layer_1" xmlns="http://www.w3.org/2000/svg" xmlns:xlink="http://www.w3.org/1999/xlink" x="0px" y="0px"
	 viewBox="0 0 165 60" style="enable-background:new 0 0 165 60;" xml:space="preserve">
<style type="text/css">
	.st0{opacity:0;}
	.st1{opacity:0.1667;}
	.st2{opacity:0.3333;}
	.st3{opacity:0.5;}
	.st4{opacity:0.6667;}
	.st5{opacity:0.8333;}
	.st6{fill:url(#SVGID_1_);}
	.st7{fill:#FFFFFF;}
	.st8{fill:#4D4D4D;}
	.st9{opacity:0.92;}
	.st10{fill:#DADFE0;}
	.st11{fill:#1A1A1A;}
</style>
<g>
	<g>
		<g>
			<path class="st0" d="M165,44c0,7.7-6.3,14-14,14H15C7.3,58,1,51.7,1,44V14C1,6.3,7.3,0,15,0h136c7.7,0,14,6.3,14,14V44z"/>
			<path class="st1" d="M165,42.7c0,7.7-6.3,14-14,14H15c-7.7,0-14-6.3-14-14V14C1,6.3,7.3,0,15,0h136c7.7,0,14,6.3,14,14V42.7z"/>
			<path class="st2" d="M165,41.3c0,7.7-6.3,14-14,14H15c-7.7,0-14-6.3-14-14V14C1,6.3,7.3,0,15,0h136c7.7,0,14,6.3,14,14V41.3z"/>
			<path class="st3" d="M165,40c0,7.7-6.3,14-14,14H15C7.3,54,1,47.7,1,40V14C1,6.3,7.3,0,15,0h136c7.7,0,14,6.3,14,14V40z"/>
			<path class="st4" d="M165,38.7c0,7.7-6.3,14-14,14H15c-7.7,0-14-6.3-14-14V14C1,6.3,7.3,0,15,0h136c7.7,0,14,6.3,14,14V38.7z"/>
			<path class="st5" d="M165,37.3c0,7.7-6.3,14-14,14H15c-7.7,0-14-6.3-14-14V14C1,6.3,7.3,0,15,0h136c7.7,0,14,6.3,14,14V37.3z"/>
			<path d="M165,36c0,7.7-6.3,14-14,14H15C7.3,50,1,43.7,1,36V14C1,6.3,7.3,0,15,0h136c7.7,0,14,6.3,14,14V36z"/>
		</g>
		<linearGradient id="SVGID_1_" gradientUnits="userSpaceOnUse" x1="83" y1="50" x2="83" y2="-6.256323e-08">
			<stop  offset="0" style="stop-color:#8C8C8C"/>
			<stop  offset="1" style="stop-color:#D9D9D9"/>
		</linearGradient>
		<path class="st6" d="M165,36c0,7.7-6.3,14-14,14H15C7.3,50,1,43.7,1,36V14C1,6.3,7.3,0,15,0h136c7.7,0,14,6.3,14,14V36z"/>
		<path class="st7" d="M151,0H15C7.3,0,1,6.3,1,14v2C1,8.3,7.3,2,15,2h136c7.7,0,14,6.3,14,14v-2C165,6.3,158.7,0,151,0z"/>
		<path class="st8" d="M151,48H15C7.3,48,1,41.7,1,34v2c0,7.7,6.3,14,14,14h136c7.7,0,14-6.3,14-14v-2C165,41.7,158.7,48,151,48z"/>
	</g>
	<g>
		<g class="st9">
			<g>
				<path class="st7" d="M67.7,29.9c0,0.9-1.6,0.9-1.6,0v-9.3H65v-1.4h1.9c0.5,0,0.7,0.2,0.7,0.6V29.9z"/>
				<path class="st7" d="M70.5,24.2c-0.6-0.6-1-1.3-1-2.2c0-1.7,1.4-3,3.2-3c1.7,0,3.2,1.3,3.2,3c0,0.9-0.3,1.5-1,2.2
					c1,0.7,1.6,1.7,1.6,2.9c0,2.1-1.7,3.5-3.8,3.5c-2.1,0-3.8-1.5-3.8-3.5C68.9,25.9,69.5,24.9,70.5,24.2z M72.7,25
					c-1.2,0-2.2,0.9-2.2,2.2c0,1.3,0.9,2.1,2.2,2.1c1.2,0,2.2-0.9,2.2-2.1C74.9,25.9,73.9,25,72.7,25z M72.7,20.4
					c-0.9,0-1.6,0.8-1.6,1.6c0,0.9,0.7,1.6,1.6,1.6c0.9,0,1.6-0.7,1.6-1.6C74.3,21.1,73.6,20.4,72.7,20.4z"/>
				<path class="st7" d="M89.8,30.2h-13v-1.4h5.7v-2.5h1.6v2.5h5.7V30.2z M87.1,21.9c-0.3,0.6-0.9,1.1-1.5,1.6
					c0.9,0.6,2,1.1,2.9,1.5c0.9,0.3,0.5,1.7-0.5,1.4c-1.3-0.4-2.6-1.1-3.8-1.9c-1.7,1-3.8,1.8-5.4,2.2c-1,0.2-1.3-1.2-0.4-1.4
					c3.2-0.8,5.8-2.4,6.5-3.2c0.3-0.3,0.4-0.5,0-0.5H79v-1.4h3.3v-1.9h1.6v1.9h1.9C87.1,20.1,87.6,21,87.1,21.9z"/>
				<path class="st7" d="M106.7,30.2h-13v-1.4h5.7v-3.5h1.6v3.5h5.7V30.2z M104.8,25.5c-1.8-0.8-3.6-2.2-4.7-3.4
					c-1,1.5-2.5,2.8-4.4,3.6c-1.1,0.5-1.6-0.9-0.7-1.3c2.8-1.3,4.4-3.6,4.8-5.6l1.7,0.3c-0.1,0.5-0.3,1.1-0.6,1.6
					c1.2,1.6,3,2.8,4.4,3.5C106.3,24.6,105.7,25.9,104.8,25.5z"/>
				<path class="st7" d="M107.1,27.5c3.1-1.4,4.2-4.4,4.4-6c0-0.3-0.1-0.5-0.5-0.5h-3.8v-1.4h4.5c1,0,1.6,0.6,1.5,1.7
					c-0.2,2.1-1.6,5.9-5.5,7.6C106.6,29.3,106.3,27.9,107.1,27.5z M116,29.4c0,1-1.6,1-1.6,0V19h1.6v3.7h1.8V19h1.6v10.5
					c0,1-1.6,1-1.6,0v-5.3H116V29.4z"/>
			</g>
			<g>
				<path class="st7" d="M67.2,29.4c0,0.9-1.6,0.9-1.6,0v-9.3h-1.1v-1.4h1.9c0.5,0,0.7,0.2,0.7,0.6V29.4z"/>
				<path class="st7" d="M70,23.7c-0.6-0.6-1-1.3-1-2.2c0-1.7,1.4-3,3.2-3c1.7,0,3.2,1.3,3.2,3c0,0.9-0.3,1.5-1,2.2
					c1,0.7,1.6,1.7,1.6,2.9c0,2.1-1.7,3.5-3.8,3.5c-2.1,0-3.8-1.5-3.8-3.5C68.4,25.4,69,24.4,70,23.7z M72.2,24.5
					c-1.2,0-2.2,0.9-2.2,2.2c0,1.3,0.9,2.1,2.2,2.1c1.2,0,2.2-0.9,2.2-2.1C74.4,25.4,73.4,24.5,72.2,24.5z M72.2,19.9
					c-0.9,0-1.6,0.8-1.6,1.6c0,0.9,0.7,1.6,1.6,1.6c0.9,0,1.6-0.7,1.6-1.6C73.8,20.6,73.1,19.9,72.2,19.9z"/>
				<path class="st7" d="M89.3,29.7h-13v-1.4H82v-2.5h1.6v2.5h5.7V29.7z M86.6,21.4c-0.3,0.6-0.9,1.1-1.5,1.6c0.9,0.6,2,1.1,2.9,1.5
					c0.9,0.3,0.5,1.7-0.5,1.4c-1.3-0.4-2.6-1.1-3.8-1.9c-1.7,1-3.8,1.8-5.4,2.2c-1,0.2-1.3-1.2-0.4-1.4c3.2-0.8,5.8-2.4,6.5-3.2
					c0.3-0.3,0.4-0.5,0-0.5h-5.8v-1.4h3.3v-1.9h1.6v1.9h1.9C86.6,19.6,87.1,20.5,86.6,21.4z"/>
				<path class="st7" d="M106.2,29.7h-13v-1.4h5.7v-3.5h1.6v3.5h5.7V29.7z M104.3,25c-1.8-0.8-3.6-2.2-4.7-3.4
					c-1,1.5-2.5,2.8-4.4,3.6c-1.1,0.5-1.6-0.9-0.7-1.3c2.8-1.3,4.4-3.6,4.8-5.6l1.7,0.3c-0.1,0.5-0.3,1.1-0.6,1.6
					c1.2,1.6,3,2.8,4.4,3.5C105.8,24.1,105.2,25.4,104.3,25z"/>
				<path class="st7" d="M106.6,27c3.1-1.4,4.2-4.4,4.4-6c0-0.3-0.1-0.5-0.5-0.5h-3.8V19h4.5c1,0,1.6,0.6,1.5,1.7
					c-0.2,2.1-1.6,5.9-5.5,7.6C106.1,28.8,105.8,27.4,106.6,27z M115.5,28.9c0,1-1.6,1-1.6,0V18.5h1.6v3.7h1.8v-3.7h1.6V29
					c0,1-1.6,1-1.6,0v-5.3h-1.8V28.9z"/>
			</g>
		</g>
		<g>
			<g class="st9">
				<g>
					<path class="st10" d="M67.2,29.4c0,0.9-1.6,0.9-1.6,0v-9.3h-1.1v-1.4h1.9c0.5,0,0.7,0.2,0.7,0.6V29.4z"/>
					<path class="st10" d="M70,23.7c-0.6-0.6-1-1.3-1-2.2c0-1.7,1.4-3,3.2-3c1.7,0,3.2,1.3,3.2,3c0,0.9-0.3,1.5-1,2.2
						c1,0.7,1.6,1.7,1.6,2.9c0,2.1-1.7,3.5-3.8,3.5c-2.1,0-3.8-1.5-3.8-3.5C68.4,25.4,69,24.4,70,23.7z M72.2,24.5
						c-1.2,0-2.2,0.9-2.2,2.2c0,1.3,0.9,2.1,2.2,2.1c1.2,0,2.2-0.9,2.2-2.1C74.4,25.4,73.4,24.5,72.2,24.5z M72.2,19.9
						c-0.9,0-1.6,0.8-1.6,1.6c0,0.9,0.7,1.6,1.6,1.6c0.9,0,1.6-0.7,1.6-1.6C73.8,20.6,73.1,19.9,72.2,19.9z"/>
					<path class="st10" d="M89.3,29.7h-13v-1.4H82v-2.5h1.6v2.5h5.7V29.7z M86.6,21.4c-0.3,0.6-0.9,1.1-1.5,1.6
						c0.9,0.6,2,1.1,2.9,1.5c0.9,0.3,0.5,1.7-0.5,1.4c-1.3-0.4-2.6-1.1-3.8-1.9c-1.7,1-3.8,1.8-5.4,2.2c-1,0.2-1.3-1.2-0.4-1.4
						c3.2-0.8,5.8-2.4,6.5-3.2c0.3-0.3,0.4-0.5,0-0.5h-5.8v-1.4h3.3v-1.9h1.6v1.9h1.9C86.6,19.6,87.1,20.5,86.6,21.4z"/>
					<path class="st10" d="M106.2,29.7h-13v-1.4h5.7v-3.5h1.6v3.5h5.7V29.7z M104.3,25c-1.8-0.8-3.6-2.2-4.7-3.4
						c-1,1.5-2.5,2.8-4.4,3.6c-1.1,0.5-1.6-0.9-0.7-1.3c2.8-1.3,4.4-3.6,4.8-5.6l1.7,0.3c-0.1,0.5-0.3,1.1-0.6,1.6
						c1.2,1.6,3,2.8,4.4,3.5C105.8,24.1,105.2,25.4,104.3,25z"/>
					<path class="st10" d="M106.6,27c3.1-1.4,4.2-4.4,4.4-6c0-0.3-0.1-0.5-0.5-0.5h-3.8V19h4.5c1,0,1.6,0.6,1.5,1.7
						c-0.2,2.1-1.6,5.9-5.5,7.6C106.1,28.8,105.8,27.4,106.6,27z M115.5,28.9c0,1-1.6,1-1.6,0V18.5h1.6v3.7h1.8v-3.7h1.6V29
						c0,1-1.6,1-1.6,0v-5.3h-1.8V28.9z"/>
				</g>
			</g>
			<g>
				<g>
					<path d="M66.7,28.9c0,0.9-1.6,0.9-1.6,0v-9.3H64v-1.4h1.9c0.5,0,0.7,0.2,0.7,0.6V28.9z"/>
					<path d="M69.5,23.2c-0.6-0.6-1-1.3-1-2.2c0-1.7,1.4-3,3.2-3c1.7,0,3.2,1.3,3.2,3c0,0.9-0.3,1.5-1,2.2c1,0.7,1.6,1.7,1.6,2.9
						c0,2.1-1.7,3.5-3.8,3.5c-2.1,0-3.8-1.5-3.8-3.5C67.9,24.9,68.5,23.9,69.5,23.2z M71.7,24c-1.2,0-2.2,0.9-2.2,2.2
						c0,1.3,0.9,2.1,2.2,2.1c1.2,0,2.2-0.9,2.2-2.1C73.9,24.9,72.9,24,71.7,24z M71.7,19.4c-0.9,0-1.6,0.8-1.6,1.6
						c0,0.9,0.7,1.6,1.6,1.6c0.9,0,1.6-0.7,1.6-1.6C73.3,20.1,72.6,19.4,71.7,19.4z"/>
					<path d="M88.8,29.2h-13v-1.4h5.7v-2.5h1.6v2.5h5.7V29.2z M86.1,20.9c-0.3,0.6-0.9,1.1-1.5,1.6c0.9,0.6,2,1.1,2.9,1.5
						c0.9,0.3,0.5,1.7-0.5,1.4c-1.3-0.4-2.6-1.1-3.8-1.9c-1.7,1-3.8,1.8-5.4,2.2c-1,0.2-1.3-1.2-0.4-1.4c3.2-0.8,5.8-2.4,6.5-3.2
						c0.3-0.3,0.4-0.5,0-0.5H78v-1.4h3.3v-1.9h1.6v1.9h1.9C86.1,19.1,86.6,20,86.1,20.9z"/>
					<path d="M105.7,29.2h-13v-1.4h5.7v-3.5h1.6v3.5h5.7V29.2z M103.8,24.5c-1.8-0.8-3.6-2.2-4.7-3.4c-1,1.5-2.5,2.8-4.4,3.6
						c-1.1,0.5-1.6-0.9-0.7-1.3c2.8-1.3,4.4-3.6,4.8-5.6l1.7,0.3c-0.1,0.5-0.3,1.1-0.6,1.6c1.2,1.6,3,2.8,4.4,3.5
						C105.3,23.6,104.7,24.9,103.8,24.5z"/>
					<path d="M106.1,26.5c3.1-1.4,4.2-4.4,4.4-6c0-0.3-0.1-0.5-0.5-0.5h-3.8v-1.4h4.5c1,0,1.6,0.6,1.5,1.7c-0.2,2.1-1.6,5.9-5.5,7.6
						C105.6,28.3,105.3,26.9,106.1,26.5z M115,28.4c0,1-1.6,1-1.6,0V18h1.6v3.7h1.8V18h1.6v10.5c0,1-1.6,1-1.6,0v-5.3H115V28.4z"/>
				</g>
			</g>
		</g>
	</g>
	<g>
		<g class="st9">
			<path class="st7" d="M58.8,19.2c-1.9-1.9-5-1.9-6.9,0c-1.6,1.6-1.9,4.1-0.7,6l-1.3,1.3l1.6,1.6l1.3-1.3c1.9,1.2,4.4,0.9,6-0.7
				C60.7,24.2,60.7,21.1,58.8,19.2z M53,25c-1.3-1.3-1.3-3.4,0-4.7c1.3-1.3,3.4-1.3,4.7,0c1.3,1.3,1.3,3.4,0,4.7
				C56.4,26.3,54.3,26.3,53,25z M49.3,26.5L45.5,30l2.5,2.5l3.4-3.8L49.3,26.5z"/>
			<path class="st7" d="M55.4,20.1c-0.4,0-0.7,0.4-0.7,0.8v3.2c0,0.5,0.3,0.8,0.7,0.8c0.4,0,0.7-0.4,0.7-0.8v-3.2
				C56.1,20.5,55.8,20.1,55.4,20.1z"/>
			<path class="st7" d="M52.9,22.6c0,0.4,0.4,0.7,0.8,0.7H57c0.5,0,0.8-0.3,0.8-0.7c0-0.4-0.4-0.7-0.8-0.7h-3.2
				C53.3,21.9,52.9,22.2,52.9,22.6z"/>
		</g>
		<g>
			<g>
				<path class="st11" d="M58.3,18.7c-1.9-1.9-5-1.9-6.9,0c-1.6,1.6-1.9,4.1-0.7,6L49.3,26l1.6,1.6l1.3-1.3c1.9,1.2,4.4,0.9,6-0.7
					C60.2,23.7,60.2,20.6,58.3,18.7z M52.5,24.5c-1.3-1.3-1.3-3.4,0-4.7c1.3-1.3,3.4-1.3,4.7,0c1.3,1.3,1.3,3.4,0,4.7
					C55.9,25.8,53.8,25.8,52.5,24.5z M48.8,26L45,29.5l2.5,2.5l3.4-3.8L48.8,26z"/>
				<g>
					<g>
						<path class="st11" d="M54.9,19.6c-0.4,0-0.7,0.4-0.7,0.8v3.2c0,0.5,0.3,0.8,0.7,0.8c0.4,0,0.7-0.4,0.7-0.8v-3.2
							C55.6,20,55.3,19.6,54.9,19.6z"/>
					</g>
					<g>
						<path class="st11" d="M52.4,22.1c0,0.4,0.4,0.7,0.8,0.7h3.2c0.5,0,0.8-0.3,0.8-0.7c0-0.4-0.4-0.7-0.8-0.7h-3.2
							C52.8,21.4,52.4,21.7,52.4,22.1z"/>
					</g>
				</g>
			</g>
		</g>
	</g>
</g>
</svg>
