<?xml version="1.0" encoding="utf-8"?>
<!-- Generator: Adobe Illustrator 18.1.1, SVG Export Plug-In . SVG Version: 6.00 Build 0)  -->
<svg version="1.1" id="Layer_1" xmlns="http://www.w3.org/2000/svg" xmlns:xlink="http://www.w3.org/1999/xlink" x="0px" y="0px"
	 viewBox="0 0 432 60" style="enable-background:new 0 0 432 60;" xml:space="preserve">
<style type="text/css">
	.st0{opacity:0;}
	.st1{opacity:0.1667;}
	.st2{opacity:0.3333;}
	.st3{opacity:0.5;}
	.st4{opacity:0.6667;}
	.st5{opacity:0.8333;}
	.st6{fill:url(#SVGID_1_);}
	.st7{fill:#FFFFFF;}
	.st8{fill:#4D4D4D;}
	.st9{opacity:0.92;}
	.st10{fill:url(#SVGID_2_);}
	.st11{fill-rule:evenodd;clip-rule:evenodd;fill:#FFFFFF;}
	.st12{fill-rule:evenodd;clip-rule:evenodd;fill:#231F20;}
	.st13{fill:url(#SVGID_3_);}
	.st14{fill:#DADFE0;}
	.st15{fill:#231F20;}
	.st16{fill:url(#SVGID_4_);}
	.st17{fill:url(#SVGID_5_);}
	.st18{fill:url(#SVGID_6_);}
	.st19{fill:#2B52CC;}
	.st20{fill:url(#SVGID_7_);}
	.st21{fill:#0E68A4;}
	.st22{fill:#D0D2D3;}
	.st23{fill:#EC1C24;}
	.st24{fill:#F06162;}
	.st25{fill:#26A9E0;}
</style>
<g>
	<path class="st8" d="M417,50H14C6.3,50,0,43.7,0,36v2c0,7.7,6.3,14,14,14h403c7.7,0,14-6.3,14-14v-2C431,43.7,424.7,50,417,50z"/>
	<g>
		<path class="st0" d="M431,46c0,7.7-6.3,14-14,14H14C6.3,60,0,53.7,0,46V16C0,8.3,6.3,2,14,2h403c7.7,0,14,6.3,14,14V46z"/>
		<path class="st1" d="M431,44.7c0,7.7-6.3,14-14,14H14c-7.7,0-14-6.3-14-14V16C0,8.3,6.3,2,14,2h403c7.7,0,14,6.3,14,14V44.7z"/>
		<path class="st2" d="M431,43.3c0,7.7-6.3,14-14,14H14c-7.7,0-14-6.3-14-14V16C0,8.3,6.3,2,14,2h403c7.7,0,14,6.3,14,14V43.3z"/>
		<path class="st3" d="M431,42c0,7.7-6.3,14-14,14H14C6.3,56,0,49.7,0,42V16C0,8.3,6.3,2,14,2h403c7.7,0,14,6.3,14,14V42z"/>
		<path class="st4" d="M431,40.7c0,7.7-6.3,14-14,14H14c-7.7,0-14-6.3-14-14V16C0,8.3,6.3,2,14,2h403c7.7,0,14,6.3,14,14V40.7z"/>
		<path class="st5" d="M431,39.3c0,7.7-6.3,14-14,14H14c-7.7,0-14-6.3-14-14V16C0,8.3,6.3,2,14,2h403c7.7,0,14,6.3,14,14V39.3z"/>
		<path d="M431,38c0,7.7-6.3,14-14,14H14C6.3,52,0,45.7,0,38V16C0,8.3,6.3,2,14,2h403c7.7,0,14,6.3,14,14V38z"/>
		<linearGradient id="SVGID_1_" gradientUnits="userSpaceOnUse" x1="215.4992" y1="52" x2="215.4992" y2="2">
			<stop  offset="0" style="stop-color:#8C8C8C"/>
			<stop  offset="1" style="stop-color:#D9D9D9"/>
		</linearGradient>
		<path class="st6" d="M431,38c0,7.7-6.3,14-14,14H14C6.3,52,0,45.7,0,38V16C0,8.3,6.3,2,14,2h403c7.7,0,14,6.3,14,14V38z"/>
		<path class="st7" d="M417,2H14C6.3,2,0,8.3,0,16v2C0,10.3,6.3,4,14,4h403c7.7,0,14,6.3,14,14v-2C431,8.3,424.7,2,417,2z"/>
		<g>
			<path d="M97.1,21.7c0-2.1,1.6-3.7,3.7-3.7c1.9,0,3.3,1.2,3.6,2.9h2.5v-3h1.6v6.9c0,1-1.6,1-1.6,0v-2.5h-2.5c-0.3,1.8-1.8,3-3.7,3
				C98.7,25.4,97.1,23.8,97.1,21.7z M98.7,21.7c0,1.4,1,2.3,2.1,2.3s2.1-0.9,2.1-2.3c0-1.4-1-2.3-2.1-2.3S98.7,20.2,98.7,21.7z
				 M108.6,26.3v6.2h-5.8c-1.5,0-2.8-1.1-2.8-2.6v-3.6h1.6v1.7h5.4v-1.7H108.6z M102.9,31.1h4.1v-1.6h-5.4v0.3
				C101.6,30.8,102.3,31.1,102.9,31.1z"/>
			<path d="M121.3,25.7h-4.2v2.1h5.7v1.4h-13v-1.4h5.7v-2.1h-1.4c-1.5,0-2.5-1-2.5-2.4v-2.1h7.8v-1.5h-7.8v-1.4h9.4v4.4h-7.8v0.7
				c0,0.8,0.5,1,1,1h7.1V25.7z"/>
			<path d="M136.1,29.1h-13v-1.4h13V29.1z M125,18.3h9.2v1.4h-7.6v2.8c0,0.7,0.3,0.9,1,0.9h7V25h-7.2c-1.3,0-2.3-0.9-2.3-2.3V18.3z"
				/>
			<path d="M147.3,31.1c0,1-1.6,1-1.6,0v-3.3H140v-1.4h13v1.4h-5.7V31.1z M151.7,20.1h-2.1c0.4,0.6,0.7,1.2,0.7,2
				c0,1.9-1.6,3.4-3.8,3.4s-3.8-1.5-3.8-3.4c0-0.7,0.3-1.4,0.7-2h-2.1v-1.4h4.4v-1.5h1.6v1.5h4.4V20.1z M144.3,22.1c0,1.2,1,2,2.2,2
				c1.2,0,2.2-0.8,2.2-2c0-1.2-0.9-1.9-2.1-2h-0.2C145.3,20.2,144.3,20.9,144.3,22.1z"/>
			<path d="M164.3,20.9h-7.4v-1.4h3v-2.1h1.6v2.1h2.8V20.9z M157.4,25.1c0-1.8,1.4-3.3,3.3-3.3c1.9,0,3.3,1.5,3.3,3.3
				c0,1.8-1.4,3.3-3.3,3.3C158.7,28.4,157.4,26.9,157.4,25.1z M158.9,25.1c0,1.1,0.8,1.9,1.8,1.9c0.9,0,1.8-0.8,1.8-1.9
				c0-1.1-0.8-1.9-1.8-1.9C159.7,23.2,158.9,23.9,158.9,25.1z M166.6,28.4c0,1-1.6,1-1.6,0V18.1h1.6v4.1h1.7v-4.1h1.6v10.5
				c0,1-1.6,1-1.6,0v-5h-1.7V28.4z"/>
			<path d="M170.6,26.5c2.6-2,3.8-5.7,3.8-8.2h1.7c0,1.2-0.3,2.5-0.8,3.9c1,1.6,2.3,3,3.4,3.8c0.8,0.6,0,1.8-0.9,1.2
				c-1.2-0.8-2.4-2-3.2-3.3c-0.7,1.4-1.7,2.7-3,3.7C170.6,28.4,169.8,27.1,170.6,26.5z M182.5,28.6c0,1-1.6,1-1.6,0V18.1h1.6V28.6z"
				/>
			<path d="M190.6,28.2H187c-1.6,0-2.8-1.1-2.8-2.7v-7.1h5.8v1.4h-4.2v2.1h4.1v1.4h-4.1v1.9c0,1.1,0.7,1.4,1.4,1.4h3.5V28.2z
				 M193,28.4c0,1-1.6,1-1.6,0V18.1h1.6v4.1h1.8v-4.1h1.6v10.5c0,1-1.6,1-1.6,0v-5H193V28.4z"/>
			<path d="M210.2,29.1h-13v-1.4h13V29.1z M208.2,25.2c0,1-1.6,1-1.6,0v-4.8c0-0.5-0.1-0.6-0.7-0.6h-6.9v-1.4h7.6
				c1.1,0,1.6,0.4,1.6,1.5V25.2z"/>
			<path class="st19" d="M224.5,20.4h1.7v1.7h-2.2l-0.9,2.8h2.6v1.7h-3.1l-0.9,2.9c-0.4,1.2-2.1,0.8-1.7-0.4l0.8-2.5h-1.9l-0.9,2.9
				c-0.4,1.3-2.1,0.8-1.7-0.4l0.8-2.5h-1.3v-1.7h1.8l0.9-2.8H216v-1.7h2.8l0.9-2.8h1.9l-0.9,2.8h1.9l0.9-2.8h1.9L224.5,20.4z
				 M219.2,24.9h1.9l0.9-2.8h-1.9L219.2,24.9z"/>
			<path class="st19" d="M229,28.9v-9.1h-1.1v-1.6h2.1c0.7,0,0.9,0.2,0.9,0.8v10C230.9,30,229,30,229,28.9z"/>
			<path class="st19" d="M237.4,29.8c-2.1,0-3.9-1.5-3.9-3.6c0-1.2,0.6-2.2,1.6-2.9c-0.6-0.6-0.9-1.3-0.9-2.2c0-1.8,1.5-3.1,3.3-3.1
				c1.8,0,3.3,1.3,3.3,3.1c0,0.8-0.3,1.5-1,2.2c1,0.7,1.6,1.7,1.6,2.9C241.3,28.3,239.5,29.8,237.4,29.8z M237.4,24.1
				c-1.2,0-2,0.9-2,2c0,1.2,0.9,2,2,2c1.1,0,2-0.8,2-2C239.4,25,238.4,24.1,237.4,24.1z M237.4,19.6c-0.8,0-1.4,0.7-1.4,1.5
				c0,0.8,0.6,1.4,1.4,1.4c0.8,0,1.4-0.7,1.4-1.4C238.8,20.3,238.1,19.6,237.4,19.6z"/>
			<path class="st19" d="M246.6,29.6c-1.4,0-2.8-0.8-3.6-2.2c-0.6-1.1,1.1-1.9,1.6-0.9c0.4,0.7,1.2,1.3,1.8,1.3
				c1.3,0.1,2.1-0.6,2.1-1.7c0-1-0.8-1.3-2.2-1.8c-1.8-0.6-3.5-1.4-3.3-3.6c0.2-1.9,1.9-2.8,3.5-2.8c1.2,0,2.7,0.5,3.5,1.9l-1.3,1.1
				c-0.5-0.8-1.2-1.3-2-1.3c-1.1,0-1.7,0.5-1.7,1.2c-0.1,0.8,0.7,1.5,1.9,1.8c2.1,0.6,3.6,1.5,3.6,3.3
				C250.4,28.2,248.7,29.7,246.6,29.6z"/>
			<path d="M265.3,26H252v-1.4h13.3V26z M263.6,23.8H256c-1.1,0-2.1-0.7-2.1-1.9V20h7.9v-0.8h-7.9v-1.4h9.5v3.6h-7.9v0.3
				c0,0.4,0.3,0.5,0.7,0.5h7.5V23.8z M263.7,32.8h-7.6c-1.1,0-2.1-0.7-2.1-2v-1.8h7.6v-0.7h-7.6v-1.4h9.2v3.6h-7.6v0.3
				c0,0.4,0.3,0.5,0.7,0.5h7.4V32.8z"/>
			<path d="M282.5,25.7h-5.8v1.2h3.8v1.4h-7.6v0.7h7.5v1.4h-7.5c0,0.7,0.4,0.8,1,0.8h6.9v1.4h-7.1c-1.5,0-2.4-0.9-2.4-2.3v-3.4h3.8
				v-1.2h-5.9v-1.4h13.3V25.7z M280.6,17.8v5.7h-7.4c-1.3,0-2.2-0.8-2.2-2.1v-3.5h1.6v1.4h6.4v-1.4H280.6z M273.5,22h5.5v-1.4h-6.4
				v0.6C272.7,21.8,272.9,22,273.5,22z"/>
			<path d="M283,22.3c0-2.4,1.7-4.1,3.9-4.1s3.9,1.7,3.9,4.1c0,2.4-1.7,4.1-3.9,4.1S283,24.7,283,22.3z M284.6,22.3
				c0,1.7,1.1,2.6,2.3,2.6s2.3-0.9,2.3-2.6s-1.1-2.6-2.3-2.6S284.6,20.6,284.6,22.3z M294.8,28.6c0,1-1.6,1-1.6,0v-3.8h-2.3v-1.4
				h2.3v-2.1h-2.4v-1.4h2.4v-1.7h1.6V28.6z"/>
			<path d="M303.3,31c0,1-1.6,1-1.6,0v-3.6H296v-1.4h13v1.4h-5.7V31z M306,19.9c-0.3,0.6-0.8,1.1-1.3,1.5c0.9,0.6,2,1.1,2.9,1.4
				c1,0.4,0.6,1.7-0.5,1.4c-1.2-0.4-2.6-1.1-3.8-1.8c-1.6,1-3.7,1.7-5.4,2c-1.1,0.2-1.2-1.2-0.3-1.4c3.3-0.7,5.7-2.3,6.3-2.9
				c0.3-0.4,0.3-0.4-0.2-0.4h-5.5v-1.4h6.6C306.1,18.2,306.5,19,306,19.9z"/>
			<path d="M314.9,27.2c-0.9-0.8-1.7-1.8-2.4-2.9c-0.6,1.3-1.5,2.5-2.5,3.3c-0.9,0.7-1.8-0.4-1-1.1c2.2-2,3.2-5.7,3.3-8.2h1.7
				c0,1.2-0.3,2.8-0.8,4.2c0.8,1.5,1.7,2.8,2.6,3.6C316.7,26.8,315.8,28,314.9,27.2z M319.2,28.4c0,1-1.6,1-1.6,0V23h-2.5v-1.4h2.5
				v-3.5h1.6V28.4z M322.2,28.6c0,1-1.6,1-1.6,0V18.1h1.6V28.6z"/>
			<path d="M336,29.2h-13v-1.4h3.3v-2.4h1.6v2.4h3.1v-2.4h1.6v2.4h3.3V29.2z M325.4,21.6c0-2.1,1.7-3.8,4.1-3.8
				c2.4,0,4.1,1.6,4.1,3.8c0,2.1-1.7,3.8-4.1,3.8C327.1,25.4,325.4,23.7,325.4,21.6z M327,21.6c0,1.5,1.1,2.4,2.5,2.4
				c1.3,0,2.5-0.9,2.5-2.4c0-1.5-1.1-2.4-2.5-2.4C328.1,19.2,327,20.1,327,21.6z"/>
		</g>
	</g>
</g>
<path class="st21" d="M78.7,27.1c0,4.6-2.4,8.5-6.1,10.7c-1.9,1.1-4,1.7-6.3,1.7c-6.9,0-12.4-5.6-12.4-12.4
	c0-6.9,5.6-12.4,12.4-12.4c6.5,0,11.9,5.1,12.4,11.5C78.7,26.5,78.7,26.8,78.7,27.1z"/>
<g>
	<path class="st7" d="M64.2,25.2c0,0,2.9-3,3.3-3.4c0.3-0.4,1.1-0.9,1.6-0.6c0.5,0.4,0.4,0.8,0.1,1.3c-0.3,0.5-1.7,2.8-1.7,2.8h4.2
		c0.3,0,0.8,0.2,0.8,0.9c0,0.6-0.5,0.9-0.8,0.9c0,0,0.7,0.2,0.7,1c0,0.8-0.8,0.8-0.9,0.8c0,0,0.6,0.1,0.6,0.9c0,0.8-0.8,0.9-1,0.8
		c0,0,0.6,0.1,0.6,0.8c0,0.6-0.6,0.8-1,0.8h-6.4V25.2z"/>
	<path class="st7" d="M61.3,25v7c0,0-0.1,0.6,0.3,0.7c0.4,0,1.9,0,1.9,0s0.6-0.3,0.6-0.6c0.1-0.4,0-7,0-7s-0.2-0.4-0.5-0.4
		c-0.3,0-1.9,0-1.9,0S61.3,24.8,61.3,25z"/>
</g>
<path class="st25" d="M51.7,26.8c0,3.9-1.8,7.3-4.6,9.6c-2.1,1.7-4.8,2.7-7.7,2.7c-6.8,0-12.3-5.5-12.3-12.3
	c0-6.8,5.5-12.3,12.3-12.3c6,0,11.1,4.3,12.1,10.1C51.6,25.3,51.7,26,51.7,26.8z"/>
<path class="st7" d="M33,22.1c0,0,1.7,5.6,5.2,6.2c0,0,2.3,0.6,3.1-1.3c0.7-1.9-1.4-3.1-2.5-3.1C37.7,24,34.8,24.6,33,22.1z"/>
<path class="st7" d="M47,22.7l-1.9,0.3c-0.5-1.9-2.3-2.6-4.1-2c-1.3,0.4-2.1,1.7-2.3,2.4c0,0,0,0,0,0c0.8,0,1.9,0.5,2.6,1.4
	c0.2,0.3,0.4,0.7,0.4,1c0.1,0.4,0,0.8-0.2,1.2c-0.4,1.1-1.4,1.7-2.7,1.7c-0.5,0-0.8-0.1-0.9-0.1c-0.4-0.1-0.7-0.2-1.1-0.3
	c-2.3,1.2-5.4,0.1-5.4,0.1c0.6,0.6,1.9,1.2,1.9,1.2c11.1,3.5,11.8-5.3,11.8-5.3l1.7,0.3l-1.6-1L47,22.7z M42.8,22.9
	c-0.3,0-0.5-0.2-0.5-0.5c0-0.3,0.2-0.5,0.5-0.5c0.3,0,0.5,0.2,0.5,0.5C43.3,22.7,43.1,22.9,42.8,22.9z"/>
</svg>
