<?xml version="1.0" encoding="utf-8"?>
<!-- Generator: Adobe Illustrator 18.1.1, SVG Export Plug-In . SVG Version: 6.00 Build 0)  -->
<svg version="1.1" id="Layer_1" xmlns="http://www.w3.org/2000/svg" xmlns:xlink="http://www.w3.org/1999/xlink" x="0px" y="0px"
	 viewBox="0 0 165 60" style="enable-background:new 0 0 165 60;" xml:space="preserve">
<style type="text/css">
	.st0{opacity:0;}
	.st1{opacity:0.1667;}
	.st2{opacity:0.3333;}
	.st3{opacity:0.5;}
	.st4{opacity:0.6667;}
	.st5{opacity:0.8333;}
	.st6{fill:url(#SVGID_1_);}
	.st7{fill:#FFFFFF;}
	.st8{fill:#4D4D4D;}
	.st9{opacity:0.92;}
	.st10{fill:none;}
	.st11{font-family:'KoreanSMI-M-KSCpc-EUC-H';}
	.st12{font-size:16;}
	.st13{fill:#DADFE0;}
	.st14{fill:#1A1A1A;}
</style>
<g>
	<g>
		<g>
			<path class="st0" d="M165,45c0,7.7-6.3,14-14,14H15C7.3,59,1,52.7,1,45V15C1,7.3,7.3,1,15,1h136c7.7,0,14,6.3,14,14V45z"/>
			<path class="st1" d="M165,43.7c0,7.7-6.3,14-14,14H15c-7.7,0-14-6.3-14-14V15C1,7.3,7.3,1,15,1h136c7.7,0,14,6.3,14,14V43.7z"/>
			<path class="st2" d="M165,42.3c0,7.7-6.3,14-14,14H15c-7.7,0-14-6.3-14-14V15C1,7.3,7.3,1,15,1h136c7.7,0,14,6.3,14,14V42.3z"/>
			<path class="st3" d="M165,41c0,7.7-6.3,14-14,14H15C7.3,55,1,48.7,1,41V15C1,7.3,7.3,1,15,1h136c7.7,0,14,6.3,14,14V41z"/>
			<path class="st4" d="M165,39.7c0,7.7-6.3,14-14,14H15c-7.7,0-14-6.3-14-14V15C1,7.3,7.3,1,15,1h136c7.7,0,14,6.3,14,14V39.7z"/>
			<path class="st5" d="M165,38.3c0,7.7-6.3,14-14,14H15c-7.7,0-14-6.3-14-14V15C1,7.3,7.3,1,15,1h136c7.7,0,14,6.3,14,14V38.3z"/>
			<path d="M165,37c0,7.7-6.3,14-14,14H15C7.3,51,1,44.7,1,37V15C1,7.3,7.3,1,15,1h136c7.7,0,14,6.3,14,14V37z"/>
		</g>
		<linearGradient id="SVGID_1_" gradientUnits="userSpaceOnUse" x1="83" y1="51" x2="83" y2="1">
			<stop  offset="0" style="stop-color:#8C8C8C"/>
			<stop  offset="1" style="stop-color:#D9D9D9"/>
		</linearGradient>
		<path class="st6" d="M165,37c0,7.7-6.3,14-14,14H15C7.3,51,1,44.7,1,37V15C1,7.3,7.3,1,15,1h136c7.7,0,14,6.3,14,14V37z"/>
		<path class="st7" d="M151,1H15C7.3,1,1,7.3,1,15v2C1,9.3,7.3,3,15,3h136c7.7,0,14,6.3,14,14v-2C165,7.3,158.7,1,151,1z"/>
		<path class="st8" d="M151,49H15C7.3,49,1,42.7,1,35v2c0,7.7,6.3,14,14,14h136c7.7,0,14-6.3,14-14v-2C165,42.7,158.7,49,151,49z"/>
	</g>
	<g>
		<g class="st9">
			<rect x="73.8" y="19.2" class="st10" width="192.9" height="55.5"/>
			<text transform="matrix(1 0 0 1 73.7607 32.0059)" class="st7 st11 st12">HOME</text>
			<rect x="73.3" y="18.7" class="st10" width="192.9" height="55.5"/>
			<text transform="matrix(1 0 0 1 73.2607 31.5059)" class="st7 st11 st12">HOME</text>
		</g>
		<g>
			<g class="st9">
				<rect x="73.3" y="18.7" class="st10" width="192.9" height="55.5"/>
				<text transform="matrix(1 0 0 1 73.2607 31.5059)" class="st13 st11 st12">HOME</text>
			</g>
			<g>
				<g>
					<rect x="72.8" y="18.2" class="st10" width="192.9" height="55.5"/>
					<text transform="matrix(1 0 0 1 72.7607 31.0059)" class="st11 st12">HOME</text>
				</g>
			</g>
		</g>
	</g>
	<g>
		<g class="st9">
			<path class="st7" d="M60.9,20.7c-0.3-0.2-0.9-0.2-1.2,0L54.8,24c-0.3,0.2-0.6,0.7-0.6,1.1v5.5c0,0.4,0.3,0.7,0.7,0.7h2.3
				c0.4,0,0.7-0.3,0.7-0.7v-3.8c0-0.4,0.3-0.7,0.7-0.7h3.6c0.4,0,0.7,0.3,0.7,0.7v3.8c0,0.4,0.3,0.7,0.7,0.7h2.3
				c0.4,0,0.7-0.3,0.7-0.7v-5.3c0-0.4-0.3-0.9-0.6-1.1L60.9,20.7z"/>
			<path class="st7" d="M67.2,22.5c-0.3-0.2-0.6-0.7-0.6-1.1v-1.1c0-0.4-0.3-0.7-0.7-0.7h-0.1c-0.4,0-0.7,0.3-0.7,0.7v0.1
				c0,0.4-0.3,0.5-0.6,0.3l-3.5-2.3c-0.3-0.2-0.6-0.4-0.6-0.4c0,0-0.3,0.2-0.7,0.4l-6.4,4.3c-0.3,0.2-0.4,0.6-0.3,0.9
				c0.2,0.3,0.6,0.3,0.9,0.1l5.9-3.9c0.3-0.2,0.9-0.2,1.2,0l6.1,4.1c0.3,0.2,0.7,0.2,0.9-0.1c0.2-0.3,0-0.7-0.3-0.9L67.2,22.5z"/>
			<path class="st7" d="M60.4,20.2c-0.3-0.2-0.9-0.2-1.2,0l-4.9,3.2c-0.3,0.2-0.6,0.7-0.6,1.1v5.5c0,0.4,0.3,0.7,0.7,0.7h2.3
				c0.4,0,0.7-0.3,0.7-0.7v-3.8c0-0.4,0.3-0.7,0.7-0.7h3.6c0.4,0,0.7,0.3,0.7,0.7v3.8c0,0.4,0.3,0.7,0.7,0.7h2.3
				c0.4,0,0.7-0.3,0.7-0.7v-5.3c0-0.4-0.3-0.9-0.6-1.1L60.4,20.2z"/>
			<path class="st7" d="M66.7,22c-0.3-0.2-0.6-0.7-0.6-1.1v-1.1c0-0.4-0.3-0.7-0.7-0.7h-0.1c-0.4,0-0.7,0.3-0.7,0.7v0.1
				c0,0.4-0.3,0.5-0.6,0.3l-3.5-2.3c-0.3-0.2-0.6-0.4-0.6-0.4c0,0-0.3,0.2-0.7,0.4l-6.4,4.3c-0.3,0.2-0.4,0.6-0.3,0.9
				c0.2,0.3,0.6,0.3,0.9,0.1l5.9-3.9c0.3-0.2,0.9-0.2,1.2,0l6.1,4.1c0.3,0.2,0.7,0.2,0.9-0.1c0.2-0.3,0-0.7-0.3-0.9L66.7,22z"/>
		</g>
		<g>
			<g>
				<g>
					<g class="st9">
						<path class="st13" d="M60.4,20.2c-0.3-0.2-0.9-0.2-1.2,0l-4.9,3.2c-0.3,0.2-0.6,0.7-0.6,1.1v5.5c0,0.4,0.3,0.7,0.7,0.7h2.3
							c0.4,0,0.7-0.3,0.7-0.7v-3.8c0-0.4,0.3-0.7,0.7-0.7h3.6c0.4,0,0.7,0.3,0.7,0.7v3.8c0,0.4,0.3,0.7,0.7,0.7h2.3
							c0.4,0,0.7-0.3,0.7-0.7v-5.3c0-0.4-0.3-0.9-0.6-1.1L60.4,20.2z"/>
						<path class="st13" d="M66.7,22c-0.3-0.2-0.6-0.7-0.6-1.1v-1.1c0-0.4-0.3-0.7-0.7-0.7h-0.1c-0.4,0-0.7,0.3-0.7,0.7v0.1
							c0,0.4-0.3,0.5-0.6,0.3l-3.5-2.3c-0.3-0.2-0.6-0.4-0.6-0.4c0,0-0.3,0.2-0.7,0.4l-6.4,4.3c-0.3,0.2-0.4,0.6-0.3,0.9
							c0.2,0.3,0.6,0.3,0.9,0.1l5.9-3.9c0.3-0.2,0.9-0.2,1.2,0l6.1,4.1c0.3,0.2,0.7,0.2,0.9-0.1c0.2-0.3,0-0.7-0.3-0.9L66.7,22z"/>
					</g>
					<g>
						<g>
							<g>
								<path class="st14" d="M59.9,19.7c-0.3-0.2-0.9-0.2-1.2,0L53.8,23c-0.3,0.2-0.6,0.7-0.6,1.1v5.5c0,0.4,0.3,0.7,0.7,0.7h2.3
									c0.4,0,0.7-0.3,0.7-0.7v-3.8c0-0.4,0.3-0.7,0.7-0.7h3.6c0.4,0,0.7,0.3,0.7,0.7v3.8c0,0.4,0.3,0.7,0.7,0.7h2.3
									c0.4,0,0.7-0.3,0.7-0.7v-5.3c0-0.4-0.3-0.9-0.6-1.1L59.9,19.7z"/>
							</g>
							<g>
								<path class="st14" d="M66.2,21.5c-0.3-0.2-0.6-0.7-0.6-1.1v-1.1c0-0.4-0.3-0.7-0.7-0.7h-0.1c-0.4,0-0.7,0.3-0.7,0.7v0.1
									c0,0.4-0.3,0.5-0.6,0.3l-3.5-2.3c-0.3-0.2-0.6-0.4-0.6-0.4c0,0-0.3,0.2-0.7,0.4l-6.4,4.3c-0.3,0.2-0.4,0.6-0.3,0.9
									c0.2,0.3,0.6,0.3,0.9,0.1l5.9-3.9c0.3-0.2,0.9-0.2,1.2,0l6.1,4.1c0.3,0.2,0.7,0.2,0.9-0.1c0.2-0.3,0-0.7-0.3-0.9L66.2,21.5z
									"/>
							</g>
						</g>
					</g>
				</g>
			</g>
		</g>
	</g>
</g>
</svg>
