<?xml version="1.0" encoding="utf-8"?>
<!-- Generator: Adobe Illustrator 18.1.1, SVG Export Plug-In . SVG Version: 6.00 Build 0)  -->
<svg version="1.1" id="Layer_1" xmlns="http://www.w3.org/2000/svg" xmlns:xlink="http://www.w3.org/1999/xlink" x="0px" y="0px"
	 viewBox="0 0 165 60" style="enable-background:new 0 0 165 60;" xml:space="preserve">
<style type="text/css">
	.st0{opacity:0;}
	.st1{opacity:0.1667;}
	.st2{opacity:0.3333;}
	.st3{opacity:0.5;}
	.st4{opacity:0.6667;}
	.st5{opacity:0.8333;}
	.st6{fill:url(#SVGID_1_);}
	.st7{fill:#FFFFFF;}
	.st8{fill:#4D4D4D;}
	.st9{opacity:0.92;}
	.st10{fill:#DADFE0;}
	.st11{fill:#1A1A1A;}
</style>
<g>
	<g>
		<g>
			<path class="st0" d="M164.7,44c0,7.7-6.3,14-14,14h-136c-7.7,0-14-6.3-14-14V14c0-7.7,6.3-14,14-14h136c7.7,0,14,6.3,14,14V44z"
				/>
			<path class="st1" d="M164.7,42.7c0,7.7-6.3,14-14,14h-136c-7.7,0-14-6.3-14-14V14c0-7.7,6.3-14,14-14h136c7.7,0,14,6.3,14,14
				V42.7z"/>
			<path class="st2" d="M164.7,41.3c0,7.7-6.3,14-14,14h-136c-7.7,0-14-6.3-14-14V14c0-7.7,6.3-14,14-14h136c7.7,0,14,6.3,14,14
				V41.3z"/>
			<path class="st3" d="M164.7,40c0,7.7-6.3,14-14,14h-136c-7.7,0-14-6.3-14-14V14c0-7.7,6.3-14,14-14h136c7.7,0,14,6.3,14,14V40z"
				/>
			<path class="st4" d="M164.7,38.7c0,7.7-6.3,14-14,14h-136c-7.7,0-14-6.3-14-14V14c0-7.7,6.3-14,14-14h136c7.7,0,14,6.3,14,14
				V38.7z"/>
			<path class="st5" d="M164.7,37.3c0,7.7-6.3,14-14,14h-136c-7.7,0-14-6.3-14-14V14c0-7.7,6.3-14,14-14h136c7.7,0,14,6.3,14,14
				V37.3z"/>
			<path d="M164.7,36c0,7.7-6.3,14-14,14h-136c-7.7,0-14-6.3-14-14V14c0-7.7,6.3-14,14-14h136c7.7,0,14,6.3,14,14V36z"/>
		</g>
		<linearGradient id="SVGID_1_" gradientUnits="userSpaceOnUse" x1="82.6621" y1="50" x2="82.6621" y2="-6.256323e-08">
			<stop  offset="0" style="stop-color:#8C8C8C"/>
			<stop  offset="1" style="stop-color:#D9D9D9"/>
		</linearGradient>
		<path class="st6" d="M164.7,36c0,7.7-6.3,14-14,14h-136c-7.7,0-14-6.3-14-14V14c0-7.7,6.3-14,14-14h136c7.7,0,14,6.3,14,14V36z"/>
		<path class="st7" d="M150.7,0h-136C7,0,0.7,6.3,0.7,14v2c0-7.7,6.3-14,14-14h136c7.7,0,14,6.3,14,14v-2C164.7,6.3,158.4,0,150.7,0
			z"/>
		<path class="st8" d="M150.7,48h-136c-7.7,0-14-6.3-14-14v2c0,7.7,6.3,14,14,14h136c7.7,0,14-6.3,14-14v-2
			C164.7,41.7,158.4,48,150.7,48z"/>
	</g>
	<g>
		<g class="st9">
			<path class="st7" d="M62.7,23.8c0.6,1.1,1.3,1.9,2,2.5c0.2,0.2,0.3,0.3,0.3,0.5c0,0.2,0,0.4-0.1,0.5c-0.1,0.1-0.3,0.2-0.4,0.3
				c-0.2,0-0.4,0-0.6-0.2c-0.7-0.6-1.4-1.3-2-2.2c-0.9,1.2-1.9,2.1-3,2.8c-0.4,0.2-0.7,0.2-0.9,0.1c-0.2-0.1-0.3-0.3-0.4-0.6
				c0-0.3,0.1-0.5,0.4-0.6c0.8-0.4,1.5-1,2.2-1.8c0.6-0.8,1.1-1.5,1.4-2.2c0.3-0.7,0.5-1.2,0.6-1.7c0.1-0.4-0.1-0.6-0.6-0.6h-3.3V19
				h4c0.7,0,1.1,0.2,1.4,0.5c0.2,0.3,0.3,0.7,0.2,1.2C63.7,21.6,63.3,22.7,62.7,23.8z M67.4,29.5c-0.3,0.1-0.5,0.1-0.8,0
				s-0.4-0.4-0.4-0.7v-5.2h-2.1v-1.4h2.1v-3.7h1.6v10.3C67.8,29.1,67.7,29.3,67.4,29.5z M70.2,29.6c-0.3,0.1-0.5,0.1-0.8,0
				C69.1,29.5,69,29.3,69,29V18.5h1.6V29C70.6,29.3,70.5,29.5,70.2,29.6z"/>
			<path class="st7" d="M77.2,22.9c0.7,0.6,1.5,1.1,2.4,1.5c0.3,0.1,0.4,0.3,0.4,0.6c0,0.3-0.1,0.5-0.3,0.7
				c-0.2,0.2-0.5,0.2-0.8,0.1c-1-0.4-2-1-2.8-1.8c-1.2,1.1-2.5,1.9-3.9,2.3c-0.3,0.1-0.6,0.1-0.8-0.1c-0.2-0.2-0.3-0.4-0.2-0.6
				c0-0.2,0.2-0.4,0.5-0.5c1.4-0.5,2.4-1.1,3.3-1.9c0.8-0.8,1.4-1.6,1.6-2.3c0.1-0.2,0.1-0.3,0-0.4c-0.1-0.1-0.2-0.1-0.5-0.1h-4.1
				v-1.4H77c0.7,0,1.1,0.2,1.4,0.5c0.2,0.3,0.3,0.7,0.2,1.2C78.3,21.3,77.8,22.1,77.2,22.9z M82.5,32.9c-0.3,0.1-0.5,0.1-0.8,0
				c-0.3-0.1-0.4-0.4-0.4-0.7v-3.2h-7v-1.4h8.1c0.2,0,0.3,0,0.4,0.1c0.1,0.1,0.1,0.2,0.1,0.4v4.1C82.9,32.6,82.8,32.8,82.5,32.9z
				 M82.5,26.6c-0.3,0.1-0.5,0.1-0.8,0c-0.3-0.1-0.4-0.4-0.4-0.7v-7.6h1.6v3.1h2v1.4h-2v3.1C82.9,26.3,82.8,26.5,82.5,26.6z"/>
			<path class="st7" d="M90.5,23c0.7,0.8,1.5,1.5,2.4,1.9c0.2,0.2,0.4,0.4,0.4,0.6c0,0.3-0.1,0.5-0.3,0.6c-0.2,0.2-0.5,0.1-0.8,0
				c-1-0.5-1.8-1.2-2.7-2c-1.2,1.1-2.4,2-3.9,2.5c-0.3,0.1-0.5,0.1-0.7-0.1c-0.2-0.2-0.3-0.4-0.2-0.6c0-0.3,0.2-0.4,0.4-0.6
				c0.9-0.4,1.8-0.9,2.5-1.5c0.7-0.6,1.3-1.1,1.6-1.6c0.3-0.5,0.6-0.9,0.8-1.4c0.1-0.2,0.1-0.3,0-0.4c-0.1-0.1-0.2-0.1-0.5-0.1h-4.1
				v-1.4h4.9c0.7,0,1.1,0.2,1.4,0.5c0.2,0.3,0.3,0.7,0.2,1.2C91.6,21.2,91.2,22.1,90.5,23z M90.5,32.7c-0.8,0-1.5-0.3-2-0.8
				c-0.5-0.5-0.8-1.2-0.8-2v-2.3h1.6v2.2c0,0.5,0.1,0.9,0.4,1.1c0.3,0.2,0.6,0.3,1,0.3h6v1.4H90.5z M96.2,28c-0.3,0.1-0.5,0.1-0.8,0
				c-0.3-0.1-0.4-0.4-0.4-0.7v-9h1.6v9C96.6,27.7,96.5,27.9,96.2,28z"/>
			<path class="st7" d="M105.8,18.4l-6.3,11.3c-0.1,0.2-0.3,0.4-0.5,0.5c-0.2,0.1-0.4,0-0.6-0.1c-0.2-0.1-0.3-0.2-0.4-0.4
				C98,29.5,98,29.3,98.2,29l5.9-10.6H105.8z"/>
			<path class="st7" d="M108.2,29.3c0,0.3-0.1,0.5-0.4,0.6c-0.3,0.1-0.5,0.1-0.8,0c-0.3-0.1-0.4-0.3-0.4-0.6V18.6h1.5l3.2,8l3.3-8
				h1.4v10.7c0,0.3-0.1,0.5-0.4,0.6c-0.3,0.1-0.5,0.1-0.8,0c-0.3-0.1-0.4-0.3-0.4-0.6v-6.6l-2.5,5.9c-0.1,0.3-0.4,0.4-0.7,0.4
				c-0.3,0-0.6-0.2-0.7-0.4l-2.5-5.9V29.3z"/>
			<path class="st7" d="M123.8,29.3c-0.7,0.5-1.5,0.7-2.4,0.7c-1.3,0-2.4-0.6-3.3-1.7c-0.9-1.1-1.3-2.5-1.3-4.1c0-1.6,0.4-2.9,1.3-4
				c0.9-1.1,2-1.6,3.4-1.6c0.8,0,1.6,0.2,2.3,0.6c0.7,0.4,1.2,1,1.6,1.8l-1.2,0.9c-0.6-1.3-1.5-1.9-2.6-1.9c-0.9,0-1.7,0.4-2.3,1.2
				c-0.6,0.8-0.9,1.8-0.9,3c0,1.2,0.3,2.2,0.9,3.1c0.6,0.9,1.3,1.3,2.2,1.3c1.2,0,2.2-0.7,2.8-2c0.1-0.2,0.2-0.3,0.4-0.3
				c0.2,0,0.4,0,0.5,0.1c0.2,0.1,0.3,0.2,0.4,0.4c0.1,0.2,0.1,0.4,0,0.6C125.1,28.2,124.5,28.9,123.8,29.3z"/>
			<path class="st7" d="M62.2,23.3c0.6,1.1,1.3,1.9,2,2.5c0.2,0.2,0.3,0.3,0.3,0.5c0,0.2,0,0.4-0.1,0.5c-0.1,0.1-0.3,0.2-0.4,0.3
				c-0.2,0-0.4,0-0.6-0.2c-0.7-0.6-1.4-1.3-2-2.2c-0.9,1.2-1.9,2.1-3,2.8c-0.4,0.2-0.7,0.2-0.9,0.1c-0.2-0.1-0.3-0.3-0.4-0.6
				c0-0.3,0.1-0.5,0.4-0.6c0.8-0.4,1.5-1,2.2-1.8c0.6-0.8,1.1-1.5,1.4-2.2c0.3-0.7,0.5-1.2,0.6-1.7c0.1-0.4-0.1-0.6-0.6-0.6h-3.3
				v-1.4h4c0.7,0,1.1,0.2,1.4,0.5c0.2,0.3,0.3,0.7,0.2,1.2C63.2,21.1,62.8,22.2,62.2,23.3z M66.9,29c-0.3,0.1-0.5,0.1-0.8,0
				s-0.4-0.4-0.4-0.7v-5.2h-2.1v-1.4h2.1V18h1.6v10.3C67.3,28.6,67.2,28.8,66.9,29z M69.7,29.1c-0.3,0.1-0.5,0.1-0.8,0
				c-0.3-0.1-0.4-0.4-0.4-0.7V18h1.6v10.5C70.1,28.8,70,29,69.7,29.1z"/>
			<path class="st7" d="M76.7,22.4c0.7,0.6,1.5,1.1,2.4,1.5c0.3,0.1,0.4,0.3,0.4,0.6c0,0.3-0.1,0.5-0.3,0.7
				c-0.2,0.2-0.5,0.2-0.8,0.1c-1-0.4-2-1-2.8-1.8c-1.2,1.1-2.5,1.9-3.9,2.3c-0.3,0.1-0.6,0.1-0.8-0.1c-0.2-0.2-0.3-0.4-0.2-0.6
				c0-0.2,0.2-0.4,0.5-0.5c1.4-0.5,2.4-1.1,3.3-1.9c0.8-0.8,1.4-1.6,1.6-2.3c0.1-0.2,0.1-0.3,0-0.4c-0.1-0.1-0.2-0.1-0.5-0.1h-4.1
				v-1.4h4.9c0.7,0,1.1,0.2,1.4,0.5c0.2,0.3,0.3,0.7,0.2,1.2C77.8,20.8,77.3,21.6,76.7,22.4z M82,32.4c-0.3,0.1-0.5,0.1-0.8,0
				c-0.3-0.1-0.4-0.4-0.4-0.7v-3.2h-7v-1.4h8.1c0.2,0,0.3,0,0.4,0.1c0.1,0.1,0.1,0.2,0.1,0.4v4.1C82.4,32.1,82.3,32.3,82,32.4z
				 M82,26.1c-0.3,0.1-0.5,0.1-0.8,0c-0.3-0.1-0.4-0.4-0.4-0.7v-7.6h1.6v3.1h2v1.4h-2v3.1C82.4,25.8,82.3,26,82,26.1z"/>
			<path class="st7" d="M90,22.5c0.7,0.8,1.5,1.5,2.4,1.9c0.2,0.2,0.4,0.4,0.4,0.6c0,0.3-0.1,0.5-0.3,0.6c-0.2,0.2-0.5,0.1-0.8,0
				c-1-0.5-1.8-1.2-2.7-2c-1.2,1.1-2.4,2-3.9,2.5c-0.3,0.1-0.5,0.1-0.7-0.1c-0.2-0.2-0.3-0.4-0.2-0.6c0-0.3,0.2-0.4,0.4-0.6
				c0.9-0.4,1.8-0.9,2.5-1.5c0.7-0.6,1.3-1.1,1.6-1.6c0.3-0.5,0.6-0.9,0.8-1.4c0.1-0.2,0.1-0.3,0-0.4c-0.1-0.1-0.2-0.1-0.5-0.1H85
				v-1.4h4.9c0.7,0,1.1,0.2,1.4,0.5c0.2,0.3,0.3,0.7,0.2,1.2C91.1,20.7,90.7,21.6,90,22.5z M90,32.2c-0.8,0-1.5-0.3-2-0.8
				c-0.5-0.5-0.8-1.2-0.8-2v-2.3h1.6v2.2c0,0.5,0.1,0.9,0.4,1.1c0.3,0.2,0.6,0.3,1,0.3h6v1.4H90z M95.7,27.5c-0.3,0.1-0.5,0.1-0.8,0
				c-0.3-0.1-0.4-0.4-0.4-0.7v-9h1.6v9C96.1,27.2,96,27.4,95.7,27.5z"/>
			<path class="st7" d="M105.3,17.9L99,29.2c-0.1,0.2-0.3,0.4-0.5,0.5c-0.2,0.1-0.4,0-0.6-0.1c-0.2-0.1-0.3-0.2-0.4-0.4
				c-0.1-0.2-0.1-0.4,0.1-0.6l5.9-10.6H105.3z"/>
			<path class="st7" d="M107.7,28.8c0,0.3-0.1,0.5-0.4,0.6c-0.3,0.1-0.5,0.1-0.8,0c-0.3-0.1-0.4-0.3-0.4-0.6V18.1h1.5l3.2,8l3.3-8
				h1.4v10.7c0,0.3-0.1,0.5-0.4,0.6c-0.3,0.1-0.5,0.1-0.8,0c-0.3-0.1-0.4-0.3-0.4-0.6v-6.6l-2.5,5.9c-0.1,0.3-0.4,0.4-0.7,0.4
				c-0.3,0-0.6-0.2-0.7-0.4l-2.5-5.9V28.8z"/>
			<path class="st7" d="M123.3,28.8c-0.7,0.5-1.5,0.7-2.4,0.7c-1.3,0-2.4-0.6-3.3-1.7c-0.9-1.1-1.3-2.5-1.3-4.1c0-1.6,0.4-2.9,1.3-4
				c0.9-1.1,2-1.6,3.4-1.6c0.8,0,1.6,0.2,2.3,0.6c0.7,0.4,1.2,1,1.6,1.8l-1.2,0.9c-0.6-1.3-1.5-1.9-2.6-1.9c-0.9,0-1.7,0.4-2.3,1.2
				c-0.6,0.8-0.9,1.8-0.9,3c0,1.2,0.3,2.2,0.9,3.1c0.6,0.9,1.3,1.3,2.2,1.3c1.2,0,2.2-0.7,2.8-2c0.1-0.2,0.2-0.3,0.4-0.3
				c0.2,0,0.4,0,0.5,0.1c0.2,0.1,0.3,0.2,0.4,0.4c0.1,0.2,0.1,0.4,0,0.6C124.6,27.7,124,28.4,123.3,28.8z"/>
		</g>
		<g>
			<g class="st9">
				<path class="st10" d="M62.2,23.3c0.6,1.1,1.3,1.9,2,2.5c0.2,0.2,0.3,0.3,0.3,0.5c0,0.2,0,0.4-0.1,0.5c-0.1,0.1-0.3,0.2-0.4,0.3
					c-0.2,0-0.4,0-0.6-0.2c-0.7-0.6-1.4-1.3-2-2.2c-0.9,1.2-1.9,2.1-3,2.8c-0.4,0.2-0.7,0.2-0.9,0.1c-0.2-0.1-0.3-0.3-0.4-0.6
					c0-0.3,0.1-0.5,0.4-0.6c0.8-0.4,1.5-1,2.2-1.8c0.6-0.8,1.1-1.5,1.4-2.2c0.3-0.7,0.5-1.2,0.6-1.7c0.1-0.4-0.1-0.6-0.6-0.6h-3.3
					v-1.4h4c0.7,0,1.1,0.2,1.4,0.5c0.2,0.3,0.3,0.7,0.2,1.2C63.2,21.1,62.8,22.2,62.2,23.3z M66.9,29c-0.3,0.1-0.5,0.1-0.8,0
					s-0.4-0.4-0.4-0.7v-5.2h-2.1v-1.4h2.1V18h1.6v10.3C67.3,28.6,67.2,28.8,66.9,29z M69.7,29.1c-0.3,0.1-0.5,0.1-0.8,0
					c-0.3-0.1-0.4-0.4-0.4-0.7V18h1.6v10.5C70.1,28.8,70,29,69.7,29.1z"/>
				<path class="st10" d="M76.7,22.4c0.7,0.6,1.5,1.1,2.4,1.5c0.3,0.1,0.4,0.3,0.4,0.6c0,0.3-0.1,0.5-0.3,0.7
					c-0.2,0.2-0.5,0.2-0.8,0.1c-1-0.4-2-1-2.8-1.8c-1.2,1.1-2.5,1.9-3.9,2.3c-0.3,0.1-0.6,0.1-0.8-0.1c-0.2-0.2-0.3-0.4-0.2-0.6
					c0-0.2,0.2-0.4,0.5-0.5c1.4-0.5,2.4-1.1,3.3-1.9c0.8-0.8,1.4-1.6,1.6-2.3c0.1-0.2,0.1-0.3,0-0.4c-0.1-0.1-0.2-0.1-0.5-0.1h-4.1
					v-1.4h4.9c0.7,0,1.1,0.2,1.4,0.5c0.2,0.3,0.3,0.7,0.2,1.2C77.8,20.8,77.3,21.6,76.7,22.4z M82,32.4c-0.3,0.1-0.5,0.1-0.8,0
					c-0.3-0.1-0.4-0.4-0.4-0.7v-3.2h-7v-1.4h8.1c0.2,0,0.3,0,0.4,0.1c0.1,0.1,0.1,0.2,0.1,0.4v4.1C82.4,32.1,82.3,32.3,82,32.4z
					 M82,26.1c-0.3,0.1-0.5,0.1-0.8,0c-0.3-0.1-0.4-0.4-0.4-0.7v-7.6h1.6v3.1h2v1.4h-2v3.1C82.4,25.8,82.3,26,82,26.1z"/>
				<path class="st10" d="M90,22.5c0.7,0.8,1.5,1.5,2.4,1.9c0.2,0.2,0.4,0.4,0.4,0.6c0,0.3-0.1,0.5-0.3,0.6c-0.2,0.2-0.5,0.1-0.8,0
					c-1-0.5-1.8-1.2-2.7-2c-1.2,1.1-2.4,2-3.9,2.5c-0.3,0.1-0.5,0.1-0.7-0.1c-0.2-0.2-0.3-0.4-0.2-0.6c0-0.3,0.2-0.4,0.4-0.6
					c0.9-0.4,1.8-0.9,2.5-1.5c0.7-0.6,1.3-1.1,1.6-1.6c0.3-0.5,0.6-0.9,0.8-1.4c0.1-0.2,0.1-0.3,0-0.4c-0.1-0.1-0.2-0.1-0.5-0.1H85
					v-1.4h4.9c0.7,0,1.1,0.2,1.4,0.5c0.2,0.3,0.3,0.7,0.2,1.2C91.1,20.7,90.7,21.6,90,22.5z M90,32.2c-0.8,0-1.5-0.3-2-0.8
					c-0.5-0.5-0.8-1.2-0.8-2v-2.3h1.6v2.2c0,0.5,0.1,0.9,0.4,1.1c0.3,0.2,0.6,0.3,1,0.3h6v1.4H90z M95.7,27.5
					c-0.3,0.1-0.5,0.1-0.8,0c-0.3-0.1-0.4-0.4-0.4-0.7v-9h1.6v9C96.1,27.2,96,27.4,95.7,27.5z"/>
				<path class="st10" d="M105.3,17.9L99,29.2c-0.1,0.2-0.3,0.4-0.5,0.5c-0.2,0.1-0.4,0-0.6-0.1c-0.2-0.1-0.3-0.2-0.4-0.4
					c-0.1-0.2-0.1-0.4,0.1-0.6l5.9-10.6H105.3z"/>
				<path class="st10" d="M107.7,28.8c0,0.3-0.1,0.5-0.4,0.6c-0.3,0.1-0.5,0.1-0.8,0c-0.3-0.1-0.4-0.3-0.4-0.6V18.1h1.5l3.2,8l3.3-8
					h1.4v10.7c0,0.3-0.1,0.5-0.4,0.6c-0.3,0.1-0.5,0.1-0.8,0c-0.3-0.1-0.4-0.3-0.4-0.6v-6.6l-2.5,5.9c-0.1,0.3-0.4,0.4-0.7,0.4
					c-0.3,0-0.6-0.2-0.7-0.4l-2.5-5.9V28.8z"/>
				<path class="st10" d="M123.3,28.8c-0.7,0.5-1.5,0.7-2.4,0.7c-1.3,0-2.4-0.6-3.3-1.7c-0.9-1.1-1.3-2.5-1.3-4.1
					c0-1.6,0.4-2.9,1.3-4c0.9-1.1,2-1.6,3.4-1.6c0.8,0,1.6,0.2,2.3,0.6c0.7,0.4,1.2,1,1.6,1.8l-1.2,0.9c-0.6-1.3-1.5-1.9-2.6-1.9
					c-0.9,0-1.7,0.4-2.3,1.2c-0.6,0.8-0.9,1.8-0.9,3c0,1.2,0.3,2.2,0.9,3.1c0.6,0.9,1.3,1.3,2.2,1.3c1.2,0,2.2-0.7,2.8-2
					c0.1-0.2,0.2-0.3,0.4-0.3c0.2,0,0.4,0,0.5,0.1c0.2,0.1,0.3,0.2,0.4,0.4c0.1,0.2,0.1,0.4,0,0.6C124.6,27.7,124,28.4,123.3,28.8z"
					/>
			</g>
			<g>
				<path d="M61.7,22.8c0.6,1.1,1.3,1.9,2,2.5c0.2,0.2,0.3,0.3,0.3,0.5c0,0.2,0,0.4-0.1,0.5c-0.1,0.1-0.3,0.2-0.4,0.3
					c-0.2,0-0.4,0-0.6-0.2c-0.7-0.6-1.4-1.3-2-2.2c-0.9,1.2-1.9,2.1-3,2.8c-0.4,0.2-0.7,0.2-0.9,0.1c-0.2-0.1-0.3-0.3-0.4-0.6
					c0-0.3,0.1-0.5,0.4-0.6c0.8-0.4,1.5-1,2.2-1.8c0.6-0.8,1.1-1.5,1.4-2.2c0.3-0.7,0.5-1.2,0.6-1.7c0.1-0.4-0.1-0.6-0.6-0.6h-3.3
					V18h4c0.7,0,1.1,0.2,1.4,0.5c0.2,0.3,0.3,0.7,0.2,1.2C62.7,20.6,62.3,21.7,61.7,22.8z M66.4,28.5c-0.3,0.1-0.5,0.1-0.8,0
					s-0.4-0.4-0.4-0.7v-5.2h-2.1v-1.4h2.1v-3.7h1.6v10.3C66.8,28.1,66.7,28.3,66.4,28.5z M69.2,28.6c-0.3,0.1-0.5,0.1-0.8,0
					C68.1,28.5,68,28.3,68,28V17.5h1.6V28C69.6,28.3,69.5,28.5,69.2,28.6z"/>
				<path d="M76.2,21.9c0.7,0.6,1.5,1.1,2.4,1.5c0.3,0.1,0.4,0.3,0.4,0.6c0,0.3-0.1,0.5-0.3,0.7c-0.2,0.2-0.5,0.2-0.8,0.1
					c-1-0.4-2-1-2.8-1.8c-1.2,1.1-2.5,1.9-3.9,2.3c-0.3,0.1-0.6,0.1-0.8-0.1c-0.2-0.2-0.3-0.4-0.2-0.6c0-0.2,0.2-0.4,0.5-0.5
					c1.4-0.5,2.4-1.1,3.3-1.9c0.8-0.8,1.4-1.6,1.6-2.3c0.1-0.2,0.1-0.3,0-0.4c-0.1-0.1-0.2-0.1-0.5-0.1h-4.1v-1.4H76
					c0.7,0,1.1,0.2,1.4,0.5c0.2,0.3,0.3,0.7,0.2,1.2C77.3,20.3,76.8,21.1,76.2,21.9z M81.5,31.9c-0.3,0.1-0.5,0.1-0.8,0
					c-0.3-0.1-0.4-0.4-0.4-0.7v-3.2h-7v-1.4h8.1c0.2,0,0.3,0,0.4,0.1c0.1,0.1,0.1,0.2,0.1,0.4v4.1C81.9,31.6,81.8,31.8,81.5,31.9z
					 M81.5,25.6c-0.3,0.1-0.5,0.1-0.8,0c-0.3-0.1-0.4-0.4-0.4-0.7v-7.6h1.6v3.1h2v1.4h-2v3.1C81.9,25.3,81.8,25.5,81.5,25.6z"/>
				<path d="M89.5,22c0.7,0.8,1.5,1.5,2.4,1.9c0.2,0.2,0.4,0.4,0.4,0.6c0,0.3-0.1,0.5-0.3,0.6c-0.2,0.2-0.5,0.1-0.8,0
					c-1-0.5-1.8-1.2-2.7-2c-1.2,1.1-2.4,2-3.9,2.5c-0.3,0.1-0.5,0.1-0.7-0.1c-0.2-0.2-0.3-0.4-0.2-0.6c0-0.3,0.2-0.4,0.4-0.6
					c0.9-0.4,1.8-0.9,2.5-1.5c0.7-0.6,1.3-1.1,1.6-1.6c0.3-0.5,0.6-0.9,0.8-1.4c0.1-0.2,0.1-0.3,0-0.4c-0.1-0.1-0.2-0.1-0.5-0.1
					h-4.1v-1.4h4.9c0.7,0,1.1,0.2,1.4,0.5c0.2,0.3,0.3,0.7,0.2,1.2C90.6,20.2,90.2,21.1,89.5,22z M89.5,31.7c-0.8,0-1.5-0.3-2-0.8
					c-0.5-0.5-0.8-1.2-0.8-2v-2.3h1.6v2.2c0,0.5,0.1,0.9,0.4,1.1c0.3,0.2,0.6,0.3,1,0.3h6v1.4H89.5z M95.2,27
					c-0.3,0.1-0.5,0.1-0.8,0c-0.3-0.1-0.4-0.4-0.4-0.7v-9h1.6v9C95.6,26.7,95.5,26.9,95.2,27z"/>
				<path d="M104.8,17.4l-6.3,11.3c-0.1,0.2-0.3,0.4-0.5,0.5c-0.2,0.1-0.4,0-0.6-0.1c-0.2-0.1-0.3-0.2-0.4-0.4
					C97,28.5,97,28.3,97.2,28l5.9-10.6H104.8z"/>
				<path d="M107.2,28.3c0,0.3-0.1,0.5-0.4,0.6c-0.3,0.1-0.5,0.1-0.8,0c-0.3-0.1-0.4-0.3-0.4-0.6V17.6h1.5l3.2,8l3.3-8h1.4v10.7
					c0,0.3-0.1,0.5-0.4,0.6c-0.3,0.1-0.5,0.1-0.8,0c-0.3-0.1-0.4-0.3-0.4-0.6v-6.6l-2.5,5.9c-0.1,0.3-0.4,0.4-0.7,0.4
					c-0.3,0-0.6-0.2-0.7-0.4l-2.5-5.9V28.3z"/>
				<path d="M122.8,28.3c-0.7,0.5-1.5,0.7-2.4,0.7c-1.3,0-2.4-0.6-3.3-1.7c-0.9-1.1-1.3-2.5-1.3-4.1c0-1.6,0.4-2.9,1.3-4
					c0.9-1.1,2-1.6,3.4-1.6c0.8,0,1.6,0.2,2.3,0.6c0.7,0.4,1.2,1,1.6,1.8l-1.2,0.9c-0.6-1.3-1.5-1.9-2.6-1.9c-0.9,0-1.7,0.4-2.3,1.2
					c-0.6,0.8-0.9,1.8-0.9,3c0,1.2,0.3,2.2,0.9,3.1c0.6,0.9,1.3,1.3,2.2,1.3c1.2,0,2.2-0.7,2.8-2c0.1-0.2,0.2-0.3,0.4-0.3
					c0.2,0,0.4,0,0.5,0.1c0.2,0.1,0.3,0.2,0.4,0.4c0.1,0.2,0.1,0.4,0,0.6C124.1,27.2,123.5,27.9,122.8,28.3z"/>
			</g>
		</g>
	</g>
	<g>
		<g class="st9">
			<path class="st7" d="M47.3,22.3c1.4,0,2.5-1.1,2.5-2.6c0-1.4-1.1-2.6-2.5-2.6c-1.4,0-2.6,1.1-2.6,2.6
				C44.8,21.2,45.9,22.3,47.3,22.3z M49,22.8h-3.3c-2.1,0-3.9,1.7-3.9,3.9v5.1h2.3v-5.3h0.8v5.3h4.8v-5.3h0.8v5.3h2.3v-5.1
				C52.8,24.6,51.1,22.8,49,22.8z"/>
		</g>
		<g>
			<g>
				<path class="st11" d="M46.8,21.8c1.4,0,2.5-1.1,2.5-2.6c0-1.4-1.1-2.6-2.5-2.6c-1.4,0-2.6,1.1-2.6,2.6
					C44.3,20.7,45.4,21.8,46.8,21.8z M48.5,22.3h-3.3c-2.1,0-3.9,1.7-3.9,3.9v5.1h2.3V26h0.8v5.3h4.8V26H50v5.3h2.3v-5.1
					C52.3,24.1,50.6,22.3,48.5,22.3z"/>
			</g>
		</g>
	</g>
</g>
</svg>
