<?xml version="1.0" encoding="utf-8"?>
<!-- Generator: Adobe Illustrator 18.1.1, SVG Export Plug-In . SVG Version: 6.00 Build 0)  -->
<svg version="1.1" id="Layer_1" xmlns="http://www.w3.org/2000/svg" xmlns:xlink="http://www.w3.org/1999/xlink" x="0px" y="0px"
	 viewBox="0 0 165 60" style="enable-background:new 0 0 165 60;" xml:space="preserve">
<style type="text/css">
	.st0{opacity:0;}
	.st1{opacity:0.1667;}
	.st2{opacity:0.3333;}
	.st3{opacity:0.5;}
	.st4{opacity:0.6667;}
	.st5{opacity:0.8333;}
	.st6{fill:url(#SVGID_1_);}
	.st7{fill:#FFFFFF;}
	.st8{fill:#4D4D4D;}
	.st9{opacity:0.92;}
</style>
<g>
	<g>
		<g>
			<path class="st0" d="M165,44.3c0,7.7-6.3,14-14,14H15c-7.7,0-14-6.3-14-14v-30c0-7.7,6.3-14,14-14h136c7.7,0,14,6.3,14,14V44.3z"
				/>
			<path class="st1" d="M165,43c0,7.7-6.3,14-14,14H15C7.3,57,1,50.7,1,43V14.3c0-7.7,6.3-14,14-14h136c7.7,0,14,6.3,14,14V43z"/>
			<path class="st2" d="M165,41.7c0,7.7-6.3,14-14,14H15c-7.7,0-14-6.3-14-14V14.3c0-7.7,6.3-14,14-14h136c7.7,0,14,6.3,14,14V41.7z
				"/>
			<path class="st3" d="M165,40.3c0,7.7-6.3,14-14,14H15c-7.7,0-14-6.3-14-14v-26c0-7.7,6.3-14,14-14h136c7.7,0,14,6.3,14,14V40.3z"
				/>
			<path class="st4" d="M165,39c0,7.7-6.3,14-14,14H15C7.3,53,1,46.7,1,39V14.3c0-7.7,6.3-14,14-14h136c7.7,0,14,6.3,14,14V39z"/>
			<path class="st5" d="M165,37.7c0,7.7-6.3,14-14,14H15c-7.7,0-14-6.3-14-14V14.3c0-7.7,6.3-14,14-14h136c7.7,0,14,6.3,14,14V37.7z
				"/>
			<path d="M165,36.3c0,7.7-6.3,14-14,14H15c-7.7,0-14-6.3-14-14v-22c0-7.7,6.3-14,14-14h136c7.7,0,14,6.3,14,14V36.3z"/>
		</g>
		<linearGradient id="SVGID_1_" gradientUnits="userSpaceOnUse" x1="83" y1="50.3296" x2="83" y2="0.3296">
			<stop  offset="0" style="stop-color:#8C8C8C"/>
			<stop  offset="1" style="stop-color:#D9D9D9"/>
		</linearGradient>
		<path class="st6" d="M165,36.3c0,7.7-6.3,14-14,14H15c-7.7,0-14-6.3-14-14v-22c0-7.7,6.3-14,14-14h136c7.7,0,14,6.3,14,14V36.3z"
			/>
		<path class="st7" d="M151,0.3H15c-7.7,0-14,6.3-14,14v2c0-7.7,6.3-14,14-14h136c7.7,0,14,6.3,14,14v-2C165,6.6,158.7,0.3,151,0.3z
			"/>
		<path class="st8" d="M151,48.3H15c-7.7,0-14-6.3-14-14v2c0,7.7,6.3,14,14,14h136c7.7,0,14-6.3,14-14v-2
			C165,42,158.7,48.3,151,48.3z"/>
	</g>
</g>
<g>
	<path d="M36.8,28.3c0,0.9-1.6,0.9-1.6,0V19h-1.1v-1.4H36c0.5,0,0.7,0.2,0.7,0.6V28.3z"/>
	<path d="M41,28.5c0,0.7-0.6,1.3-1.3,1.3s-1.3-0.6-1.3-1.3s0.6-1.3,1.3-1.3S41,27.7,41,28.5z"/>
	<path d="M77.6,21c0-2.1,1.6-3.7,3.7-3.7c2.1,0,3.7,1.5,3.7,3.7c0,2.1-1.6,3.7-3.7,3.7C79.1,24.7,77.6,23.1,77.6,21z M79.2,21
		c0,1.4,1,2.3,2.1,2.3c1.1,0,2.1-0.8,2.1-2.3c0-1.4-1-2.3-2.1-2.3C80.2,18.7,79.2,19.5,79.2,21z M81.5,28.8c0-1.9,1.5-3.4,3.6-3.4
		s3.6,1.5,3.6,3.4s-1.5,3.4-3.6,3.4S81.5,30.7,81.5,28.8z M83.1,28.8c0,1.2,0.9,2,2.1,2c1.1,0,2.1-0.8,2.1-2c0-1.2-0.9-2-2.1-2
		C84,26.8,83.1,27.6,83.1,28.8z M89.1,24.7c0,1-1.6,1-1.6,0v-1.5h-2.4v-1.4h2.4v-1.6h-2.4v-1.4h2.4v-1.5h1.6V24.7z"/>
	<path d="M97.3,24.1c-1-0.5-2-1.4-3-2.4c-0.7,1.2-1.7,2.4-3,3.2c-1,0.7-1.7-0.6-0.9-1.2c2.4-1.7,3.5-4.4,3.6-6.4h1.7
		c0,0.8-0.3,1.8-0.6,2.8c1,1.2,2.1,2.1,3,2.6C98.9,23.2,98.3,24.6,97.3,24.1z M94.2,28.8c0-1.9,1.5-3.4,3.6-3.4
		c2.1,0,3.6,1.5,3.6,3.4s-1.5,3.4-3.6,3.4C95.8,32.2,94.2,30.7,94.2,28.8z M95.8,28.8c0,1.2,1,2,2.1,2c1.1,0,2-0.8,2-2
		c0-1.1-0.9-2-2-2C96.8,26.8,95.8,27.6,95.8,28.8z M101.6,24.5c0,1-1.6,1-1.6,0v-7.3h1.6v3.1h2v1.4h-2V24.5z"/>
	<path d="M111.5,23.9c0.1-0.1,0.2-0.2,0.3-0.3c-0.5-0.4-1-0.9-1.5-1.4c-0.7,1.1-1.5,2.1-2.4,2.7c-0.9,0.6-1.7-0.5-0.9-1.1
		c1.6-1.2,2.8-3.6,2.8-4.4c0-0.3-0.2-0.3-0.4-0.3h-2.1v-1.4h2.8c1,0,1.5,0.4,1.4,1.4c0,0.4-0.2,1-0.5,1.7c0.5,0.7,1.1,1.3,1.7,1.7
		c1-1.3,1.5-2.6,1.6-3.1c0-0.3-0.1-0.4-0.4-0.4h-1.9v-1.4h2.6c1,0,1.6,0.4,1.5,1.4c-0.1,0.6-0.4,1.4-0.8,2.4
		c0.5,0.7,1.1,1.2,1.6,1.7c0.8,0.6,0,1.7-0.9,1.1c-0.4-0.3-1-0.8-1.6-1.4c-0.5,0.8-1.2,1.6-1.9,2.2
		C111.5,25.7,110.6,24.6,111.5,23.9z M119.8,31.2c0,1-1.6,1-1.6,0V28H111v-1.4h8.2c0.4,0,0.5,0.1,0.5,0.5V31.2z M119.8,24.9
		c0,1-1.6,1-1.6,0v-7.6h1.6V24.9z"/>
	<path d="M121.1,25.9c3.5-1.5,4.8-4.4,5-6c0-0.4-0.2-0.6-0.6-0.6h-4.5v-1.4h5.3c1.2,0,1.7,0.8,1.5,2c-0.4,2-1.8,5.6-6.1,7.3
		C120.6,27.7,120.3,26.3,121.1,25.9z M132.2,27.9c0,1-1.6,1-1.6,0V17.4h1.6V27.9z"/>
</g>
<g>
	<g class="st9">
		<path class="st7" d="M72.9,21.9v9.7c0,0.5-0.4,0.9-0.9,0.9H58.4c-0.5,0-0.9-0.4-0.9-0.9v-9.7h4.7c-0.7,0.7-1.1,1.7-1.1,2.8
			c0,2.3,1.9,4.2,4.2,4.2c2.3,0,4.2-1.9,4.2-4.2c0-1.1-0.4-2.1-1.1-2.8H72.9z"/>
		<path class="st7" d="M71.9,17.1H61.5v3.2H61v-3.2h-0.4v3.2H60v-3.2h-0.5v3.2h-0.6v-3.2h-0.6c-0.5,0-0.9,0.4-0.9,0.9v3.2h5.4
			c0.7-0.4,1.4-0.7,2.3-0.7c0.8,0,1.6,0.2,2.3,0.7h5.4V18C72.9,17.5,72.4,17.1,71.9,17.1z M71.6,20c0,0.2-0.1,0.3-0.3,0.3h-1.7
			c-0.2,0-0.3-0.1-0.3-0.3v-1.7c0-0.2,0.1-0.3,0.3-0.3h1.7c0.2,0,0.3,0.1,0.3,0.3V20z"/>
		<path class="st7" d="M65.1,21.2c-1.9,0-3.5,1.6-3.5,3.5s1.6,3.5,3.5,3.5c1.9,0,3.5-1.6,3.5-3.5S67.1,21.2,65.1,21.2z M65.1,27.5
			c-1.6,0-2.8-1.3-2.8-2.8c0-1.6,1.3-2.8,2.8-2.8c1.6,0,2.8,1.3,2.8,2.8C68,26.3,66.7,27.5,65.1,27.5z"/>
	</g>
	<g>
		<g>
			<path d="M72.4,21.4v9.7c0,0.5-0.4,0.9-0.9,0.9H57.9c-0.5,0-0.9-0.4-0.9-0.9v-9.7h4.7c-0.7,0.7-1.1,1.7-1.1,2.8
				c0,2.3,1.9,4.2,4.2,4.2c2.3,0,4.2-1.9,4.2-4.2c0-1.1-0.4-2.1-1.1-2.8H72.4z"/>
			<path d="M71.4,16.6H61v3.2h-0.6v-3.2H60v3.2h-0.6v-3.2H59v3.2h-0.6v-3.2h-0.6c-0.5,0-0.9,0.4-0.9,0.9v3.2h5.4
				c0.7-0.4,1.4-0.7,2.3-0.7c0.8,0,1.6,0.2,2.3,0.7h5.4v-3.2C72.4,17,71.9,16.6,71.4,16.6z M71.1,19.5c0,0.2-0.1,0.3-0.3,0.3h-1.7
				c-0.2,0-0.3-0.1-0.3-0.3v-1.7c0-0.2,0.1-0.3,0.3-0.3h1.7c0.2,0,0.3,0.1,0.3,0.3V19.5z"/>
			<path d="M64.6,20.7c-1.9,0-3.5,1.6-3.5,3.5s1.6,3.5,3.5,3.5c1.9,0,3.5-1.6,3.5-3.5S66.6,20.7,64.6,20.7z M64.6,27
				c-1.6,0-2.8-1.3-2.8-2.8c0-1.6,1.3-2.8,2.8-2.8c1.6,0,2.8,1.3,2.8,2.8C67.5,25.8,66.2,27,64.6,27z"/>
		</g>
	</g>
</g>
</svg>
