<?xml version="1.0" encoding="utf-8"?>
<!-- Generator: Adobe Illustrator 18.1.1, SVG Export Plug-In . SVG Version: 6.00 Build 0)  -->
<svg version="1.1" id="Layer_1" xmlns="http://www.w3.org/2000/svg" xmlns:xlink="http://www.w3.org/1999/xlink" x="0px" y="0px"
	 viewBox="0 0 165 60" style="enable-background:new 0 0 165 60;" xml:space="preserve">
<style type="text/css">
	.st0{opacity:0;}
	.st1{opacity:0.1667;}
	.st2{opacity:0.3333;}
	.st3{opacity:0.5;}
	.st4{opacity:0.6667;}
	.st5{opacity:0.8333;}
	.st6{fill:url(#SVGID_1_);}
	.st7{fill:#FFFFFF;}
	.st8{fill:#4D4D4D;}
	.st9{opacity:0.92;}
	.st10{fill:url(#SVGID_2_);}
	.st11{fill-rule:evenodd;clip-rule:evenodd;fill:#FFFFFF;}
	.st12{fill-rule:evenodd;clip-rule:evenodd;fill:#231F20;}
	.st13{fill:url(#SVGID_3_);}
	.st14{fill:#DADFE0;}
	.st15{fill:#231F20;}
	.st16{fill:url(#SVGID_4_);}
	.st17{fill:url(#SVGID_5_);}
	.st18{fill:url(#SVGID_6_);}
	.st19{fill:#2B52CC;}
	.st20{fill:url(#SVGID_7_);}
	.st21{fill:#0E68A4;}
	.st22{fill:#D0D2D3;}
	.st23{fill:#EC1C24;}
	.st24{fill:#F06162;}
	.st25{fill:#26A9E0;}
</style>
<g>
	<g>
		<g>
			<path class="st0" d="M165,46c0,7.7-6.3,14-14,14H15C7.3,60,1,53.7,1,46V16C1,8.3,7.3,2,15,2h136c7.7,0,14,6.3,14,14V46z"/>
			<path class="st1" d="M165,44.7c0,7.7-6.3,14-14,14H15c-7.7,0-14-6.3-14-14V16C1,8.3,7.3,2,15,2h136c7.7,0,14,6.3,14,14V44.7z"/>
			<path class="st2" d="M165,43.3c0,7.7-6.3,14-14,14H15c-7.7,0-14-6.3-14-14V16C1,8.3,7.3,2,15,2h136c7.7,0,14,6.3,14,14V43.3z"/>
			<path class="st3" d="M165,42c0,7.7-6.3,14-14,14H15C7.3,56,1,49.7,1,42V16C1,8.3,7.3,2,15,2h136c7.7,0,14,6.3,14,14V42z"/>
			<path class="st4" d="M165,40.7c0,7.7-6.3,14-14,14H15c-7.7,0-14-6.3-14-14V16C1,8.3,7.3,2,15,2h136c7.7,0,14,6.3,14,14V40.7z"/>
			<path class="st5" d="M165,39.3c0,7.7-6.3,14-14,14H15c-7.7,0-14-6.3-14-14V16C1,8.3,7.3,2,15,2h136c7.7,0,14,6.3,14,14V39.3z"/>
			<path d="M165,38c0,7.7-6.3,14-14,14H15C7.3,52,1,45.7,1,38V16C1,8.3,7.3,2,15,2h136c7.7,0,14,6.3,14,14V38z"/>
		</g>
		<linearGradient id="SVGID_1_" gradientUnits="userSpaceOnUse" x1="83" y1="52" x2="83" y2="2">
			<stop  offset="0" style="stop-color:#8C8C8C"/>
			<stop  offset="1" style="stop-color:#D9D9D9"/>
		</linearGradient>
		<path class="st6" d="M165,38c0,7.7-6.3,14-14,14H15C7.3,52,1,45.7,1,38V16C1,8.3,7.3,2,15,2h136c7.7,0,14,6.3,14,14V38z"/>
		<path class="st7" d="M151,2H15C7.3,2,1,8.3,1,16v2C1,10.3,7.3,4,15,4h136c7.7,0,14,6.3,14,14v-2C165,8.3,158.7,2,151,2z"/>
		<path class="st8" d="M151,50H15C7.3,50,1,43.7,1,36v2c0,7.7,6.3,14,14,14h136c7.7,0,14-6.3,14-14v-2C165,43.7,158.7,50,151,50z"/>
	</g>
	<g>
		<path d="M40.9,28v1.4h-6.3c-0.7,0-0.9-0.7-0.5-1.2l4.3-5.1c0.5-0.6,0.8-1.3,0.8-1.9c0-1-0.8-1.7-1.9-1.7s-1.8,0.9-1.8,2.2h-1.6
			c0-2.2,1.5-3.6,3.4-3.6c1.9,0,3.4,1.2,3.4,3.2c0,0.9-0.5,2-1.2,2.9L36.2,28H40.9z"/>
		<path d="M44.2,29.1c0,0.7-0.6,1.3-1.3,1.3s-1.3-0.6-1.3-1.3s0.6-1.3,1.3-1.3S44.2,28.4,44.2,29.1z"/>
		<path d="M93.8,26H80.5v-1.4h5.9v-0.7c-1.8-0.3-3-1.6-3-3.3c0-1.9,1.6-3.3,3.8-3.3c2.2,0,3.8,1.4,3.8,3.3c0,1.7-1.2,3-3,3.3v0.7
			h5.8V26z M92.3,32.7h-7.6c-1.1,0-2.1-0.7-2.1-2V29h7.6v-0.7h-7.6v-1.4h9.2v3.6h-7.6v0.3c0,0.4,0.3,0.5,0.7,0.5h7.4V32.7z
			 M84.9,20.6c0,1.2,1.1,2,2.3,2c1.2,0,2.2-0.7,2.2-2c0-1.2-1.1-1.9-2.2-1.9C86,18.7,84.9,19.3,84.9,20.6z"/>
		<path d="M102.2,28.4h-4.8c-1.6,0-2.8-1.1-2.8-2.7v-3.5h5.3v-2.4h-5.3v-1.4h6.9v5.3h-5.3v1.9c0,1.1,0.7,1.4,1.4,1.4h4.7V28.4z
			 M105.8,28.6c0,1-1.6,1-1.6,0V18.1h1.6V28.6z"/>
		<path d="M107.3,26.6c3.5-1.5,4.8-4.4,5-6c0-0.4-0.2-0.6-0.6-0.6h-4.5v-1.4h5.3c1.2,0,1.7,0.8,1.5,2c-0.4,2-1.8,5.6-6.1,7.3
			C106.8,28.3,106.5,27,107.3,26.6z M118.4,28.6c0,1-1.6,1-1.6,0V18.1h1.6V28.6z"/>
	</g>
	<g>
		<g class="st9">
			<circle class="st11" cx="59.4" cy="30.2" r="2.2"/>
			<path class="st11" d="M67.7,31.8h-2.8c0.1-7.9-7.4-7.1-7.4-7.1v-2.6C68,22.1,67.7,31.8,67.7,31.8z"/>
			<path class="st11" d="M73.3,31.8h-3c0-13.9-12.9-12.6-12.9-12.6v-2.8C74.5,16.5,73.3,31.8,73.3,31.8z"/>
		</g>
		<g>
			<g>
				<circle class="st12" cx="58.9" cy="29.7" r="2.2"/>
				<path class="st12" d="M67.2,31.3h-2.8c0.1-7.9-7.4-7.1-7.4-7.1v-2.6C67.5,21.6,67.2,31.3,67.2,31.3z"/>
				<path class="st12" d="M72.8,31.3h-3C69.8,17.5,57,18.8,57,18.8V16C74,16,72.8,31.3,72.8,31.3z"/>
			</g>
		</g>
	</g>
</g>
</svg>
