<?xml version="1.0" encoding="utf-8"?>
<!-- Generator: Adobe Illustrator 18.1.1, SVG Export Plug-In . SVG Version: 6.00 Build 0)  -->
<svg version="1.1" id="Layer_1" xmlns="http://www.w3.org/2000/svg" xmlns:xlink="http://www.w3.org/1999/xlink" x="0px" y="0px"
	 viewBox="0 0 165 60" style="enable-background:new 0 0 165 60;" xml:space="preserve">
<style type="text/css">
	.st0{opacity:0;}
	.st1{opacity:0.1667;}
	.st2{opacity:0.3333;}
	.st3{opacity:0.5;}
	.st4{opacity:0.6667;}
	.st5{opacity:0.8333;}
	.st6{fill:url(#SVGID_1_);}
	.st7{fill:#FFFFFF;}
	.st8{fill:#4D4D4D;}
	.st9{opacity:0.92;}
	.st10{fill:#DADFE0;}
	.st11{fill:#1A1A1A;}
</style>
<g>
	<g>
		<g>
			<path class="st0" d="M165,45c0,7.7-6.3,14-14,14H15C7.3,59,1,52.7,1,45V15C1,7.3,7.3,1,15,1h136c7.7,0,14,6.3,14,14V45z"/>
			<path class="st1" d="M165,43.7c0,7.7-6.3,14-14,14H15c-7.7,0-14-6.3-14-14V15C1,7.3,7.3,1,15,1h136c7.7,0,14,6.3,14,14V43.7z"/>
			<path class="st2" d="M165,42.3c0,7.7-6.3,14-14,14H15c-7.7,0-14-6.3-14-14V15C1,7.3,7.3,1,15,1h136c7.7,0,14,6.3,14,14V42.3z"/>
			<path class="st3" d="M165,41c0,7.7-6.3,14-14,14H15C7.3,55,1,48.7,1,41V15C1,7.3,7.3,1,15,1h136c7.7,0,14,6.3,14,14V41z"/>
			<path class="st4" d="M165,39.7c0,7.7-6.3,14-14,14H15c-7.7,0-14-6.3-14-14V15C1,7.3,7.3,1,15,1h136c7.7,0,14,6.3,14,14V39.7z"/>
			<path class="st5" d="M165,38.3c0,7.7-6.3,14-14,14H15c-7.7,0-14-6.3-14-14V15C1,7.3,7.3,1,15,1h136c7.7,0,14,6.3,14,14V38.3z"/>
			<path d="M165,37c0,7.7-6.3,14-14,14H15C7.3,51,1,44.7,1,37V15C1,7.3,7.3,1,15,1h136c7.7,0,14,6.3,14,14V37z"/>
		</g>
		<linearGradient id="SVGID_1_" gradientUnits="userSpaceOnUse" x1="83" y1="51" x2="83" y2="1">
			<stop  offset="0" style="stop-color:#8C8C8C"/>
			<stop  offset="1" style="stop-color:#D9D9D9"/>
		</linearGradient>
		<path class="st6" d="M165,37c0,7.7-6.3,14-14,14H15C7.3,51,1,44.7,1,37V15C1,7.3,7.3,1,15,1h136c7.7,0,14,6.3,14,14V37z"/>
		<path class="st7" d="M151,1H15C7.3,1,1,7.3,1,15v2C1,9.3,7.3,3,15,3h136c7.7,0,14,6.3,14,14v-2C165,7.3,158.7,1,151,1z"/>
		<path class="st8" d="M151,49H15C7.3,49,1,42.7,1,35v2c0,7.7,6.3,14,14,14h136c7.7,0,14-6.3,14-14v-2C165,42.7,158.7,49,151,49z"/>
	</g>
	<g>
		<g class="st9">
			<g>
				<path class="st7" d="M74.8,20.2h1.6v4.5h4.2v-4.5h1.6v10.7c0,0.9-1.6,0.9-1.6,0v-4.8h-4.2v4.8c0,0.9-1.6,0.9-1.6,0V20.2z"/>
				<path class="st7" d="M92.7,25.8c0,3.2-1.8,5.8-4.4,5.8c-2.7,0-4.4-2.5-4.4-5.8c0-3.2,1.8-5.8,4.4-5.8
					C90.9,20,92.7,22.6,92.7,25.8z M88.3,21.4c-1.7,0-2.9,1.9-2.9,4.4c0,2.5,1.2,4.4,2.9,4.4c1.7,0,2.8-1.9,2.8-4.4
					C91.1,23.4,89.9,21.4,88.3,21.4z"/>
				<path class="st7" d="M95.9,24.3v6.6c0,0.9-1.5,0.9-1.5,0V20.2h1.5l3.2,8l3.3-8h1.4v10.7c0,0.9-1.5,0.9-1.5,0v-6.6l-2.5,5.9
					c-0.2,0.6-1.2,0.5-1.4,0L95.9,24.3z"/>
				<path class="st7" d="M112.6,20.2v1.4h-5.2v3.1h5v1.4h-5V30h5.4v1.4h-6.2c-0.4,0-0.8-0.3-0.8-0.7V20.2H112.6z"/>
			</g>
			<g>
				<path class="st7" d="M74.3,19.7h1.6v4.5h4.2v-4.5h1.6v10.7c0,0.9-1.6,0.9-1.6,0v-4.8h-4.2v4.8c0,0.9-1.6,0.9-1.6,0V19.7z"/>
				<path class="st7" d="M92.2,25.3c0,3.2-1.8,5.8-4.4,5.8c-2.7,0-4.4-2.5-4.4-5.8c0-3.2,1.8-5.8,4.4-5.8
					C90.4,19.5,92.2,22.1,92.2,25.3z M87.8,20.9c-1.7,0-2.9,1.9-2.9,4.4c0,2.5,1.2,4.4,2.9,4.4c1.7,0,2.8-1.9,2.8-4.4
					C90.6,22.9,89.4,20.9,87.8,20.9z"/>
				<path class="st7" d="M95.4,23.8v6.6c0,0.9-1.5,0.9-1.5,0V19.7h1.5l3.2,8l3.3-8h1.4v10.7c0,0.9-1.5,0.9-1.5,0v-6.6l-2.5,5.9
					c-0.2,0.6-1.2,0.5-1.4,0L95.4,23.8z"/>
				<path class="st7" d="M112.1,19.7v1.4h-5.2v3.1h5v1.4h-5v3.9h5.4v1.4h-6.2c-0.4,0-0.8-0.3-0.8-0.7V19.7H112.1z"/>
			</g>
		</g>
		<g>
			<g class="st9">
				<g>
					<path class="st10" d="M74.3,19.7h1.6v4.5h4.2v-4.5h1.6v10.7c0,0.9-1.6,0.9-1.6,0v-4.8h-4.2v4.8c0,0.9-1.6,0.9-1.6,0V19.7z"/>
					<path class="st10" d="M92.2,25.3c0,3.2-1.8,5.8-4.4,5.8c-2.7,0-4.4-2.5-4.4-5.8c0-3.2,1.8-5.8,4.4-5.8
						C90.4,19.5,92.2,22.1,92.2,25.3z M87.8,20.9c-1.7,0-2.9,1.9-2.9,4.4c0,2.5,1.2,4.4,2.9,4.4c1.7,0,2.8-1.9,2.8-4.4
						C90.6,22.9,89.4,20.9,87.8,20.9z"/>
					<path class="st10" d="M95.4,23.8v6.6c0,0.9-1.5,0.9-1.5,0V19.7h1.5l3.2,8l3.3-8h1.4v10.7c0,0.9-1.5,0.9-1.5,0v-6.6l-2.5,5.9
						c-0.2,0.6-1.2,0.5-1.4,0L95.4,23.8z"/>
					<path class="st10" d="M112.1,19.7v1.4h-5.2v3.1h5v1.4h-5v3.9h5.4v1.4h-6.2c-0.4,0-0.8-0.3-0.8-0.7V19.7H112.1z"/>
				</g>
			</g>
			<g>
				<g>
					<path d="M73.8,19.2h1.6v4.5h4.2v-4.5h1.6v10.7c0,0.9-1.6,0.9-1.6,0v-4.8h-4.2v4.8c0,0.9-1.6,0.9-1.6,0V19.2z"/>
					<path d="M91.7,24.8c0,3.2-1.8,5.8-4.4,5.8c-2.7,0-4.4-2.5-4.4-5.8c0-3.2,1.8-5.8,4.4-5.8C89.9,19,91.7,21.6,91.7,24.8z
						 M87.3,20.4c-1.7,0-2.9,1.9-2.9,4.4c0,2.5,1.2,4.4,2.9,4.4c1.7,0,2.8-1.9,2.8-4.4C90.1,22.4,88.9,20.4,87.3,20.4z"/>
					<path d="M94.9,23.3v6.6c0,0.9-1.5,0.9-1.5,0V19.2h1.5l3.2,8l3.3-8h1.4v10.7c0,0.9-1.5,0.9-1.5,0v-6.6l-2.5,5.9
						c-0.2,0.6-1.2,0.5-1.4,0L94.9,23.3z"/>
					<path d="M111.6,19.2v1.4h-5.2v3.1h5v1.4h-5V29h5.4v1.4h-6.2c-0.4,0-0.8-0.3-0.8-0.7V19.2H111.6z"/>
				</g>
			</g>
		</g>
	</g>
	<g>
		<g class="st9">
			<path class="st7" d="M60.9,20.7c-0.3-0.2-0.9-0.2-1.2,0L54.8,24c-0.3,0.2-0.6,0.7-0.6,1.1v5.5c0,0.4,0.3,0.7,0.7,0.7h2.3
				c0.4,0,0.7-0.3,0.7-0.7v-3.8c0-0.4,0.3-0.7,0.7-0.7h3.6c0.4,0,0.7,0.3,0.7,0.7v3.8c0,0.4,0.3,0.7,0.7,0.7h2.3
				c0.4,0,0.7-0.3,0.7-0.7v-5.3c0-0.4-0.3-0.9-0.6-1.1L60.9,20.7z"/>
			<path class="st7" d="M67.2,22.5c-0.3-0.2-0.6-0.7-0.6-1.1v-1.1c0-0.4-0.3-0.7-0.7-0.7h-0.1c-0.4,0-0.7,0.3-0.7,0.7v0.1
				c0,0.4-0.3,0.5-0.6,0.3l-3.5-2.3c-0.3-0.2-0.6-0.4-0.6-0.4c0,0-0.3,0.2-0.7,0.4l-6.4,4.3c-0.3,0.2-0.4,0.6-0.3,0.9
				c0.2,0.3,0.6,0.3,0.9,0.1l5.9-3.9c0.3-0.2,0.9-0.2,1.2,0l6.1,4.1c0.3,0.2,0.7,0.2,0.9-0.1c0.2-0.3,0-0.7-0.3-0.9L67.2,22.5z"/>
			<path class="st7" d="M60.4,20.2c-0.3-0.2-0.9-0.2-1.2,0l-4.9,3.2c-0.3,0.2-0.6,0.7-0.6,1.1v5.5c0,0.4,0.3,0.7,0.7,0.7h2.3
				c0.4,0,0.7-0.3,0.7-0.7v-3.8c0-0.4,0.3-0.7,0.7-0.7h3.6c0.4,0,0.7,0.3,0.7,0.7v3.8c0,0.4,0.3,0.7,0.7,0.7h2.3
				c0.4,0,0.7-0.3,0.7-0.7v-5.3c0-0.4-0.3-0.9-0.6-1.1L60.4,20.2z"/>
			<path class="st7" d="M66.7,22c-0.3-0.2-0.6-0.7-0.6-1.1v-1.1c0-0.4-0.3-0.7-0.7-0.7h-0.1c-0.4,0-0.7,0.3-0.7,0.7v0.1
				c0,0.4-0.3,0.5-0.6,0.3l-3.5-2.3c-0.3-0.2-0.6-0.4-0.6-0.4c0,0-0.3,0.2-0.7,0.4l-6.4,4.3c-0.3,0.2-0.4,0.6-0.3,0.9
				c0.2,0.3,0.6,0.3,0.9,0.1l5.9-3.9c0.3-0.2,0.9-0.2,1.2,0l6.1,4.1c0.3,0.2,0.7,0.2,0.9-0.1c0.2-0.3,0-0.7-0.3-0.9L66.7,22z"/>
		</g>
		<g>
			<g>
				<g>
					<g class="st9">
						<path class="st10" d="M60.4,20.2c-0.3-0.2-0.9-0.2-1.2,0l-4.9,3.2c-0.3,0.2-0.6,0.7-0.6,1.1v5.5c0,0.4,0.3,0.7,0.7,0.7h2.3
							c0.4,0,0.7-0.3,0.7-0.7v-3.8c0-0.4,0.3-0.7,0.7-0.7h3.6c0.4,0,0.7,0.3,0.7,0.7v3.8c0,0.4,0.3,0.7,0.7,0.7h2.3
							c0.4,0,0.7-0.3,0.7-0.7v-5.3c0-0.4-0.3-0.9-0.6-1.1L60.4,20.2z"/>
						<path class="st10" d="M66.7,22c-0.3-0.2-0.6-0.7-0.6-1.1v-1.1c0-0.4-0.3-0.7-0.7-0.7h-0.1c-0.4,0-0.7,0.3-0.7,0.7v0.1
							c0,0.4-0.3,0.5-0.6,0.3l-3.5-2.3c-0.3-0.2-0.6-0.4-0.6-0.4c0,0-0.3,0.2-0.7,0.4l-6.4,4.3c-0.3,0.2-0.4,0.6-0.3,0.9
							c0.2,0.3,0.6,0.3,0.9,0.1l5.9-3.9c0.3-0.2,0.9-0.2,1.2,0l6.1,4.1c0.3,0.2,0.7,0.2,0.9-0.1c0.2-0.3,0-0.7-0.3-0.9L66.7,22z"/>
					</g>
					<g>
						<g>
							<g>
								<path class="st11" d="M59.9,19.7c-0.3-0.2-0.9-0.2-1.2,0L53.8,23c-0.3,0.2-0.6,0.7-0.6,1.1v5.5c0,0.4,0.3,0.7,0.7,0.7h2.3
									c0.4,0,0.7-0.3,0.7-0.7v-3.8c0-0.4,0.3-0.7,0.7-0.7h3.6c0.4,0,0.7,0.3,0.7,0.7v3.8c0,0.4,0.3,0.7,0.7,0.7h2.3
									c0.4,0,0.7-0.3,0.7-0.7v-5.3c0-0.4-0.3-0.9-0.6-1.1L59.9,19.7z"/>
							</g>
							<g>
								<path class="st11" d="M66.2,21.5c-0.3-0.2-0.6-0.7-0.6-1.1v-1.1c0-0.4-0.3-0.7-0.7-0.7h-0.1c-0.4,0-0.7,0.3-0.7,0.7v0.1
									c0,0.4-0.3,0.5-0.6,0.3l-3.5-2.3c-0.3-0.2-0.6-0.4-0.6-0.4c0,0-0.3,0.2-0.7,0.4l-6.4,4.3c-0.3,0.2-0.4,0.6-0.3,0.9
									c0.2,0.3,0.6,0.3,0.9,0.1l5.9-3.9c0.3-0.2,0.9-0.2,1.2,0l6.1,4.1c0.3,0.2,0.7,0.2,0.9-0.1c0.2-0.3,0-0.7-0.3-0.9L66.2,21.5z
									"/>
							</g>
						</g>
					</g>
				</g>
			</g>
		</g>
	</g>
</g>
</svg>
