<?xml version="1.0" encoding="utf-8"?>
<!-- Generator: Adobe Illustrator 18.1.1, SVG Export Plug-In . SVG Version: 6.00 Build 0)  -->
<svg version="1.1" id="Layer_1" xmlns="http://www.w3.org/2000/svg" xmlns:xlink="http://www.w3.org/1999/xlink" x="0px" y="0px"
	 viewBox="0 0 165 60" style="enable-background:new 0 0 165 60;" xml:space="preserve">
<style type="text/css">
	.st0{opacity:0;}
	.st1{opacity:0.1667;}
	.st2{opacity:0.3333;}
	.st3{opacity:0.5;}
	.st4{opacity:0.6667;}
	.st5{opacity:0.8333;}
	.st6{fill:url(#SVGID_1_);}
	.st7{fill:#FFFFFF;}
	.st8{fill:#4D4D4D;}
	.st9{opacity:0.92;}
	.st10{fill:#1A1A1A;}
	.st11{fill:#DADFE0;}
</style>
<g>
	<g>
		<g>
			<path class="st0" d="M164.5,44c0,7.7-6.3,14-14,14h-136c-7.7,0-14-6.3-14-14V14c0-7.7,6.3-14,14-14h136c7.7,0,14,6.3,14,14V44z"
				/>
			<path class="st1" d="M164.5,42.7c0,7.7-6.3,14-14,14h-136c-7.7,0-14-6.3-14-14V14c0-7.7,6.3-14,14-14h136c7.7,0,14,6.3,14,14
				V42.7z"/>
			<path class="st2" d="M164.5,41.3c0,7.7-6.3,14-14,14h-136c-7.7,0-14-6.3-14-14V14c0-7.7,6.3-14,14-14h136c7.7,0,14,6.3,14,14
				V41.3z"/>
			<path class="st3" d="M164.5,40c0,7.7-6.3,14-14,14h-136c-7.7,0-14-6.3-14-14V14c0-7.7,6.3-14,14-14h136c7.7,0,14,6.3,14,14V40z"
				/>
			<path class="st4" d="M164.5,38.7c0,7.7-6.3,14-14,14h-136c-7.7,0-14-6.3-14-14V14c0-7.7,6.3-14,14-14h136c7.7,0,14,6.3,14,14
				V38.7z"/>
			<path class="st5" d="M164.5,37.3c0,7.7-6.3,14-14,14h-136c-7.7,0-14-6.3-14-14V14c0-7.7,6.3-14,14-14h136c7.7,0,14,6.3,14,14
				V37.3z"/>
			<path d="M164.5,36c0,7.7-6.3,14-14,14h-136c-7.7,0-14-6.3-14-14V14c0-7.7,6.3-14,14-14h136c7.7,0,14,6.3,14,14V36z"/>
		</g>
		<linearGradient id="SVGID_1_" gradientUnits="userSpaceOnUse" x1="82.5" y1="50" x2="82.5" y2="1.334229e-09">
			<stop  offset="0" style="stop-color:#8C8C8C"/>
			<stop  offset="1" style="stop-color:#D9D9D9"/>
		</linearGradient>
		<path class="st6" d="M164.5,36c0,7.7-6.3,14-14,14h-136c-7.7,0-14-6.3-14-14V14c0-7.7,6.3-14,14-14h136c7.7,0,14,6.3,14,14V36z"/>
		<path class="st7" d="M150.5,0h-136c-7.7,0-14,6.3-14,14v2c0-7.7,6.3-14,14-14h136c7.7,0,14,6.3,14,14v-2
			C164.5,6.3,158.2,0,150.5,0z"/>
		<path class="st8" d="M150.5,48h-136c-7.7,0-14-6.3-14-14v2c0,7.7,6.3,14,14,14h136c7.7,0,14-6.3,14-14v-2
			C164.5,41.7,158.2,48,150.5,48z"/>
	</g>
	<g>
		<g class="st9">
			<path class="st7" d="M51.3,21.1c0-0.9,0.6-1.3,1.4-0.7l4.3,3c0.8,0.5,0.8,1.4,0,2l-4.3,3c-0.8,0.5-1.4,0.2-1.4-0.7V21.1z"/>
			<path class="st7" d="M45.7,24.4c0-4.5,3.6-8.1,8.1-8.1l0,0c4.5,0,8.1,3.6,8.1,8.1l0,0c0,4.5-3.6,8.1-8.1,8.1l0,0
				C49.4,32.5,45.7,28.9,45.7,24.4L45.7,24.4z M47,24.4c0,3.8,3.1,6.8,6.8,6.8l0,0c3.8,0,6.8-3.1,6.8-6.8l0,0c0-3.8-3.1-6.8-6.8-6.8
				l0,0C50.1,17.6,47,20.6,47,24.4L47,24.4L47,24.4z"/>
		</g>
		<g>
			<g>
				<g>
					<g>
						<path class="st10" d="M50.8,20.6c0-0.9,0.6-1.3,1.4-0.7l4.3,3c0.8,0.5,0.8,1.4,0,2l-4.3,3c-0.8,0.5-1.4,0.2-1.4-0.7V20.6z"/>
					</g>
				</g>
				<g>
					<path class="st10" d="M45.2,23.9c0-4.5,3.6-8.1,8.1-8.1l0,0c4.5,0,8.1,3.6,8.1,8.1l0,0c0,4.5-3.6,8.1-8.1,8.1l0,0
						C48.9,32,45.2,28.4,45.2,23.9L45.2,23.9z M46.5,23.9c0,3.8,3.1,6.8,6.8,6.8l0,0c3.8,0,6.8-3.1,6.8-6.8l0,0
						c0-3.8-3.1-6.8-6.8-6.8l0,0C49.6,17.1,46.5,20.1,46.5,23.9L46.5,23.9L46.5,23.9z"/>
				</g>
			</g>
		</g>
	</g>
	<g>
		<g class="st9">
			<g>
				<path class="st7" d="M65.8,20.7c0-2.1,1.6-3.7,3.7-3.7c2.1,0,3.7,1.5,3.7,3.7c0,2.1-1.6,3.7-3.7,3.7
					C67.3,24.3,65.8,22.8,65.8,20.7z M67.4,20.7c0,1.4,1,2.3,2.1,2.3c1.1,0,2.1-0.8,2.1-2.3c0-1.4-1-2.3-2.1-2.3
					C68.4,18.4,67.4,19.2,67.4,20.7z M69.7,28.5c0-1.9,1.5-3.4,3.6-3.4s3.6,1.5,3.6,3.4s-1.5,3.4-3.6,3.4S69.7,30.4,69.7,28.5z
					 M71.3,28.5c0,1.2,0.9,2,2.1,2c1.1,0,2.1-0.8,2.1-2c0-1.2-0.9-2-2.1-2C72.2,26.5,71.3,27.3,71.3,28.5z M77.3,24.3
					c0,1-1.6,1-1.6,0v-1.5h-2.4v-1.4h2.4v-1.6h-2.4v-1.4h2.4v-1.5h1.6V24.3z"/>
				<path class="st7" d="M85.5,23.7c-1-0.5-2-1.4-3-2.4c-0.7,1.2-1.7,2.4-3,3.2c-1,0.7-1.7-0.6-0.9-1.2c2.4-1.7,3.5-4.4,3.6-6.4h1.7
					c0,0.8-0.3,1.8-0.6,2.8c1,1.2,2.1,2.1,3,2.6C87.1,22.9,86.5,24.3,85.5,23.7z M82.4,28.5c0-1.9,1.5-3.4,3.6-3.4
					c2.1,0,3.6,1.5,3.6,3.4s-1.5,3.4-3.6,3.4C84,31.8,82.4,30.3,82.4,28.5z M84,28.5c0,1.2,1,2,2.1,2c1.1,0,2-0.8,2-2
					c0-1.1-0.9-2-2-2C85,26.5,84,27.3,84,28.5z M89.8,24.2c0,1-1.6,1-1.6,0v-7.3h1.6V20h2v1.4h-2V24.2z"/>
				<path class="st7" d="M98.7,17.1v2.2h6.1v-2.2h1.6v7.5h-3.9v2.3h5.7v1.4h-13v-1.4h5.7v-2.3h-1.4c-1.5,0-2.5-1-2.5-2.5v-4.9H98.7z
					 M99.6,23.1h5.2v-2.4h-6.1V22C98.7,22.9,99.1,23.1,99.6,23.1z"/>
				<path class="st7" d="M108.8,25.6c3.5-1.5,4.8-4.4,5-6c0-0.4-0.2-0.6-0.6-0.6h-4.5v-1.4h5.3c1.2,0,1.7,0.8,1.5,2
					c-0.4,2-1.8,5.6-6.1,7.3C108.3,27.3,108,26,108.8,25.6z M119.9,27.6c0,1-1.6,1-1.6,0V17.1h1.6V27.6z"/>
			</g>
			<g>
				<path class="st7" d="M65.3,20.2c0-2.1,1.6-3.7,3.7-3.7c2.1,0,3.7,1.5,3.7,3.7c0,2.1-1.6,3.7-3.7,3.7
					C66.8,23.8,65.3,22.3,65.3,20.2z M66.9,20.2c0,1.4,1,2.3,2.1,2.3c1.1,0,2.1-0.8,2.1-2.3c0-1.4-1-2.3-2.1-2.3
					C67.9,17.9,66.9,18.7,66.9,20.2z M69.2,28c0-1.9,1.5-3.4,3.6-3.4s3.6,1.5,3.6,3.4s-1.5,3.4-3.6,3.4S69.2,29.9,69.2,28z M70.8,28
					c0,1.2,0.9,2,2.1,2c1.1,0,2.1-0.8,2.1-2c0-1.2-0.9-2-2.1-2C71.7,26,70.8,26.8,70.8,28z M76.8,23.8c0,1-1.6,1-1.6,0v-1.5h-2.4
					v-1.4h2.4v-1.6h-2.4v-1.4h2.4v-1.5h1.6V23.8z"/>
				<path class="st7" d="M85,23.2c-1-0.5-2-1.4-3-2.4c-0.7,1.2-1.7,2.4-3,3.2c-1,0.7-1.7-0.6-0.9-1.2c2.4-1.7,3.5-4.4,3.6-6.4h1.7
					c0,0.8-0.3,1.8-0.6,2.8c1,1.2,2.1,2.1,3,2.6C86.6,22.4,86,23.8,85,23.2z M81.9,28c0-1.9,1.5-3.4,3.6-3.4c2.1,0,3.6,1.5,3.6,3.4
					s-1.5,3.4-3.6,3.4C83.5,31.3,81.9,29.8,81.9,28z M83.5,28c0,1.2,1,2,2.1,2c1.1,0,2-0.8,2-2c0-1.1-0.9-2-2-2
					C84.5,26,83.5,26.8,83.5,28z M89.3,23.7c0,1-1.6,1-1.6,0v-7.3h1.6v3.1h2V21h-2V23.7z"/>
				<path class="st7" d="M98.2,16.6v2.2h6.1v-2.2h1.6V24H102v2.3h5.7v1.4h-13v-1.4h5.7V24H99c-1.5,0-2.5-1-2.5-2.5v-4.9H98.2z
					 M99.1,22.6h5.2v-2.4h-6.1v1.3C98.2,22.4,98.6,22.6,99.1,22.6z"/>
				<path class="st7" d="M108.3,25.1c3.5-1.5,4.8-4.4,5-6c0-0.4-0.2-0.6-0.6-0.6h-4.5v-1.4h5.3c1.2,0,1.7,0.8,1.5,2
					c-0.4,2-1.8,5.6-6.1,7.3C107.8,26.8,107.5,25.5,108.3,25.1z M119.4,27.1c0,1-1.6,1-1.6,0V16.6h1.6V27.1z"/>
			</g>
		</g>
		<g>
			<g class="st9">
				<g>
					<path class="st11" d="M65.3,20.2c0-2.1,1.6-3.7,3.7-3.7c2.1,0,3.7,1.5,3.7,3.7c0,2.1-1.6,3.7-3.7,3.7
						C66.8,23.8,65.3,22.3,65.3,20.2z M66.9,20.2c0,1.4,1,2.3,2.1,2.3c1.1,0,2.1-0.8,2.1-2.3c0-1.4-1-2.3-2.1-2.3
						C67.9,17.9,66.9,18.7,66.9,20.2z M69.2,28c0-1.9,1.5-3.4,3.6-3.4s3.6,1.5,3.6,3.4s-1.5,3.4-3.6,3.4S69.2,29.9,69.2,28z
						 M70.8,28c0,1.2,0.9,2,2.1,2c1.1,0,2.1-0.8,2.1-2c0-1.2-0.9-2-2.1-2C71.7,26,70.8,26.8,70.8,28z M76.8,23.8c0,1-1.6,1-1.6,0
						v-1.5h-2.4v-1.4h2.4v-1.6h-2.4v-1.4h2.4v-1.5h1.6V23.8z"/>
					<path class="st11" d="M85,23.2c-1-0.5-2-1.4-3-2.4c-0.7,1.2-1.7,2.4-3,3.2c-1,0.7-1.7-0.6-0.9-1.2c2.4-1.7,3.5-4.4,3.6-6.4h1.7
						c0,0.8-0.3,1.8-0.6,2.8c1,1.2,2.1,2.1,3,2.6C86.6,22.4,86,23.8,85,23.2z M81.9,28c0-1.9,1.5-3.4,3.6-3.4c2.1,0,3.6,1.5,3.6,3.4
						s-1.5,3.4-3.6,3.4C83.5,31.3,81.9,29.8,81.9,28z M83.5,28c0,1.2,1,2,2.1,2c1.1,0,2-0.8,2-2c0-1.1-0.9-2-2-2
						C84.5,26,83.5,26.8,83.5,28z M89.3,23.7c0,1-1.6,1-1.6,0v-7.3h1.6v3.1h2V21h-2V23.7z"/>
					<path class="st11" d="M98.2,16.6v2.2h6.1v-2.2h1.6V24H102v2.3h5.7v1.4h-13v-1.4h5.7V24H99c-1.5,0-2.5-1-2.5-2.5v-4.9H98.2z
						 M99.1,22.6h5.2v-2.4h-6.1v1.3C98.2,22.4,98.6,22.6,99.1,22.6z"/>
					<path class="st11" d="M108.3,25.1c3.5-1.5,4.8-4.4,5-6c0-0.4-0.2-0.6-0.6-0.6h-4.5v-1.4h5.3c1.2,0,1.7,0.8,1.5,2
						c-0.4,2-1.8,5.6-6.1,7.3C107.8,26.8,107.5,25.5,108.3,25.1z M119.4,27.1c0,1-1.6,1-1.6,0V16.6h1.6V27.1z"/>
				</g>
			</g>
			<g>
				<g>
					<path d="M64.8,19.7c0-2.1,1.6-3.7,3.7-3.7c2.1,0,3.7,1.5,3.7,3.7c0,2.1-1.6,3.7-3.7,3.7C66.3,23.3,64.8,21.8,64.8,19.7z
						 M66.4,19.7c0,1.4,1,2.3,2.1,2.3c1.1,0,2.1-0.8,2.1-2.3c0-1.4-1-2.3-2.1-2.3C67.4,17.4,66.4,18.2,66.4,19.7z M68.7,27.5
						c0-1.9,1.5-3.4,3.6-3.4s3.6,1.5,3.6,3.4s-1.5,3.4-3.6,3.4S68.7,29.4,68.7,27.5z M70.3,27.5c0,1.2,0.9,2,2.1,2
						c1.1,0,2.1-0.8,2.1-2c0-1.2-0.9-2-2.1-2C71.2,25.5,70.3,26.3,70.3,27.5z M76.3,23.3c0,1-1.6,1-1.6,0v-1.5h-2.4v-1.4h2.4v-1.6
						h-2.4v-1.4h2.4v-1.5h1.6V23.3z"/>
					<path d="M84.5,22.7c-1-0.5-2-1.4-3-2.4c-0.7,1.2-1.7,2.4-3,3.2c-1,0.7-1.7-0.6-0.9-1.2c2.4-1.7,3.5-4.4,3.6-6.4h1.7
						c0,0.8-0.3,1.8-0.6,2.8c1,1.2,2.1,2.1,3,2.6C86.1,21.9,85.5,23.3,84.5,22.7z M81.4,27.5c0-1.9,1.5-3.4,3.6-3.4
						c2.1,0,3.6,1.5,3.6,3.4s-1.5,3.4-3.6,3.4C83,30.8,81.4,29.3,81.4,27.5z M83,27.5c0,1.2,1,2,2.1,2c1.1,0,2-0.8,2-2
						c0-1.1-0.9-2-2-2C84,25.5,83,26.3,83,27.5z M88.8,23.2c0,1-1.6,1-1.6,0v-7.3h1.6V19h2v1.4h-2V23.2z"/>
					<path d="M97.7,16.1v2.2h6.1v-2.2h1.6v7.5h-3.9v2.3h5.7v1.4h-13v-1.4h5.7v-2.3h-1.4c-1.5,0-2.5-1-2.5-2.5v-4.9H97.7z M98.6,22.1
						h5.2v-2.4h-6.1V21C97.7,21.9,98.1,22.1,98.6,22.1z"/>
					<path d="M107.8,24.6c3.5-1.5,4.8-4.4,5-6c0-0.4-0.2-0.6-0.6-0.6h-4.5v-1.4h5.3c1.2,0,1.7,0.8,1.5,2c-0.4,2-1.8,5.6-6.1,7.3
						C107.3,26.3,107,25,107.8,24.6z M118.9,26.6c0,1-1.6,1-1.6,0V16.1h1.6V26.6z"/>
				</g>
			</g>
		</g>
	</g>
</g>
</svg>
