<?xml version="1.0" encoding="utf-8"?>
<!-- Generator: Adobe Illustrator 18.1.1, SVG Export Plug-In . SVG Version: 6.00 Build 0)  -->
<svg version="1.1" id="Layer_1" xmlns="http://www.w3.org/2000/svg" xmlns:xlink="http://www.w3.org/1999/xlink" x="0px" y="0px"
	 viewBox="0 0 432 60" style="enable-background:new 0 0 432 60;" xml:space="preserve">
<style type="text/css">
	.st0{opacity:0;}
	.st1{opacity:0.1667;}
	.st2{opacity:0.3333;}
	.st3{opacity:0.5;}
	.st4{opacity:0.6667;}
	.st5{opacity:0.8333;}
	.st6{fill:url(#SVGID_1_);}
	.st7{fill:#FFFFFF;}
	.st8{fill:#4D4D4D;}
	.st9{opacity:0.92;}
	.st10{fill:url(#SVGID_2_);}
	.st11{fill-rule:evenodd;clip-rule:evenodd;fill:#FFFFFF;}
	.st12{fill-rule:evenodd;clip-rule:evenodd;fill:#231F20;}
	.st13{fill:url(#SVGID_3_);}
	.st14{fill:#DADFE0;}
	.st15{fill:#231F20;}
	.st16{fill:url(#SVGID_4_);}
	.st17{fill:url(#SVGID_5_);}
	.st18{fill:url(#SVGID_6_);}
	.st19{fill:#2B52CC;}
	.st20{fill:url(#SVGID_7_);}
	.st21{fill:#0E68A4;}
	.st22{fill:#D0D2D3;}
	.st23{fill:#EC1C24;}
	.st24{fill:#F06162;}
	.st25{fill:#26A9E0;}
</style>
<g>
	<g>
		<g>
			<g>
				<path class="st0" d="M431,45c0,7.7-6.3,14-14,14H14C6.3,59,0,52.7,0,45V15C0,7.3,6.3,1,14,1h403c7.7,0,14,6.3,14,14V45z"/>
				<path class="st1" d="M431,43.7c0,7.7-6.3,14-14,14H14c-7.7,0-14-6.3-14-14V15C0,7.3,6.3,1,14,1h403c7.7,0,14,6.3,14,14V43.7z"/>
				<path class="st2" d="M431,42.3c0,7.7-6.3,14-14,14H14c-7.7,0-14-6.3-14-14V15C0,7.3,6.3,1,14,1h403c7.7,0,14,6.3,14,14V42.3z"/>
				<path class="st3" d="M431,41c0,7.7-6.3,14-14,14H14C6.3,55,0,48.7,0,41V15C0,7.3,6.3,1,14,1h403c7.7,0,14,6.3,14,14V41z"/>
				<path class="st4" d="M431,39.7c0,7.7-6.3,14-14,14H14c-7.7,0-14-6.3-14-14V15C0,7.3,6.3,1,14,1h403c7.7,0,14,6.3,14,14V39.7z"/>
				<path class="st5" d="M431,38.3c0,7.7-6.3,14-14,14H14c-7.7,0-14-6.3-14-14V15C0,7.3,6.3,1,14,1h403c7.7,0,14,6.3,14,14V38.3z"/>
				<path d="M431,37c0,7.7-6.3,14-14,14H14C6.3,51,0,44.7,0,37V15C0,7.3,6.3,1,14,1h403c7.7,0,14,6.3,14,14V37z"/>
			</g>
			<linearGradient id="SVGID_1_" gradientUnits="userSpaceOnUse" x1="215.4995" y1="51" x2="215.4995" y2="1">
				<stop  offset="0" style="stop-color:#8C8C8C"/>
				<stop  offset="1" style="stop-color:#D9D9D9"/>
			</linearGradient>
			<path class="st6" d="M431,37c0,7.7-6.3,14-14,14H14C6.3,51,0,44.7,0,37V15C0,7.3,6.3,1,14,1h403c7.7,0,14,6.3,14,14V37z"/>
			<path class="st7" d="M417,1H14C6.3,1,0,7.3,0,15v2C0,9.3,6.3,3,14,3h403c7.7,0,14,6.3,14,14v-2C431,7.3,424.7,1,417,1z"/>
			<path class="st8" d="M417,49H14C6.3,49,0,42.7,0,35v2c0,7.7,6.3,14,14,14h403c7.7,0,14-6.3,14-14v-2C431,42.7,424.7,49,417,49z"
				/>
		</g>
	</g>
	<g>
		<path d="M107.6,32c0,1-1.6,1-1.6,0v-3.6h-3.4V32c0,1-1.6,1-1.6,0v-3.6h-3.2v-1.4h13v1.4h-3.2V32z M100.3,22.3c0-2,1.7-3.6,4-3.6
			c2.3,0,4,1.6,4,3.6s-1.7,3.6-4,3.6C102,25.9,100.3,24.3,100.3,22.3z M101.9,22.3c0,1.4,1.1,2.3,2.4,2.3c1.3,0,2.4-0.9,2.4-2.3
			c0-1.4-1.1-2.2-2.4-2.2C103,20,101.9,20.9,101.9,22.3z"/>
		<path d="M124.1,28.5h-3.2V32c0,1-1.6,1-1.6,0v-3.4h-3.4V32c0,1-1.6,1-1.6,0v-3.4h-3.2v-1.4h13V28.5z M122.2,23h-7.7v0.4
			c0,0.7,0.3,0.9,1,0.9h7v1.4h-7.3c-1.3,0-2.3-0.9-2.3-2.3v-4.4h9.3v1.4h-7.7v1.1h7.7V23z"/>
		<path d="M137.4,30.1h-13v-1.4h13V30.1z M127.9,19.1v2.2h6.1v-2.2h1.6v7.5h-6.9c-1.5,0-2.5-1-2.5-2.5v-4.9H127.9z M128.8,25.1h5.2
			v-2.4h-6.1V24C127.9,24.9,128.3,25.1,128.8,25.1z"/>
		<path d="M140.8,29.5c0.6,1.4-0.4,3.1-1.4,3.7c-0.6,0.4-1.2-0.3-0.7-0.7c0.4-0.4,0.6-0.8,0.5-1.2c-0.6,0-1.1-0.4-1.2-0.9
			c-0.2-0.5,0.2-1.4,0.8-1.6C139.7,28.5,140.5,29,140.8,29.5z"/>
		<path d="M157.9,30.1h-13v-1.4h13V30.1z M155.9,23.5h-7.5v0.8c0,0.7,0.3,0.9,1,0.9h6.9v1.4h-7.2c-1.3,0-2.3-0.9-2.3-2.3v-5.2h9.1
			v1.4h-7.5v1.4h7.5V23.5z"/>
		<path d="M163.8,30.8c0,1-1.6,1-1.6,0v-3.1h-3.8v-1.4h9.3v1.4h-3.9V30.8z M159.3,22c0-1.8,1.5-3.3,3.5-3.3s3.5,1.5,3.5,3.3
			c0,1.8-1.5,3.3-3.5,3.3S159.3,23.9,159.3,22z M160.8,22c0,1.2,0.9,1.9,2,1.9s2-0.7,2-1.9c0-1.2-0.9-1.9-2-1.9S160.8,20.9,160.8,22
			z M170.3,31.2c0,1-1.6,1-1.6,0V19.1h1.6V31.2z"/>
		<path d="M179.2,29.2h-4.5c-1.6,0-2.8-1.1-2.8-2.7v-7.1h6.8v1.4h-5.2v2.1h4.3v1.4h-4.3v1.9c0,1.1,0.7,1.4,1.4,1.4h4.4V29.2z
			 M183.1,29.6c0,1-1.6,1-1.6,0v-5.2h-2.6v-1.4h2.6v-3.8h1.6V29.6z"/>
		<path d="M187.2,29.5c0.6,1.4-0.4,3.1-1.4,3.7c-0.6,0.4-1.2-0.3-0.7-0.7c0.4-0.4,0.6-0.8,0.5-1.2c-0.6,0-1.1-0.4-1.2-0.9
			c-0.2-0.5,0.2-1.4,0.8-1.6C186.2,28.5,187,29,187.2,29.5z"/>
		<path d="M199.2,29.1h-7.7v-1.4h1.4v-5.8h1.6v5.8h1.6v-5.8h1.6v5.8h1.6V29.1z M198.7,21h-7.1v-1.4h7.1V21z M201.9,29.4
			c0,1-1.6,1-1.6,0v-4.7h-1.9v-1.4h1.9v-4.2h1.6V29.4z M204.7,29.6c0,1-1.6,1-1.6,0V19.1h1.6V29.6z"/>
		<path d="M205.5,23.4c0-2.4,1.7-4.2,4-4.2s4,1.8,4,4.2c0,2.4-1.7,4.2-4,4.2S205.5,25.7,205.5,23.4z M207.1,23.4
			c0,1.7,1.1,2.8,2.4,2.8s2.4-1,2.4-2.8c0-1.7-1.1-2.7-2.4-2.7S207.1,21.6,207.1,23.4z M217.3,29.6c0,1-1.6,1-1.6,0V19.1h1.6V29.6z"
			/>
		<path d="M231.5,30.1h-13v-1.4h13V30.1z M229.6,25.6c-1.7-0.8-3.6-2.3-4.6-3.5c-1,1.5-2.4,2.8-4.4,3.7c-1.1,0.5-1.6-0.8-0.7-1.3
			c2.8-1.3,4.3-3.7,4.7-5.8l1.7,0.3c-0.1,0.5-0.3,1.1-0.6,1.6c1.2,1.6,3,3,4.3,3.6C231.1,24.8,230.6,26.1,229.6,25.6z"/>
		<path d="M245.2,27.5h-5.8V29h3.3c0.4,0,0.5,0.1,0.5,0.5v3.4c0,1-1.6,1-1.6,0v-2.5h-7.6V29h3.8v-1.5h-5.9V26h13.3V27.5z
			 M243.3,18.8v6h-7.4c-1.3,0-2.2-0.8-2.2-2.1v-3.9h1.6v1.4h6.4v-1.4H243.3z M236.2,23.4h5.5v-1.7h-6.4v0.9
			C235.3,23.2,235.6,23.4,236.2,23.4z"/>
		<path d="M255.5,29.4c0,1-1.6,1-1.6,0v-5.5h-1.3c-0.3,2-1.9,3.2-3.6,3.2c-1.9,0-3.6-1.5-3.6-3.9c0-2.4,1.7-3.9,3.6-3.9
			c1.7,0,3.2,1.2,3.6,3.2h1.3v-3.4h1.6V29.4z M247,23.2c0,1.7,1.1,2.5,2.1,2.5c0.9,0,2.1-0.8,2.1-2.5s-1.1-2.5-2.1-2.5
			C248.1,20.7,247,21.5,247,23.2z M258.3,29.6c0,1-1.6,1-1.6,0V19.1h1.6V29.6z"/>
		<path d="M267.1,25.6c0.1-0.1,0.2-0.2,0.3-0.3c-0.5-0.4-1-0.9-1.5-1.4c-0.7,1.1-1.5,2.1-2.4,2.7c-0.9,0.6-1.7-0.5-0.9-1.1
			c1.6-1.2,2.8-3.6,2.8-4.4c0-0.3-0.2-0.3-0.4-0.3H263v-1.4h2.8c1,0,1.5,0.4,1.4,1.4c0,0.4-0.2,1-0.5,1.7c0.5,0.7,1.1,1.3,1.7,1.7
			c1-1.3,1.5-2.6,1.6-3.1c0-0.3-0.1-0.4-0.4-0.4h-1.9v-1.4h2.6c1,0,1.6,0.4,1.5,1.4c-0.1,0.6-0.4,1.4-0.8,2.4
			c0.5,0.7,1.1,1.2,1.6,1.7c0.8,0.6,0,1.7-0.9,1.1c-0.4-0.3-1-0.8-1.6-1.4c-0.5,0.8-1.2,1.6-1.9,2.2
			C267.2,27.4,266.3,26.2,267.1,25.6z M275.5,32.9c0,1-1.6,1-1.6,0v-3.2h-7.2v-1.4h8.2c0.4,0,0.5,0.1,0.5,0.5V32.9z M275.5,26.5
			c0,1-1.6,1-1.6,0v-7.6h1.6V26.5z"/>
		<path d="M289.8,27.7h-13.3v-1.4h13.3V27.7z M288.2,33.4h-6.8c-1.6,0-2.8-1.1-2.8-2.7v-2h1.6v1.9c0,1.1,0.7,1.4,1.4,1.4h6.7V33.4z
			 M279.2,21.9c0-2,1.6-3.5,3.9-3.5s3.9,1.5,3.9,3.5c0,2-1.6,3.5-3.9,3.5S279.2,23.9,279.2,21.9z M280.8,21.9c0,1.3,1.1,2.1,2.4,2.1
			c1.3,0,2.4-0.9,2.4-2.1c0-1.2-1.1-2.1-2.4-2.1C281.9,19.8,280.8,20.6,280.8,21.9z"/>
		<path d="M294,22.7c0-2.1,1.6-3.7,3.7-3.7s3.7,1.5,3.7,3.7c0,2.1-1.6,3.7-3.7,3.7S294,24.8,294,22.7z M295.6,22.7
			c0,1.4,1,2.3,2.1,2.3s2.1-0.8,2.1-2.3c0-1.4-1-2.3-2.1-2.3S295.6,21.2,295.6,22.7z M298,30.5c0-1.9,1.5-3.4,3.6-3.4
			s3.6,1.5,3.6,3.4s-1.5,3.4-3.6,3.4S298,32.4,298,30.5z M299.5,30.5c0,1.2,0.9,2,2.1,2c1.1,0,2.1-0.8,2.1-2c0-1.2-0.9-2-2.1-2
			C300.5,28.5,299.5,29.3,299.5,30.5z M305.6,26.3c0,1-1.6,1-1.6,0v-1.5h-2.4v-1.4h2.4v-1.6h-2.4v-1.4h2.4v-1.5h1.6V26.3z"/>
		<path d="M313.7,25.7c-1-0.5-2-1.4-3-2.4c-0.7,1.2-1.7,2.4-3,3.2c-1,0.7-1.7-0.6-0.9-1.2c2.4-1.7,3.5-4.4,3.6-6.4h1.7
			c0,0.8-0.3,1.8-0.6,2.8c1,1.2,2.1,2.1,3,2.6C315.4,24.9,314.7,26.3,313.7,25.7z M310.7,30.5c0-1.9,1.5-3.4,3.6-3.4
			c2.1,0,3.6,1.5,3.6,3.4s-1.5,3.4-3.6,3.4C312.2,33.8,310.7,32.3,310.7,30.5z M312.2,30.5c0,1.2,1,2,2.1,2c1.1,0,2-0.8,2-2
			c0-1.1-0.9-2-2-2C313.2,28.5,312.2,29.3,312.2,30.5z M318.1,26.2c0,1-1.6,1-1.6,0v-7.3h1.6V22h2v1.4h-2V26.2z"/>
		<path d="M333.2,27h-13.3v-1.4h13.3V27z M331.6,33.7h-7.6c-1.1,0-2.1-0.7-2.1-2V30h7.6v-0.7H322v-1.4h9.2v3.6h-7.6v0.3
			c0,0.4,0.3,0.5,0.7,0.5h7.4V33.7z M322.7,21.6c0-1.9,1.6-3.3,3.8-3.3s3.8,1.4,3.8,3.3s-1.6,3.4-3.8,3.4S322.7,23.5,322.7,21.6z
			 M324.3,21.6c0,1.2,1.1,2,2.3,2c1.2,0,2.2-0.8,2.2-2c0-1.2-1.1-1.9-2.2-1.9C325.4,19.7,324.3,20.4,324.3,21.6z"/>
		<path d="M350.4,27h-13.3v-1.4h5.9v-0.7c-1.8-0.3-3-1.6-3-3.3c0-1.9,1.6-3.3,3.8-3.3c2.2,0,3.8,1.4,3.8,3.3c0,1.7-1.2,3-3,3.3v0.7
			h5.8V27z M348.9,33.7h-7.6c-1.1,0-2.1-0.7-2.1-2V30h7.6v-0.7h-7.6v-1.4h9.2v3.6h-7.6v0.3c0,0.4,0.3,0.5,0.7,0.5h7.4V33.7z
			 M341.5,21.6c0,1.2,1.1,2,2.3,2c1.2,0,2.2-0.7,2.2-2c0-1.2-1.1-1.9-2.2-1.9C342.6,19.7,341.5,20.3,341.5,21.6z"/>
		<path d="M358.5,29.4H354c-1.6,0-2.8-1.1-2.8-2.7v-3.5h5v-2.4h-5v-1.4h6.6v5.3h-5v1.9c0,1.1,0.7,1.4,1.4,1.4h4.3V29.4z M362.4,29.6
			c0,1-1.6,1-1.6,0v-2.9h-2.4v-1.4h2.4v-2.2h-2.3v-1.4h2.3v-2.4h1.6V29.6z"/>
		<path d="M370.9,32c0,1-1.6,1-1.6,0v-3.6h-5.7v-1.4h13v1.4h-5.7V32z M373.6,20.9c-0.3,0.6-0.8,1.1-1.3,1.5c0.9,0.6,2,1.1,2.9,1.4
			c1,0.4,0.6,1.7-0.5,1.4c-1.2-0.4-2.6-1.1-3.8-1.8c-1.7,1-3.7,1.7-5.4,2c-1.1,0.2-1.2-1.2-0.3-1.4c3.3-0.7,5.7-2.3,6.3-2.9
			c0.3-0.4,0.3-0.4-0.2-0.4h-5.5v-1.4h6.6C373.7,19.2,374.1,20,373.6,20.9z"/>
		<path d="M382.5,28.2c-0.9-0.8-1.7-1.8-2.4-2.9c-0.6,1.3-1.5,2.5-2.5,3.3c-0.9,0.7-1.8-0.4-1-1.1c2.2-2,3.2-5.7,3.3-8.2h1.7
			c0,1.2-0.3,2.8-0.8,4.2c0.8,1.5,1.7,2.8,2.6,3.6C384.3,27.8,383.4,29,382.5,28.2z M386.8,29.4c0,1-1.6,1-1.6,0V24h-2.5v-1.4h2.5
			v-3.5h1.6V29.4z M389.8,29.6c0,1-1.6,1-1.6,0V19.1h1.6V29.6z"/>
		<path d="M403.6,30.2h-13v-1.4h3.3v-2.4h1.6v2.4h3.1v-2.4h1.6v2.4h3.3V30.2z M393,22.6c0-2.1,1.7-3.8,4.1-3.8s4.1,1.6,4.1,3.8
			c0,2.1-1.7,3.8-4.1,3.8S393,24.7,393,22.6z M394.6,22.6c0,1.5,1.1,2.4,2.5,2.4c1.3,0,2.5-0.9,2.5-2.4c0-1.5-1.1-2.4-2.5-2.4
			C395.7,20.2,394.6,21.1,394.6,22.6z"/>
	</g>
</g>
<path class="st21" d="M62.9,25c0,4.4-2.4,8.3-5.9,10.4c-1.8,1.1-3.9,1.7-6.2,1.7c-6.7,0-12.1-5.4-12.1-12.1
	c0-6.7,5.4-12.1,12.1-12.1c6.4,0,11.6,4.9,12.1,11.2C62.9,24.4,62.9,24.7,62.9,25z"/>
<g>
	<path class="st7" d="M48.8,23.2c0,0,2.9-2.9,3.2-3.3c0.3-0.4,1.1-0.9,1.5-0.5c0.5,0.4,0.4,0.8,0.1,1.3C53.4,21,52,23.3,52,23.3h4.1
		c0.2,0,0.8,0.2,0.8,0.8c0,0.6-0.5,0.8-0.8,0.9c0,0,0.6,0.2,0.6,0.9c0,0.7-0.8,0.8-0.8,0.8c0,0,0.6,0.1,0.6,0.9c0,0.8-0.8,0.8-1,0.8
		c0,0,0.5,0.1,0.5,0.7c0,0.6-0.6,0.7-1,0.7h-6.2V23.2z"/>
	<path class="st7" d="M46,23v6.8c0,0-0.1,0.6,0.3,0.7c0.4,0,1.8,0,1.8,0s0.6-0.2,0.6-0.6c0.1-0.4,0-6.9,0-6.9s-0.2-0.4-0.5-0.4
		c-0.3,0-1.9,0-1.9,0S46,22.8,46,23z"/>
</g>
<path class="st22" d="M89.8,25.6c0,0,0,0.1,0,0.1c0,4.5-2.5,8.5-6.1,10.6c-0.7,0.4-1.4,0.7-2.1,1c-1.3,0.5-2.8,0.8-4.3,0.8
	c-6.9,0-12.5-5.6-12.5-12.5c0-6.9,5.6-12.5,12.5-12.5c6.6,0,12,5.1,12.4,11.5C89.8,25,89.8,25.3,89.8,25.6z"/>
<g>
	<path class="st23" d="M85.3,22.1c-0.1-0.7-0.6-1.5-1.8-1.8c-0.7-0.2-3.4-0.6-6.2-0.6c-2.8,0-5.5,0.5-6.2,0.6
		c-1.2,0.2-1.6,1-1.8,1.8c-0.1,0.7-0.4,2.1-0.4,3.5c0,1.4,0.3,2.7,0.4,3.5c0.2,0.7,0.6,1.6,1.8,1.8c1.1,0.2,3.4,0.6,6.2,0.6
		c2.8,0,5.1-0.5,6.2-0.6c1.1-0.2,1.6-1,1.8-1.8c0.2-0.7,0.4-2.1,0.4-3.5C85.7,24.2,85.4,22.9,85.3,22.1z"/>
	<path class="st24" d="M69.2,24.7c0.1-0.9,0.2-1.6,0.3-2.2c0-0.1,0-0.2,0.1-0.3c0.1-0.4,0.2-0.7,0.4-1c0.3-0.3,0.6-0.5,1.1-0.6h0
		l0,0c0.2,0,1-0.2,2.3-0.4c1.4-0.2,2.6-0.3,3.9-0.3c1.2,0,2.5,0.1,3.9,0.3c1.3,0.2,2.1,0.3,2.3,0.4l0,0h0c0.5,0.1,0.9,0.3,1.1,0.6
		c0.2,0.2,0.4,0.6,0.4,1c0,0.1,0,0.2,0.1,0.3c0.1,0.6,0.3,1.4,0.3,2.4c0,0.7-0.5,1-1.3,0.9C82.6,25.5,80,25,77.3,25
		c-2.9,0-5.8,0.6-7.2,0.7C69.5,25.8,69.1,25.3,69.2,24.7z"/>
	<path class="st7" d="M74.7,22.3c0-0.6,0.5-0.9,1-0.6l5.6,3.2c0.6,0.3,0.6,0.9,0,1.2l-5.6,3.2c-0.6,0.3-1,0.1-1-0.6V22.3z"/>
</g>
<path class="st25" d="M36.6,24.7c0,3.8-1.7,7.2-4.5,9.4c-2.1,1.7-4.7,2.7-7.5,2.7c-6.6,0-12-5.4-12-12c0-6.6,5.4-12,12-12
	c5.9,0,10.8,4.2,11.8,9.8C36.5,23.2,36.6,24,36.6,24.7z"/>
<path class="st7" d="M18.4,20.1c0,0,1.7,5.5,5,6.1c0,0,2.3,0.6,3-1.3c0.7-1.9-1.4-3.1-2.4-3C23,22,20.2,22.6,18.4,20.1z"/>
<path class="st7" d="M32,20.7l-1.8,0.3c-0.5-1.9-2.2-2.5-3.9-2c-1.3,0.4-2.1,1.6-2.2,2.3c0,0,0,0,0,0c0.8,0,1.9,0.5,2.5,1.4
	c0.2,0.3,0.4,0.7,0.4,1c0.1,0.4,0,0.8-0.1,1.2c-0.4,1.1-1.3,1.6-2.6,1.6c-0.5,0-0.8-0.1-0.9-0.1c-0.4-0.1-0.7-0.2-1-0.3
	c-2.2,1.2-5.2,0.1-5.2,0.1c0.5,0.5,1.8,1.2,1.8,1.2c10.8,3.4,11.5-5.1,11.5-5.1l1.6,0.2l-1.6-1L32,20.7z M28,21
	c-0.3,0-0.5-0.2-0.5-0.5c0-0.3,0.2-0.5,0.5-0.5c0.3,0,0.5,0.2,0.5,0.5C28.5,20.7,28.3,21,28,21z"/>
</svg>
