<?xml version="1.0" encoding="utf-8"?>
<!-- Generator: Adobe Illustrator 18.1.1, SVG Export Plug-In . SVG Version: 6.00 Build 0)  -->
<svg version="1.1" id="Layer_1" xmlns="http://www.w3.org/2000/svg" xmlns:xlink="http://www.w3.org/1999/xlink" x="0px" y="0px"
	 viewBox="0 0 165 60" style="enable-background:new 0 0 165 60;" xml:space="preserve">
<style type="text/css">
	.st0{opacity:0;}
	.st1{opacity:0.1667;}
	.st2{opacity:0.3333;}
	.st3{opacity:0.5;}
	.st4{opacity:0.6667;}
	.st5{opacity:0.8333;}
	.st6{fill:url(#SVGID_1_);}
	.st7{fill:#FFFFFF;}
	.st8{fill:#4D4D4D;}
	.st9{opacity:0.92;}
	.st10{fill:url(#SVGID_2_);}
	.st11{fill-rule:evenodd;clip-rule:evenodd;fill:#FFFFFF;}
	.st12{fill-rule:evenodd;clip-rule:evenodd;fill:#231F20;}
	.st13{fill:url(#SVGID_3_);}
	.st14{fill:#DADFE0;}
	.st15{fill:#231F20;}
	.st16{fill:url(#SVGID_4_);}
	.st17{fill:url(#SVGID_5_);}
	.st18{fill:url(#SVGID_6_);}
	.st19{fill:#2B52CC;}
	.st20{fill:url(#SVGID_7_);}
	.st21{fill:#0E68A4;}
	.st22{fill:#D0D2D3;}
	.st23{fill:#EC1C24;}
	.st24{fill:#F06162;}
	.st25{fill:#26A9E0;}
</style>
<g>
	<g>
		<g>
			<g>
				<path class="st0" d="M165,45c0,7.7-6.3,14-14,14H15C7.3,59,1,52.7,1,45V15C1,7.3,7.3,1,15,1h136c7.7,0,14,6.3,14,14V45z"/>
				<path class="st1" d="M165,43.7c0,7.7-6.3,14-14,14H15c-7.7,0-14-6.3-14-14V15C1,7.3,7.3,1,15,1h136c7.7,0,14,6.3,14,14V43.7z"/>
				<path class="st2" d="M165,42.3c0,7.7-6.3,14-14,14H15c-7.7,0-14-6.3-14-14V15C1,7.3,7.3,1,15,1h136c7.7,0,14,6.3,14,14V42.3z"/>
				<path class="st3" d="M165,41c0,7.7-6.3,14-14,14H15C7.3,55,1,48.7,1,41V15C1,7.3,7.3,1,15,1h136c7.7,0,14,6.3,14,14V41z"/>
				<path class="st4" d="M165,39.7c0,7.7-6.3,14-14,14H15c-7.7,0-14-6.3-14-14V15C1,7.3,7.3,1,15,1h136c7.7,0,14,6.3,14,14V39.7z"/>
				<path class="st5" d="M165,38.3c0,7.7-6.3,14-14,14H15c-7.7,0-14-6.3-14-14V15C1,7.3,7.3,1,15,1h136c7.7,0,14,6.3,14,14V38.3z"/>
				<path d="M165,37c0,7.7-6.3,14-14,14H15C7.3,51,1,44.7,1,37V15C1,7.3,7.3,1,15,1h136c7.7,0,14,6.3,14,14V37z"/>
			</g>
			<linearGradient id="SVGID_1_" gradientUnits="userSpaceOnUse" x1="83" y1="51" x2="83" y2="1">
				<stop  offset="0" style="stop-color:#8C8C8C"/>
				<stop  offset="1" style="stop-color:#D9D9D9"/>
			</linearGradient>
			<path class="st6" d="M165,37c0,7.7-6.3,14-14,14H15C7.3,51,1,44.7,1,37V15C1,7.3,7.3,1,15,1h136c7.7,0,14,6.3,14,14V37z"/>
			<path class="st7" d="M151,1H15C7.3,1,1,7.3,1,15v2C1,9.3,7.3,3,15,3h136c7.7,0,14,6.3,14,14v-2C165,7.3,158.7,1,151,1z"/>
			<path class="st8" d="M151,49H15C7.3,49,1,42.7,1,35v2c0,7.7,6.3,14,14,14h136c7.7,0,14-6.3,14-14v-2C165,42.7,158.7,49,151,49z"
				/>
		</g>
	</g>
	<g>
		<g class="st9">
			<g>
				<path class="st7" d="M38.5,24c-1,0-1-1.4,0-1.4c0.9,0,1.5-0.7,1.5-1.6c0-0.9-0.8-1.6-1.6-1.6c-0.8,0-1.5,0.7-1.5,1.6h-1.6
					c0-1.7,1.5-3,3.2-3c1.8,0,3.2,1.2,3.2,3c0,0.8-0.4,1.6-1,2.2c1,0.7,1.6,1.7,1.6,2.9c0,2-1.7,3.5-3.7,3.5c-1.5,0-2.7-0.8-3.6-2.4
					c-0.5-1,1-1.7,1.4-0.7c0.5,1.1,1.4,1.7,2.2,1.7c1.2,0,2.1-0.9,2.1-2.1C40.6,25,39.6,24,38.5,24z"/>
				<path class="st7" d="M45.4,29.1c0,0.7-0.6,1.3-1.3,1.3s-1.3-0.6-1.3-1.3s0.6-1.3,1.3-1.3S45.4,28.4,45.4,29.1z"/>
				<path class="st7" d="M91.4,25.5H78.1v-1.4h5.2v-2.9h1.6v2.9h6.5V25.5z M89.5,22.7c0,1-1.6,1-1.6,0v-2.6c0-0.5-0.1-0.6-0.7-0.6
					H80v-1.4h7.9c1.1,0,1.6,0.4,1.6,1.5V22.7z M81.1,29.7c0-1.8,1.5-3.3,3.7-3.3s3.7,1.5,3.7,3.3S87,33,84.8,33S81.1,31.5,81.1,29.7
					z M82.6,29.7c0,1.1,0.9,1.9,2.1,1.9c1.2,0,2.1-0.8,2.1-1.9c0-1.1-0.9-1.9-2.1-1.9C83.6,27.8,82.6,28.6,82.6,29.7z"/>
				<path class="st7" d="M101.5,31c0,1-1.6,1-1.6,0v-3.6h-3.4V31c0,1-1.6,1-1.6,0v-3.6h-3.2v-1.4h13v1.4h-3.2V31z M94.2,21.3
					c0-2,1.7-3.6,4-3.6c2.3,0,4,1.6,4,3.6c0,2-1.7,3.6-4,3.6C95.9,24.9,94.2,23.3,94.2,21.3z M95.9,21.3c0,1.4,1.1,2.3,2.4,2.3
					c1.3,0,2.4-0.9,2.4-2.3c0-1.4-1.1-2.2-2.4-2.2C97,19,95.9,19.9,95.9,21.3z"/>
				<path class="st7" d="M113.6,20.9h-8.4v-1.4h3.5v-2.1h1.6v2.1h3.3V20.9z M105.8,25.2c0-1.9,1.5-3.6,3.7-3.6
					c2.1,0,3.7,1.6,3.7,3.6c0,1.9-1.5,3.6-3.7,3.6C107.4,28.8,105.8,27.1,105.8,25.2z M107.4,25.2c0,1.3,1,2.2,2.1,2.2
					c1.1,0,2.1-0.9,2.1-2.2c0-1.3-1-2.2-2.1-2.2C108.4,23,107.4,23.9,107.4,25.2z M116.7,28.6c0,1-1.6,1-1.6,0V18.1h1.6v4.7h2.1v1.4
					h-2.1V28.6z"/>
				<path class="st7" d="M118.8,26.6c3.5-1.5,4.8-4.5,5-6c0-0.4-0.2-0.6-0.6-0.6h-4.5v-1.4h5.3c1.2,0,1.7,0.8,1.5,2
					c-0.4,2-1.8,5.6-6.1,7.3C118.3,28.3,118,27,118.8,26.6z M129.9,28.6c0,1-1.6,1-1.6,0V18.1h1.6V28.6z"/>
			</g>
			<g>
				<path class="st7" d="M38,23.5c-1,0-1-1.4,0-1.4c0.9,0,1.5-0.7,1.5-1.6c0-0.9-0.8-1.6-1.6-1.6c-0.8,0-1.5,0.7-1.5,1.6h-1.6
					c0-1.7,1.5-3,3.2-3c1.8,0,3.2,1.2,3.2,3c0,0.8-0.4,1.6-1,2.2c1,0.7,1.6,1.7,1.6,2.9c0,2-1.7,3.5-3.7,3.5c-1.5,0-2.7-0.8-3.6-2.4
					c-0.5-1,1-1.7,1.4-0.7c0.5,1.1,1.4,1.7,2.2,1.7c1.2,0,2.1-0.9,2.1-2.1C40.1,24.5,39.1,23.5,38,23.5z"/>
				<path class="st7" d="M44.9,28.6c0,0.7-0.6,1.3-1.3,1.3s-1.3-0.6-1.3-1.3s0.6-1.3,1.3-1.3S44.9,27.9,44.9,28.6z"/>
				<path class="st7" d="M90.9,25H77.6v-1.4h5.2v-2.9h1.6v2.9h6.5V25z M89,22.2c0,1-1.6,1-1.6,0v-2.6c0-0.5-0.1-0.6-0.7-0.6h-7.3
					v-1.4h7.9c1.1,0,1.6,0.4,1.6,1.5V22.2z M80.6,29.2c0-1.8,1.5-3.3,3.7-3.3s3.7,1.5,3.7,3.3s-1.5,3.3-3.7,3.3S80.6,31,80.6,29.2z
					 M82.1,29.2c0,1.1,0.9,1.9,2.1,1.9c1.2,0,2.1-0.8,2.1-1.9c0-1.1-0.9-1.9-2.1-1.9C83.1,27.3,82.1,28.1,82.1,29.2z"/>
				<path class="st7" d="M101,30.5c0,1-1.6,1-1.6,0v-3.6h-3.4v3.6c0,1-1.6,1-1.6,0v-3.6h-3.2v-1.4h13v1.4H101V30.5z M93.7,20.8
					c0-2,1.7-3.6,4-3.6c2.3,0,4,1.6,4,3.6c0,2-1.7,3.6-4,3.6C95.4,24.4,93.7,22.8,93.7,20.8z M95.4,20.8c0,1.4,1.1,2.3,2.4,2.3
					c1.3,0,2.4-0.9,2.4-2.3c0-1.4-1.1-2.2-2.4-2.2C96.5,18.5,95.4,19.4,95.4,20.8z"/>
				<path class="st7" d="M113.1,20.4h-8.4V19h3.5v-2.1h1.6V19h3.3V20.4z M105.3,24.7c0-1.9,1.5-3.6,3.7-3.6c2.1,0,3.7,1.6,3.7,3.6
					c0,1.9-1.5,3.6-3.7,3.6C106.9,28.3,105.3,26.6,105.3,24.7z M106.9,24.7c0,1.3,1,2.2,2.1,2.2c1.1,0,2.1-0.9,2.1-2.2
					c0-1.3-1-2.2-2.1-2.2C107.9,22.5,106.9,23.4,106.9,24.7z M116.2,28.1c0,1-1.6,1-1.6,0V17.6h1.6v4.7h2.1v1.4h-2.1V28.1z"/>
				<path class="st7" d="M118.3,26.1c3.5-1.5,4.8-4.5,5-6c0-0.4-0.2-0.6-0.6-0.6h-4.5v-1.4h5.3c1.2,0,1.7,0.8,1.5,2
					c-0.4,2-1.8,5.6-6.1,7.3C117.8,27.8,117.5,26.5,118.3,26.1z M129.4,28.1c0,1-1.6,1-1.6,0V17.6h1.6V28.1z"/>
			</g>
		</g>
		<g>
			<g class="st9">
				<g>
					<path class="st14" d="M38,23.5c-1,0-1-1.4,0-1.4c0.9,0,1.5-0.7,1.5-1.6c0-0.9-0.8-1.6-1.6-1.6c-0.8,0-1.5,0.7-1.5,1.6h-1.6
						c0-1.7,1.5-3,3.2-3c1.8,0,3.2,1.2,3.2,3c0,0.8-0.4,1.6-1,2.2c1,0.7,1.6,1.7,1.6,2.9c0,2-1.7,3.5-3.7,3.5
						c-1.5,0-2.7-0.8-3.6-2.4c-0.5-1,1-1.7,1.4-0.7c0.5,1.1,1.4,1.7,2.2,1.7c1.2,0,2.1-0.9,2.1-2.1C40.1,24.5,39.1,23.5,38,23.5z"/>
					<path class="st14" d="M44.9,28.6c0,0.7-0.6,1.3-1.3,1.3s-1.3-0.6-1.3-1.3s0.6-1.3,1.3-1.3S44.9,27.9,44.9,28.6z"/>
					<path class="st14" d="M90.9,25H77.6v-1.4h5.2v-2.9h1.6v2.9h6.5V25z M89,22.2c0,1-1.6,1-1.6,0v-2.6c0-0.5-0.1-0.6-0.7-0.6h-7.3
						v-1.4h7.9c1.1,0,1.6,0.4,1.6,1.5V22.2z M80.6,29.2c0-1.8,1.5-3.3,3.7-3.3s3.7,1.5,3.7,3.3s-1.5,3.3-3.7,3.3S80.6,31,80.6,29.2z
						 M82.1,29.2c0,1.1,0.9,1.9,2.1,1.9c1.2,0,2.1-0.8,2.1-1.9c0-1.1-0.9-1.9-2.1-1.9C83.1,27.3,82.1,28.1,82.1,29.2z"/>
					<path class="st14" d="M101,30.5c0,1-1.6,1-1.6,0v-3.6h-3.4v3.6c0,1-1.6,1-1.6,0v-3.6h-3.2v-1.4h13v1.4H101V30.5z M93.7,20.8
						c0-2,1.7-3.6,4-3.6c2.3,0,4,1.6,4,3.6c0,2-1.7,3.6-4,3.6C95.4,24.4,93.7,22.8,93.7,20.8z M95.4,20.8c0,1.4,1.1,2.3,2.4,2.3
						c1.3,0,2.4-0.9,2.4-2.3c0-1.4-1.1-2.2-2.4-2.2C96.5,18.5,95.4,19.4,95.4,20.8z"/>
					<path class="st14" d="M113.1,20.4h-8.4V19h3.5v-2.1h1.6V19h3.3V20.4z M105.3,24.7c0-1.9,1.5-3.6,3.7-3.6c2.1,0,3.7,1.6,3.7,3.6
						c0,1.9-1.5,3.6-3.7,3.6C106.9,28.3,105.3,26.6,105.3,24.7z M106.9,24.7c0,1.3,1,2.2,2.1,2.2c1.1,0,2.1-0.9,2.1-2.2
						c0-1.3-1-2.2-2.1-2.2C107.9,22.5,106.9,23.4,106.9,24.7z M116.2,28.1c0,1-1.6,1-1.6,0V17.6h1.6v4.7h2.1v1.4h-2.1V28.1z"/>
					<path class="st14" d="M118.3,26.1c3.5-1.5,4.8-4.5,5-6c0-0.4-0.2-0.6-0.6-0.6h-4.5v-1.4h5.3c1.2,0,1.7,0.8,1.5,2
						c-0.4,2-1.8,5.6-6.1,7.3C117.8,27.8,117.5,26.5,118.3,26.1z M129.4,28.1c0,1-1.6,1-1.6,0V17.6h1.6V28.1z"/>
				</g>
			</g>
			<g>
				<g>
					<path d="M37.5,23c-1,0-1-1.4,0-1.4c0.9,0,1.5-0.7,1.5-1.6c0-0.9-0.8-1.6-1.6-1.6c-0.8,0-1.5,0.7-1.5,1.6h-1.6
						c0-1.7,1.5-3,3.2-3c1.8,0,3.2,1.2,3.2,3c0,0.8-0.4,1.6-1,2.2c1,0.7,1.6,1.7,1.6,2.9c0,2-1.7,3.5-3.7,3.5
						c-1.5,0-2.7-0.8-3.6-2.4c-0.5-1,1-1.7,1.4-0.7c0.5,1.1,1.4,1.7,2.2,1.7c1.2,0,2.1-0.9,2.1-2.1C39.6,24,38.6,23,37.5,23z"/>
					<path d="M44.4,28.1c0,0.7-0.6,1.3-1.3,1.3s-1.3-0.6-1.3-1.3s0.6-1.3,1.3-1.3S44.4,27.4,44.4,28.1z"/>
					<path d="M90.4,24.5H77.1v-1.4h5.2v-2.9h1.6v2.9h6.5V24.5z M88.5,21.7c0,1-1.6,1-1.6,0v-2.6c0-0.5-0.1-0.6-0.7-0.6H79v-1.4h7.9
						c1.1,0,1.6,0.4,1.6,1.5V21.7z M80.1,28.7c0-1.8,1.5-3.3,3.7-3.3s3.7,1.5,3.7,3.3S86,32,83.8,32S80.1,30.5,80.1,28.7z
						 M81.6,28.7c0,1.1,0.9,1.9,2.1,1.9c1.2,0,2.1-0.8,2.1-1.9c0-1.1-0.9-1.9-2.1-1.9C82.6,26.8,81.6,27.6,81.6,28.7z"/>
					<path d="M100.5,30c0,1-1.6,1-1.6,0v-3.6h-3.4V30c0,1-1.6,1-1.6,0v-3.6h-3.2v-1.4h13v1.4h-3.2V30z M93.2,20.3c0-2,1.7-3.6,4-3.6
						c2.3,0,4,1.6,4,3.6c0,2-1.7,3.6-4,3.6C94.9,23.9,93.2,22.3,93.2,20.3z M94.9,20.3c0,1.4,1.1,2.3,2.4,2.3c1.3,0,2.4-0.9,2.4-2.3
						c0-1.4-1.1-2.2-2.4-2.2C96,18,94.9,18.9,94.9,20.3z"/>
					<path d="M112.6,19.9h-8.4v-1.4h3.5v-2.1h1.6v2.1h3.3V19.9z M104.8,24.2c0-1.9,1.5-3.6,3.7-3.6c2.1,0,3.7,1.6,3.7,3.6
						c0,1.9-1.5,3.6-3.7,3.6C106.4,27.8,104.8,26.1,104.8,24.2z M106.4,24.2c0,1.3,1,2.2,2.1,2.2c1.1,0,2.1-0.9,2.1-2.2
						c0-1.3-1-2.2-2.1-2.2C107.4,22,106.4,22.9,106.4,24.2z M115.7,27.6c0,1-1.6,1-1.6,0V17.1h1.6v4.7h2.1v1.4h-2.1V27.6z"/>
					<path d="M117.8,25.6c3.5-1.5,4.8-4.5,5-6c0-0.4-0.2-0.6-0.6-0.6h-4.5v-1.4h5.3c1.2,0,1.7,0.8,1.5,2c-0.4,2-1.8,5.6-6.1,7.3
						C117.3,27.3,117,26,117.8,25.6z M128.9,27.6c0,1-1.6,1-1.6,0V17.1h1.6V27.6z"/>
				</g>
			</g>
		</g>
	</g>
	<g>
		<g>
			<g class="st9">
				<path class="st7" d="M69.2,29.6c-0.4,0-0.8,0.1-1.2,0.4l-6.2-4.2c0-0.2,0.1-0.3,0.1-0.5c0-0.2,0-0.3-0.1-0.5l6-4.1
					c0.3,0.2,0.7,0.4,1.2,0.4c1.1,0,2-0.9,2-2c0-1.1-0.9-2-2-2c-1.1,0-2,0.9-2,2c0,0.2,0,0.3,0.1,0.5l-6,4.1
					c-0.3-0.2-0.7-0.4-1.2-0.4c-1.1,0-2,0.9-2,2c0,1.1,0.9,2,2,2c0.4,0,0.8-0.1,1.2-0.4l6.2,4.2c0,0.2-0.1,0.3-0.1,0.5
					c0,1.1,0.9,2,2,2c1.1,0,2-0.9,2-2C71.2,30.5,70.3,29.6,69.2,29.6z"/>
			</g>
			<g>
				<path class="st15" d="M68.7,29.1c-0.4,0-0.8,0.1-1.2,0.4l-6.2-4.2c0-0.2,0.1-0.3,0.1-0.5c0-0.2,0-0.3-0.1-0.5l6-4.1
					c0.3,0.2,0.7,0.4,1.2,0.4c1.1,0,2-0.9,2-2c0-1.1-0.9-2-2-2c-1.1,0-2,0.9-2,2c0,0.2,0,0.3,0.1,0.5l-6,4.1
					c-0.3-0.2-0.7-0.4-1.2-0.4c-1.1,0-2,0.9-2,2c0,1.1,0.9,2,2,2c0.4,0,0.8-0.1,1.2-0.4l6.2,4.2c0,0.2-0.1,0.3-0.1,0.5
					c0,1.1,0.9,2,2,2c1.1,0,2-0.9,2-2C70.7,30,69.8,29.1,68.7,29.1z"/>
			</g>
		</g>
	</g>
</g>
</svg>
