<?xml version="1.0" encoding="utf-8"?>
<!-- Generator: Adobe Illustrator 18.1.1, SVG Export Plug-In . SVG Version: 6.00 Build 0)  -->
<svg version="1.1" id="Layer_1" xmlns="http://www.w3.org/2000/svg" xmlns:xlink="http://www.w3.org/1999/xlink" x="0px" y="0px"
	 viewBox="0 0 432 60" style="enable-background:new 0 0 432 60;" xml:space="preserve">
<style type="text/css">
	.st0{opacity:0;}
	.st1{opacity:0.1667;}
	.st2{opacity:0.3333;}
	.st3{opacity:0.5;}
	.st4{opacity:0.6667;}
	.st5{opacity:0.8333;}
	.st6{fill:url(#SVGID_1_);}
	.st7{fill:#FFFFFF;}
	.st8{fill:#4D4D4D;}
	.st9{opacity:0.92;}
	.st10{fill:url(#SVGID_2_);}
	.st11{fill-rule:evenodd;clip-rule:evenodd;fill:#FFFFFF;}
	.st12{fill-rule:evenodd;clip-rule:evenodd;fill:#231F20;}
	.st13{fill:url(#SVGID_3_);}
	.st14{fill:#DADFE0;}
	.st15{fill:#231F20;}
	.st16{fill:url(#SVGID_4_);}
	.st17{fill:url(#SVGID_5_);}
	.st18{fill:url(#SVGID_6_);}
	.st19{fill:#2B52CC;}
	.st20{fill:url(#SVGID_7_);}
	.st21{fill:#0E68A4;}
	.st22{fill:#D0D2D3;}
	.st23{fill:#EC1C24;}
	.st24{fill:#F06162;}
	.st25{fill:#26A9E0;}
</style>
<g>
	<g>
		<g>
			<g>
				<path class="st0" d="M431.5,45.3c0,7.7-6.3,14-14,14h-403c-7.7,0-14-6.3-14-14v-30c0-7.7,6.3-14,14-14h403c7.7,0,14,6.3,14,14
					V45.3z"/>
				<path class="st1" d="M431.5,43.9c0,7.7-6.3,14-14,14h-403c-7.7,0-14-6.3-14-14V15.3c0-7.7,6.3-14,14-14h403c7.7,0,14,6.3,14,14
					V43.9z"/>
				<path class="st2" d="M431.5,42.6c0,7.7-6.3,14-14,14h-403c-7.7,0-14-6.3-14-14V15.3c0-7.7,6.3-14,14-14h403c7.7,0,14,6.3,14,14
					V42.6z"/>
				<path class="st3" d="M431.5,41.3c0,7.7-6.3,14-14,14h-403c-7.7,0-14-6.3-14-14v-26c0-7.7,6.3-14,14-14h403c7.7,0,14,6.3,14,14
					V41.3z"/>
				<path class="st4" d="M431.5,39.9c0,7.7-6.3,14-14,14h-403c-7.7,0-14-6.3-14-14V15.3c0-7.7,6.3-14,14-14h403c7.7,0,14,6.3,14,14
					V39.9z"/>
				<path class="st5" d="M431.5,38.6c0,7.7-6.3,14-14,14h-403c-7.7,0-14-6.3-14-14V15.3c0-7.7,6.3-14,14-14h403c7.7,0,14,6.3,14,14
					V38.6z"/>
				<path d="M431.5,37.3c0,7.7-6.3,14-14,14h-403c-7.7,0-14-6.3-14-14v-22c0-7.7,6.3-14,14-14h403c7.7,0,14,6.3,14,14V37.3z"/>
			</g>
			<linearGradient id="SVGID_1_" gradientUnits="userSpaceOnUse" x1="216" y1="51.2583" x2="216" y2="1.2583">
				<stop  offset="0" style="stop-color:#8C8C8C"/>
				<stop  offset="1" style="stop-color:#D9D9D9"/>
			</linearGradient>
			<path class="st6" d="M431.5,37.3c0,7.7-6.3,14-14,14h-403c-7.7,0-14-6.3-14-14v-22c0-7.7,6.3-14,14-14h403c7.7,0,14,6.3,14,14
				V37.3z"/>
			<path class="st7" d="M417.5,1.3h-403c-7.7,0-14,6.3-14,14v2c0-7.7,6.3-14,14-14h403c7.7,0,14,6.3,14,14v-2
				C431.5,7.6,425.2,1.3,417.5,1.3z"/>
			<path class="st8" d="M417.5,49.3h-403c-7.7,0-14-6.3-14-14v2c0,7.7,6.3,14,14,14h403c7.7,0,14-6.3,14-14v-2
				C431.5,43,425.2,49.3,417.5,49.3z"/>
		</g>
	</g>
	<g>
		<path d="M98.1,21.1h-7v-1.4h2.8V18h1.6v1.7h2.6V21.1z M91.5,24.6c0-1.7,1.3-3,3.3-3c1.9,0,3.2,1.3,3.2,3c0,1.7-1.3,3-3.2,3
			C92.8,27.6,91.5,26.3,91.5,24.6z M93,24.6c0,1,0.8,1.7,1.8,1.7c0.9,0,1.7-0.7,1.7-1.7c0-1-0.8-1.7-1.7-1.7
			C93.8,22.9,93,23.6,93,24.6z M103.9,33.1h-6.7c-1.6,0-2.8-1.1-2.8-2.7v-1.7h1.6v1.6c0,1.1,0.7,1.4,1.4,1.4h6.6V33.1z M100.6,27.7
			c0,1-1.6,1-1.6,0v-9h1.6v4h1.7v-4h1.6v9.2c0,1-1.6,1-1.6,0v-3.8h-1.7V27.7z"/>
		<path d="M117.8,29.8h-13v-1.4h13V29.8z M106.6,19.1h9.2v1.4h-7.6v2.8c0,0.7,0.3,0.9,1,0.9h7v1.4h-7.2c-1.3,0-2.3-0.9-2.3-2.3V19.1
			z"/>
		<path d="M130.2,24.7h-4.6v1.6h5.8v1.4h-13.3v-1.4h5.9v-1.6h-4.6v-1.4h2v-3h-1.8v-1.4H130v1.4h-1.8v3h2V24.7z M129.8,33.1H123
			c-1.6,0-2.8-1.1-2.8-2.7v-2h1.6v1.9c0,1.1,0.7,1.4,1.4,1.4h6.7V33.1z M122.9,23.2h3.7v-3h-3.7V23.2z"/>
		<path d="M144.7,29.8h-13v-1.4h13V29.8z M134.1,22.4c0-2.2,1.7-3.9,4.1-3.9s4.1,1.7,4.1,3.9c0,2.2-1.7,3.9-4.1,3.9
			S134.1,24.6,134.1,22.4z M135.7,22.4c0,1.5,1.1,2.5,2.5,2.5c1.4,0,2.5-0.9,2.5-2.5c0-1.5-1.1-2.4-2.5-2.4
			C136.9,20,135.7,20.8,135.7,22.4z"/>
		<path d="M156.6,26.4h-4.2v2.1h5.7V30h-13v-1.4h5.7v-2.1h-1.4c-1.5,0-2.5-1-2.5-2.4v-2.1h7.8v-1.5h-7.8V19h9.4v4.4h-7.8V24
			c0,0.8,0.5,1,1,1h7.1V26.4z"/>
		<path d="M164.8,29.7c0,0.9-1.6,0.9-1.6,0v-9.3h-1.1V19h1.9c0.5,0,0.7,0.2,0.7,0.6V29.7z"/>
		<path d="M167.7,24c-0.6-0.6-1-1.3-1-2.2c0-1.7,1.4-3,3.2-3c1.7,0,3.2,1.3,3.2,3c0,0.9-0.3,1.5-1,2.2c1,0.7,1.6,1.7,1.6,2.9
			c0,2.1-1.7,3.5-3.8,3.5c-2.1,0-3.8-1.5-3.8-3.5C166.1,25.7,166.7,24.6,167.7,24z M169.9,24.7c-1.2,0-2.2,0.9-2.2,2.2
			c0,1.3,0.9,2.1,2.2,2.1c1.2,0,2.2-0.9,2.2-2.1C172.1,25.7,171.1,24.7,169.9,24.7z M169.9,20.1c-0.9,0-1.6,0.8-1.6,1.6
			c0,0.9,0.7,1.6,1.6,1.6c0.9,0,1.6-0.7,1.6-1.6C171.5,20.9,170.7,20.1,169.9,20.1z"/>
		<path d="M186.9,30h-13v-1.4h5.7v-2.5h1.6v2.5h5.7V30z M184.2,21.6c-0.3,0.6-0.9,1.1-1.5,1.6c0.9,0.6,2,1.1,2.9,1.5
			c0.9,0.3,0.5,1.7-0.5,1.4c-1.3-0.4-2.6-1.1-3.8-1.9c-1.7,1-3.8,1.8-5.4,2.2c-1,0.2-1.3-1.2-0.4-1.4c3.2-0.8,5.8-2.4,6.5-3.2
			c0.3-0.3,0.4-0.5,0-0.5h-5.8v-1.4h3.3V18h1.6v1.9h1.9C184.3,19.9,184.8,20.8,184.2,21.6z"/>
		<path d="M191.2,25c3.3-0.9,4.4-2.7,4.8-4c0.1-0.3,0-0.5-0.4-0.5h-4.3v-1.4h5.1c1.3,0,1.6,0.9,1.4,1.7c-0.5,2.1-2.1,4.5-6.1,5.6
			C190.6,26.6,190.4,25.2,191.2,25z M202.5,33.4h-6.7c-1.2,0-2.2-0.9-2.2-2.3v-1.6h7v-1h-7V27h8.6v3.8h-7v0.1c0,0.6,0.2,1,0.8,1h6.5
			V33.4z M202.2,25.4c0,1-1.6,1-1.6,0v-6.7h1.6V25.4z"/>
		<path d="M203.6,23.1c0-2.4,1.7-4.2,4-4.2s4,1.8,4,4.2c0,2.4-1.7,4.2-4,4.2S203.6,25.5,203.6,23.1z M205.2,23.1
			c0,1.7,1.1,2.8,2.4,2.8c1.3,0,2.4-1,2.4-2.8c0-1.7-1.1-2.7-2.4-2.7C206.3,20.4,205.2,21.4,205.2,23.1z M215.4,29.3
			c0,1-1.6,1-1.6,0V18.8h1.6V29.3z"/>
		<path d="M226.1,29.5h-9.3v-1.4h9.3V29.5z M217.3,22.4c0-2.1,1.7-3.7,3.9-3.7c2.2,0,3.9,1.6,3.9,3.7c0,2.1-1.7,3.7-3.9,3.7
			C218.9,26.1,217.3,24.5,217.3,22.4z M218.9,22.4c0,1.4,1.1,2.3,2.3,2.3s2.3-0.9,2.3-2.3s-1.1-2.2-2.3-2.2S218.9,21,218.9,22.4z
			 M228.5,29.5c0,1-1.6,1-1.6,0V18.8h1.6V29.5z"/>
		<path d="M233.6,22.4c0-2.1,1.6-3.7,3.7-3.7c2.1,0,3.7,1.5,3.7,3.7c0,2.1-1.6,3.7-3.7,3.7C235.1,26.1,233.6,24.5,233.6,22.4z
			 M235.2,22.4c0,1.4,1,2.3,2.1,2.3c1.1,0,2.1-0.8,2.1-2.3c0-1.4-1-2.3-2.1-2.3C236.2,20.2,235.2,21,235.2,22.4z M237.5,30.2
			c0-1.9,1.5-3.4,3.6-3.4s3.6,1.5,3.6,3.4c0,1.9-1.5,3.4-3.6,3.4S237.5,32.1,237.5,30.2z M239.1,30.2c0,1.2,0.9,2,2.1,2
			c1.1,0,2.1-0.8,2.1-2c0-1.2-0.9-2-2.1-2C240,28.2,239.1,29.1,239.1,30.2z M245.1,26.1c0,1-1.6,1-1.6,0v-1.5h-2.4v-1.4h2.4v-1.6
			h-2.4v-1.4h2.4v-1.5h1.6V26.1z"/>
		<path d="M253.3,25.5c-1-0.5-2-1.4-3-2.4c-0.7,1.2-1.7,2.4-3,3.2c-1,0.7-1.7-0.6-0.9-1.2c2.4-1.7,3.5-4.4,3.6-6.4h1.7
			c0,0.8-0.3,1.8-0.6,2.8c1,1.2,2.1,2.1,3,2.6C254.9,24.7,254.3,26,253.3,25.5z M250.2,30.2c0-1.9,1.5-3.4,3.6-3.4
			c2.1,0,3.6,1.5,3.6,3.4c0,1.9-1.5,3.4-3.6,3.4C251.8,33.6,250.2,32.1,250.2,30.2z M251.8,30.2c0,1.2,1,2,2.1,2c1.1,0,2-0.8,2-2
			c0-1.1-0.9-2-2-2C252.8,28.2,251.8,29.1,251.8,30.2z M257.6,25.9c0,1-1.6,1-1.6,0v-7.3h1.6v3.1h2v1.4h-2V25.9z"/>
		<path d="M272.8,26.7h-13.3v-1.4h13.3V26.7z M271.2,33.4h-7.6c-1.1,0-2.1-0.7-2.1-2v-1.7h7.6v-0.7h-7.6v-1.4h9.2v3.6h-7.6v0.3
			c0,0.4,0.3,0.5,0.7,0.5h7.4V33.4z M262.3,21.3c0-1.9,1.6-3.3,3.8-3.3c2.2,0,3.8,1.4,3.8,3.3s-1.6,3.4-3.8,3.4
			C263.9,24.8,262.3,23.3,262.3,21.3z M263.9,21.3c0,1.2,1.1,2,2.3,2c1.2,0,2.2-0.8,2.2-2c0-1.2-1.1-1.9-2.2-1.9
			C265,19.4,263.9,20.1,263.9,21.3z"/>
		<path d="M281.1,25.3c0.1-0.1,0.2-0.2,0.3-0.3c-0.5-0.4-1-0.9-1.5-1.4c-0.7,1.1-1.5,2.1-2.4,2.7c-0.9,0.6-1.7-0.5-0.9-1.1
			c1.6-1.2,2.8-3.6,2.8-4.4c0-0.3-0.2-0.3-0.4-0.3H277v-1.4h2.8c1,0,1.5,0.4,1.4,1.4c0,0.4-0.2,1-0.5,1.7c0.5,0.7,1.1,1.3,1.7,1.7
			c1-1.3,1.5-2.6,1.6-3.1c0-0.3-0.1-0.4-0.4-0.4h-1.9v-1.4h2.6c1,0,1.6,0.4,1.5,1.4c-0.1,0.6-0.4,1.4-0.8,2.4
			c0.5,0.7,1.1,1.2,1.6,1.7c0.8,0.6,0,1.7-0.9,1.1c-0.4-0.3-1-0.8-1.6-1.4c-0.5,0.8-1.2,1.6-1.9,2.2C281.2,27.1,280.3,26,281.1,25.3
			z M289.4,32.6c0,1-1.6,1-1.6,0v-3.2h-7.2V28h8.2c0.4,0,0.5,0.1,0.5,0.5V32.6z M289.5,26.3c0,1-1.6,1-1.6,0v-7.6h1.6V26.3z"/>
		<path d="M303.5,29.8h-13v-1.4h13V29.8z M292.8,22.4c0-2.2,1.7-3.9,4.1-3.9s4.1,1.7,4.1,3.9c0,2.2-1.7,3.9-4.1,3.9
			S292.8,24.6,292.8,22.4z M294.5,22.4c0,1.5,1.1,2.5,2.5,2.5c1.4,0,2.5-0.9,2.5-2.5c0-1.5-1.1-2.4-2.5-2.4
			C295.6,20,294.5,20.8,294.5,22.4z"/>
		<path d="M309.4,28c-0.9-0.8-1.7-1.8-2.4-2.9c-0.6,1.3-1.5,2.5-2.5,3.3c-0.9,0.7-1.8-0.4-1-1.1c2.2-2,3.2-5.7,3.3-8.2h1.7
			c0,1.2-0.3,2.8-0.8,4.2c0.8,1.5,1.7,2.8,2.6,3.6C311.2,27.5,310.2,28.7,309.4,28z M313.6,29.1c0,1-1.6,1-1.6,0v-5.4h-2.5v-1.4h2.5
			v-3.5h1.6V29.1z M316.6,29.3c0,1-1.6,1-1.6,0V18.8h1.6V29.3z"/>
		<path d="M330.5,30h-13v-1.4h3.3v-2.4h1.6v2.4h3.1v-2.4h1.6v2.4h3.3V30z M319.9,22.3c0-2.1,1.7-3.8,4.1-3.8c2.4,0,4.1,1.6,4.1,3.8
			c0,2.1-1.7,3.8-4.1,3.8C321.6,26.1,319.9,24.5,319.9,22.3z M321.5,22.3c0,1.5,1.1,2.4,2.5,2.4c1.3,0,2.5-0.9,2.5-2.4
			c0-1.5-1.1-2.4-2.5-2.4C322.6,20,321.5,20.8,321.5,22.3z"/>
	</g>
</g>
</svg>
