<?xml version="1.0" encoding="utf-8"?>
<!-- Generator: Adobe Illustrator 18.1.1, SVG Export Plug-In . SVG Version: 6.00 Build 0)  -->
<svg version="1.1" id="Layer_1" xmlns="http://www.w3.org/2000/svg" xmlns:xlink="http://www.w3.org/1999/xlink" x="0px" y="0px"
	 viewBox="0 0 615 300" style="enable-background:new 0 0 615 300;" xml:space="preserve">
<style type="text/css">
	.st0{opacity:0;}
	.st1{opacity:0.1667;}
	.st2{opacity:0.3333;}
	.st3{opacity:0.5;}
	.st4{opacity:0.6667;}
	.st5{opacity:0.8333;}
	.st6{fill:url(#SVGID_1_);}
	.st7{fill:#FFFFFF;}
	.st8{fill:#4D4D4D;}
	.st9{fill:url(#SVGID_2_);}
	.st10{fill:url(#SVGID_3_);}
	.st11{fill:url(#SVGID_4_);}
	.st12{fill:#2B52CC;}
	.st13{fill:url(#SVGID_5_);}
	.st14{opacity:0.92;}
	.st15{fill:url(#SVGID_6_);}
	.st16{fill:#0E68A4;}
	.st17{fill:#D0D2D3;}
	.st18{fill:#EC1C24;}
	.st19{fill:#F06162;}
	.st20{fill-rule:evenodd;clip-rule:evenodd;fill:#FFFFFF;}
	.st21{fill-rule:evenodd;clip-rule:evenodd;fill:#231F20;}
	.st22{fill:url(#SVGID_7_);}
	.st23{fill:#DADFE0;}
	.st24{fill:#26A9E0;}
	.st25{fill:#231F20;}
</style>
<g>
	<g>
		<g>
			<g>
				<path class="st0" d="M166,55.3c0,7.7-6.3,14-14,14H16c-7.7,0-14-6.3-14-14v-30c0-7.7,6.3-14,14-14h136c7.7,0,14,6.3,14,14V55.3z
					"/>
				<path class="st1" d="M166,54c0,7.7-6.3,14-14,14H16C8.3,68,2,61.7,2,54V25.3c0-7.7,6.3-14,14-14h136c7.7,0,14,6.3,14,14V54z"/>
				<path class="st2" d="M166,52.7c0,7.7-6.3,14-14,14H16c-7.7,0-14-6.3-14-14V25.3c0-7.7,6.3-14,14-14h136c7.7,0,14,6.3,14,14V52.7
					z"/>
				<path class="st3" d="M166,51.3c0,7.7-6.3,14-14,14H16c-7.7,0-14-6.3-14-14v-26c0-7.7,6.3-14,14-14h136c7.7,0,14,6.3,14,14V51.3z
					"/>
				<path class="st4" d="M166,50c0,7.7-6.3,14-14,14H16C8.3,64,2,57.7,2,50V25.3c0-7.7,6.3-14,14-14h136c7.7,0,14,6.3,14,14V50z"/>
				<path class="st5" d="M166,48.7c0,7.7-6.3,14-14,14H16c-7.7,0-14-6.3-14-14V25.3c0-7.7,6.3-14,14-14h136c7.7,0,14,6.3,14,14V48.7
					z"/>
				<path d="M166,47.3c0,7.7-6.3,14-14,14H16c-7.7,0-14-6.3-14-14v-22c0-7.7,6.3-14,14-14h136c7.7,0,14,6.3,14,14V47.3z"/>
			</g>
			<linearGradient id="SVGID_1_" gradientUnits="userSpaceOnUse" x1="83.9863" y1="61.3296" x2="83.9863" y2="11.3296">
				<stop  offset="0" style="stop-color:#8C8C8C"/>
				<stop  offset="1" style="stop-color:#D9D9D9"/>
			</linearGradient>
			<path class="st6" d="M166,47.3c0,7.7-6.3,14-14,14H16c-7.7,0-14-6.3-14-14v-22c0-7.7,6.3-14,14-14h136c7.7,0,14,6.3,14,14V47.3z"
				/>
			<path class="st7" d="M152,11.3H16c-7.7,0-14,6.3-14,14v2c0-7.7,6.3-14,14-14h136c7.7,0,14,6.3,14,14v-2
				C166,17.6,159.7,11.3,152,11.3z"/>
			<path class="st8" d="M152,59.3H16c-7.7,0-14-6.3-14-14v2c0,7.7,6.3,14,14,14h136c7.7,0,14-6.3,14-14v-2
				C166,53,159.7,59.3,152,59.3z"/>
		</g>
	</g>
	<g>
		<path d="M37.8,39.3c0,0.9-1.6,0.9-1.6,0V30h-1.1v-1.4H37c0.5,0,0.7,0.2,0.7,0.6V39.3z"/>
		<path d="M42,39.5c0,0.7-0.6,1.3-1.3,1.3s-1.3-0.6-1.3-1.3s0.6-1.3,1.3-1.3S42,38.7,42,39.5z"/>
		<path d="M78.6,32c0-2.1,1.6-3.7,3.7-3.7c2.1,0,3.7,1.5,3.7,3.7c0,2.1-1.6,3.7-3.7,3.7C80.1,35.7,78.6,34.1,78.6,32z M80.2,32
			c0,1.4,1,2.3,2.1,2.3c1.1,0,2.1-0.8,2.1-2.3c0-1.4-1-2.3-2.1-2.3C81.2,29.7,80.2,30.5,80.2,32z M82.5,39.8c0-1.9,1.5-3.4,3.6-3.4
			s3.6,1.5,3.6,3.4s-1.5,3.4-3.6,3.4S82.5,41.7,82.5,39.8z M84.1,39.8c0,1.2,0.9,2,2.1,2c1.1,0,2.1-0.8,2.1-2c0-1.2-0.9-2-2.1-2
			C85,37.8,84.1,38.6,84.1,39.8z M90.1,35.7c0,1-1.6,1-1.6,0v-1.5H86v-1.4h2.4v-1.6h-2.4v-1.4h2.4v-1.5h1.6V35.7z"/>
		<path d="M98.2,35.1c-1-0.5-2-1.4-3-2.4c-0.7,1.2-1.7,2.4-3,3.2c-1,0.7-1.7-0.6-0.9-1.2c2.4-1.7,3.5-4.4,3.6-6.4h1.7
			c0,0.8-0.3,1.8-0.6,2.8c1,1.2,2.1,2.1,3,2.6C99.9,34.2,99.3,35.6,98.2,35.1z M95.2,39.8c0-1.9,1.5-3.4,3.6-3.4
			c2.1,0,3.6,1.5,3.6,3.4s-1.5,3.4-3.6,3.4C96.7,43.2,95.2,41.7,95.2,39.8z M96.8,39.8c0,1.2,1,2,2.1,2c1.1,0,2-0.8,2-2
			c0-1.1-0.9-2-2-2C97.7,37.8,96.8,38.6,96.8,39.8z M102.6,35.5c0,1-1.6,1-1.6,0v-7.3h1.6v3.1h2v1.4h-2V35.5z"/>
		<path d="M112.4,34.9c0.1-0.1,0.2-0.2,0.3-0.3c-0.5-0.4-1-0.9-1.5-1.4c-0.7,1.1-1.5,2.1-2.4,2.7c-0.9,0.6-1.7-0.5-0.9-1.1
			c1.6-1.2,2.8-3.6,2.8-4.4c0-0.3-0.2-0.3-0.4-0.3h-2.1v-1.4h2.8c1,0,1.5,0.4,1.4,1.4c0,0.4-0.2,1-0.5,1.7c0.5,0.7,1.1,1.3,1.7,1.7
			c1-1.3,1.5-2.6,1.6-3.1c0-0.3-0.1-0.4-0.4-0.4h-1.9v-1.4h2.6c1,0,1.6,0.4,1.5,1.4c-0.1,0.6-0.4,1.4-0.8,2.4
			c0.5,0.7,1.1,1.2,1.6,1.7c0.8,0.6,0,1.7-0.9,1.1c-0.4-0.3-1-0.8-1.6-1.4c-0.5,0.8-1.2,1.6-1.9,2.2
			C112.5,36.7,111.6,35.6,112.4,34.9z M120.8,42.2c0,1-1.6,1-1.6,0V39H112v-1.4h8.2c0.4,0,0.5,0.1,0.5,0.5V42.2z M120.8,35.9
			c0,1-1.6,1-1.6,0v-7.6h1.6V35.9z"/>
		<path d="M122.1,36.9c3.5-1.5,4.8-4.4,5-6c0-0.4-0.2-0.6-0.6-0.6h-4.5v-1.4h5.3c1.2,0,1.7,0.8,1.5,2c-0.4,2-1.8,5.6-6.1,7.3
			C121.6,38.7,121.3,37.3,122.1,36.9z M133.2,38.9c0,1-1.6,1-1.6,0V28.4h1.6V38.9z"/>
	</g>
	<g>
		<g>
			<g>
				<path class="st0" d="M615.5,55.3c0,7.7-6.3,14-14,14h-403c-7.7,0-14-6.3-14-14v-30c0-7.7,6.3-14,14-14h403c7.7,0,14,6.3,14,14
					V55.3z"/>
				<path class="st1" d="M615.5,54c0,7.7-6.3,14-14,14h-403c-7.7,0-14-6.3-14-14V25.3c0-7.7,6.3-14,14-14h403c7.7,0,14,6.3,14,14V54
					z"/>
				<path class="st2" d="M615.5,52.7c0,7.7-6.3,14-14,14h-403c-7.7,0-14-6.3-14-14V25.3c0-7.7,6.3-14,14-14h403c7.7,0,14,6.3,14,14
					V52.7z"/>
				<path class="st3" d="M615.5,51.3c0,7.7-6.3,14-14,14h-403c-7.7,0-14-6.3-14-14v-26c0-7.7,6.3-14,14-14h403c7.7,0,14,6.3,14,14
					V51.3z"/>
				<path class="st4" d="M615.5,50c0,7.7-6.3,14-14,14h-403c-7.7,0-14-6.3-14-14V25.3c0-7.7,6.3-14,14-14h403c7.7,0,14,6.3,14,14V50
					z"/>
				<path class="st5" d="M615.5,48.7c0,7.7-6.3,14-14,14h-403c-7.7,0-14-6.3-14-14V25.3c0-7.7,6.3-14,14-14h403c7.7,0,14,6.3,14,14
					V48.7z"/>
				<path d="M615.5,47.3c0,7.7-6.3,14-14,14h-403c-7.7,0-14-6.3-14-14v-22c0-7.7,6.3-14,14-14h403c7.7,0,14,6.3,14,14V47.3z"/>
			</g>
			<linearGradient id="SVGID_2_" gradientUnits="userSpaceOnUse" x1="400.0417" y1="61.3296" x2="400.0417" y2="11.3296">
				<stop  offset="0" style="stop-color:#8C8C8C"/>
				<stop  offset="1" style="stop-color:#D9D9D9"/>
			</linearGradient>
			<path class="st9" d="M615.5,47.3c0,7.7-6.3,14-14,14h-403c-7.7,0-14-6.3-14-14v-22c0-7.7,6.3-14,14-14h403c7.7,0,14,6.3,14,14
				V47.3z"/>
			<path class="st7" d="M601.5,11.3h-403c-7.7,0-14,6.3-14,14v2c0-7.7,6.3-14,14-14h403c7.7,0,14,6.3,14,14v-2
				C615.5,17.6,609.2,11.3,601.5,11.3z"/>
			<path class="st8" d="M601.5,59.3h-403c-7.7,0-14-6.3-14-14v2c0,7.7,6.3,14,14,14h403c7.7,0,14-6.3,14-14v-2
				C615.5,53,609.2,59.3,601.5,59.3z"/>
		</g>
	</g>
	<g>
		<path d="M282.1,31.2h-7v-1.4h2.8v-1.7h1.6v1.7h2.6V31.2z M275.5,34.7c0-1.7,1.3-3,3.3-3c1.9,0,3.2,1.3,3.2,3c0,1.7-1.3,3-3.2,3
			C276.8,37.7,275.5,36.4,275.5,34.7z M277,34.7c0,1,0.8,1.7,1.8,1.7c0.9,0,1.7-0.7,1.7-1.7c0-1-0.8-1.7-1.7-1.7
			C277.8,33,277,33.7,277,34.7z M287.9,43.2h-6.7c-1.6,0-2.8-1.1-2.8-2.7v-1.7h1.6v1.6c0,1.1,0.7,1.4,1.4,1.4h6.6V43.2z M284.7,37.8
			c0,1-1.6,1-1.6,0v-9h1.6v4h1.7v-4h1.6v9.2c0,1-1.6,1-1.6,0v-3.8h-1.7V37.8z"/>
		<path d="M301.8,39.9h-13v-1.4h13V39.9z M290.6,29.1h9.2v1.4h-7.6v2.8c0,0.7,0.3,0.9,1,0.9h7v1.4h-7.2c-1.3,0-2.3-0.9-2.3-2.3V29.1
			z"/>
		<path d="M314.2,34.7h-4.6v1.6h5.8v1.4h-13.3v-1.4h5.9v-1.6h-4.6v-1.4h2v-3h-1.8v-1.4H314v1.4h-1.8v3h2V34.7z M313.9,43.2H307
			c-1.6,0-2.8-1.1-2.8-2.7v-2h1.6v1.9c0,1.1,0.7,1.4,1.4,1.4h6.7V43.2z M307,33.3h3.7v-3H307V33.3z"/>
		<path d="M328.8,39.9h-13v-1.4h13V39.9z M318.1,32.5c0-2.2,1.7-3.9,4.1-3.9s4.1,1.7,4.1,3.9c0,2.2-1.7,3.9-4.1,3.9
			S318.1,34.7,318.1,32.5z M319.8,32.5c0,1.5,1.1,2.5,2.5,2.5c1.4,0,2.5-0.9,2.5-2.5c0-1.5-1.1-2.4-2.5-2.4
			C320.9,30.1,319.8,30.9,319.8,32.5z"/>
		<path d="M340.6,36.5h-4.2v2.1h5.7V40h-13v-1.4h5.7v-2.1h-1.4c-1.5,0-2.5-1-2.5-2.4V32h7.8v-1.5h-7.8V29h9.4v4.4h-7.8v0.7
			c0,0.8,0.5,1,1,1h7.1V36.5z"/>
		<path d="M348.9,39.8c0,0.9-1.6,0.9-1.6,0v-9.3h-1.1V29h1.9c0.5,0,0.7,0.2,0.7,0.6V39.8z"/>
		<path d="M351.7,34c-0.6-0.6-1-1.3-1-2.2c0-1.7,1.4-3,3.2-3c1.7,0,3.2,1.3,3.2,3c0,0.9-0.3,1.5-1,2.2c1,0.7,1.6,1.7,1.6,2.9
			c0,2.1-1.7,3.5-3.8,3.5c-2.1,0-3.8-1.5-3.8-3.5C350.1,35.8,350.7,34.7,351.7,34z M353.9,34.8c-1.2,0-2.2,0.9-2.2,2.2
			c0,1.3,0.9,2.1,2.2,2.1c1.2,0,2.2-0.9,2.2-2.1C356.1,35.8,355.1,34.8,353.9,34.8z M353.9,30.2c-0.9,0-1.6,0.8-1.6,1.6
			c0,0.9,0.7,1.6,1.6,1.6c0.9,0,1.6-0.7,1.6-1.6C355.5,31,354.8,30.2,353.9,30.2z"/>
		<path d="M371,40h-13v-1.4h5.7v-2.5h1.6v2.5h5.7V40z M368.3,31.7c-0.3,0.6-0.9,1.1-1.5,1.6c0.9,0.6,2,1.1,2.9,1.5
			c0.9,0.3,0.5,1.7-0.5,1.4c-1.3-0.4-2.6-1.1-3.8-1.9c-1.7,1-3.8,1.8-5.4,2.2c-1,0.2-1.3-1.2-0.4-1.4c3.2-0.8,5.8-2.4,6.5-3.2
			c0.3-0.3,0.4-0.5,0-0.5h-5.8V30h3.3v-1.9h1.6V30h1.9C368.3,30,368.8,30.8,368.3,31.7z"/>
		<path d="M375.3,35c3.3-0.9,4.4-2.7,4.8-4c0.1-0.3,0-0.5-0.4-0.5h-4.3v-1.4h5.1c1.3,0,1.6,0.9,1.4,1.7c-0.5,2.1-2.1,4.5-6.1,5.6
			C374.6,36.7,374.4,35.3,375.3,35z M386.5,43.4h-6.7c-1.2,0-2.2-0.9-2.2-2.3v-1.6h7v-1h-7v-1.4h8.6v3.8h-7V41c0,0.6,0.2,1,0.8,1
			h6.5V43.4z M386.2,35.5c0,1-1.6,1-1.6,0v-6.7h1.6V35.5z"/>
		<path d="M387.6,33.2c0-2.4,1.7-4.2,4-4.2s4,1.8,4,4.2c0,2.4-1.7,4.2-4,4.2S387.6,35.6,387.6,33.2z M389.2,33.2
			c0,1.7,1.1,2.8,2.4,2.8c1.3,0,2.4-1,2.4-2.8c0-1.7-1.1-2.7-2.4-2.7C390.3,30.5,389.2,31.4,389.2,33.2z M399.4,39.4
			c0,1-1.6,1-1.6,0V28.9h1.6V39.4z"/>
		<path d="M410.1,39.6h-9.3v-1.4h9.3V39.6z M401.3,32.5c0-2.1,1.7-3.7,3.9-3.7c2.2,0,3.9,1.6,3.9,3.7c0,2.1-1.7,3.7-3.9,3.7
			C403,36.1,401.3,34.6,401.3,32.5z M402.9,32.5c0,1.4,1.1,2.3,2.3,2.3s2.3-0.9,2.3-2.3s-1.1-2.2-2.3-2.2S402.9,31.1,402.9,32.5z
			 M412.6,39.5c0,1-1.6,1-1.6,0V28.9h1.6V39.5z"/>
		<path d="M417.6,32.5c0-2.1,1.6-3.7,3.7-3.7c2.1,0,3.7,1.5,3.7,3.7c0,2.1-1.6,3.7-3.7,3.7C419.2,36.2,417.6,34.6,417.6,32.5z
			 M419.2,32.5c0,1.4,1,2.3,2.1,2.3c1.1,0,2.1-0.8,2.1-2.3c0-1.4-1-2.3-2.1-2.3C420.2,30.2,419.2,31,419.2,32.5z M421.6,40.3
			c0-1.9,1.5-3.4,3.6-3.4s3.6,1.5,3.6,3.4s-1.5,3.4-3.6,3.4S421.6,42.2,421.6,40.3z M423.1,40.3c0,1.2,0.9,2,2.1,2
			c1.1,0,2.1-0.8,2.1-2c0-1.2-0.9-2-2.1-2C424.1,38.3,423.1,39.1,423.1,40.3z M429.2,36.2c0,1-1.6,1-1.6,0v-1.5h-2.4v-1.4h2.4v-1.6
			h-2.4v-1.4h2.4v-1.5h1.6V36.2z"/>
		<path d="M437.3,35.6c-1-0.5-2-1.4-3-2.4c-0.7,1.2-1.7,2.4-3,3.2c-1,0.7-1.7-0.6-0.9-1.2c2.4-1.7,3.5-4.4,3.6-6.4h1.7
			c0,0.8-0.3,1.8-0.6,2.8c1,1.2,2.1,2.1,3,2.6C439,34.7,438.3,36.1,437.3,35.6z M434.3,40.3c0-1.9,1.5-3.4,3.6-3.4
			c2.1,0,3.6,1.5,3.6,3.4s-1.5,3.4-3.6,3.4C435.8,43.7,434.3,42.2,434.3,40.3z M435.8,40.3c0,1.2,1,2,2.1,2c1.1,0,2-0.8,2-2
			c0-1.1-0.9-2-2-2C436.8,38.3,435.8,39.1,435.8,40.3z M441.7,36c0,1-1.6,1-1.6,0v-7.3h1.6v3.1h2v1.4h-2V36z"/>
		<path d="M456.8,36.8h-13.3v-1.4h13.3V36.8z M455.2,43.5h-7.6c-1.1,0-2.1-0.7-2.1-2v-1.7h7.6v-0.7h-7.6v-1.4h9.2v3.6h-7.6v0.3
			c0,0.4,0.3,0.5,0.7,0.5h7.4V43.5z M446.3,31.4c0-1.9,1.6-3.3,3.8-3.3c2.2,0,3.8,1.4,3.8,3.3s-1.6,3.4-3.8,3.4
			C448,34.8,446.3,33.3,446.3,31.4z M447.9,31.4c0,1.2,1.1,2,2.3,2c1.2,0,2.2-0.8,2.2-2c0-1.2-1.1-1.9-2.2-1.9
			C449,29.5,447.9,30.2,447.9,31.4z"/>
		<path d="M465.1,35.4c0.1-0.1,0.2-0.2,0.3-0.3c-0.5-0.4-1-0.9-1.5-1.4c-0.7,1.1-1.5,2.1-2.4,2.7c-0.9,0.6-1.7-0.5-0.9-1.1
			c1.6-1.2,2.8-3.6,2.8-4.4c0-0.3-0.2-0.3-0.4-0.3H461v-1.4h2.8c1,0,1.5,0.4,1.4,1.4c0,0.4-0.2,1-0.5,1.7c0.5,0.7,1.1,1.3,1.7,1.7
			c1-1.3,1.5-2.6,1.6-3.1c0-0.3-0.1-0.4-0.4-0.4h-1.9v-1.4h2.6c1,0,1.6,0.4,1.5,1.4c-0.1,0.6-0.4,1.4-0.8,2.4
			c0.5,0.7,1.1,1.2,1.6,1.7c0.8,0.6,0,1.7-0.9,1.1c-0.4-0.3-1-0.8-1.6-1.4c-0.5,0.8-1.2,1.6-1.9,2.2
			C465.2,37.2,464.3,36.1,465.1,35.4z M473.5,42.7c0,1-1.6,1-1.6,0v-3.2h-7.2V38h8.2c0.4,0,0.5,0.1,0.5,0.5V42.7z M473.5,36.4
			c0,1-1.6,1-1.6,0v-7.6h1.6V36.4z"/>
		<path d="M487.5,39.9h-13v-1.4h13V39.9z M476.9,32.5c0-2.2,1.7-3.9,4.1-3.9s4.1,1.7,4.1,3.9c0,2.2-1.7,3.9-4.1,3.9
			S476.9,34.7,476.9,32.5z M478.5,32.5c0,1.5,1.1,2.5,2.5,2.5c1.4,0,2.5-0.9,2.5-2.5c0-1.5-1.1-2.4-2.5-2.4
			C479.6,30.1,478.5,30.9,478.5,32.5z"/>
		<path d="M493.5,38c-0.9-0.8-1.7-1.8-2.4-2.9c-0.6,1.3-1.5,2.5-2.5,3.3c-0.9,0.7-1.8-0.4-1-1.1c2.2-2,3.2-5.7,3.3-8.2h1.7
			c0,1.2-0.3,2.8-0.8,4.2c0.8,1.5,1.7,2.8,2.6,3.6C495.2,37.6,494.3,38.8,493.5,38z M497.7,39.2c0,1-1.6,1-1.6,0v-5.4h-2.5v-1.4h2.5
			v-3.5h1.6V39.2z M500.7,39.4c0,1-1.6,1-1.6,0V28.9h1.6V39.4z"/>
		<path d="M514.5,40h-13v-1.4h3.3v-2.4h1.6v2.4h3.1v-2.4h1.6v2.4h3.3V40z M503.9,32.4c0-2.1,1.7-3.8,4.1-3.8c2.4,0,4.1,1.6,4.1,3.8
			c0,2.1-1.7,3.8-4.1,3.8C505.6,36.2,503.9,34.6,503.9,32.4z M505.5,32.4c0,1.5,1.1,2.4,2.5,2.4c1.3,0,2.5-0.9,2.5-2.4
			c0-1.5-1.1-2.4-2.5-2.4C506.7,30,505.5,30.9,505.5,32.4z"/>
	</g>
	<g>
		<g>
			<g>
				<path class="st0" d="M614.2,130.7c0,7.7-6.3,14-14,14h-403c-7.7,0-14-6.3-14-14v-30c0-7.7,6.3-14,14-14h403c7.7,0,14,6.3,14,14
					V130.7z"/>
				<path class="st1" d="M614.2,129.3c0,7.7-6.3,14-14,14h-403c-7.7,0-14-6.3-14-14v-28.7c0-7.7,6.3-14,14-14h403
					c7.7,0,14,6.3,14,14V129.3z"/>
				<path class="st2" d="M614.2,128c0,7.7-6.3,14-14,14h-403c-7.7,0-14-6.3-14-14v-27.3c0-7.7,6.3-14,14-14h403c7.7,0,14,6.3,14,14
					V128z"/>
				<path class="st3" d="M614.2,126.7c0,7.7-6.3,14-14,14h-403c-7.7,0-14-6.3-14-14v-26c0-7.7,6.3-14,14-14h403c7.7,0,14,6.3,14,14
					V126.7z"/>
				<path class="st4" d="M614.2,125.3c0,7.7-6.3,14-14,14h-403c-7.7,0-14-6.3-14-14v-24.7c0-7.7,6.3-14,14-14h403
					c7.7,0,14,6.3,14,14V125.3z"/>
				<path class="st5" d="M614.2,124c0,7.7-6.3,14-14,14h-403c-7.7,0-14-6.3-14-14v-23.3c0-7.7,6.3-14,14-14h403c7.7,0,14,6.3,14,14
					V124z"/>
				<path d="M614.2,122.7c0,7.7-6.3,14-14,14h-403c-7.7,0-14-6.3-14-14v-22c0-7.7,6.3-14,14-14h403c7.7,0,14,6.3,14,14V122.7z"/>
			</g>
			<linearGradient id="SVGID_3_" gradientUnits="userSpaceOnUse" x1="398.708" y1="136.6626" x2="398.708" y2="86.6626">
				<stop  offset="0" style="stop-color:#8C8C8C"/>
				<stop  offset="1" style="stop-color:#D9D9D9"/>
			</linearGradient>
			<path class="st10" d="M614.2,122.7c0,7.7-6.3,14-14,14h-403c-7.7,0-14-6.3-14-14v-22c0-7.7,6.3-14,14-14h403c7.7,0,14,6.3,14,14
				V122.7z"/>
			<path class="st7" d="M600.2,86.7h-403c-7.7,0-14,6.3-14,14v2c0-7.7,6.3-14,14-14h403c7.7,0,14,6.3,14,14v-2
				C614.2,93,607.9,86.7,600.2,86.7z"/>
			<path class="st8" d="M600.2,134.7h-403c-7.7,0-14-6.3-14-14v2c0,7.7,6.3,14,14,14h403c7.7,0,14-6.3,14-14v-2
				C614.2,128.4,607.9,134.7,600.2,134.7z"/>
		</g>
	</g>
	<g>
		<path d="M290.8,117.6c0,1-1.6,1-1.6,0V114h-3.4v3.6c0,1-1.6,1-1.6,0V114H281v-1.4h13v1.4h-3.2V117.6z M283.5,107.9
			c0-2,1.7-3.6,4-3.6c2.3,0,4,1.6,4,3.6s-1.7,3.6-4,3.6C285.2,111.6,283.5,110,283.5,107.9z M285.1,107.9c0,1.4,1.1,2.3,2.4,2.3
			c1.3,0,2.4-0.9,2.4-2.3c0-1.4-1.1-2.2-2.4-2.2C286.2,105.7,285.1,106.5,285.1,107.9z"/>
		<path d="M307.3,114.2h-3.2v3.4c0,1-1.6,1-1.6,0v-3.4h-3.4v3.4c0,1-1.6,1-1.6,0v-3.4h-3.2v-1.4h13V114.2z M305.4,108.7h-7.7v0.4
			c0,0.7,0.3,0.9,1,0.9h7v1.4h-7.3c-1.3,0-2.3-0.9-2.3-2.3v-4.4h9.3v1.4h-7.7v1.1h7.7V108.7z"/>
		<path d="M320.6,115.7h-13v-1.4h13V115.7z M311.1,104.7v2.2h6.1v-2.2h1.6v7.5h-6.9c-1.5,0-2.5-1-2.5-2.5v-4.9H311.1z M312,110.8
			h5.2v-2.4h-6.1v1.3C311.1,110.5,311.5,110.8,312,110.8z"/>
		<path d="M324,115.2c0.6,1.4-0.4,3.1-1.4,3.7c-0.6,0.4-1.2-0.3-0.7-0.7c0.4-0.4,0.6-0.8,0.5-1.2c-0.6,0-1.1-0.4-1.2-0.9
			c-0.2-0.5,0.2-1.4,0.8-1.6C322.9,114.2,323.7,114.6,324,115.2z"/>
		<path d="M341.1,115.7h-13v-1.4h13V115.7z M339.2,109.2h-7.5v0.8c0,0.7,0.3,0.9,1,0.9h6.9v1.4h-7.2c-1.3,0-2.3-0.9-2.3-2.3v-5.2
			h9.1v1.4h-7.5v1.4h7.5V109.2z"/>
		<path d="M347.1,116.5c0,1-1.6,1-1.6,0v-3.1h-3.8v-1.4h9.3v1.4h-3.9V116.5z M342.5,107.7c0-1.8,1.5-3.3,3.5-3.3s3.5,1.5,3.5,3.3
			c0,1.8-1.5,3.3-3.5,3.3S342.5,109.6,342.5,107.7z M344,107.7c0,1.2,0.9,1.9,2,1.9s2-0.7,2-1.9c0-1.2-0.9-1.9-2-1.9
			S344,106.5,344,107.7z M353.5,116.8c0,1-1.6,1-1.6,0v-12.1h1.6V116.8z"/>
		<path d="M362.4,114.8h-4.5c-1.6,0-2.8-1.1-2.8-2.7v-7.1h6.8v1.4h-5.2v2.1h4.3v1.4h-4.3v1.9c0,1.1,0.7,1.4,1.4,1.4h4.4V114.8z
			 M366.3,115.2c0,1-1.6,1-1.6,0V110h-2.6v-1.4h2.6v-3.8h1.6V115.2z"/>
		<path d="M370.4,115.2c0.6,1.4-0.4,3.1-1.4,3.7c-0.6,0.4-1.2-0.3-0.7-0.7c0.4-0.4,0.6-0.8,0.5-1.2c-0.6,0-1.1-0.4-1.2-0.9
			c-0.2-0.5,0.2-1.4,0.8-1.6C369.4,114.2,370.2,114.6,370.4,115.2z"/>
		<path d="M382.4,114.8h-7.7v-1.4h1.4v-5.8h1.6v5.8h1.6v-5.8h1.6v5.8h1.6V114.8z M381.9,106.7h-7.1v-1.4h7.1V106.7z M385.1,115.1
			c0,1-1.6,1-1.6,0v-4.7h-1.9v-1.4h1.9v-4.2h1.6V115.1z M387.9,115.2c0,1-1.6,1-1.6,0v-10.5h1.6V115.2z"/>
		<path d="M388.7,109c0-2.4,1.7-4.2,4-4.2s4,1.8,4,4.2c0,2.4-1.7,4.2-4,4.2S388.7,111.4,388.7,109z M390.3,109
			c0,1.7,1.1,2.8,2.4,2.8s2.4-1,2.4-2.8c0-1.7-1.1-2.7-2.4-2.7S390.3,107.3,390.3,109z M400.5,115.2c0,1-1.6,1-1.6,0v-10.5h1.6
			V115.2z"/>
		<path d="M414.7,115.7h-13v-1.4h13V115.7z M412.8,111.3c-1.7-0.8-3.6-2.3-4.6-3.5c-1,1.5-2.4,2.8-4.4,3.7c-1.1,0.5-1.6-0.8-0.7-1.3
			c2.8-1.3,4.3-3.7,4.7-5.8l1.7,0.3c-0.1,0.5-0.3,1.1-0.6,1.6c1.2,1.6,3,3,4.3,3.6C414.3,110.4,413.8,111.7,412.8,111.3z"/>
		<path d="M428.4,113.1h-5.8v1.5h3.3c0.4,0,0.5,0.1,0.5,0.5v3.4c0,1-1.6,1-1.6,0v-2.5h-7.6v-1.4h3.8v-1.5h-5.9v-1.4h13.3V113.1z
			 M426.5,104.5v6h-7.4c-1.3,0-2.2-0.8-2.2-2.1v-3.9h1.6v1.4h6.4v-1.4H426.5z M419.4,109.1h5.5v-1.7h-6.4v0.9
			C418.5,108.9,418.8,109.1,419.4,109.1z"/>
		<path d="M438.7,115.1c0,1-1.6,1-1.6,0v-5.5h-1.3c-0.3,2-1.9,3.2-3.6,3.2c-1.9,0-3.6-1.5-3.6-3.9c0-2.4,1.7-3.9,3.6-3.9
			c1.7,0,3.2,1.2,3.6,3.2h1.3v-3.4h1.6V115.1z M430.2,108.9c0,1.7,1.1,2.5,2.1,2.5c0.9,0,2.1-0.8,2.1-2.5s-1.1-2.5-2.1-2.5
			C431.4,106.4,430.2,107.2,430.2,108.9z M441.5,115.2c0,1-1.6,1-1.6,0v-10.5h1.6V115.2z"/>
		<path d="M450.3,111.2c0.1-0.1,0.2-0.2,0.3-0.3c-0.5-0.4-1-0.9-1.5-1.4c-0.7,1.1-1.5,2.1-2.4,2.7c-0.9,0.6-1.7-0.5-0.9-1.1
			c1.6-1.2,2.8-3.6,2.8-4.4c0-0.3-0.2-0.3-0.4-0.3h-2.1V105h2.8c1,0,1.5,0.4,1.4,1.4c0,0.4-0.2,1-0.5,1.7c0.5,0.7,1.1,1.3,1.7,1.7
			c1-1.3,1.5-2.6,1.6-3.1c0-0.3-0.1-0.4-0.4-0.4h-1.9V105h2.6c1,0,1.6,0.4,1.5,1.4c-0.1,0.6-0.4,1.4-0.8,2.4
			c0.5,0.7,1.1,1.2,1.6,1.7c0.8,0.6,0,1.7-0.9,1.1c-0.4-0.3-1-0.8-1.6-1.4c-0.5,0.8-1.2,1.6-1.9,2.2
			C450.4,113,449.5,111.9,450.3,111.2z M458.7,118.5c0,1-1.6,1-1.6,0v-3.2h-7.2v-1.4h8.2c0.4,0,0.5,0.1,0.5,0.5V118.5z M458.7,112.2
			c0,1-1.6,1-1.6,0v-7.6h1.6V112.2z"/>
		<path d="M473,113.4h-13.3v-1.4H473V113.4z M471.5,119h-6.8c-1.6,0-2.8-1.1-2.8-2.7v-2h1.6v1.9c0,1.1,0.7,1.4,1.4,1.4h6.7V119z
			 M462.5,107.6c0-2,1.6-3.5,3.9-3.5s3.9,1.5,3.9,3.5c0,2-1.6,3.5-3.9,3.5S462.5,109.6,462.5,107.6z M464,107.6
			c0,1.3,1.1,2.1,2.4,2.1c1.3,0,2.4-0.9,2.4-2.1c0-1.2-1.1-2.1-2.4-2.1C465.1,105.5,464,106.3,464,107.6z"/>
		<path d="M477.2,108.3c0-2.1,1.6-3.7,3.7-3.7s3.7,1.5,3.7,3.7c0,2.1-1.6,3.7-3.7,3.7S477.2,110.5,477.2,108.3z M478.8,108.3
			c0,1.4,1,2.3,2.1,2.3s2.1-0.8,2.1-2.3c0-1.4-1-2.3-2.1-2.3S478.8,106.9,478.8,108.3z M481.2,116.1c0-1.9,1.5-3.4,3.6-3.4
			s3.6,1.5,3.6,3.4s-1.5,3.4-3.6,3.4S481.2,118.1,481.2,116.1z M482.7,116.1c0,1.2,0.9,2,2.1,2c1.1,0,2.1-0.8,2.1-2
			c0-1.2-0.9-2-2.1-2C483.7,114.2,482.7,115,482.7,116.1z M488.8,112c0,1-1.6,1-1.6,0v-1.5h-2.4v-1.4h2.4v-1.6h-2.4V106h2.4v-1.5
			h1.6V112z"/>
		<path d="M496.9,111.4c-1-0.5-2-1.4-3-2.4c-0.7,1.2-1.7,2.4-3,3.2c-1,0.7-1.7-0.6-0.9-1.2c2.4-1.7,3.5-4.4,3.6-6.4h1.7
			c0,0.8-0.3,1.8-0.6,2.8c1,1.2,2.1,2.1,3,2.6C498.6,110.6,497.9,111.9,496.9,111.4z M493.9,116.1c0-1.9,1.5-3.4,3.6-3.4
			c2.1,0,3.6,1.5,3.6,3.4s-1.5,3.4-3.6,3.4C495.4,119.5,493.9,118,493.9,116.1z M495.4,116.1c0,1.2,1,2,2.1,2c1.1,0,2-0.8,2-2
			c0-1.1-0.9-2-2-2C496.4,114.1,495.4,115,495.4,116.1z M501.3,111.8c0,1-1.6,1-1.6,0v-7.3h1.6v3.1h2v1.4h-2V111.8z"/>
		<path d="M516.4,112.6h-13.3v-1.4h13.3V112.6z M514.8,119.4h-7.6c-1.1,0-2.1-0.7-2.1-2v-1.7h7.6V115h-7.6v-1.4h9.2v3.6h-7.6v0.3
			c0,0.4,0.3,0.5,0.7,0.5h7.4V119.4z M505.9,107.3c0-1.9,1.6-3.3,3.8-3.3s3.8,1.4,3.8,3.3s-1.6,3.4-3.8,3.4S505.9,109.2,505.9,107.3
			z M507.5,107.3c0,1.2,1.1,2,2.3,2c1.2,0,2.2-0.8,2.2-2c0-1.2-1.1-1.9-2.2-1.9C508.6,105.3,507.5,106,507.5,107.3z"/>
		<path d="M533.6,112.7h-13.3v-1.4h5.9v-0.7c-1.8-0.3-3-1.6-3-3.3c0-1.9,1.6-3.3,3.8-3.3c2.2,0,3.8,1.4,3.8,3.3c0,1.7-1.2,3-3,3.3
			v0.7h5.8V112.7z M532.1,119.4h-7.6c-1.1,0-2.1-0.7-2.1-2v-1.7h7.6V115h-7.6v-1.4h9.2v3.6H524v0.3c0,0.4,0.3,0.5,0.7,0.5h7.4V119.4
			z M524.7,107.2c0,1.2,1.1,2,2.3,2c1.2,0,2.2-0.7,2.2-2c0-1.2-1.1-1.9-2.2-1.9C525.8,105.3,524.7,106,524.7,107.2z"/>
		<path d="M541.7,115.1h-4.4c-1.6,0-2.8-1.1-2.8-2.7v-3.5h5v-2.4h-5v-1.4h6.6v5.3h-5v1.9c0,1.1,0.7,1.4,1.4,1.4h4.3V115.1z
			 M545.6,115.2c0,1-1.6,1-1.6,0v-2.9h-2.4v-1.4h2.4v-2.2h-2.3v-1.4h2.3v-2.4h1.6V115.2z"/>
		<path d="M554.1,117.6c0,1-1.6,1-1.6,0V114h-5.7v-1.4h13v1.4h-5.7V117.6z M556.8,106.5c-0.3,0.6-0.8,1.1-1.3,1.5
			c0.9,0.6,2,1.1,2.9,1.4c1,0.4,0.6,1.7-0.5,1.4c-1.2-0.4-2.6-1.1-3.8-1.8c-1.7,1-3.7,1.7-5.4,2c-1.1,0.2-1.2-1.2-0.3-1.4
			c3.3-0.7,5.7-2.3,6.3-2.9c0.3-0.4,0.3-0.4-0.2-0.4h-5.5v-1.4h6.6C556.9,104.8,557.4,105.6,556.8,106.5z"/>
		<path d="M565.8,113.9c-0.9-0.8-1.7-1.8-2.4-2.9c-0.6,1.3-1.5,2.5-2.5,3.3c-0.9,0.7-1.8-0.4-1-1.1c2.2-2,3.2-5.7,3.3-8.2h1.7
			c0,1.2-0.3,2.8-0.8,4.2c0.8,1.5,1.7,2.8,2.6,3.6C567.5,113.4,566.6,114.6,565.8,113.9z M570,115.1c0,1-1.6,1-1.6,0v-5.4h-2.5v-1.4
			h2.5v-3.5h1.6V115.1z M573,115.2c0,1-1.6,1-1.6,0v-10.5h1.6V115.2z"/>
		<path d="M586.8,115.9h-13v-1.4h3.3V112h1.6v2.4h3.1V112h1.6v2.4h3.3V115.9z M576.2,108.3c0-2.1,1.7-3.8,4.1-3.8s4.1,1.6,4.1,3.8
			c0,2.1-1.7,3.8-4.1,3.8S576.2,110.4,576.2,108.3z M577.8,108.3c0,1.5,1.1,2.4,2.5,2.4c1.3,0,2.5-0.9,2.5-2.4
			c0-1.5-1.1-2.4-2.5-2.4C579,105.9,577.8,106.7,577.8,108.3z"/>
	</g>
	<path class="st0" d="M614.2,207c0,7.7-6.3,14-14,14h-403c-7.7,0-14-6.3-14-14v-30c0-7.7,6.3-14,14-14h403c7.7,0,14,6.3,14,14V207z"
		/>
	<path class="st1" d="M614.2,205.7c0,7.7-6.3,14-14,14h-403c-7.7,0-14-6.3-14-14V177c0-7.7,6.3-14,14-14h403c7.7,0,14,6.3,14,14
		V205.7z"/>
	<path class="st2" d="M614.2,204.3c0,7.7-6.3,14-14,14h-403c-7.7,0-14-6.3-14-14V177c0-7.7,6.3-14,14-14h403c7.7,0,14,6.3,14,14
		V204.3z"/>
	<path class="st3" d="M614.2,203c0,7.7-6.3,14-14,14h-403c-7.7,0-14-6.3-14-14v-26c0-7.7,6.3-14,14-14h403c7.7,0,14,6.3,14,14V203z"
		/>
	<path class="st4" d="M614.2,201.7c0,7.7-6.3,14-14,14h-403c-7.7,0-14-6.3-14-14V177c0-7.7,6.3-14,14-14h403c7.7,0,14,6.3,14,14
		V201.7z"/>
	<path class="st5" d="M614.2,200.3c0,7.7-6.3,14-14,14h-403c-7.7,0-14-6.3-14-14V177c0-7.7,6.3-14,14-14h403c7.7,0,14,6.3,14,14
		V200.3z"/>
	<path d="M614.2,199c0,7.7-6.3,14-14,14h-403c-7.7,0-14-6.3-14-14v-22c0-7.7,6.3-14,14-14h403c7.7,0,14,6.3,14,14V199z"/>
	<linearGradient id="SVGID_4_" gradientUnits="userSpaceOnUse" x1="398.7082" y1="213.0025" x2="398.7082" y2="163.0025">
		<stop  offset="0" style="stop-color:#8C8C8C"/>
		<stop  offset="1" style="stop-color:#D9D9D9"/>
	</linearGradient>
	<path class="st11" d="M614.2,199c0,7.7-6.3,14-14,14h-403c-7.7,0-14-6.3-14-14v-22c0-7.7,6.3-14,14-14h403c7.7,0,14,6.3,14,14V199z
		"/>
	<path class="st7" d="M600.2,163h-403c-7.7,0-14,6.3-14,14v2c0-7.7,6.3-14,14-14h403c7.7,0,14,6.3,14,14v-2
		C614.2,169.3,607.9,163,600.2,163z"/>
	<path class="st8" d="M600.2,211h-403c-7.7,0-14-6.3-14-14v2c0,7.7,6.3,14,14,14h403c7.7,0,14-6.3,14-14v-2
		C614.2,204.7,607.9,211,600.2,211z"/>
	<g>
		<path d="M280.3,182.7c0-2.1,1.6-3.7,3.7-3.7c1.9,0,3.3,1.2,3.6,2.9h2.5v-3h1.6v6.9c0,1-1.6,1-1.6,0v-2.5h-2.5
			c-0.3,1.8-1.8,3-3.7,3C281.9,186.4,280.3,184.8,280.3,182.7z M281.9,182.7c0,1.4,1,2.3,2.1,2.3s2.1-0.9,2.1-2.3
			c0-1.4-1-2.3-2.1-2.3S281.9,181.2,281.9,182.7z M291.8,187.3v6.2H286c-1.5,0-2.8-1.1-2.8-2.6v-3.6h1.6v1.7h5.4v-1.7H291.8z
			 M286.1,192.1h4.1v-1.6h-5.4v0.3C284.8,191.8,285.5,192.1,286.1,192.1z"/>
		<path d="M304.5,186.7h-4.2v2.1h5.7v1.4h-13v-1.4h5.7v-2.1h-1.4c-1.5,0-2.5-1-2.5-2.4v-2.1h7.8v-1.5h-7.8v-1.4h9.4v4.4h-7.8v0.7
			c0,0.8,0.5,1,1,1h7.1V186.7z"/>
		<path d="M319.3,190.1h-13v-1.4h13V190.1z M308.2,179.3h9.2v1.4h-7.6v2.8c0,0.7,0.3,0.9,1,0.9h7v1.4h-7.2c-1.3,0-2.3-0.9-2.3-2.3
			V179.3z"/>
		<path d="M330.5,192.1c0,1-1.6,1-1.6,0v-3.3h-5.7v-1.4h13v1.4h-5.7V192.1z M334.9,181.1h-2.1c0.4,0.6,0.7,1.2,0.7,2
			c0,1.9-1.6,3.4-3.8,3.4s-3.8-1.5-3.8-3.4c0-0.7,0.3-1.4,0.7-2h-2.1v-1.4h4.4v-1.5h1.6v1.5h4.4V181.1z M327.6,183.1
			c0,1.2,1,2,2.2,2c1.2,0,2.2-0.8,2.2-2c0-1.2-0.9-1.9-2.1-2h-0.2C328.5,181.2,327.6,181.9,327.6,183.1z"/>
		<path d="M347.5,181.9h-7.4v-1.4h3v-2.1h1.6v2.1h2.8V181.9z M340.6,186.1c0-1.8,1.4-3.3,3.3-3.3c1.9,0,3.3,1.5,3.3,3.3
			c0,1.8-1.4,3.3-3.3,3.3C342,189.4,340.6,187.9,340.6,186.1z M342.1,186.1c0,1.1,0.8,1.9,1.8,1.9c0.9,0,1.8-0.8,1.8-1.9
			c0-1.1-0.8-1.9-1.8-1.9C342.9,184.2,342.1,184.9,342.1,186.1z M349.8,189.4c0,1-1.6,1-1.6,0v-10.3h1.6v4.1h1.7v-4.1h1.6v10.5
			c0,1-1.6,1-1.6,0v-5h-1.7V189.4z"/>
		<path d="M353.8,187.5c2.6-2,3.8-5.7,3.8-8.2h1.7c0,1.2-0.3,2.5-0.8,3.9c1,1.6,2.3,3,3.4,3.8c0.8,0.6,0,1.8-0.9,1.2
			c-1.2-0.8-2.4-2-3.2-3.3c-0.7,1.4-1.7,2.7-3,3.7C353.8,189.4,353,188.1,353.8,187.5z M365.8,189.6c0,1-1.6,1-1.6,0v-10.5h1.6
			V189.6z"/>
		<path d="M373.8,189.2h-3.6c-1.6,0-2.8-1.1-2.8-2.7v-7.1h5.8v1.4H369v2.1h4.1v1.4H369v1.9c0,1.1,0.7,1.4,1.4,1.4h3.5V189.2z
			 M376.2,189.4c0,1-1.6,1-1.6,0v-10.3h1.6v4.1h1.8v-4.1h1.6v10.5c0,1-1.6,1-1.6,0v-5h-1.8V189.4z"/>
		<path d="M393.4,190.1h-13v-1.4h13V190.1z M391.4,186.2c0,1-1.6,1-1.6,0v-4.8c0-0.5-0.1-0.6-0.7-0.6h-6.9v-1.4h7.6
			c1.1,0,1.6,0.4,1.6,1.5V186.2z"/>
		<path class="st12" d="M407.7,181.4h1.7v1.7h-2.2l-0.9,2.8h2.6v1.7h-3.1l-0.9,2.9c-0.4,1.2-2.1,0.8-1.7-0.4l0.8-2.5h-1.9l-0.9,2.9
			c-0.4,1.3-2.1,0.8-1.7-0.4l0.8-2.5h-1.3v-1.7h1.8l0.9-2.8h-2.2v-1.7h2.8l0.9-2.8h1.9l-0.9,2.8h1.9l0.9-2.8h1.9L407.7,181.4z
			 M402.5,185.9h1.9l0.9-2.8h-1.9L402.5,185.9z"/>
		<path class="st12" d="M412.2,189.9v-9.1h-1.1v-1.6h2.1c0.7,0,0.9,0.2,0.9,0.8v10C414.1,191,412.2,191,412.2,189.9z"/>
		<path class="st12" d="M420.6,190.8c-2.1,0-3.9-1.5-3.9-3.6c0-1.2,0.6-2.2,1.6-2.9c-0.6-0.6-0.9-1.3-0.9-2.2c0-1.8,1.5-3.1,3.3-3.1
			c1.8,0,3.3,1.3,3.3,3.1c0,0.8-0.3,1.5-1,2.2c1,0.7,1.6,1.7,1.6,2.9C424.5,189.3,422.7,190.8,420.6,190.8z M420.6,185.1
			c-1.2,0-2,0.9-2,2c0,1.2,0.9,2,2,2c1.1,0,2-0.8,2-2C422.6,186.1,421.7,185.1,420.6,185.1z M420.6,180.6c-0.8,0-1.4,0.7-1.4,1.5
			c0,0.8,0.6,1.4,1.4,1.4c0.8,0,1.4-0.7,1.4-1.4C422,181.3,421.3,180.6,420.6,180.6z"/>
		<path class="st12" d="M429.8,190.6c-1.4,0-2.8-0.8-3.6-2.2c-0.6-1.1,1.1-1.9,1.6-0.9c0.4,0.7,1.2,1.3,1.8,1.3
			c1.3,0.1,2.1-0.6,2.1-1.7c0-1-0.8-1.3-2.2-1.8c-1.8-0.6-3.5-1.4-3.3-3.6c0.2-1.9,1.9-2.8,3.5-2.8c1.2,0,2.7,0.5,3.5,1.9L432,182
			c-0.5-0.8-1.2-1.3-2-1.3c-1.1,0-1.7,0.5-1.7,1.2c-0.1,0.8,0.7,1.5,1.9,1.8c2.1,0.6,3.6,1.5,3.6,3.3
			C433.6,189.2,431.9,190.7,429.8,190.6z"/>
		<path d="M448.5,187h-13.3v-1.4h13.3V187z M446.8,184.8h-7.7c-1.1,0-2.1-0.7-2.1-1.9V181h7.9v-0.8h-7.9v-1.4h9.5v3.6h-7.9v0.3
			c0,0.4,0.3,0.5,0.7,0.5h7.5V184.8z M446.9,193.8h-7.6c-1.1,0-2.1-0.7-2.1-2v-1.8h7.6v-0.7h-7.6v-1.4h9.2v3.6h-7.6v0.3
			c0,0.4,0.3,0.5,0.7,0.5h7.4V193.8z"/>
		<path d="M465.7,186.7h-5.8v1.2h3.8v1.4h-7.6v0.7h7.5v1.4h-7.5c0,0.7,0.4,0.8,1,0.8h6.9v1.4h-7.1c-1.5,0-2.4-0.9-2.4-2.3v-3.4h3.8
			v-1.2h-5.9v-1.4h13.3V186.7z M463.8,178.8v5.7h-7.4c-1.3,0-2.2-0.8-2.2-2.1v-3.5h1.6v1.4h6.4v-1.4H463.8z M456.8,183h5.5v-1.4
			h-6.4v0.6C455.9,182.8,456.1,183,456.8,183z"/>
		<path d="M466.2,183.3c0-2.4,1.7-4.1,3.9-4.1s3.9,1.7,3.9,4.1c0,2.4-1.7,4.1-3.9,4.1S466.2,185.7,466.2,183.3z M467.8,183.3
			c0,1.7,1.1,2.6,2.3,2.6s2.3-0.9,2.3-2.6s-1.1-2.6-2.3-2.6S467.8,181.6,467.8,183.3z M478,189.6c0,1-1.6,1-1.6,0v-3.8h-2.3v-1.4
			h2.3v-2.1h-2.4v-1.4h2.4v-1.7h1.6V189.6z"/>
		<path d="M486.5,192c0,1-1.6,1-1.6,0v-3.6h-5.7v-1.4h13v1.4h-5.7V192z M489.2,180.9c-0.3,0.6-0.8,1.1-1.3,1.5
			c0.9,0.6,2,1.1,2.9,1.4c1,0.4,0.6,1.7-0.5,1.4c-1.2-0.4-2.6-1.1-3.8-1.8c-1.6,1-3.7,1.7-5.4,2c-1.1,0.2-1.2-1.2-0.3-1.4
			c3.3-0.7,5.7-2.3,6.3-2.9c0.3-0.4,0.3-0.4-0.2-0.4h-5.5v-1.4h6.6C489.3,179.2,489.7,180,489.2,180.9z"/>
		<path d="M498.1,188.2c-0.9-0.8-1.7-1.8-2.4-2.9c-0.6,1.3-1.5,2.5-2.5,3.3c-0.9,0.7-1.8-0.4-1-1.1c2.2-2,3.2-5.7,3.3-8.2h1.7
			c0,1.2-0.3,2.8-0.8,4.2c0.8,1.5,1.7,2.8,2.6,3.6C499.9,187.8,499,189,498.1,188.2z M502.4,189.4c0,1-1.6,1-1.6,0V184h-2.5v-1.4
			h2.5v-3.5h1.6V189.4z M505.4,189.6c0,1-1.6,1-1.6,0v-10.5h1.6V189.6z"/>
		<path d="M519.2,190.2h-13v-1.4h3.3v-2.4h1.6v2.4h3.1v-2.4h1.6v2.4h3.3V190.2z M508.6,182.6c0-2.1,1.7-3.8,4.1-3.8
			c2.4,0,4.1,1.6,4.1,3.8c0,2.1-1.7,3.8-4.1,3.8C510.3,186.4,508.6,184.7,508.6,182.6z M510.2,182.6c0,1.5,1.1,2.4,2.5,2.4
			c1.3,0,2.5-0.9,2.5-2.4c0-1.5-1.1-2.4-2.5-2.4C511.3,180.2,510.2,181.1,510.2,182.6z"/>
	</g>
	<path class="st0" d="M614.2,269.7c0,7.7-6.3,14-14,14h-403c-7.7,0-14-6.3-14-14v-30c0-7.7,6.3-14,14-14h403c7.7,0,14,6.3,14,14
		V269.7z"/>
	<path class="st1" d="M614.2,268.3c0,7.7-6.3,14-14,14h-403c-7.7,0-14-6.3-14-14v-28.7c0-7.7,6.3-14,14-14h403c7.7,0,14,6.3,14,14
		V268.3z"/>
	<path class="st2" d="M614.2,267c0,7.7-6.3,14-14,14h-403c-7.7,0-14-6.3-14-14v-27.3c0-7.7,6.3-14,14-14h403c7.7,0,14,6.3,14,14V267
		z"/>
	<path class="st3" d="M614.2,265.7c0,7.7-6.3,14-14,14h-403c-7.7,0-14-6.3-14-14v-26c0-7.7,6.3-14,14-14h403c7.7,0,14,6.3,14,14
		V265.7z"/>
	<path class="st4" d="M614.2,264.3c0,7.7-6.3,14-14,14h-403c-7.7,0-14-6.3-14-14v-24.7c0-7.7,6.3-14,14-14h403c7.7,0,14,6.3,14,14
		V264.3z"/>
	<path class="st5" d="M614.2,263c0,7.7-6.3,14-14,14h-403c-7.7,0-14-6.3-14-14v-23.3c0-7.7,6.3-14,14-14h403c7.7,0,14,6.3,14,14V263
		z"/>
	<path d="M614.2,261.7c0,7.7-6.3,14-14,14h-403c-7.7,0-14-6.3-14-14v-22c0-7.7,6.3-14,14-14h403c7.7,0,14,6.3,14,14V261.7z"/>
	<linearGradient id="SVGID_5_" gradientUnits="userSpaceOnUse" x1="398.7085" y1="275.6685" x2="398.7085" y2="225.6685">
		<stop  offset="0" style="stop-color:#8C8C8C"/>
		<stop  offset="1" style="stop-color:#D9D9D9"/>
	</linearGradient>
	<path class="st13" d="M614.2,261.7c0,7.7-6.3,14-14,14h-403c-7.7,0-14-6.3-14-14v-22c0-7.7,6.3-14,14-14h403c7.7,0,14,6.3,14,14
		V261.7z"/>
	<path class="st7" d="M600.2,225.7h-403c-7.7,0-14,6.3-14,14v2c0-7.7,6.3-14,14-14h403c7.7,0,14,6.3,14,14v-2
		C614.2,232,607.9,225.7,600.2,225.7z"/>
	<path class="st8" d="M600.2,273.7h-403c-7.7,0-14-6.3-14-14v2c0,7.7,6.3,14,14,14h403c7.7,0,14-6.3,14-14v-2
		C614.2,267.4,607.9,273.7,600.2,273.7z"/>
	<g>
		<g class="st14">
			<path class="st7" d="M73.9,32.9v9.7c0,0.5-0.4,0.9-0.9,0.9H59.3c-0.5,0-0.9-0.4-0.9-0.9v-9.7h4.7c-0.7,0.7-1.1,1.7-1.1,2.8
				c0,2.3,1.9,4.2,4.2,4.2c2.3,0,4.2-1.9,4.2-4.2c0-1.1-0.4-2.1-1.1-2.8H73.9z"/>
			<path class="st7" d="M72.9,28.1H62.5v3.2H62v-3.2h-0.4v3.2h-0.6v-3.2h-0.5v3.2h-0.6v-3.2h-0.6c-0.5,0-0.9,0.4-0.9,0.9v3.2h5.4
				c0.7-0.4,1.4-0.7,2.3-0.7c0.8,0,1.6,0.2,2.3,0.7h5.4V29C73.9,28.5,73.4,28.1,72.9,28.1z M72.6,31c0,0.2-0.1,0.3-0.3,0.3h-1.7
				c-0.2,0-0.3-0.1-0.3-0.3v-1.7c0-0.2,0.1-0.3,0.3-0.3h1.7c0.2,0,0.3,0.1,0.3,0.3V31z"/>
			<path class="st7" d="M66.1,32.2c-1.9,0-3.5,1.6-3.5,3.5s1.6,3.5,3.5,3.5c1.9,0,3.5-1.6,3.5-3.5S68.1,32.2,66.1,32.2z M66.1,38.5
				c-1.6,0-2.8-1.3-2.8-2.8c0-1.6,1.3-2.8,2.8-2.8c1.6,0,2.8,1.3,2.8,2.8C69,37.3,67.7,38.5,66.1,38.5z"/>
		</g>
		<g>
			<g>
				<path d="M73.4,32.4v9.7c0,0.5-0.4,0.9-0.9,0.9H58.8c-0.5,0-0.9-0.4-0.9-0.9v-9.7h4.7c-0.7,0.7-1.1,1.7-1.1,2.8
					c0,2.3,1.9,4.2,4.2,4.2c2.3,0,4.2-1.9,4.2-4.2c0-1.1-0.4-2.1-1.1-2.8H73.4z"/>
				<path d="M72.4,27.6H62v3.2h-0.6v-3.2H61v3.2h-0.6v-3.2H60v3.2h-0.6v-3.2h-0.6c-0.5,0-0.9,0.4-0.9,0.9v3.2h5.4
					c0.7-0.4,1.4-0.7,2.3-0.7c0.8,0,1.6,0.2,2.3,0.7h5.4v-3.2C73.4,28,72.9,27.6,72.4,27.6z M72.1,30.5c0,0.2-0.1,0.3-0.3,0.3h-1.7
					c-0.2,0-0.3-0.1-0.3-0.3v-1.7c0-0.2,0.1-0.3,0.3-0.3h1.7c0.2,0,0.3,0.1,0.3,0.3V30.5z"/>
				<path d="M65.6,31.7c-1.9,0-3.5,1.6-3.5,3.5s1.6,3.5,3.5,3.5c1.9,0,3.5-1.6,3.5-3.5S67.6,31.7,65.6,31.7z M65.6,38
					c-1.6,0-2.8-1.3-2.8-2.8c0-1.6,1.3-2.8,2.8-2.8c1.6,0,2.8,1.3,2.8,2.8C68.5,36.8,67.2,38,65.6,38z"/>
			</g>
		</g>
	</g>
	<g>
		<g>
			<path class="st0" d="M166,131.1c0,7.7-6.3,14-14,14H16c-7.7,0-14-6.3-14-14v-30c0-7.7,6.3-14,14-14h136c7.7,0,14,6.3,14,14V131.1
				z"/>
			<path class="st1" d="M166,129.8c0,7.7-6.3,14-14,14H16c-7.7,0-14-6.3-14-14v-28.7c0-7.7,6.3-14,14-14h136c7.7,0,14,6.3,14,14
				V129.8z"/>
			<path class="st2" d="M166,128.4c0,7.7-6.3,14-14,14H16c-7.7,0-14-6.3-14-14v-27.3c0-7.7,6.3-14,14-14h136c7.7,0,14,6.3,14,14
				V128.4z"/>
			<path class="st3" d="M166,127.1c0,7.7-6.3,14-14,14H16c-7.7,0-14-6.3-14-14v-26c0-7.7,6.3-14,14-14h136c7.7,0,14,6.3,14,14V127.1
				z"/>
			<path class="st4" d="M166,125.8c0,7.7-6.3,14-14,14H16c-7.7,0-14-6.3-14-14v-24.7c0-7.7,6.3-14,14-14h136c7.7,0,14,6.3,14,14
				V125.8z"/>
			<path class="st5" d="M166,124.4c0,7.7-6.3,14-14,14H16c-7.7,0-14-6.3-14-14v-23.3c0-7.7,6.3-14,14-14h136c7.7,0,14,6.3,14,14
				V124.4z"/>
			<path d="M166,123.1c0,7.7-6.3,14-14,14H16c-7.7,0-14-6.3-14-14v-22c0-7.7,6.3-14,14-14h136c7.7,0,14,6.3,14,14V123.1z"/>
		</g>
		<linearGradient id="SVGID_6_" gradientUnits="userSpaceOnUse" x1="83.9863" y1="137.1119" x2="83.9863" y2="87.1119">
			<stop  offset="0" style="stop-color:#8C8C8C"/>
			<stop  offset="1" style="stop-color:#D9D9D9"/>
		</linearGradient>
		<path class="st15" d="M166,123.1c0,7.7-6.3,14-14,14H16c-7.7,0-14-6.3-14-14v-22c0-7.7,6.3-14,14-14h136c7.7,0,14,6.3,14,14V123.1
			z"/>
		<path class="st7" d="M152,87.1H16c-7.7,0-14,6.3-14,14v2c0-7.7,6.3-14,14-14h136c7.7,0,14,6.3,14,14v-2
			C166,93.4,159.7,87.1,152,87.1z"/>
		<path class="st8" d="M152,135.1H16c-7.7,0-14-6.3-14-14v2c0,7.7,6.3,14,14,14h136c7.7,0,14-6.3,14-14v-2
			C166,128.8,159.7,135.1,152,135.1z"/>
	</g>
	<g>
		<path d="M41.9,113.1v1.4h-6.3c-0.7,0-0.9-0.7-0.5-1.2l4.3-5.1c0.5-0.6,0.8-1.3,0.8-1.9c0-1-0.8-1.7-1.9-1.7s-1.8,0.9-1.8,2.2h-1.6
			c0-2.2,1.5-3.6,3.4-3.6c1.9,0,3.4,1.2,3.4,3.2c0,0.9-0.5,2-1.2,2.9l-3.3,3.9H41.9z"/>
		<path d="M45.2,114.3c0,0.7-0.6,1.3-1.3,1.3s-1.3-0.6-1.3-1.3s0.6-1.3,1.3-1.3S45.2,113.5,45.2,114.3z"/>
		<path d="M94.8,111.2H81.5v-1.4h5.9V109c-1.8-0.3-3-1.6-3-3.3c0-1.9,1.6-3.3,3.8-3.3c2.2,0,3.8,1.4,3.8,3.3c0,1.7-1.2,3-3,3.3v0.7
			h5.8V111.2z M93.2,117.8h-7.6c-1.1,0-2.1-0.7-2.1-2v-1.7h7.6v-0.7h-7.6V112h9.2v3.6h-7.6v0.3c0,0.4,0.3,0.5,0.7,0.5h7.4V117.8z
			 M85.9,105.7c0,1.2,1.1,2,2.3,2c1.2,0,2.2-0.7,2.2-2c0-1.2-1.1-1.9-2.2-1.9C87,103.8,85.9,104.4,85.9,105.7z"/>
		<path d="M103.2,113.5h-4.8c-1.6,0-2.8-1.1-2.8-2.7v-3.5h5.3V105h-5.3v-1.4h6.9v5.3h-5.3v1.9c0,1.1,0.7,1.4,1.4,1.4h4.7V113.5z
			 M106.8,113.7c0,1-1.6,1-1.6,0v-10.5h1.6V113.7z"/>
		<path d="M108.3,111.7c3.5-1.5,4.8-4.4,5-6c0-0.4-0.2-0.6-0.6-0.6h-4.5v-1.4h5.3c1.2,0,1.7,0.8,1.5,2c-0.4,2-1.8,5.6-6.1,7.3
			C107.8,113.5,107.5,112.1,108.3,111.7z M119.4,113.7c0,1-1.6,1-1.6,0v-10.5h1.6V113.7z"/>
	</g>
	<path class="st16" d="M257.1,186.8c0,4.6-2.4,8.5-6.1,10.7c-1.9,1.1-4,1.7-6.3,1.7c-6.9,0-12.4-5.6-12.4-12.4
		c0-6.9,5.6-12.4,12.4-12.4c6.5,0,11.9,5.1,12.4,11.5C257.1,186.2,257.1,186.5,257.1,186.8z"/>
	<g>
		<path class="st7" d="M242.7,185c0,0,2.9-3,3.3-3.4c0.3-0.4,1.1-0.9,1.6-0.6c0.5,0.4,0.4,0.8,0.1,1.3c-0.3,0.5-1.7,2.8-1.7,2.8h4.2
			c0.3,0,0.8,0.2,0.8,0.9c0,0.6-0.5,0.9-0.8,0.9c0,0,0.7,0.2,0.7,1c0,0.8-0.8,0.8-0.9,0.8c0,0,0.6,0.1,0.6,0.9c0,0.8-0.8,0.9-1,0.8
			c0,0,0.6,0.1,0.6,0.8c0,0.6-0.6,0.8-1,0.8h-6.4V185z"/>
		<path class="st7" d="M239.7,184.8v7c0,0-0.1,0.6,0.3,0.7c0.4,0,1.9,0,1.9,0s0.6-0.3,0.6-0.6c0.1-0.4,0-7,0-7s-0.2-0.4-0.5-0.4
			c-0.3,0-1.9,0-1.9,0S239.7,184.5,239.7,184.8z"/>
	</g>
	<path class="st17" d="M243.3,250.3c0,0,0,0.1,0,0.1c0,4.5-2.5,8.5-6.1,10.6c-0.7,0.4-1.4,0.7-2.1,1c-1.3,0.5-2.8,0.7-4.3,0.7
		c-6.9,0-12.5-5.6-12.5-12.5c0-6.9,5.6-12.5,12.5-12.5c6.6,0,12,5.1,12.4,11.5C243.3,249.7,243.3,250,243.3,250.3z"/>
	<g>
		<path class="st18" d="M238.8,246.8c-0.1-0.7-0.6-1.5-1.8-1.8c-0.7-0.2-3.4-0.6-6.2-0.6c-2.8,0-5.5,0.5-6.2,0.6
			c-1.2,0.2-1.6,1-1.8,1.8c-0.1,0.7-0.4,2.1-0.4,3.5c0,1.4,0.3,2.7,0.4,3.5c0.2,0.7,0.6,1.6,1.8,1.8c1.1,0.2,3.4,0.6,6.2,0.6
			c2.8,0,5.1-0.5,6.2-0.6c1.1-0.2,1.6-1,1.8-1.8c0.2-0.7,0.4-2.1,0.4-3.5C239.2,248.9,238.9,247.6,238.8,246.8z"/>
		<path class="st19" d="M222.7,249.4c0.1-0.9,0.2-1.6,0.3-2.2c0-0.1,0-0.2,0.1-0.3c0.1-0.4,0.2-0.7,0.4-1c0.3-0.3,0.6-0.5,1.1-0.6h0
			h0c0.2,0,1-0.2,2.3-0.4c1.4-0.2,2.6-0.3,3.9-0.3c1.2,0,2.5,0.1,3.9,0.3c1.3,0.2,2.1,0.3,2.3,0.4h0h0c0.5,0.1,0.9,0.3,1.1,0.6
			c0.2,0.2,0.4,0.6,0.4,1c0,0.1,0,0.2,0.1,0.3c0.1,0.6,0.3,1.5,0.3,2.4c0,0.7-0.5,1-1.3,0.9c-1.5-0.2-4.2-0.7-6.8-0.7
			c-2.9,0-5.8,0.6-7.2,0.7C223,250.5,222.6,250,222.7,249.4z"/>
		<path class="st7" d="M228.2,247c0-0.6,0.5-0.9,1-0.6l5.6,3.2c0.6,0.3,0.6,0.9,0,1.2l-5.6,3.2c-0.6,0.3-1,0.1-1-0.6V247z"/>
	</g>
	<g>
		<g class="st14">
			<circle class="st20" cx="60.4" cy="115.3" r="2.2"/>
			<path class="st20" d="M68.6,116.9h-2.8c0.1-7.9-7.4-7.1-7.4-7.1v-2.6C68.9,107.2,68.6,116.9,68.6,116.9z"/>
			<path class="st20" d="M74.3,116.9h-3c0-13.9-12.9-12.6-12.9-12.6v-2.8C75.4,101.6,74.3,116.9,74.3,116.9z"/>
		</g>
		<g>
			<g>
				<circle class="st21" cx="59.9" cy="114.8" r="2.2"/>
				<path class="st21" d="M68.1,116.4h-2.8c0.1-7.9-7.4-7.1-7.4-7.1v-2.6C68.4,106.7,68.1,116.4,68.1,116.4z"/>
				<path class="st21" d="M73.8,116.4h-3c0-13.9-12.9-12.6-12.9-12.6v-2.8C74.9,101.1,73.8,116.4,73.8,116.4z"/>
			</g>
		</g>
	</g>
	<g>
		<g>
			<g>
				<path class="st0" d="M166,206.9c0,7.7-6.3,14-14,14H16c-7.7,0-14-6.3-14-14v-30c0-7.7,6.3-14,14-14h136c7.7,0,14,6.3,14,14
					V206.9z"/>
				<path class="st1" d="M166,205.6c0,7.7-6.3,14-14,14H16c-7.7,0-14-6.3-14-14v-28.7c0-7.7,6.3-14,14-14h136c7.7,0,14,6.3,14,14
					V205.6z"/>
				<path class="st2" d="M166,204.2c0,7.7-6.3,14-14,14H16c-7.7,0-14-6.3-14-14v-27.3c0-7.7,6.3-14,14-14h136c7.7,0,14,6.3,14,14
					V204.2z"/>
				<path class="st3" d="M166,202.9c0,7.7-6.3,14-14,14H16c-7.7,0-14-6.3-14-14v-26c0-7.7,6.3-14,14-14h136c7.7,0,14,6.3,14,14
					V202.9z"/>
				<path class="st4" d="M166,201.6c0,7.7-6.3,14-14,14H16c-7.7,0-14-6.3-14-14v-24.7c0-7.7,6.3-14,14-14h136c7.7,0,14,6.3,14,14
					V201.6z"/>
				<path class="st5" d="M166,200.2c0,7.7-6.3,14-14,14H16c-7.7,0-14-6.3-14-14v-23.3c0-7.7,6.3-14,14-14h136c7.7,0,14,6.3,14,14
					V200.2z"/>
				<path d="M166,198.9c0,7.7-6.3,14-14,14H16c-7.7,0-14-6.3-14-14v-22c0-7.7,6.3-14,14-14h136c7.7,0,14,6.3,14,14V198.9z"/>
			</g>
			<linearGradient id="SVGID_7_" gradientUnits="userSpaceOnUse" x1="83.9863" y1="212.8941" x2="83.9863" y2="162.8941">
				<stop  offset="0" style="stop-color:#8C8C8C"/>
				<stop  offset="1" style="stop-color:#D9D9D9"/>
			</linearGradient>
			<path class="st22" d="M166,198.9c0,7.7-6.3,14-14,14H16c-7.7,0-14-6.3-14-14v-22c0-7.7,6.3-14,14-14h136c7.7,0,14,6.3,14,14
				V198.9z"/>
			<path class="st7" d="M152,162.9H16c-7.7,0-14,6.3-14,14v2c0-7.7,6.3-14,14-14h136c7.7,0,14,6.3,14,14v-2
				C166,169.2,159.7,162.9,152,162.9z"/>
			<path class="st8" d="M152,210.9H16c-7.7,0-14-6.3-14-14v2c0,7.7,6.3,14,14,14h136c7.7,0,14-6.3,14-14v-2
				C166,204.6,159.7,210.9,152,210.9z"/>
		</g>
	</g>
	<g>
		<g class="st14">
			<g>
				<path class="st7" d="M39.4,185.9c-1,0-1-1.4,0-1.4c0.9,0,1.5-0.7,1.5-1.6c0-0.9-0.8-1.6-1.6-1.6c-0.8,0-1.5,0.7-1.5,1.6h-1.6
					c0-1.7,1.5-3,3.2-3c1.8,0,3.2,1.2,3.2,3c0,0.8-0.4,1.6-1,2.2c1,0.7,1.6,1.7,1.6,2.9c0,2-1.7,3.5-3.7,3.5c-1.5,0-2.7-0.8-3.6-2.4
					c-0.5-1,1-1.7,1.4-0.7c0.5,1.1,1.4,1.7,2.2,1.7c1.2,0,2.1-0.9,2.1-2.1C41.5,186.9,40.6,185.9,39.4,185.9z"/>
				<path class="st7" d="M46.4,191c0,0.7-0.6,1.3-1.3,1.3s-1.3-0.6-1.3-1.3s0.6-1.3,1.3-1.3S46.4,190.3,46.4,191z"/>
				<path class="st7" d="M92.4,187.4H79.1V186h5.2v-2.9h1.6v2.9h6.5V187.4z M90.5,184.6c0,1-1.6,1-1.6,0V182c0-0.5-0.1-0.6-0.7-0.6
					H81v-1.4h7.9c1.1,0,1.6,0.4,1.6,1.5V184.6z M82.1,191.6c0-1.8,1.5-3.3,3.7-3.3s3.7,1.5,3.7,3.3s-1.5,3.3-3.7,3.3
					S82.1,193.4,82.1,191.6z M83.6,191.6c0,1.1,0.9,1.9,2.1,1.9c1.2,0,2.1-0.8,2.1-1.9c0-1.1-0.9-1.9-2.1-1.9
					C84.6,189.7,83.6,190.5,83.6,191.6z"/>
				<path class="st7" d="M102.5,192.8c0,1-1.6,1-1.6,0v-3.6h-3.4v3.6c0,1-1.6,1-1.6,0v-3.6h-3.2v-1.4h13v1.4h-3.2V192.8z
					 M95.2,183.2c0-2,1.7-3.6,4-3.6c2.3,0,4,1.6,4,3.6c0,2-1.7,3.6-4,3.6C96.9,186.8,95.2,185.2,95.2,183.2z M96.8,183.2
					c0,1.4,1.1,2.3,2.4,2.3c1.3,0,2.4-0.9,2.4-2.3c0-1.4-1.1-2.2-2.4-2.2C97.9,180.9,96.8,181.8,96.8,183.2z"/>
				<path class="st7" d="M114.5,182.8h-8.4v-1.4h3.5v-2.1h1.6v2.1h3.3V182.8z M106.8,187.1c0-1.9,1.5-3.6,3.7-3.6
					c2.1,0,3.7,1.6,3.7,3.6c0,1.9-1.5,3.6-3.7,3.6C108.4,190.7,106.8,189,106.8,187.1z M108.4,187.1c0,1.3,1,2.2,2.1,2.2
					c1.1,0,2.1-0.9,2.1-2.2c0-1.3-1-2.2-2.1-2.2C109.4,184.9,108.4,185.8,108.4,187.1z M117.7,190.4c0,1-1.6,1-1.6,0V180h1.6v4.7
					h2.1v1.4h-2.1V190.4z"/>
				<path class="st7" d="M119.8,188.5c3.5-1.5,4.8-4.5,5-6c0-0.4-0.2-0.6-0.6-0.6h-4.5v-1.4h5.3c1.2,0,1.7,0.8,1.5,2
					c-0.4,2-1.8,5.6-6.1,7.3C119.3,190.2,119,188.8,119.8,188.5z M130.9,190.4c0,1-1.6,1-1.6,0V180h1.6V190.4z"/>
			</g>
			<g>
				<path class="st7" d="M38.9,185.4c-1,0-1-1.4,0-1.4c0.9,0,1.5-0.7,1.5-1.6c0-0.9-0.8-1.6-1.6-1.6c-0.8,0-1.5,0.7-1.5,1.6h-1.6
					c0-1.7,1.5-3,3.2-3c1.8,0,3.2,1.2,3.2,3c0,0.8-0.4,1.6-1,2.2c1,0.7,1.6,1.7,1.6,2.9c0,2-1.7,3.5-3.7,3.5c-1.5,0-2.7-0.8-3.6-2.4
					c-0.5-1,1-1.7,1.4-0.7c0.5,1.1,1.4,1.7,2.2,1.7c1.2,0,2.1-0.9,2.1-2.1C41,186.4,40.1,185.4,38.9,185.4z"/>
				<path class="st7" d="M45.9,190.5c0,0.7-0.6,1.3-1.3,1.3s-1.3-0.6-1.3-1.3s0.6-1.3,1.3-1.3S45.9,189.8,45.9,190.5z"/>
				<path class="st7" d="M91.9,186.9H78.6v-1.4h5.2v-2.9h1.6v2.9h6.5V186.9z M90,184.1c0,1-1.6,1-1.6,0v-2.6c0-0.5-0.1-0.6-0.7-0.6
					h-7.3v-1.4h7.9c1.1,0,1.6,0.4,1.6,1.5V184.1z M81.6,191.1c0-1.8,1.5-3.3,3.7-3.3s3.7,1.5,3.7,3.3s-1.5,3.3-3.7,3.3
					S81.6,192.9,81.6,191.1z M83.1,191.1c0,1.1,0.9,1.9,2.1,1.9c1.2,0,2.1-0.8,2.1-1.9c0-1.1-0.9-1.9-2.1-1.9
					C84.1,189.2,83.1,190,83.1,191.1z"/>
				<path class="st7" d="M102,192.3c0,1-1.6,1-1.6,0v-3.6h-3.4v3.6c0,1-1.6,1-1.6,0v-3.6h-3.2v-1.4h13v1.4H102V192.3z M94.7,182.7
					c0-2,1.7-3.6,4-3.6c2.3,0,4,1.6,4,3.6c0,2-1.7,3.6-4,3.6C96.4,186.3,94.7,184.7,94.7,182.7z M96.3,182.7c0,1.4,1.1,2.3,2.4,2.3
					c1.3,0,2.4-0.9,2.4-2.3c0-1.4-1.1-2.2-2.4-2.2C97.4,180.4,96.3,181.3,96.3,182.7z"/>
				<path class="st7" d="M114,182.3h-8.4v-1.4h3.5v-2.1h1.6v2.1h3.3V182.3z M106.3,186.6c0-1.9,1.5-3.6,3.7-3.6
					c2.1,0,3.7,1.6,3.7,3.6c0,1.9-1.5,3.6-3.7,3.6C107.9,190.2,106.3,188.5,106.3,186.6z M107.9,186.6c0,1.3,1,2.2,2.1,2.2
					c1.1,0,2.1-0.9,2.1-2.2c0-1.3-1-2.2-2.1-2.2C108.9,184.4,107.9,185.3,107.9,186.6z M117.2,189.9c0,1-1.6,1-1.6,0v-10.5h1.6v4.7
					h2.1v1.4h-2.1V189.9z"/>
				<path class="st7" d="M119.3,188c3.5-1.5,4.8-4.5,5-6c0-0.4-0.2-0.6-0.6-0.6h-4.5V180h5.3c1.2,0,1.7,0.8,1.5,2
					c-0.4,2-1.8,5.6-6.1,7.3C118.8,189.7,118.5,188.3,119.3,188z M130.4,189.9c0,1-1.6,1-1.6,0v-10.5h1.6V189.9z"/>
			</g>
		</g>
		<g>
			<g class="st14">
				<g>
					<path class="st23" d="M38.9,185.4c-1,0-1-1.4,0-1.4c0.9,0,1.5-0.7,1.5-1.6c0-0.9-0.8-1.6-1.6-1.6c-0.8,0-1.5,0.7-1.5,1.6h-1.6
						c0-1.7,1.5-3,3.2-3c1.8,0,3.2,1.2,3.2,3c0,0.8-0.4,1.6-1,2.2c1,0.7,1.6,1.7,1.6,2.9c0,2-1.7,3.5-3.7,3.5
						c-1.5,0-2.7-0.8-3.6-2.4c-0.5-1,1-1.7,1.4-0.7c0.5,1.1,1.4,1.7,2.2,1.7c1.2,0,2.1-0.9,2.1-2.1C41,186.4,40.1,185.4,38.9,185.4z
						"/>
					<path class="st23" d="M45.9,190.5c0,0.7-0.6,1.3-1.3,1.3s-1.3-0.6-1.3-1.3s0.6-1.3,1.3-1.3S45.9,189.8,45.9,190.5z"/>
					<path class="st23" d="M91.9,186.9H78.6v-1.4h5.2v-2.9h1.6v2.9h6.5V186.9z M90,184.1c0,1-1.6,1-1.6,0v-2.6
						c0-0.5-0.1-0.6-0.7-0.6h-7.3v-1.4h7.9c1.1,0,1.6,0.4,1.6,1.5V184.1z M81.6,191.1c0-1.8,1.5-3.3,3.7-3.3s3.7,1.5,3.7,3.3
						s-1.5,3.3-3.7,3.3S81.6,192.9,81.6,191.1z M83.1,191.1c0,1.1,0.9,1.9,2.1,1.9c1.2,0,2.1-0.8,2.1-1.9c0-1.1-0.9-1.9-2.1-1.9
						C84.1,189.2,83.1,190,83.1,191.1z"/>
					<path class="st23" d="M102,192.3c0,1-1.6,1-1.6,0v-3.6h-3.4v3.6c0,1-1.6,1-1.6,0v-3.6h-3.2v-1.4h13v1.4H102V192.3z M94.7,182.7
						c0-2,1.7-3.6,4-3.6c2.3,0,4,1.6,4,3.6c0,2-1.7,3.6-4,3.6C96.4,186.3,94.7,184.7,94.7,182.7z M96.3,182.7c0,1.4,1.1,2.3,2.4,2.3
						c1.3,0,2.4-0.9,2.4-2.3c0-1.4-1.1-2.2-2.4-2.2C97.4,180.4,96.3,181.3,96.3,182.7z"/>
					<path class="st23" d="M114,182.3h-8.4v-1.4h3.5v-2.1h1.6v2.1h3.3V182.3z M106.3,186.6c0-1.9,1.5-3.6,3.7-3.6
						c2.1,0,3.7,1.6,3.7,3.6c0,1.9-1.5,3.6-3.7,3.6C107.9,190.2,106.3,188.5,106.3,186.6z M107.9,186.6c0,1.3,1,2.2,2.1,2.2
						c1.1,0,2.1-0.9,2.1-2.2c0-1.3-1-2.2-2.1-2.2C108.9,184.4,107.9,185.3,107.9,186.6z M117.2,189.9c0,1-1.6,1-1.6,0v-10.5h1.6v4.7
						h2.1v1.4h-2.1V189.9z"/>
					<path class="st23" d="M119.3,188c3.5-1.5,4.8-4.5,5-6c0-0.4-0.2-0.6-0.6-0.6h-4.5V180h5.3c1.2,0,1.7,0.8,1.5,2
						c-0.4,2-1.8,5.6-6.1,7.3C118.8,189.7,118.5,188.3,119.3,188z M130.4,189.9c0,1-1.6,1-1.6,0v-10.5h1.6V189.9z"/>
				</g>
			</g>
			<g>
				<g>
					<path d="M38.4,184.9c-1,0-1-1.4,0-1.4c0.9,0,1.5-0.7,1.5-1.6c0-0.9-0.8-1.6-1.6-1.6c-0.8,0-1.5,0.7-1.5,1.6h-1.6
						c0-1.7,1.5-3,3.2-3c1.8,0,3.2,1.2,3.2,3c0,0.8-0.4,1.6-1,2.2c1,0.7,1.6,1.7,1.6,2.9c0,2-1.7,3.5-3.7,3.5
						c-1.5,0-2.7-0.8-3.6-2.4c-0.5-1,1-1.7,1.4-0.7c0.5,1.1,1.4,1.7,2.2,1.7c1.2,0,2.1-0.9,2.1-2.1
						C40.5,185.9,39.6,184.9,38.4,184.9z"/>
					<path d="M45.4,190c0,0.7-0.6,1.3-1.3,1.3s-1.3-0.6-1.3-1.3s0.6-1.3,1.3-1.3S45.4,189.3,45.4,190z"/>
					<path d="M91.4,186.4H78.1V185h5.2v-2.9h1.6v2.9h6.5V186.4z M89.5,183.6c0,1-1.6,1-1.6,0V181c0-0.5-0.1-0.6-0.7-0.6H80v-1.4h7.9
						c1.1,0,1.6,0.4,1.6,1.5V183.6z M81.1,190.6c0-1.8,1.5-3.3,3.7-3.3s3.7,1.5,3.7,3.3s-1.5,3.3-3.7,3.3S81.1,192.4,81.1,190.6z
						 M82.6,190.6c0,1.1,0.9,1.9,2.1,1.9c1.2,0,2.1-0.8,2.1-1.9c0-1.1-0.9-1.9-2.1-1.9C83.6,188.7,82.6,189.5,82.6,190.6z"/>
					<path d="M101.5,191.8c0,1-1.6,1-1.6,0v-3.6h-3.4v3.6c0,1-1.6,1-1.6,0v-3.6h-3.2v-1.4h13v1.4h-3.2V191.8z M94.2,182.2
						c0-2,1.7-3.6,4-3.6c2.3,0,4,1.6,4,3.6c0,2-1.7,3.6-4,3.6C95.9,185.8,94.2,184.2,94.2,182.2z M95.8,182.2c0,1.4,1.1,2.3,2.4,2.3
						c1.3,0,2.4-0.9,2.4-2.3c0-1.4-1.1-2.2-2.4-2.2C96.9,179.9,95.8,180.8,95.8,182.2z"/>
					<path d="M113.5,181.8h-8.4v-1.4h3.5v-2.1h1.6v2.1h3.3V181.8z M105.8,186.1c0-1.9,1.5-3.6,3.7-3.6c2.1,0,3.7,1.6,3.7,3.6
						c0,1.9-1.5,3.6-3.7,3.6C107.4,189.7,105.8,188,105.8,186.1z M107.4,186.1c0,1.3,1,2.2,2.1,2.2c1.1,0,2.1-0.9,2.1-2.2
						c0-1.3-1-2.2-2.1-2.2C108.4,183.9,107.4,184.8,107.4,186.1z M116.7,189.4c0,1-1.6,1-1.6,0V179h1.6v4.7h2.1v1.4h-2.1V189.4z"/>
					<path d="M118.8,187.5c3.5-1.5,4.8-4.5,5-6c0-0.4-0.2-0.6-0.6-0.6h-4.5v-1.4h5.3c1.2,0,1.7,0.8,1.5,2c-0.4,2-1.8,5.6-6.1,7.3
						C118.3,189.2,118,187.8,118.8,187.5z M129.9,189.4c0,1-1.6,1-1.6,0V179h1.6V189.4z"/>
				</g>
			</g>
		</g>
	</g>
	<path class="st24" d="M230.1,186.5c0,3.9-1.8,7.3-4.6,9.6c-2.1,1.7-4.8,2.7-7.7,2.7c-6.8,0-12.3-5.5-12.3-12.3
		c0-6.8,5.5-12.3,12.3-12.3c6,0,11.1,4.3,12.1,10.1C230,185,230.1,185.8,230.1,186.5z"/>
	<path class="st7" d="M211.4,181.8c0,0,1.7,5.6,5.2,6.2c0,0,2.3,0.6,3.1-1.3c0.7-1.9-1.4-3.1-2.5-3.1
		C216.1,183.7,213.2,184.3,211.4,181.8z"/>
	<path class="st7" d="M225.4,182.4l-1.9,0.3c-0.5-1.9-2.3-2.6-4.1-2c-1.3,0.4-2.1,1.7-2.3,2.4c0,0,0,0,0,0c0.8,0,1.9,0.5,2.6,1.4
		c0.2,0.3,0.4,0.7,0.4,1c0.1,0.4,0,0.8-0.2,1.2c-0.4,1.1-1.4,1.7-2.7,1.7c-0.5,0-0.8-0.1-0.9-0.1c-0.4-0.1-0.7-0.2-1.1-0.3
		c-2.3,1.2-5.4,0.1-5.4,0.1c0.6,0.6,1.9,1.2,1.9,1.2c11.1,3.5,11.8-5.3,11.8-5.3l1.7,0.3l-1.6-1L225.4,182.4z M221.3,182.7
		c-0.3,0-0.5-0.2-0.5-0.5c0-0.3,0.2-0.5,0.5-0.5c0.3,0,0.5,0.2,0.5,0.5C221.8,182.4,221.5,182.7,221.3,182.7z"/>
	<path class="st16" d="M245,111c0,4.4-2.4,8.3-5.9,10.4c-1.8,1.1-3.9,1.7-6.2,1.7c-6.7,0-12.1-5.4-12.1-12.1
		c0-6.7,5.4-12.1,12.1-12.1c6.4,0,11.6,4.9,12.1,11.2C245,110.4,245,110.7,245,111z"/>
	<g>
		<path class="st7" d="M230.9,109.2c0,0,2.9-2.9,3.2-3.3c0.3-0.4,1.1-0.9,1.5-0.5c0.5,0.4,0.4,0.8,0.1,1.3c-0.3,0.4-1.7,2.7-1.7,2.7
			h4.1c0.2,0,0.8,0.2,0.8,0.8c0,0.6-0.5,0.8-0.8,0.9c0,0,0.6,0.2,0.6,0.9c0,0.7-0.8,0.8-0.8,0.8c0,0,0.6,0.1,0.6,0.9
			c0,0.8-0.8,0.8-1,0.8c0,0,0.5,0.1,0.5,0.7c0,0.6-0.6,0.7-1,0.7h-6.2V109.2z"/>
		<path class="st7" d="M228.1,109v6.8c0,0-0.1,0.6,0.3,0.7c0.4,0,1.8,0,1.8,0s0.6-0.2,0.6-0.6c0.1-0.4,0-6.9,0-6.9s-0.2-0.4-0.5-0.4
			c-0.3,0-1.9,0-1.9,0S228.1,108.8,228.1,109z"/>
	</g>
	<path class="st17" d="M271.9,111.6c0,0,0,0.1,0,0.1c0,4.5-2.5,8.5-6.1,10.6c-0.7,0.4-1.4,0.7-2.1,1c-1.3,0.5-2.8,0.8-4.3,0.8
		c-6.9,0-12.5-5.6-12.5-12.5c0-6.9,5.6-12.5,12.5-12.5c6.6,0,12,5.1,12.4,11.5C271.9,111,271.9,111.3,271.9,111.6z"/>
	<g>
		<path class="st18" d="M267.4,108.1c-0.1-0.7-0.6-1.5-1.8-1.8c-0.7-0.2-3.4-0.6-6.2-0.6c-2.8,0-5.5,0.5-6.2,0.6
			c-1.2,0.2-1.6,1-1.8,1.8c-0.1,0.7-0.4,2.1-0.4,3.5c0,1.4,0.3,2.7,0.4,3.5c0.2,0.7,0.6,1.6,1.8,1.8c1.1,0.2,3.4,0.6,6.2,0.6
			c2.8,0,5.1-0.5,6.2-0.6c1.1-0.2,1.6-1,1.8-1.8c0.2-0.7,0.4-2.1,0.4-3.5C267.8,110.2,267.5,108.9,267.4,108.1z"/>
		<path class="st19" d="M251.3,110.7c0.1-0.9,0.2-1.6,0.3-2.2c0-0.1,0-0.2,0.1-0.3c0.1-0.4,0.2-0.7,0.4-1c0.3-0.3,0.6-0.5,1.1-0.6h0
			l0,0c0.2,0,1-0.2,2.3-0.4c1.4-0.2,2.6-0.3,3.9-0.3c1.2,0,2.5,0.1,3.9,0.3c1.3,0.2,2.1,0.3,2.3,0.4l0,0h0c0.5,0.1,0.9,0.3,1.1,0.6
			c0.2,0.2,0.4,0.6,0.4,1c0,0.1,0,0.2,0.1,0.3c0.1,0.6,0.3,1.4,0.3,2.4c0,0.7-0.5,1-1.3,0.9c-1.5-0.2-4.2-0.7-6.8-0.7
			c-2.9,0-5.8,0.6-7.2,0.7C251.6,111.8,251.2,111.3,251.3,110.7z"/>
		<path class="st7" d="M256.8,108.3c0-0.6,0.5-0.9,1-0.6l5.6,3.2c0.6,0.3,0.6,0.9,0,1.2l-5.6,3.2c-0.6,0.3-1,0.1-1-0.6V108.3z"/>
	</g>
	<path class="st24" d="M218.7,110.7c0,3.8-1.7,7.2-4.5,9.4c-2.1,1.7-4.7,2.7-7.5,2.7c-6.6,0-12-5.4-12-12c0-6.6,5.4-12,12-12
		c5.9,0,10.8,4.2,11.8,9.8C218.6,109.3,218.7,110,218.7,110.7z"/>
	<path class="st7" d="M200.5,106.1c0,0,1.7,5.5,5,6.1c0,0,2.3,0.6,3-1.3c0.7-1.9-1.4-3.1-2.4-3C205.1,108,202.2,108.6,200.5,106.1z"
		/>
	<path class="st7" d="M214.1,106.8l-1.8,0.3c-0.5-1.9-2.2-2.5-3.9-2c-1.3,0.4-2.1,1.6-2.2,2.3c0,0,0,0,0,0c0.8,0,1.9,0.5,2.5,1.4
		c0.2,0.3,0.4,0.7,0.4,1c0.1,0.4,0,0.8-0.1,1.2c-0.4,1.1-1.3,1.6-2.6,1.6c-0.5,0-0.8-0.1-0.9-0.1c-0.4-0.1-0.7-0.2-1-0.3
		c-2.2,1.2-5.2,0.1-5.2,0.1c0.5,0.5,1.8,1.2,1.8,1.2c10.8,3.4,11.5-5.1,11.5-5.1l1.6,0.2l-1.6-1L214.1,106.8z M210.1,107
		c-0.3,0-0.5-0.2-0.5-0.5c0-0.3,0.2-0.5,0.5-0.5c0.3,0,0.5,0.2,0.5,0.5C210.6,106.8,210.3,107,210.1,107z"/>
	<g>
		<g>
			<g class="st14">
				<path class="st7" d="M70.2,191.5c-0.4,0-0.8,0.1-1.2,0.4l-6.2-4.2c0-0.2,0.1-0.3,0.1-0.5s0-0.3-0.1-0.5l6-4.1
					c0.3,0.2,0.7,0.4,1.2,0.4c1.1,0,2-0.9,2-2c0-1.1-0.9-2-2-2c-1.1,0-2,0.9-2,2c0,0.2,0,0.3,0.1,0.5l-6,4.1
					c-0.3-0.2-0.7-0.4-1.2-0.4c-1.1,0-2,0.9-2,2c0,1.1,0.9,2,2,2c0.4,0,0.8-0.1,1.2-0.4l6.2,4.2c0,0.2-0.1,0.3-0.1,0.5
					c0,1.1,0.9,2,2,2c1.1,0,2-0.9,2-2C72.2,192.4,71.3,191.5,70.2,191.5z"/>
			</g>
			<g>
				<path class="st25" d="M69.7,191c-0.4,0-0.8,0.1-1.2,0.4l-6.2-4.2c0-0.2,0.1-0.3,0.1-0.5s0-0.3-0.1-0.5l6-4.1
					c0.3,0.2,0.7,0.4,1.2,0.4c1.1,0,2-0.9,2-2c0-1.1-0.9-2-2-2c-1.1,0-2,0.9-2,2c0,0.2,0,0.3,0.1,0.5l-6,4.1
					c-0.3-0.2-0.7-0.4-1.2-0.4c-1.1,0-2,0.9-2,2c0,1.1,0.9,2,2,2c0.4,0,0.8-0.1,1.2-0.4l6.2,4.2c0,0.2-0.1,0.3-0.1,0.5
					c0,1.1,0.9,2,2,2c1.1,0,2-0.9,2-2C71.7,191.9,70.8,191,69.7,191z"/>
			</g>
		</g>
	</g>
	<g>
		<path d="M290.3,247.6c0,1-1.6,1-1.6,0V244h-3.4v3.6c0,1-1.6,1-1.6,0V244h-3.2v-1.4h13v1.4h-3.2V247.6z M283,237.9
			c0-2,1.7-3.6,4-3.6c2.3,0,4,1.6,4,3.6c0,2-1.7,3.6-4,3.6C284.7,241.6,283,240,283,237.9z M284.6,237.9c0,1.4,1.1,2.3,2.4,2.3
			c1.3,0,2.4-0.9,2.4-2.3c0-1.4-1.1-2.2-2.4-2.2C285.7,235.7,284.6,236.5,284.6,237.9z"/>
		<path d="M306.8,244.2h-3.2v3.4c0,1-1.6,1-1.6,0v-3.4h-3.4v3.4c0,1-1.6,1-1.6,0v-3.4h-3.2v-1.4h13V244.2z M304.9,238.7h-7.7v0.4
			c0,0.7,0.3,0.9,1,0.9h7v1.4h-7.3c-1.3,0-2.3-0.9-2.3-2.3v-4.4h9.3v1.4h-7.7v1.1h7.7V238.7z"/>
		<path d="M320.1,245.7h-13v-1.4h13V245.7z M310.6,234.7v2.2h6.1v-2.2h1.6v7.5h-6.9c-1.5,0-2.5-1-2.5-2.5v-4.9H310.6z M311.5,240.8
			h5.2v-2.4h-6.1v1.3C310.6,240.5,311,240.8,311.5,240.8z"/>
		<path d="M330.1,237.9c-0.2,0.7-0.5,1.6-1.2,2.7c0.6,0.9,1.2,1.6,1.9,2.2c0.7,0.6,0,1.8-0.9,1.1c-0.7-0.6-1.3-1.2-1.9-2
			c-0.8,1-1.8,1.9-3.1,2.6c-1.1,0.6-1.6-0.8-0.8-1.2c2.6-1.4,4.1-3.9,4.3-4.9c0.1-0.4,0-0.6-0.5-0.6h-3.5v-1.4h2v-2.2h1.6v2.2h0.7
			C330,236.3,330.3,237.1,330.1,237.9z M333.4,245.1c0,1-1.6,1-1.6,0v-10.3h1.6v4.1h1.7v-4.1h1.6v10.5c0,1-1.6,1-1.6,0v-5h-1.7
			V245.1z"/>
		<path d="M345.6,241.5h-5.3c-1.2,0-2.1-0.7-2.1-2v-4.6h1.6v4.3c0,0.6,0.3,0.9,0.8,0.9h5V241.5z M349.5,249.3h-6.7
			c-1.2,0-2.2-0.9-2.2-2.3v-1.6h7v-1h-7v-1.4h8.6v3.8h-7v0.1c0,0.6,0.2,1,0.8,1h6.5V249.3z M349.2,241.3c0,1-1.6,1-1.6,0v-3h-3.8
			v-1.4h3.8v-2.3h1.6V241.3z"/>
		<path d="M360.4,245.1c0,1-1.6,1-1.6,0v-5.5h-1.3c-0.3,2-1.9,3.2-3.6,3.2c-1.9,0-3.6-1.5-3.6-3.9c0-2.4,1.7-3.9,3.6-3.9
			c1.7,0,3.2,1.2,3.6,3.2h1.3v-3.4h1.6V245.1z M351.9,238.9c0,1.7,1.1,2.5,2.1,2.5s2.1-0.8,2.1-2.5s-1.1-2.5-2.1-2.5
			C353,236.4,351.9,237.2,351.9,238.9z M363.2,245.2c0,1-1.6,1-1.6,0v-10.5h1.6V245.2z"/>
		<path d="M367.9,238.3c0-2.1,1.6-3.7,3.7-3.7c1.9,0,3.3,1.2,3.6,2.9h2.5v-3h1.6v6.9c0,1-1.6,1-1.6,0V239h-2.5c-0.3,1.8-1.8,3-3.7,3
			C369.5,242,367.9,240.5,367.9,238.3z M369.5,238.3c0,1.4,1,2.3,2.1,2.3s2.1-0.9,2.1-2.3c0-1.4-1-2.3-2.1-2.3
			S369.5,236.9,369.5,238.3z M379.4,243v6.2h-5.8c-1.5,0-2.8-1.1-2.8-2.6V243h1.6v1.7h5.4V243H379.4z M373.7,247.8h4.1v-1.6h-5.4
			v0.3C372.4,247.5,373,247.8,373.7,247.8z"/>
		<path d="M392.1,242.3h-4.2v2.1h5.7v1.4h-13v-1.4h5.7v-2.1h-1.4c-1.5,0-2.5-1-2.5-2.4v-2.1h7.8v-1.5h-7.8v-1.4h9.4v4.4H384v0.7
			c0,0.8,0.5,1,1,1h7.1V242.3z"/>
		<path d="M406.9,245.7h-13v-1.4h13V245.7z M395.7,235h9.2v1.4h-7.6v2.8c0,0.7,0.3,0.9,1,0.9h7v1.4H398c-1.3,0-2.3-0.9-2.3-2.3V235z
			"/>
		<path d="M418.1,247.8c0,1-1.6,1-1.6,0v-3.3h-5.7V243h13v1.4h-5.7V247.8z M422.5,236.8h-2.1c0.4,0.6,0.7,1.2,0.7,2
			c0,1.9-1.6,3.4-3.8,3.4s-3.8-1.5-3.8-3.4c0-0.7,0.3-1.4,0.7-2h-2.1v-1.4h4.4v-1.5h1.6v1.5h4.4V236.8z M415.1,238.8
			c0,1.2,1,2,2.2,2c1.2,0,2.2-0.8,2.2-2c0-1.2-0.9-1.9-2.1-2h-0.2C416.1,236.8,415.1,237.6,415.1,238.8z"/>
		<path d="M440.7,243.1H435v4.5c0,1-1.6,1-1.6,0v-4.5h-5.7v-1.4h9.4v-4.8c0-0.5-0.1-0.6-0.7-0.6h-6.9v-1.4h7.6
			c1.1,0,1.6,0.4,1.6,1.5v5.3h2V243.1z"/>
		<path d="M454.3,241.6H441v-1.4h9.8v-3.4c0-0.5-0.1-0.6-0.7-0.6h-7.3v-1.4h7.9c1.1,0,1.6,0.4,1.6,1.5v4h1.9V241.6z M452.6,249.4
			h-7.3c-1.2,0-2.2-0.9-2.2-2.3v-1.7h7.6v-1h-7.6v-1.4h9.2v3.9h-7.6v0.2c0,0.6,0.2,1,0.8,1h7.1V249.4z"/>
		<path d="M471.6,242.5h-13.3V241h13.3V242.5z M470.3,240h-10.8v-1.4h2.1v-2.5h-1.9v-1.4h10.4v1.4h-1.9v2.5h2.1V240z M470,249.4
			h-7.6c-1.1,0-2.1-0.7-2.1-2v-1.7h7.6v-0.8h-7.6v-1.4h9.2v3.7h-7.6v0.3c0,0.4,0.3,0.5,0.7,0.5h7.4V249.4z M463.2,238.5h3.4v-2.5
			h-3.4V238.5z"/>
		<path d="M479.8,245.1h-4.6c-1.6,0-2.8-1.1-2.8-2.7v-3.5h5.1v-2.4h-5.1v-1.4h6.7v5.3h-5.1v1.9c0,1.1,0.7,1.4,1.4,1.4h4.5V245.1z
			 M483.6,245.2c0,1-1.6,1-1.6,0v-5.2h-2.3v-1.4h2.3v-3.9h1.6V245.2z"/>
		<path d="M497.7,245.7h-13v-1.4h13V245.7z M495.8,241.3c-1.7-0.8-3.6-2.3-4.6-3.5c-1,1.5-2.4,2.8-4.4,3.7c-1.1,0.5-1.6-0.8-0.7-1.3
			c2.8-1.3,4.3-3.7,4.7-5.8l1.7,0.3c-0.1,0.5-0.3,1.1-0.6,1.6c1.2,1.6,3,3,4.3,3.6C497.4,240.4,496.8,241.8,495.8,241.3z"/>
		<path d="M501.7,243.2c2.9-1.5,4-4.5,4.2-6c0-0.3-0.1-0.5-0.5-0.5h-3.6v-1.4h4.3c1,0,1.6,0.6,1.5,1.7c0,0,0,0.1,0,0.2h1.7v-2.3h1.6
			v10.3c0,1-1.6,1-1.6,0v-3.3h-2.5v-1.4h2.5v-1.8h-2c-0.6,2-2,4.6-4.9,6C501.3,245,500.9,243.6,501.7,243.2z M514,245.2
			c0,1-1.6,1-1.6,0v-10.5h1.6V245.2z"/>
		<path d="M521.8,236.7c-0.2,0.7-0.6,1.5-1.2,2.2c0.6,0.7,1.2,1.1,2,1.6c0.9,0.5,0.1,1.7-0.8,1.2c-0.7-0.4-1.5-1-2.2-1.7
			c-1.1,1-2.5,1.9-4,2.4c-1.1,0.4-1.3-1-0.5-1.3c3.1-1.3,4.5-3.2,4.8-4.2c0.1-0.4,0-0.6-0.4-0.6h-4V235h4.8
			C521.7,235,522.1,235.8,521.8,236.7z M519.2,246.1c0-1.9,1.5-3.4,3.6-3.4c2.1,0,3.6,1.5,3.6,3.4s-1.5,3.4-3.6,3.4
			C520.7,249.5,519.2,248,519.2,246.1z M520.7,246.1c0,1.2,1,2,2.1,2c1.1,0,2-0.8,2-2c0-1.1-0.9-2-2-2
			C521.7,244.1,520.7,245,520.7,246.1z M526.6,242c0,1-1.6,1-1.6,0v-3.2h-2.6v-1.4h2.6v-2.8h1.6V242z"/>
		<path d="M537.8,245.1c0,1-1.6,1-1.6,0v-5.5H535c-0.3,2-1.9,3.2-3.6,3.2c-1.9,0-3.6-1.5-3.6-3.9c0-2.4,1.7-3.9,3.6-3.9
			c1.7,0,3.2,1.2,3.6,3.2h1.3v-3.4h1.6V245.1z M529.3,238.9c0,1.7,1.1,2.5,2.1,2.5s2.1-0.8,2.1-2.5s-1.1-2.5-2.1-2.5
			C530.5,236.4,529.3,237.2,529.3,238.9z M540.6,245.2c0,1-1.6,1-1.6,0v-10.5h1.6V245.2z"/>
		<path d="M558.3,242.2H545v-1.4h5.2v-2.9h1.6v2.9h6.5V242.2z M556.5,239.4c0,1-1.6,1-1.6,0v-2.6c0-0.5-0.1-0.6-0.7-0.6h-7.3v-1.4
			h7.9c1.1,0,1.6,0.4,1.6,1.5V239.4z M548,246.4c0-1.8,1.5-3.3,3.7-3.3s3.7,1.5,3.7,3.3s-1.5,3.3-3.7,3.3S548,248.1,548,246.4z
			 M549.6,246.4c0,1.1,0.9,1.9,2.1,1.9c1.2,0,2.1-0.8,2.1-1.9c0-1.1-0.9-1.9-2.1-1.9C550.5,244.5,549.6,245.3,549.6,246.4z"/>
		<path d="M568.5,247.6c0,1-1.6,1-1.6,0V244h-3.4v3.6c0,1-1.6,1-1.6,0V244h-3.2v-1.4h13v1.4h-3.2V247.6z M561.2,237.9
			c0-2,1.7-3.6,4-3.6c2.3,0,4,1.6,4,3.6c0,2-1.7,3.6-4,3.6C562.9,241.6,561.2,240,561.2,237.9z M562.8,237.9c0,1.4,1.1,2.3,2.4,2.3
			c1.3,0,2.4-0.9,2.4-2.3c0-1.4-1.1-2.2-2.4-2.2C563.9,235.7,562.8,236.5,562.8,237.9z"/>
		<path d="M580.5,237.6h-8.4v-1.4h3.5v-2.1h1.6v2.1h3.3V237.6z M572.8,241.9c0-1.9,1.5-3.6,3.7-3.6c2.1,0,3.7,1.6,3.7,3.6
			c0,1.9-1.5,3.6-3.7,3.6C574.3,245.5,572.8,243.8,572.8,241.9z M574.4,241.9c0,1.3,1,2.2,2.1,2.2c1.1,0,2.1-0.9,2.1-2.2
			c0-1.3-1-2.2-2.1-2.2C575.3,239.7,574.4,240.6,574.4,241.9z M583.7,245.2c0,1-1.6,1-1.6,0v-10.5h1.6v4.7h2.1v1.4h-2.1V245.2z"/>
		<path d="M598.5,245.9h-13v-1.4h4.9v-4.7h1.6v4.7h6.5V245.9z M596.7,242c0,1-1.6,1-1.6,0v-5c0-0.5-0.1-0.6-0.7-0.6h-7.1V235h7.7
			c1.1,0,1.6,0.4,1.6,1.5V242z"/>
		<path class="st12" d="M289.2,256.3h1.7v1.7h-2.2l-0.9,2.8h2.6v1.7h-3.1l-0.9,2.9c-0.4,1.2-2.1,0.8-1.7-0.4l0.8-2.5h-1.9l-0.9,2.9
			c-0.4,1.3-2.1,0.8-1.7-0.4l0.8-2.5h-1.3v-1.7h1.8l0.9-2.8h-2.2v-1.7h2.8l0.9-2.8h1.9l-0.9,2.8h1.9l0.9-2.8h1.9L289.2,256.3z
			 M284,260.8h1.9l0.9-2.8h-1.9L284,260.8z"/>
		<path class="st12" d="M293.8,264.8v-9.1h-1.1V254h2.1c0.7,0,0.9,0.2,0.9,0.8v10C295.7,265.9,293.8,265.9,293.8,264.8z"/>
		<path class="st12" d="M302.1,265.6c-2.1,0-3.9-1.5-3.9-3.6c0-1.2,0.6-2.2,1.6-2.9c-0.6-0.6-0.9-1.3-0.9-2.2c0-1.8,1.5-3.1,3.3-3.1
			c1.8,0,3.3,1.3,3.3,3.1c0,0.8-0.3,1.5-1,2.2c1,0.7,1.6,1.7,1.6,2.9C306.1,264.1,304.3,265.6,302.1,265.6z M302.1,260
			c-1.2,0-2,0.9-2,2c0,1.2,0.9,2,2,2c1.1,0,2-0.8,2-2C304.2,260.9,303.2,260,302.1,260z M302.1,255.4c-0.8,0-1.4,0.7-1.4,1.5
			c0,0.8,0.6,1.4,1.4,1.4c0.8,0,1.4-0.7,1.4-1.4C303.6,256.1,302.9,255.4,302.1,255.4z"/>
		<path class="st12" d="M311.4,265.5c-1.4,0-2.8-0.8-3.6-2.2c-0.6-1.1,1.1-1.9,1.6-0.9c0.4,0.7,1.2,1.3,1.8,1.3
			c1.3,0.1,2.1-0.6,2.1-1.7c0-1-0.8-1.3-2.2-1.8c-1.8-0.6-3.5-1.4-3.3-3.6c0.2-1.9,1.9-2.8,3.5-2.8c1.2,0,2.7,0.5,3.5,1.9l-1.3,1.1
			c-0.5-0.8-1.2-1.3-2-1.3c-1.1,0-1.7,0.5-1.7,1.2c-0.1,0.8,0.7,1.5,1.9,1.8c2.1,0.6,3.6,1.5,3.6,3.3
			C315.2,264.1,313.5,265.6,311.4,265.5z"/>
		<path d="M329.3,256.8h-7.4v-1.4h3v-2.1h1.6v2.1h2.8V256.8z M322.4,261c0-1.8,1.4-3.3,3.3-3.3c1.9,0,3.3,1.5,3.3,3.3
			c0,1.8-1.4,3.3-3.3,3.3C323.7,264.3,322.4,262.7,322.4,261z M323.9,261c0,1.1,0.8,1.9,1.8,1.9c0.9,0,1.8-0.8,1.8-1.9
			c0-1.1-0.8-1.9-1.8-1.9C324.7,259,323.9,259.8,323.9,261z M331.6,264.3c0,1-1.6,1-1.6,0v-10.3h1.6v4.1h1.7v-4.1h1.6v10.5
			c0,1-1.6,1-1.6,0v-5h-1.7V264.3z"/>
		<path d="M335.6,262.4c2.6-2,3.8-5.7,3.8-8.2h1.7c0,1.2-0.3,2.5-0.8,3.9c1,1.6,2.3,3,3.4,3.8c0.8,0.6,0,1.8-0.9,1.2
			c-1.2-0.8-2.4-2-3.2-3.3c-0.7,1.4-1.7,2.7-3,3.7C335.6,264.3,334.8,263,335.6,262.4z M347.5,264.4c0,1-1.6,1-1.6,0v-10.5h1.6
			V264.4z"/>
		<path d="M355.6,264H352c-1.6,0-2.8-1.1-2.8-2.7v-7.1h5.8v1.4h-4.2v2.1h4.1v1.4h-4.1v1.9c0,1.1,0.7,1.4,1.4,1.4h3.5V264z
			 M358,264.3c0,1-1.6,1-1.6,0v-10.3h1.6v4.1h1.8v-4.1h1.6v10.5c0,1-1.6,1-1.6,0v-5H358V264.3z"/>
		<path d="M375.2,264.9h-13v-1.4h13V264.9z M373.2,261.1c0,1-1.6,1-1.6,0v-4.8c0-0.5-0.1-0.6-0.7-0.6h-6.9v-1.4h7.6
			c1.1,0,1.6,0.4,1.6,1.5V261.1z"/>
		<path d="M388.9,261.9h-13.3v-1.4h13.3V261.9z M387.2,259.6h-7.7c-1.1,0-2.1-0.7-2.1-1.9v-1.8h7.9v-0.8h-7.9v-1.4h9.5v3.6H379v0.3
			c0,0.4,0.3,0.5,0.7,0.5h7.5V259.6z M387.3,268.7h-7.6c-1.1,0-2.1-0.7-2.1-2v-1.8h7.6v-0.7h-7.6v-1.4h9.2v3.6h-7.6v0.3
			c0,0.4,0.3,0.5,0.7,0.5h7.4V268.7z"/>
		<path d="M409.6,261.6h-5.8v1.2h3.8v1.4H400v0.7h7.5v1.4H400c0,0.7,0.4,0.8,1,0.8h6.9v1.4h-7.1c-1.5,0-2.4-0.9-2.4-2.3v-3.4h3.8
			v-1.2h-5.9v-1.4h13.3V261.6z M407.8,253.6v5.7h-7.4c-1.3,0-2.2-0.8-2.2-2.1v-3.5h1.6v1.4h6.4v-1.4H407.8z M400.7,257.8h5.5v-1.4
			h-6.4v0.6C399.8,257.7,400.1,257.8,400.7,257.8z"/>
		<path d="M410.2,258.2c0-2.4,1.7-4.1,3.9-4.1s3.9,1.7,3.9,4.1c0,2.4-1.7,4.1-3.9,4.1S410.2,260.5,410.2,258.2z M411.7,258.2
			c0,1.7,1.1,2.6,2.3,2.6s2.3-0.9,2.3-2.6s-1.1-2.6-2.3-2.6S411.7,256.5,411.7,258.2z M422,264.4c0,1-1.6,1-1.6,0v-3.8H418v-1.4h2.3
			v-2.1H418v-1.4h2.4v-1.7h1.6V264.4z"/>
		<path d="M430.5,266.8c0,1-1.6,1-1.6,0v-3.6h-5.7v-1.4h13v1.4h-5.7V266.8z M433.2,255.7c-0.3,0.6-0.8,1.1-1.3,1.5
			c0.9,0.6,2,1.1,2.9,1.4c1,0.4,0.6,1.7-0.5,1.4c-1.2-0.4-2.6-1.1-3.8-1.8c-1.6,1-3.7,1.7-5.4,2c-1.1,0.2-1.2-1.2-0.3-1.4
			c3.3-0.7,5.7-2.3,6.3-2.9c0.3-0.4,0.3-0.4-0.2-0.4h-5.5V254h6.6C433.2,254,433.7,254.8,433.2,255.7z"/>
		<path d="M442.1,263.1c-0.9-0.8-1.7-1.8-2.4-2.9c-0.6,1.3-1.5,2.5-2.5,3.3c-0.9,0.7-1.8-0.4-1-1.1c2.2-2,3.2-5.7,3.3-8.2h1.7
			c0,1.2-0.3,2.8-0.8,4.2c0.8,1.5,1.7,2.8,2.6,3.6C443.8,262.6,442.9,263.8,442.1,263.1z M446.3,264.3c0,1-1.6,1-1.6,0v-5.4h-2.5
			v-1.4h2.5v-3.5h1.6V264.3z M449.3,264.4c0,1-1.6,1-1.6,0v-10.5h1.6V264.4z"/>
		<path d="M463.1,265.1h-13v-1.4h3.3v-2.4h1.6v2.4h3.1v-2.4h1.6v2.4h3.3V265.1z M452.5,257.5c0-2.1,1.7-3.8,4.1-3.8
			c2.4,0,4.1,1.6,4.1,3.8c0,2.1-1.7,3.8-4.1,3.8C454.2,261.3,452.5,259.6,452.5,257.5z M454.1,257.5c0,1.5,1.1,2.4,2.5,2.4
			c1.3,0,2.5-0.9,2.5-2.4c0-1.5-1.1-2.4-2.5-2.4C455.3,255.1,454.1,255.9,454.1,257.5z"/>
	</g>
</g>
</svg>
